<svg width="15" height="15" viewBox="0 0 15 15" fill="none" xmlns="http://www.w3.org/2000/svg">
<g id="arrowhead-right-outline">
<path id="Path" d="M14.78 7.37007L9.99999 1.37007C9.83332 1.16259 9.59082 1.03011 9.32618 1.00195C9.06153 0.973799 8.79659 1.0523 8.58999 1.22007C8.38251 1.38674 8.25003 1.62924 8.22188 1.89389C8.19372 2.15853 8.27222 2.42347 8.43999 2.63007L12.71 8.00007L8.22999 13.3701C8.05993 13.5742 7.97807 13.8375 8.00246 14.102C8.02685 14.3666 8.15549 14.6105 8.35999 14.7801C8.54127 14.9256 8.76757 15.0033 8.99999 15.0001C9.29743 15.0006 9.57964 14.8686 9.76999 14.6401L14.77 8.64007C15.0762 8.27346 15.0804 7.74145 14.78 7.37007Z" fill="#EFBA8D"/>
<path id="Path_2" d="M2.99999 1.37004C2.65205 0.925455 2.00958 0.847104 1.56499 1.19504C1.1204 1.54298 1.04205 2.18545 1.38999 2.63004L5.70999 8.00004L1.22999 13.36C1.05993 13.5641 0.978067 13.8275 1.00246 14.092C1.02685 14.3565 1.15549 14.6005 1.35999 14.77C1.53991 14.9191 1.76634 15.0005 1.99999 15C2.29743 15.0005 2.57964 14.8686 2.76999 14.64L7.76999 8.64004C8.07331 8.27104 8.07331 7.73905 7.76999 7.37004L2.99999 1.37004Z" fill="#EFBA8D"/>
</g>
</svg>
