<svg width="345" height="294" viewBox="0 0 345 294" fill="none" xmlns="http://www.w3.org/2000/svg">
<g id="Group 5">
<path id="Fill 1" fill-rule="evenodd" clip-rule="evenodd" d="M144.438 105.087C129.544 95.6393 118.332 80.9645 113.245 64.0152C111.04 56.6582 111.925 48.5953 115.678 41.8938L116.937 39.6432L126.087 70.1334C127.28 74.108 131.476 76.3649 135.462 75.1765C139.445 73.9856 141.707 69.7991 140.514 65.8223L131.364 35.3343L133.657 36.5229C140.485 40.0649 145.666 46.3163 147.874 53.6712C152.961 70.625 151.676 89.0317 144.438 105.087ZM140.606 23.1897L125.346 15.2733L122.37 5.35972C121.179 1.38511 116.981 -0.874228 112.998 0.31881C109.014 1.50748 106.75 5.69404 107.943 9.67083L110.917 19.5822L102.53 34.5651C96.8034 44.7955 95.45 57.1017 98.8181 68.3242C105.67 91.1599 121.757 110.563 142.951 121.563L144.079 122.15C147.69 124.025 152.142 122.697 154.128 119.153L154.752 118.038C166.4 97.2278 169.153 72.1961 162.301 49.3623C158.933 38.1377 151.025 28.5977 140.606 23.1897Z" fill="#F0EBE3"/>
<path id="Fill 2" fill-rule="evenodd" clip-rule="evenodd" d="M229.874 69.3275C227.666 76.6818 222.485 82.9333 215.657 86.4753L213.364 87.664L222.513 57.1742C223.707 53.2017 221.445 49.0151 217.462 47.8242C213.476 46.6334 209.28 48.8905 208.087 52.8652L198.937 83.355L197.678 81.1066C193.925 74.4035 193.04 66.3384 195.245 58.9834C200.332 42.0338 211.545 27.3588 226.438 17.9106C233.673 33.9665 234.961 52.3757 229.874 69.3275ZM236.752 4.95966L236.128 3.84745C234.142 0.303265 229.692 -1.02526 226.079 0.849533L224.951 1.43513C203.757 12.4326 187.67 31.8382 180.818 54.6744C177.45 65.8992 178.803 78.2027 184.53 88.4353L192.917 103.416L189.943 113.328C188.752 117.305 191.012 121.493 194.998 122.682C198.983 123.873 203.179 121.616 204.371 117.639L207.344 107.727L222.605 99.8086C233.025 94.4006 240.933 84.8606 244.301 73.6387C251.153 50.8025 248.4 25.7703 236.752 4.95966Z" fill="#F0EBE3"/>
<path id="Fill 3" fill-rule="evenodd" clip-rule="evenodd" d="M225.025 173.73C222.521 180.671 219.222 186.463 215.122 191.112C211.022 195.762 206.775 198.066 202.379 198.024C200.289 198.007 198.496 197.251 196.999 195.762C195.506 194.273 194.556 192.284 194.16 189.797C193.234 183.998 194.357 178.284 197.529 172.664C200.698 167.042 205.183 162.443 210.98 158.869C216.776 155.301 222.952 153.269 229.504 152.78C229.02 159.808 227.529 166.791 225.025 173.73ZM343.952 153.568C343.203 148.865 341.651 145.118 339.293 142.33C336.936 139.542 334.442 138.092 331.82 137.987C329.677 137.902 327.904 138.644 326.503 140.216C325.102 141.791 324.537 143.437 324.813 145.162C324.925 145.876 325.251 146.924 325.792 148.304C326.33 149.684 326.731 151.21 326.995 152.874C328.679 163.463 328.035 175.337 325.065 188.494C322.097 201.655 317.421 214.291 311.035 226.424C303.275 241.287 295.307 252.867 287.136 261.169C278.962 269.472 271.338 273.544 264.265 273.374C260.408 273.28 257.061 272.053 254.226 269.686C251.392 267.317 249.645 264.062 248.984 259.909C248.132 254.571 248.375 248.795 249.708 242.586C251.044 236.376 252.891 230.367 255.251 224.568C257.613 218.765 259.964 212.92 262.31 207.033C264.657 201.147 266.474 194.955 267.761 188.454C269.048 181.952 269.232 175.821 268.317 170.066C267.277 163.535 264.688 157.823 260.546 152.939C256.402 148.055 251.192 144.511 244.912 142.319C244.884 142.14 244.855 141.963 244.827 141.786C243.901 135.974 242.091 131.402 239.396 128.07C236.701 124.74 233.825 123.05 230.771 123.002C228.895 122.969 227.374 123.585 226.212 124.836C225.047 126.09 224.603 127.576 224.876 129.297C224.99 130.007 225.487 130.961 226.376 132.155C227.299 133.587 228.144 136.203 228.908 140C222.16 140.249 215.485 141.832 208.885 144.747C202.29 147.66 196.605 151.369 191.833 155.858C187.061 160.352 183.394 165.55 180.829 171.454C178.263 177.354 177.442 183.206 178.368 189.005C179.531 196.28 182.376 201.92 186.899 205.937C191.421 209.952 197.167 211.987 204.137 212.055C209.014 212.101 213.852 210.485 218.652 207.208C223.451 203.931 227.65 199.664 231.248 194.4C234.845 189.138 237.881 183.206 240.357 176.599C242.83 169.994 244.4 163.415 245.068 156.867C248.603 159.95 250.796 164.166 251.648 169.505C252.48 174.723 252.213 180.424 250.847 186.603C249.481 192.784 247.592 198.775 245.177 204.581C242.763 210.387 240.35 216.21 237.94 222.051C235.532 227.891 233.669 234.053 232.349 240.536C231.03 247.018 230.819 253.075 231.719 258.706C233.098 267.361 236.738 274.352 242.638 279.695C248.539 285.038 255.483 287.798 263.468 287.988C274.937 288.261 285.945 283.929 296.49 274.981C307.038 266.031 316.76 253.046 325.662 236.009C332.877 222.099 338.214 207.955 341.677 193.557C345.136 179.162 345.895 165.832 343.952 153.568Z" fill="#F0EBE3"/>
<path id="Fill 4" fill-rule="evenodd" clip-rule="evenodd" d="M121.562 279.992C115.915 280.716 110.609 279.841 105.638 277.358C100.668 274.878 97.5311 271.302 96.2288 266.621C96.0383 266.112 96.1062 265.69 96.4301 265.351C96.7563 265.009 97.2115 264.979 97.8025 265.254C108.469 270.989 121.021 273.789 135.47 273.699C131.258 277.247 126.625 279.342 121.562 279.992ZM116.41 222.466C111.831 223.061 109.338 222.116 108.933 219.623C108.462 216.724 111.292 214.867 117.416 214.074C123.011 213.35 127.923 213.82 132.162 215.48C127.038 219.439 121.79 221.768 116.41 222.466ZM46.4992 181.843C43.9908 189.201 40.701 195.535 36.6364 200.847C32.5674 206.165 28.4131 209.144 24.1602 209.791C22.0874 210.108 20.3101 209.64 18.8283 208.387C17.3465 207.134 16.4075 205.294 16.0135 202.868C15.092 197.204 16.1952 191.305 19.312 185.169C22.4267 179.034 26.859 173.708 32.609 169.203C38.3568 164.697 44.5073 161.668 51.0606 160.121C50.5287 167.247 49.0075 174.487 46.4992 181.843ZM193.547 235.86C190.511 233.675 186.23 234.837 184.722 238.26L184.142 239.576C179.983 248.118 172.706 253.898 162.269 256.934C164.408 249.338 164.856 241.705 163.618 234.032C162.348 226.186 158.905 219.515 153.289 214.032C159.903 206.543 164.795 197.984 167.962 188.348C171.13 178.706 171.972 169.297 170.486 160.111C169.02 151.042 165.539 144.31 160.05 139.929C154.558 135.548 147.442 133.888 138.702 134.973C122.291 137.011 105.903 153.033 89.5463 183.037C89.5879 178.59 89.345 174.743 88.8197 171.497C87.8062 165.242 85.2935 159.986 81.2902 155.743C77.2847 151.497 72.3117 148.695 66.3801 147.346C66.3779 147.344 66.3757 147.342 66.3735 147.337C65.4914 141.322 63.6572 136.801 60.8752 133.783C58.2005 130.881 55.3485 129.647 52.317 130.087C50.4565 130.358 48.9484 131.215 47.7949 132.657C46.6414 134.1 46.1993 135.662 46.4707 137.337C46.5845 138.033 47.0792 138.908 47.9591 139.964C48.874 141.25 49.7123 143.735 50.4718 147.414C43.7719 148.748 37.1552 151.401 30.6128 155.377C24.0705 159.354 18.4365 163.98 13.7087 169.242C8.97869 174.505 5.34309 180.303 2.80189 186.626C0.260689 192.952 -0.553545 198.942 0.365752 204.603C1.51706 211.705 4.33405 216.899 8.81672 220.2C13.2994 223.496 18.9684 224.618 25.8237 223.577C30.661 222.842 35.4566 220.449 40.2173 216.396C44.9757 212.343 49.1432 207.396 52.711 201.547C56.2809 195.697 59.308 189.266 61.7901 182.25C64.2722 175.231 65.8438 168.389 66.5048 161.72C70.1142 164.17 72.3905 168.324 73.3383 174.172C74.4939 181.296 73.3842 194.273 70.0135 213.107C68.7855 219.972 67.1658 227.367 65.1587 235.294C63.1494 243.22 61.5297 249.257 60.2974 253.402C56.9397 262.234 54.5474 269.301 53.1203 274.605C51.6932 279.902 51.1985 283.914 51.6407 286.634C52.0434 289.123 53.0349 291.035 54.613 292.378C56.1912 293.717 58.0954 294.228 60.3302 293.907C62.5102 293.596 64.3007 292.304 65.7015 290.031C67.1024 287.759 68.4266 283.903 69.6633 278.454C73.0384 263.349 76.7375 248.557 80.7583 234.084C82.8048 226.573 84.917 220.123 87.0905 214.734C89.2662 209.343 92.1488 203.293 95.7407 196.591C100.007 188.673 104.496 181.383 109.208 174.721C113.923 168.061 119.047 162.258 124.583 157.317C130.116 152.374 135.15 149.627 139.679 149.067C143.194 148.63 146.182 149.522 148.633 151.742C151.085 153.96 152.691 157.425 153.451 162.129C154.626 169.391 154.088 176.978 151.835 184.892C149.583 192.803 146.083 199.892 141.336 206.165C133.445 202.755 124.707 201.663 115.12 202.912C108.622 203.756 103.493 205.917 99.7287 209.382C95.9661 212.847 94.4558 216.873 95.1956 221.451C95.9092 225.856 98.3125 229.203 102.412 231.501C106.51 233.798 111.968 234.5 118.784 233.618C127.203 232.534 135.281 229.207 143.023 223.634C145.442 226.832 147.046 230.869 147.836 235.747C149.237 244.404 148.322 252.538 145.1 260.158C145.048 260.165 144.993 260.171 144.941 260.178C136.945 261.158 128.59 260.845 119.874 259.244C111.161 257.641 104.544 255.32 100.022 252.251C96.2244 249.622 92.4859 248.555 88.8153 249.056C86.0464 249.434 84.0503 250.701 82.8202 252.855C81.59 255.007 81.3033 258.113 81.9621 262.168C83.7613 273.292 88.5592 281.571 96.3513 287.037C104.146 292.503 113.262 294.557 123.705 293.222C130.044 292.411 136.052 290.06 141.725 286.16C147.399 282.26 152.146 277.337 155.963 271.368C166.645 269.2 175.29 265.729 181.903 260.922C183.827 259.522 185.56 257.945 187.211 256.293C191.685 251.807 194.272 246.355 195.64 242.639C196.553 240.167 195.686 237.402 193.547 235.86Z" fill="#F0EBE3"/>
</g>
</svg>
