<svg width="110" height="83" viewBox="0 0 110 83" fill="none" xmlns="http://www.w3.org/2000/svg">
<g id="Group">
<path id="Fill 4" fill-rule="evenodd" clip-rule="evenodd" d="M7.99835 81.138C7.06725 80.5338 6.36629 79.5947 6.0483 78.5099C5.91034 78.0392 5.96569 77.5236 6.20039 77.0941L6.27912 76.9506L6.85108 78.9013C6.9257 79.1561 7.18796 79.3002 7.43715 79.224C7.68619 79.1477 7.82767 78.8799 7.75312 78.6259L7.18109 76.6745L7.32436 76.7508C7.75125 76.9773 8.07514 77.3771 8.21311 77.8478C8.53117 78.9325 8.45079 80.1104 7.99835 81.138ZM7.7588 75.8979L6.80476 75.3906L6.61884 74.7567C6.54422 74.5019 6.28188 74.3577 6.03277 74.434C5.78365 74.5103 5.64225 74.778 5.7168 75.0328L5.90279 75.6668L5.37842 76.6257C5.02032 77.2802 4.93576 78.0675 5.14633 78.7861C5.57472 80.247 6.58037 81.4889 7.9055 82.1922L7.97594 82.2296C8.20175 82.3501 8.47993 82.2647 8.60415 82.0381L8.64314 81.9664C9.37144 80.6352 9.54347 79.0332 9.11515 77.5724C8.90451 76.8538 8.41023 76.2435 7.7588 75.8979Z" fill="#1F1E1B"/>
<path id="Fill 5" fill-rule="evenodd" clip-rule="evenodd" d="M103.115 78.8499C102.977 79.3206 102.653 79.7204 102.227 79.9477L102.083 80.0232L102.655 78.0725C102.729 77.8177 102.588 77.5499 102.339 77.4737C102.09 77.3981 101.828 77.5423 101.753 77.7964L101.181 79.7478L101.102 79.6037C100.868 79.1749 100.813 78.6584 100.95 78.1877C101.268 77.1037 101.969 76.1645 102.901 75.5596C103.353 76.5872 103.433 77.7651 103.115 78.8499ZM103.506 74.6601C103.382 74.4328 103.104 74.3481 102.878 74.4679L102.808 74.5052C101.483 75.2094 100.476 76.4514 100.048 77.9123C99.8378 78.631 99.9222 79.4183 100.28 80.0728L100.804 81.0318L100.619 81.6657C100.544 81.9198 100.686 82.1883 100.935 82.2639C101.184 82.3401 101.446 82.196 101.521 81.9412L101.707 81.3072L102.661 80.8006C103.312 80.4543 103.807 79.844 104.017 79.1261C104.445 77.6644 104.273 76.0631 103.545 74.7311L103.506 74.6601Z" fill="#1F1E1B"/>
<path id="Fill 6" fill-rule="evenodd" clip-rule="evenodd" d="M54.0901 53.7687C54.0903 53.4448 54.337 53.1807 54.6406 53.1804C54.944 53.1803 55.191 53.4449 55.191 53.7687C55.191 54.1331 55.191 54.4975 55.191 54.8618C54.8241 54.8609 54.4571 54.8609 54.0901 54.8618C54.0901 54.4975 54.0901 54.1331 54.0901 53.7687ZM53.6464 55.8105C54.3092 55.808 54.972 55.808 55.6348 55.8105C55.8798 55.8119 56.0788 55.6002 56.0785 55.3389C56.0784 54.8165 56.0784 54.2943 56.0784 53.772C56.0785 52.9253 55.4332 52.2325 54.6406 52.2329C53.8476 52.2324 53.2029 52.9256 53.2028 53.772C53.2027 54.2943 53.2027 54.8165 53.2026 55.3389C53.2028 55.5999 53.4014 55.8117 53.6464 55.8105Z" fill="#1F1E1B"/>
<path id="Fill 7" fill-rule="evenodd" clip-rule="evenodd" d="M54.0901 45.1821C54.0899 44.8576 54.3373 44.5939 54.6405 44.594C54.944 44.5945 55.1907 44.8576 55.191 45.1821C55.191 45.5466 55.191 45.911 55.191 46.2754C54.824 46.2751 54.4571 46.2751 54.0901 46.2754C54.0901 45.911 54.0901 45.5466 54.0901 45.1821ZM53.6463 47.2241C54.3091 47.222 54.972 47.222 55.6347 47.2241C55.8798 47.2248 56.0787 47.0138 56.0785 46.752C56.0785 46.2295 56.0785 45.7072 56.0783 45.1847C56.0782 44.3376 55.4333 43.6467 54.6405 43.6465C53.8479 43.6461 53.2029 44.3383 53.2028 45.1847C53.2027 45.7072 53.2027 46.2295 53.2026 46.752C53.2026 47.0134 53.4013 47.2257 53.6463 47.2241Z" fill="#1F1E1B"/>
<path id="Fill 8" fill-rule="evenodd" clip-rule="evenodd" d="M73.2193 59.5532C73.2201 59.9297 73.2201 60.3062 73.2201 60.6826C73.0567 60.671 72.8925 60.6596 72.7284 60.6482C72.7284 60.272 72.7284 59.896 72.7277 59.5198C72.8918 59.5308 73.0559 59.5419 73.2193 59.5532ZM72.313 61.4389C72.7546 61.469 73.1961 61.5005 73.6369 61.5332C73.8664 61.5507 74.0523 61.3806 74.0523 61.1537C74.0523 60.5029 74.0516 59.8522 74.0509 59.2015C74.0509 58.9748 73.8649 58.7773 73.6347 58.7616C73.1939 58.731 72.7524 58.7016 72.3116 58.6733C72.0814 58.6581 71.8954 58.8303 71.8954 59.0561C71.8962 59.7046 71.8962 60.3531 71.8969 61.0016C71.8969 61.2279 72.0835 61.4232 72.313 61.4389Z" fill="#1F1E1B"/>
<path id="Fill 9" fill-rule="evenodd" clip-rule="evenodd" d="M21.4141 67.803C21.6178 67.7741 21.816 67.7859 22.0021 67.8385C22.1164 67.8706 22.2452 67.8519 22.3591 67.7872C22.4729 67.7227 22.561 67.6168 22.6033 67.496C22.9401 66.5279 23.8313 65.7937 24.8212 65.6724C25.508 65.5877 26.1604 65.8052 26.6104 66.2646C26.6908 66.346 26.8057 66.3887 26.9286 66.3804C27.0516 66.3746 27.1724 66.3165 27.2623 66.2237C27.6791 65.7958 28.2207 65.5273 28.7873 65.4668C29.5479 65.3859 30.2494 65.6872 30.6632 66.2694C30.7519 66.3947 30.8937 66.4588 31.057 66.4306C31.0867 66.4274 31.1264 66.4227 31.1758 66.4068C31.1765 66.4063 31.1774 66.4061 31.1782 66.406C32.6908 65.9228 33.4663 66.6343 33.8307 67.212C29.2477 67.6003 24.6702 68.1197 20.1015 68.7651C20.3589 68.2652 20.8513 67.8819 21.4141 67.803ZM21.1604 60.2772C21.1614 56.9768 22.2854 53.6427 22.9383 53.5821C23.591 53.5199 24.7141 56.604 24.7125 59.8655C24.7115 61.9004 24.2036 63.3774 23.3862 63.8559C23.3866 62.9101 23.387 61.9643 23.3874 61.0185C23.3876 60.7728 23.1852 60.5963 22.9357 60.6258C22.686 60.6553 22.484 60.8786 22.4838 61.1254C22.4835 62.0746 22.4832 63.0241 22.4829 63.9733C21.6658 63.6997 21.16 62.3334 21.1604 60.2772ZM26.8919 56.7878C26.8942 52.4951 28.3522 48.0336 29.3984 47.9682C30.4449 47.8998 31.8975 52.1189 31.8942 56.3563C31.8918 59.2221 31.1001 61.2465 29.8413 61.7419C29.8422 60.4387 29.8432 59.1357 29.8442 57.8325C29.8443 57.5902 29.6415 57.4113 29.3916 57.4332C29.1415 57.455 28.9388 57.6699 28.9384 57.913C28.9375 59.2188 28.9366 60.5246 28.9356 61.8305C27.6777 61.579 26.8902 59.6876 26.8919 56.7878ZM35.4403 58.8809C35.7327 58.8605 36.0254 58.8427 36.3179 58.8232C35.4607 59.7517 34.6035 60.686 33.7468 61.6299C33.4554 61.6528 33.1639 61.6744 32.8726 61.6983C33.7282 60.7515 34.5841 59.8123 35.4403 58.8809ZM35.1955 55.6186C35.3732 55.6071 35.8972 56.2781 36.2559 57.9596C35.9189 57.9817 35.5819 58.0022 35.2449 58.0255C35.1196 58.0341 35 58.0921 34.9142 58.1856C34.5895 58.5395 34.2649 58.8969 33.9403 59.2529C34.1875 57.2314 34.8582 55.6391 35.1955 55.6186ZM48.3823 42.2417L48.4147 41.6533C49.7654 40.1616 51.116 38.6788 52.4661 37.2026C54.0437 37.2047 55.9149 37.2068 57.5144 37.2091C57.7589 37.4098 58.0034 37.6117 58.2479 37.8129C57.4563 38.6703 56.6645 39.5291 55.8725 40.3895C55.7083 40.5679 55.7293 40.8376 55.9188 40.9934C56.8202 41.7309 57.7218 42.4726 58.6234 43.2166C59.3227 43.7936 60.022 44.373 60.7212 44.9546C60.7974 45.0178 60.8735 45.0812 60.9496 45.1446C61.4332 50.3745 62.2911 55.1362 63.5038 59.3339C57.6799 59.1424 51.8504 59.1383 46.0261 59.3242C45.9167 59.2173 45.8073 59.1102 45.698 59.0032C47.4325 52.8536 48.1154 46.5173 48.3823 42.2417ZM36.1869 49.1182C36.8721 49.6497 37.5574 50.1816 38.2428 50.714C37.7507 51.28 37.2585 51.8476 36.7664 52.418C36.081 51.8893 35.3959 51.3609 34.7109 50.8326C35.2028 50.2585 35.6949 49.6875 36.1869 49.1182ZM47.5929 36.2576C48.2788 36.8097 48.9647 37.3626 49.651 37.9161C49.1588 38.4574 48.6667 39.0001 48.1744 39.5435C47.4883 38.9921 46.8023 38.4416 46.1164 37.8916C46.6086 37.3458 47.1008 36.8011 47.5929 36.2576ZM50.5888 37.5406C50.5887 37.5406 50.5887 37.5404 50.5885 37.5403C50.4477 37.4264 50.3068 37.3132 50.166 37.1993C50.3855 37.1998 50.6311 37.2001 50.8984 37.2005C50.7952 37.3137 50.692 37.4275 50.5888 37.5406ZM40.3686 44.3319C40.5285 44.1508 40.6883 43.9692 40.8482 43.7884C41.5336 44.3293 42.2193 44.8708 42.905 45.413C42.7447 45.5933 42.5844 45.7753 42.4242 45.956C42.0617 46.3646 41.6994 46.7732 41.337 47.1837C41.2539 47.2778 41.1708 47.3711 41.0877 47.4653C40.4021 46.9269 39.7168 46.3892 39.0315 45.8518C39.1135 45.7584 39.1953 45.6645 39.2772 45.5712C39.641 45.1569 40.0048 44.7442 40.3686 44.3319ZM45.0947 39.0272C45.2373 38.8686 45.3799 38.7098 45.5226 38.5513C46.2082 39.1002 46.8941 39.6497 47.58 40.2001C47.4164 40.381 47.2527 40.5635 47.0891 40.7447C46.7568 41.1128 46.4244 41.4814 46.0921 41.8507C45.9823 41.9727 45.8725 42.0939 45.7628 42.2161C45.077 41.6688 44.3913 41.1222 43.7058 40.5762C43.8038 40.4665 43.9019 40.3566 44 40.2471C44.3649 39.8395 44.7297 39.4331 45.0947 39.0272ZM42.0527 42.4302C42.3565 42.0884 42.6603 41.7463 42.9641 41.4057C43.0131 41.3508 43.062 41.2963 43.111 41.2414C43.7966 41.7865 44.4824 42.332 45.1683 42.8785C45.1154 42.9374 45.0625 42.9968 45.0097 43.0558C44.7024 43.3986 44.3951 43.7429 44.0879 44.0869C43.8959 44.3019 43.7039 44.5158 43.5118 44.7312C42.8262 44.1878 42.1405 43.6454 41.4549 43.103C41.6542 42.8783 41.8534 42.6544 42.0527 42.4302ZM39.3753 49.4167C39.1959 49.6218 39.0164 49.8256 38.837 50.0313C38.1518 49.4979 37.4666 48.9648 36.7817 48.4321C36.9786 48.2048 37.1756 47.9782 37.3725 47.7518C37.6468 47.4363 37.9211 47.1208 38.1954 46.8068C38.2759 46.7145 38.3566 46.6228 38.4372 46.5306C39.1224 47.0668 39.8077 47.6033 40.4932 48.1405C40.4142 48.2302 40.3353 48.321 40.2564 48.4108C39.9627 48.7452 39.669 49.0809 39.3753 49.4167ZM51.0189 32.0777C51.0555 32.0516 51.0849 32.0204 51.1107 31.9873C51.6942 32.4609 52.2779 32.935 52.8615 33.4098C52.6458 33.9053 52.6872 34.4701 52.9717 34.9315C52.5413 35.4016 52.1109 35.8727 51.6804 36.3441C50.5058 36.3429 49.5538 36.3419 49.1021 36.3408C48.9526 36.2202 48.8031 36.0994 48.6538 35.9789C48.8431 34.4152 49.6826 33.0273 51.0189 32.0777ZM37.41 15.3548C37.9783 15.824 38.5465 16.2889 39.1148 16.756C38.5213 17.4113 37.9277 18.0681 37.3342 18.7267C36.7659 18.2602 36.1976 17.796 35.6294 17.3274C36.2228 16.6679 36.8164 16.0106 37.41 15.3548ZM50.4931 29.4325C49.9249 28.9713 49.3569 28.5111 48.7887 28.0504C49.3824 27.3988 49.976 26.7481 50.5696 26.0985C51.1378 26.5604 51.7058 27.0218 52.2741 27.4842C51.6805 28.1326 51.0869 28.782 50.4931 29.4325ZM42.7091 23.1176C42.0108 22.55 41.3127 21.9805 40.6144 21.4112C41.2077 20.7545 41.801 20.0995 42.3941 19.4459C43.0926 20.0163 43.791 20.586 44.4896 21.1548C43.8961 21.8078 43.3027 22.4619 42.7091 23.1176ZM45.3201 25.2372C44.683 24.7205 44.0459 24.204 43.409 23.6866C44.0025 23.0312 44.5961 22.3774 45.1896 21.7248C45.8265 22.2431 46.4635 22.7612 47.1006 23.279C46.507 23.9307 45.9136 24.5832 45.3201 25.2372ZM49.8833 25.5407C49.2896 26.1908 48.6961 26.8415 48.1025 27.4939C47.6518 27.1285 47.2012 26.7631 46.7505 26.3978C46.5023 26.1967 46.2543 25.9952 46.0062 25.7939C46.5997 25.1404 47.1933 24.488 47.7868 23.8367C48.0677 24.065 48.3486 24.2933 48.6295 24.5215C49.0474 24.861 49.4654 25.201 49.8833 25.5407ZM40.8777 18.205C41.0331 18.3323 41.1886 18.4598 41.344 18.587C41.4653 18.6863 41.5868 18.786 41.7081 18.8852C41.1147 19.5392 40.5214 20.1948 39.9281 20.8519C39.8106 20.7561 39.6931 20.6609 39.5757 20.5649C39.4121 20.4312 39.2486 20.2973 39.0849 20.1636C38.7295 19.873 38.3743 19.5799 38.019 19.2886C38.612 18.6308 39.205 17.975 39.7981 17.3206C40.158 17.6159 40.5179 17.9103 40.8777 18.205ZM56.3689 31.2288C55.9904 31.6407 55.6118 32.0526 55.2332 32.465C54.7184 32.2701 54.134 32.3078 53.6514 32.5654C53.1887 32.1886 52.7262 31.8124 52.2636 31.4362C53.0115 31.1332 53.8037 30.977 54.6199 30.9779C55.2134 30.9772 55.8007 31.0649 56.3689 31.2288ZM74.3922 17.9207C73.9003 18.4633 73.4084 19.0011 72.9173 19.5415C72.2313 18.9687 71.5453 18.398 70.8594 17.8291C71.3513 17.2887 71.8432 16.7508 72.3351 16.2083C73.0203 16.7773 73.7062 17.348 74.3922 17.9207ZM61.5344 31.9273C60.8481 31.3597 60.1618 30.7938 59.4758 30.2292C59.9673 29.6959 60.4586 29.1629 60.95 28.6298C61.636 29.1955 62.3221 29.7628 63.0082 30.3316C62.5169 30.8634 62.0258 31.3955 61.5344 31.9273ZM66.009 27.0793C65.3232 26.5086 64.6373 25.9395 63.9515 25.3723C64.5028 24.7736 65.0538 24.1747 65.6048 23.5752C66.2906 24.1432 66.9765 24.7131 67.6624 25.2846C67.1114 25.8836 66.5601 26.4813 66.009 27.0793ZM66.2103 22.9159C66.8146 22.258 67.4187 21.5992 68.0229 20.9393C68.7084 21.5079 69.3939 22.078 70.0794 22.6502C69.4755 23.3093 68.8718 23.9689 68.2678 24.6261C67.582 24.0543 66.8961 23.4844 66.2103 22.9159ZM64.3158 28.9157C64.0779 29.1734 63.84 29.4309 63.6021 29.6885C62.916 29.1191 62.2299 28.5516 61.544 27.9855C61.5675 27.9599 61.5911 27.9343 61.6148 27.9087C62.0762 27.4082 62.5377 26.9072 62.9989 26.4065C63.1185 26.2767 63.2381 26.147 63.3577 26.0172C64.0436 26.5844 64.7295 27.153 65.4154 27.7235C65.2423 27.9111 65.0694 28.0993 64.8963 28.2868C64.7028 28.4965 64.5094 28.7062 64.3158 28.9157ZM69.3519 19.4853C69.6576 19.1506 69.9632 18.8164 70.2689 18.4811C70.9544 19.0496 71.6396 19.6198 72.3248 20.1922C72.0095 20.5379 71.6943 20.8856 71.3798 21.2306C71.2578 21.3638 71.1366 21.497 71.0146 21.6301C70.9013 21.7545 70.7872 21.878 70.6735 22.0023C69.9878 21.4299 69.3021 20.8594 68.6165 20.2906C68.7153 20.1826 68.814 20.0742 68.9128 19.9661C69.0592 19.806 69.2056 19.6456 69.3519 19.4853ZM53.8747 35.6644C54.092 35.7457 54.3214 35.7874 54.5506 35.787C54.8753 35.7869 55.1985 35.7057 55.4838 35.5471C55.8101 35.8136 56.1364 36.0813 56.4629 36.3484C55.4219 36.3474 54.3032 36.3465 53.251 36.3455C53.4588 36.1185 53.6668 35.8911 53.8747 35.6644ZM55.1548 33.4068C55.3412 33.5585 55.4529 33.7701 55.4708 34.0012C55.4882 34.2328 55.4099 34.4561 55.2486 34.632C54.9163 34.9935 54.3329 35.0337 53.9489 34.7206C53.5651 34.4079 53.5225 33.8573 53.8551 33.4956C54.0372 33.2974 54.2942 33.1953 54.5524 33.1953C54.7662 33.1949 54.9807 33.2654 55.1548 33.4068ZM57.572 31.7204C59.3618 32.6763 60.5107 34.4346 60.6307 36.3549C60.4829 36.3533 59.5548 36.3518 58.2791 36.3503C57.6045 35.7956 56.9298 35.2429 56.2552 34.6911C56.3527 34.4557 56.3961 34.2012 56.3764 33.9415C56.3562 33.6766 56.2718 33.426 56.1348 33.2027C56.5986 32.6979 57.0624 32.1938 57.5261 31.6898C57.5411 31.7003 57.5554 31.7115 57.572 31.7204ZM59.324 37.212C59.8209 37.2129 60.2413 37.2139 60.5507 37.2149C60.55 37.4821 60.5497 37.8435 60.5513 38.2247C60.1422 37.886 59.7332 37.5493 59.324 37.212ZM71.7481 53.2286C71.1794 52.7283 70.6102 52.2312 70.0413 51.7359C70.6345 51.1108 71.2277 50.4857 71.8202 49.8606C72.389 50.3586 72.9577 50.8582 73.5264 51.3614C72.9339 51.984 72.3406 52.6063 71.7481 53.2286ZM62.2233 45.0728C62.1614 45.0209 62.0995 44.9685 62.0374 44.9168C62.631 44.2797 63.2243 43.6433 63.8176 43.0073C63.8905 43.0685 63.9634 43.1292 64.0362 43.1905C64.3388 43.4448 64.6414 43.7005 64.9439 43.9559C65.2065 44.1775 65.4691 44.399 65.7317 44.6214C65.1386 45.2548 64.5454 45.8888 63.9519 46.5231C63.7178 46.3258 63.4836 46.1304 63.2495 45.9337C62.9074 45.6465 62.5654 45.3587 62.2233 45.0728ZM65.2321 47.6069C65.0391 47.4433 64.8462 47.2782 64.6533 47.115C65.2466 46.4818 65.8399 45.8491 66.4331 45.2165C66.6297 45.3837 66.8264 45.5517 67.023 45.7193C67.4301 46.0664 67.8373 46.4137 68.2443 46.7629C68.3405 46.8454 68.4366 46.9285 68.5327 47.011C68.4142 47.1367 68.2957 47.2626 68.1774 47.3882C67.7028 47.8921 67.2283 48.3958 66.7536 48.9001C66.6588 48.8191 66.564 48.7393 66.4693 48.6585C66.0569 48.3066 65.6445 47.9566 65.2321 47.6069ZM68.6589 50.5388C68.3513 50.273 68.0435 50.0071 67.7357 49.7427C67.6374 49.6583 67.539 49.5726 67.4407 49.4883C67.9014 48.9997 68.362 48.5113 68.8227 48.023C68.9549 47.8828 69.0873 47.7425 69.2194 47.6022C69.3161 47.6855 69.4127 47.7682 69.5093 47.8516C69.8372 48.1349 70.1651 48.4198 70.493 48.7046C70.7063 48.8899 70.9196 49.0753 71.1334 49.2614C70.5405 49.8871 69.9478 50.5129 69.3548 51.1388C69.123 50.9377 68.8909 50.739 68.6589 50.5388ZM56.8566 40.6296C57.4503 39.9856 58.044 39.3424 58.6378 38.7C59.2065 39.1686 59.7754 39.6388 60.3441 40.1101C59.7505 40.7506 59.1568 41.3916 58.563 42.0335C57.9942 41.5643 57.4253 41.0961 56.8566 40.6296ZM59.7355 43.0034C59.5736 42.8693 59.4118 42.7342 59.25 42.6004C59.8435 41.9598 60.4371 41.3198 61.0306 40.6802C61.2382 40.8526 61.4458 41.0255 61.6535 41.1983C62.0102 41.4953 62.3669 41.7925 62.7236 42.0906C62.8593 42.204 62.9947 42.3179 63.1303 42.4314C62.5659 43.0373 62.0015 43.6434 61.4369 44.2501C61.4 44.2435 61.3621 44.2395 61.3229 44.2416C61.2952 44.2433 61.2688 44.2483 61.243 44.2543C61.1595 44.1848 61.0761 44.116 60.9926 44.0465C60.5736 43.6979 60.1545 43.3503 59.7355 43.0034ZM64.7311 66.5387C62.1573 66.433 59.5826 66.3677 57.0079 66.343C57.0077 65.6081 57.0076 64.873 57.0075 64.1382C57.0072 62.9092 55.9454 61.8986 54.6404 61.899C53.335 61.8989 52.2731 62.9097 52.2731 64.1382C52.273 64.8731 52.2729 65.6081 52.2728 66.343C50.8174 66.3569 49.3621 66.3861 47.9069 66.4259C47.9012 64.7225 47.8957 63.0191 47.8901 61.3158C47.8898 61.2074 47.846 61.105 47.7676 61.0276C47.4713 60.7367 47.1751 60.4486 46.8788 60.1583C52.6705 59.9886 58.4671 60.0064 64.2577 60.2167C64.4143 60.2225 64.571 60.2283 64.7277 60.2343C64.7288 62.3356 64.73 64.4372 64.7311 66.5387ZM44.498 66.5405C44.3161 66.548 44.1341 66.5564 43.9521 66.5642C43.9524 65.9871 43.9528 65.4098 43.9531 64.8327C44.1352 64.8247 44.3171 64.8165 44.499 64.8091C44.4987 65.3863 44.4984 65.9634 44.498 66.5405ZM53.1824 66.3382C53.1825 65.6026 53.1825 64.8667 53.1825 64.1309C53.1825 63.3746 53.8369 62.755 54.6404 62.7549C55.4444 62.7545 56.0979 63.374 56.098 64.1309C56.0981 64.8667 56.0982 65.6026 56.0983 66.3382C55.1263 66.3325 54.1543 66.3325 53.1824 66.3382ZM46.9817 61.5127C46.9869 63.1584 46.9921 64.8041 46.9974 66.4498C46.4673 66.4663 45.9373 66.4873 45.4071 66.5071C45.4075 65.7858 45.4078 65.0644 45.4082 64.343C45.4084 64.1058 45.2049 63.9207 44.9539 63.931C44.469 63.9502 43.984 63.9709 43.4993 63.9929C43.2482 64.0044 43.0449 64.206 43.0447 64.4444C43.0442 65.1654 43.0437 65.8863 43.0433 66.6073C42.3758 66.6388 41.7083 66.6721 41.0408 66.709C41.0419 65.0587 41.043 63.4083 41.0442 61.7578C42.0338 60.7019 43.0238 59.6551 44.0137 58.6161C45.0028 59.5785 45.9921 60.5436 46.9817 61.5127ZM42.9666 58.4612C42.1089 59.3654 41.2512 60.2743 40.3937 61.1915C40.0968 61.2072 39.7999 61.2246 39.503 61.2414C40.3635 60.3208 41.2242 59.4057 42.0849 58.4986C42.3788 58.4852 42.6728 58.4737 42.9666 58.4612ZM40.8388 58.5595C39.9784 59.4714 39.1183 60.3884 38.2582 61.3139C37.921 61.3345 37.5839 61.3561 37.2468 61.3781C38.1056 60.4488 38.9647 59.5255 39.8238 58.6105C40.1621 58.5924 40.5004 58.5765 40.8388 58.5595ZM38.5778 58.6821C37.719 59.6022 36.8603 60.5277 36.0018 61.4623C35.6653 61.4859 35.3287 61.509 34.9923 61.5338C35.8491 60.5959 36.7062 59.6641 37.5636 58.7412C37.9016 58.7202 38.2397 58.7018 38.5778 58.6821ZM32.6188 65.3964C32.6196 64.4623 32.6203 63.5284 32.621 62.5943C35.1235 62.3828 37.6287 62.2074 40.1358 62.0695C40.1346 63.6335 40.1335 65.1975 40.1324 66.7616C38.3694 66.8656 36.6069 66.9885 34.8453 67.1305C34.523 66.4128 33.8134 65.5609 32.6188 65.3964ZM67.6469 59.9447C68.2451 59.3142 68.8433 58.6832 69.4413 58.0538C70.5638 57.4682 71.6856 56.8875 72.808 56.3094C73.9304 57.0275 75.0529 57.7544 76.1753 58.4929C76.7733 59.2069 77.3714 59.9265 77.9687 60.6488C77.9702 62.9121 77.9726 65.1754 77.9742 67.4387C77.4102 67.385 76.8454 67.3361 76.2814 67.2863C76.2799 65.6358 76.2791 63.9853 76.2775 62.3346C76.2775 62.3248 76.2751 62.3155 76.2743 62.3058C76.2735 62.289 76.2727 62.2723 76.2696 62.2554C76.2664 62.2425 76.2624 62.2299 76.2593 62.2173C76.2545 62.202 76.2505 62.1867 76.245 62.1718C76.2395 62.1587 76.2331 62.1465 76.2268 62.1339C76.2197 62.1202 76.2133 62.1063 76.2046 62.0929C76.1959 62.0799 76.1864 62.0679 76.1769 62.0555C76.1697 62.0462 76.1634 62.0361 76.1555 62.0271C76.1539 62.0248 76.1507 62.0231 76.1492 62.0208C76.1389 62.0101 76.1278 62.0009 76.1167 61.9909C76.1048 61.98 76.0929 61.9686 76.0802 61.959C76.0715 61.9521 76.0612 61.9469 76.0517 61.9407C76.0359 61.9305 76.02 61.92 76.0034 61.9117C75.9939 61.9067 75.9828 61.9035 75.9725 61.8992C75.9551 61.8919 75.9384 61.8844 75.9202 61.8792C75.9091 61.876 75.8981 61.8745 75.887 61.8721C75.868 61.8682 75.8497 61.8641 75.8315 61.8623C75.8291 61.862 75.8268 61.8612 75.8236 61.8609C73.8171 61.6964 71.8083 61.5554 69.798 61.4378C69.7958 61.4377 69.7936 61.4382 69.7914 61.4381C69.7719 61.4372 69.7528 61.4387 69.7335 61.4402C69.7229 61.4411 69.7121 61.4409 69.7018 61.4423C69.6847 61.4449 69.6685 61.4498 69.652 61.4543C69.6405 61.4574 69.6286 61.4593 69.6175 61.4633C69.6035 61.4682 69.5905 61.4755 69.577 61.4818C69.5646 61.4878 69.5519 61.4928 69.5402 61.4998C69.5295 61.5063 69.5197 61.5146 69.5095 61.5222C69.4966 61.5316 69.4835 61.5406 69.472 61.5513C69.4701 61.5532 69.4678 61.5542 69.466 61.5561C69.4586 61.5631 69.4536 61.5715 69.4469 61.579C69.4363 61.5907 69.4257 61.6022 69.4167 61.6151C69.4088 61.6261 69.4028 61.638 69.3963 61.6496C69.3893 61.6621 69.3821 61.6743 69.3765 61.6876C69.3711 61.7006 69.3673 61.714 69.3633 61.7275C69.3593 61.7405 69.355 61.7532 69.3524 61.7668C69.3494 61.7825 69.3486 61.7981 69.3474 61.8139C69.3467 61.8239 69.3444 61.8332 69.3444 61.8433C69.3455 63.4867 69.3467 65.1299 69.3478 66.7731C68.7823 66.7392 68.2169 66.7049 67.6514 66.675C67.6499 64.4317 67.6483 62.1883 67.6469 59.9447ZM86.4222 59.4763C87.1581 60.4043 87.8939 61.34 88.6298 62.2837C85.6205 61.8934 82.6057 61.5564 79.587 61.2702C78.6633 60.1435 77.7389 59.0268 76.8145 57.9205C76.7821 57.8831 76.7456 57.8498 76.7052 57.8231C75.9503 57.325 75.1946 56.8334 74.439 56.3447C77.2756 56.5371 80.1098 56.7683 82.94 57.0435C84.1013 57.8416 85.2625 58.6523 86.4222 59.4763ZM88.4611 66.8445C88.2353 66.7466 87.9977 66.6765 87.7514 66.6428C87.1771 66.5637 86.6345 66.6794 86.1917 66.9683C85.9271 66.8216 85.6419 66.7266 85.352 66.6892C84.3547 66.5619 83.5159 67.1286 83.2719 68.0007C82.9353 67.9613 82.5986 67.9244 82.2612 67.8865C82.2612 67.4548 82.2612 67.0231 82.2604 66.5915C82.2604 66.3477 82.0584 66.1266 81.8081 66.0982C81.3249 66.0436 80.8425 65.9903 80.3593 65.9384C80.109 65.9118 79.907 66.0867 79.907 66.3296C79.907 66.7637 79.9078 67.1979 79.9078 67.6321C79.5648 67.5967 79.2226 67.5631 78.8796 67.5293C78.8788 65.602 78.8772 63.6746 78.8756 61.7472C78.9295 61.8125 78.9834 61.8769 79.0364 61.9422C79.0396 61.9462 79.0436 61.9489 79.0475 61.9528C79.061 61.9687 79.076 61.9833 79.0919 61.9975C79.1006 62.0053 79.1093 62.0136 79.118 62.0207C79.1355 62.0343 79.1545 62.0458 79.1735 62.0571C79.1814 62.0622 79.1901 62.0681 79.198 62.0727C79.2226 62.0852 79.2479 62.0952 79.2741 62.1038C79.278 62.1051 79.282 62.1073 79.2859 62.1087C79.3168 62.1177 79.3477 62.1242 79.3802 62.1273C82.4117 62.4175 85.4391 62.7643 88.4603 63.1615C88.4603 64.3891 88.4603 65.6168 88.4611 66.8445ZM84.2351 68.1175C84.4403 67.7405 84.8625 67.5146 85.352 67.5785C85.5881 67.6099 85.8194 67.7071 86.0198 67.8594C86.202 67.9978 86.4388 68.0019 86.5877 67.8691C86.8967 67.5938 87.3101 67.4751 87.7514 67.5376C88.4342 67.6332 89.018 68.143 89.2532 68.7755C87.5818 68.539 85.9089 68.3196 84.2351 68.1175ZM72.1481 64.7019C71.5176 65.218 70.8863 65.7359 70.2555 66.2543C70.2547 65.1337 70.2539 64.013 70.253 62.8923C70.8847 63.4918 71.5168 64.0946 72.1481 64.7019ZM72.8135 64.1577C72.1933 63.5598 71.5731 62.9662 70.9528 62.3758C72.1925 62.4552 73.4322 62.5439 74.6711 62.6416C74.0516 63.1464 73.433 63.6514 72.8135 64.1577ZM75.3745 66.6509C74.7431 66.0303 74.111 65.4135 73.4797 64.8015C74.1102 64.2873 74.7408 63.7743 75.3713 63.2616C75.3729 64.3913 75.3737 65.521 75.3745 66.6509ZM70.9425 66.8737C71.5667 66.363 72.1909 65.8523 72.8143 65.3436C73.433 65.9411 74.0516 66.5434 74.6703 67.1489C73.4282 67.0477 72.1854 66.9562 70.9425 66.8737ZM80.8124 66.8676C80.9938 66.8878 81.1752 66.908 81.3558 66.9286C81.3566 67.2146 81.3566 67.5005 81.3566 67.7865C81.1752 67.7666 80.9946 67.7456 80.8132 67.7263C80.8132 67.44 80.8124 67.1537 80.8124 66.8676ZM96.3324 70.4043C96.3807 70.1226 96.189 69.8534 95.9047 69.8054C94.0028 69.4836 92.0977 69.1866 90.1919 68.9093C90.0628 68.3609 89.7681 67.8527 89.3633 67.4554C89.3625 66.0635 89.3625 64.6715 89.3625 63.2796C89.4465 63.2909 89.5297 63.3011 89.6136 63.3125C89.7895 63.3364 89.9503 63.2561 90.0232 63.1061C90.0968 62.9564 90.0707 62.7641 89.955 62.6156C88.991 61.3672 88.0254 60.1337 87.059 58.9133C87.0281 58.8742 86.9917 58.8389 86.9505 58.81C85.7346 57.9448 84.5179 57.0942 83.2996 56.2576C83.2291 56.209 83.1483 56.1794 83.066 56.1713C79.6741 55.8469 76.2767 55.5806 72.8753 55.3726C72.8658 55.3722 72.8563 55.3737 72.846 55.3737C72.8341 55.372 72.8214 55.3708 72.8096 55.37C72.7937 55.3689 72.7787 55.3687 72.7636 55.3692C72.7486 55.3697 72.7335 55.371 72.7185 55.3729C72.7058 55.3746 72.6931 55.3768 72.6812 55.3796C72.6646 55.383 72.6488 55.3874 72.6329 55.3929C72.6218 55.3966 72.6107 55.401 72.6004 55.4055C72.5909 55.4096 72.5806 55.412 72.5719 55.4168C71.3513 56.0479 70.1305 56.6831 68.9093 57.3231C68.8684 57.3443 68.8315 57.3726 68.8002 57.4054C67.8301 58.4283 66.8598 59.4525 65.8892 60.4793C65.7256 60.6524 65.7471 60.9249 65.9375 61.0879C66.0232 61.1616 66.1289 61.2004 66.2337 61.2053C66.3614 61.2113 66.488 61.166 66.578 61.0712C66.6317 61.0146 66.6854 60.9581 66.7392 60.9014C66.7404 62.8113 66.7416 64.7212 66.7428 66.6312C66.3752 66.613 66.0077 66.5955 65.64 66.579C65.6387 64.3327 65.6374 62.0864 65.6361 59.8403C65.6364 59.6036 65.4322 59.4013 65.1816 59.3921C64.9365 59.3825 64.6914 59.3735 64.4464 59.3647C63.2826 55.3921 62.4409 50.9008 61.9401 45.9719C62.5272 46.4628 63.1144 46.9527 63.7016 47.4474C63.7016 47.4474 63.7016 47.4474 63.7017 47.4474C63.7063 47.4513 63.7109 47.4552 63.7155 47.4591C63.7156 47.4592 63.7157 47.4593 63.7158 47.4594C64.5363 48.1508 65.357 48.8479 66.1775 49.5478C66.4183 49.7531 66.659 49.9591 66.8996 50.1652C67.477 50.6597 68.0543 51.1566 68.6317 51.6558C69.5871 52.482 70.5427 53.3128 71.4978 54.1532C71.5834 54.2288 71.6895 54.2694 71.7949 54.2753C71.9216 54.2818 72.0483 54.2389 72.1378 54.1449C72.9284 53.3165 73.7189 52.4881 74.5095 51.6592C74.511 51.6576 74.5118 51.6558 74.5126 51.6542C74.6402 51.5212 74.7669 51.3878 74.8936 51.2547C75.1138 51.0243 75.0861 50.6538 74.8311 50.4271C70.3785 46.4703 65.9214 42.6839 61.4653 38.9838C61.4563 38.2804 61.4577 37.4516 61.4593 37.0473C61.5149 36.9768 61.549 36.89 61.549 36.7946C61.549 36.7623 61.549 36.7299 61.549 36.6976C61.5482 34.3794 60.2381 32.2175 58.1252 31.0386C58.2627 30.8891 58.4003 30.7398 58.5379 30.5904C58.5382 30.5906 58.5385 30.591 58.5388 30.5912C59.4537 31.3428 60.3689 32.0968 61.284 32.8539C61.3698 32.9246 61.4757 32.9605 61.5809 32.9615C61.7079 32.9629 61.8343 32.9134 61.9242 32.817C62.6134 32.0716 63.3025 31.3262 63.9915 30.5807C63.9918 30.5804 63.992 30.5803 63.9923 30.58C64.0771 30.4881 64.1621 30.396 64.2471 30.3041C64.8364 29.6663 65.4258 29.0282 66.015 28.3897C66.1432 28.2508 66.2715 28.1123 66.3996 27.9734C66.4601 27.9078 66.5205 27.8419 66.581 27.7764C67.2733 27.0258 67.9655 26.2748 68.6577 25.5223C68.6579 25.5221 68.6581 25.522 68.6582 25.5218C68.6987 25.4777 68.7393 25.4334 68.7798 25.3893C69.4436 24.6675 70.1073 23.9441 70.771 23.2198C70.8689 23.1131 70.9663 23.0071 71.0637 22.9004C71.1715 22.7833 71.2784 22.6654 71.3861 22.5482C71.8978 21.9882 72.4103 21.4273 72.9228 20.8654C73.0512 20.7241 73.1803 20.5835 73.3094 20.442C73.3102 20.4408 73.311 20.4394 73.3118 20.4382C73.9993 19.6831 74.6869 18.9266 75.3752 18.1671C75.5384 17.9863 75.5178 17.7112 75.3277 17.5524C74.4136 16.788 73.4987 16.0271 72.5846 15.2693C72.5822 15.2676 72.5799 15.2665 72.5775 15.2649C72.5791 15.2633 72.5806 15.2618 72.5814 15.2603C72.4349 15.1387 72.2876 15.017 72.141 14.8954C71.8867 14.6855 71.5026 14.7114 71.2824 14.954C66.517 20.2158 61.7488 25.3764 56.9753 30.5686C56.925 30.5178 56.8624 30.4764 56.7876 30.4531C56.0864 30.233 55.3571 30.1218 54.6199 30.122C53.6507 30.1222 52.7098 30.3102 51.8248 30.6826C51.7936 30.6958 51.7653 30.7121 51.7389 30.7306C51.6849 30.7609 51.6119 30.8022 51.5371 30.8451C51.319 30.6679 51.101 30.4911 50.8829 30.3141C51.6745 29.4473 52.4661 28.5822 53.2574 27.7185C53.3361 27.6322 53.3755 27.5208 53.3669 27.4076C53.3582 27.2942 53.3021 27.1887 53.2111 27.1149C52.4152 26.4665 51.6196 25.8198 50.8239 25.1726C50.8226 25.1716 50.8217 25.1703 50.8204 25.1692C50.3185 24.761 49.8167 24.353 49.3149 23.945C48.0513 22.9176 46.788 21.8903 45.525 20.8614C45.4968 20.8386 45.4688 20.8157 45.4407 20.7928C45.4407 20.7928 45.4406 20.7928 45.4406 20.7928C45.4359 20.789 45.4312 20.7853 45.4267 20.7815C45.4266 20.7814 45.4265 20.7813 45.4263 20.7812C45.3984 20.7584 45.3704 20.7355 45.3424 20.7127C44.2324 19.8084 43.1224 18.9018 42.0127 17.9934C41.7148 17.7497 41.4171 17.5054 41.1193 17.2612C39.9665 16.316 38.8138 15.3691 37.6612 14.4161C37.4717 14.2595 37.1861 14.2795 37.0215 14.4605C36.23 15.3342 35.4386 16.2111 34.6469 17.0917C34.6314 17.109 34.6185 17.128 34.6061 17.1472C34.4958 17.27 34.3855 17.3928 34.2752 17.5156C34.0553 17.7613 34.0828 18.1296 34.3365 18.339C39.6964 22.7607 45.0586 27.078 50.4263 31.4318C49.0779 32.4085 48.1779 33.7764 47.8469 35.3278C47.8459 35.3271 47.845 35.3262 47.844 35.3254C47.7529 35.2521 47.6337 35.2158 47.5143 35.2261C47.3944 35.2355 47.2827 35.2902 47.2038 35.377C46.5149 36.1379 45.826 36.9019 45.1372 37.6674C45.1359 37.6688 45.1343 37.6699 45.133 37.6713C45.0364 37.7786 44.9397 37.8873 44.8431 37.9948C44.2526 38.6517 43.6621 39.3107 43.0716 39.9717C42.955 40.1023 42.8384 40.2314 42.7217 40.3622C42.6496 40.443 42.5775 40.5248 42.5054 40.6058C41.8474 41.3439 41.1895 42.084 40.5316 42.8281C40.5115 42.8509 40.4913 42.8734 40.4712 42.8962C40.4711 42.8963 40.471 42.8965 40.4709 42.8966C40.4669 42.9011 40.463 42.9055 40.459 42.91C40.4589 42.9101 40.4589 42.9102 40.4588 42.9103C40.4506 42.9195 40.4425 42.9288 40.4343 42.938C39.7348 43.7296 39.0353 44.5261 38.3359 45.3252C38.2399 45.4349 38.1438 45.5431 38.0478 45.653C37.9296 45.7881 37.8116 45.9254 37.6934 46.0607C37.2089 46.6162 36.7244 47.1738 36.2399 47.7333C36.0926 47.9034 35.9453 48.0713 35.798 48.2418C35.7952 48.2449 35.7935 48.2486 35.791 48.2518C35.1034 49.0477 34.4158 49.8466 33.7286 50.6517C33.6502 50.744 33.6104 50.8602 33.619 50.9749C33.6273 51.0899 33.6838 51.1938 33.7743 51.2633C34.6876 51.9658 35.6012 52.6685 36.515 53.372C36.5184 53.3747 36.5223 53.3763 36.5257 53.3787C36.6687 53.489 36.8118 53.5991 36.9549 53.7093C37.2089 53.9049 37.5938 53.8567 37.8137 53.6024C41.0221 49.8949 44.2321 46.2853 47.4414 42.7304C47.1634 46.826 46.5068 52.6106 44.9655 58.2868C44.7591 58.0852 44.5524 57.882 44.346 57.6807C44.3441 57.679 44.3419 57.6779 44.3401 57.6762C44.2576 57.5986 44.1424 57.5522 44.0144 57.5569C43.3016 57.5839 42.589 57.6138 41.8764 57.6461C41.8758 57.6461 41.8751 57.6461 41.8745 57.6462C40.3692 57.7146 38.8644 57.7952 37.3604 57.8877C37.3567 57.8879 37.3531 57.888 37.3495 57.8884C37.2933 57.8919 37.2372 57.8959 37.1811 57.8994C36.9412 56.7073 36.3603 54.6763 35.1962 54.7493C33.6683 54.8447 33.029 58.5138 32.9495 60.342C32.4649 60.877 31.9805 61.4132 31.4961 61.9535C31.3722 62.0918 31.3385 62.2798 31.4099 62.4341C31.4661 62.5558 31.5804 62.6356 31.7146 62.6563C31.7139 63.572 31.7132 64.4876 31.7125 65.4031C31.5625 65.4238 31.4075 65.4533 31.2462 65.4945C30.8767 65.0776 30.3885 64.7888 29.8392 64.6547C29.8396 63.9844 29.8402 63.3141 29.8406 62.644C31.3418 62.2189 32.7974 60.3898 32.8007 56.2873C32.8037 52.9162 31.6682 46.9472 29.399 47.0898C27.1298 47.2327 25.9887 53.4453 25.987 56.875C25.9847 61.0434 27.4346 62.6061 28.935 62.7341C28.9346 63.3481 28.9341 63.962 28.9337 64.576C28.8853 64.5789 28.8367 64.5822 28.7879 64.5872C28.1388 64.6551 27.5133 64.9182 26.9879 65.3383C26.3933 64.8899 25.6248 64.6883 24.8217 64.7851C24.313 64.8462 23.8241 65.0261 23.3856 65.2952C23.3856 65.1287 23.3857 64.9622 23.3858 64.7957C24.5318 64.378 25.6153 62.9009 25.617 59.7682C25.6185 57.2974 24.8103 52.5167 22.9386 52.6906C21.0666 52.8662 20.258 57.8774 20.2576 60.3894C20.2575 63.5709 21.3373 64.7886 22.4825 64.9124C22.4824 65.2954 22.4823 65.6784 22.4821 66.0615C22.2642 66.3121 22.0763 66.5904 21.9288 66.8912C21.761 66.8782 21.5889 66.8842 21.4144 66.9079C20.3484 67.0552 19.4402 67.8855 19.1276 68.9039C17.2087 69.1827 15.2912 69.482 13.3758 69.8054C13.2382 69.829 13.1182 69.9038 13.0375 70.0171C12.9568 70.1304 12.9254 70.2674 12.9486 70.4043C12.9722 70.5412 13.048 70.6609 13.162 70.7411C13.2509 70.8041 13.3549 70.8363 13.4618 70.8363C13.4914 70.8363 13.5214 70.834 13.5513 70.8285C40.8161 66.215 68.4649 66.215 95.7296 70.8285C96.0195 70.8788 96.2841 70.6837 96.3324 70.4043Z" fill="#1F1E1B"/>
<path id="Fill 10" fill-rule="evenodd" clip-rule="evenodd" d="M90.888 75.994C90.8652 76.0841 90.8162 76.1459 90.7411 76.1794C90.6659 76.2129 90.5865 76.2092 90.5013 76.1682C90.4168 76.1265 90.3527 76.0595 90.3096 75.9672C90.2724 75.8764 90.2657 75.7863 90.2885 75.6962C90.3113 75.6054 90.3603 75.5436 90.4354 75.5101C90.5106 75.4766 90.5882 75.4796 90.6693 75.5198C90.7512 75.56 90.8128 75.6263 90.8567 75.7193C90.8998 75.8116 90.9108 75.9032 90.888 75.994ZM90.6271 75.1729C90.4287 75.1066 90.2556 75.1163 90.1078 75.2004C89.96 75.2853 89.8807 75.4208 89.8705 75.6062C89.8595 75.7923 89.9203 75.9732 90.0529 76.1511C90.1855 76.329 90.351 76.4504 90.5494 76.5166C90.7478 76.5829 90.9209 76.574 91.0678 76.4898C91.2156 76.4057 91.295 76.2702 91.306 76.0848C91.3169 75.8995 91.2536 75.7186 91.1177 75.5421C90.9885 75.362 90.8255 75.2391 90.6271 75.1729Z" fill="#1F1E1B"/>
<path id="Fill 11" fill-rule="evenodd" clip-rule="evenodd" d="M51.7708 78.9522C51.6398 79.1529 51.4412 79.2544 51.175 79.2584C50.934 79.2615 50.734 79.1904 50.575 79.0451C50.416 78.8999 50.3254 78.7601 50.3032 78.625C50.2876 78.5289 50.2917 78.4211 50.3153 78.3017C50.3817 78.1712 50.4465 78.0369 50.508 77.8948C50.5351 77.8354 50.5417 77.7667 50.5351 77.6933C50.7347 77.2247 50.9033 76.7733 51.0373 76.3414C51.0616 76.3797 51.1131 76.4625 51.1916 76.589C51.27 76.7163 51.3231 76.8038 51.3508 76.8522C51.3786 76.8998 51.4243 76.981 51.4879 77.0943C51.5516 77.2083 51.5982 77.2997 51.6276 77.3692C51.657 77.4387 51.6926 77.5246 51.7346 77.6269C51.7766 77.7292 51.81 77.8284 51.8349 77.9252C51.8598 78.0221 51.8804 78.1205 51.8969 78.2212C51.9439 78.5071 51.9019 78.7507 51.7708 78.9522ZM36.8343 78.6008C36.4724 79.3981 36.0993 79.8097 35.7151 79.8355C35.5607 79.8456 35.425 79.7933 35.3081 79.6793C35.1911 79.5653 35.1141 79.395 35.0767 79.1693C35.0065 78.7437 35.0411 78.2993 35.1807 77.8362C35.3203 77.3731 35.5236 76.9888 35.7906 76.6819C36.0576 76.3758 36.3331 76.2133 36.6169 76.1954C36.8251 76.1829 36.9979 76.2227 37.1346 76.3149C37.2714 76.407 37.3652 76.5413 37.4158 76.7163C37.2735 77.4153 37.0797 78.0432 36.8343 78.6008ZM26.3394 79.5161C26.1799 79.5434 26.0546 79.6114 25.9632 79.7191C25.872 79.8269 25.8382 79.9534 25.8621 80.0987C25.8723 80.1596 25.8958 80.2135 25.9327 80.2603C25.7001 80.5274 25.4531 80.675 25.1916 80.7016C24.9837 80.7235 24.8001 80.6649 24.6405 80.5267C24.4809 80.3884 24.3775 80.176 24.33 79.8909C24.2783 79.5785 24.2859 79.256 24.3528 78.9233C24.4197 78.5906 24.5251 78.2978 24.6689 78.0439C24.8128 77.7901 24.9808 77.5785 25.1728 77.4074C25.365 77.2364 25.5541 77.1411 25.7405 77.1224C25.934 77.1029 26.0978 77.1575 26.232 77.2856C26.3662 77.4137 26.4563 77.6167 26.5024 77.8956C26.5935 78.4446 26.5391 78.985 26.3394 79.5161ZM18.9439 82.0831C18.5648 82.1308 18.2085 82.073 17.8749 81.9105C17.5412 81.7481 17.3307 81.5146 17.2434 81.2077C17.2306 81.1749 17.2351 81.1467 17.2569 81.1249C17.2788 81.1022 17.3094 81.1007 17.349 81.1186C18.0649 81.4935 18.9075 81.677 19.8772 81.6716C19.5946 81.9035 19.2835 82.0402 18.9439 82.0831ZM18.5979 78.3181C18.2905 78.3571 18.1233 78.2954 18.0961 78.1322C18.0645 77.9424 18.2545 77.8214 18.6655 77.769C19.041 77.7222 19.3707 77.7526 19.6553 77.8612C19.3114 78.1205 18.9591 78.2728 18.5979 78.3181ZM13.9054 75.6596C13.737 76.1415 13.5162 76.5562 13.2433 76.9037C12.9704 77.2513 12.6914 77.4465 12.406 77.4887C12.2669 77.5098 12.1476 77.4793 12.0481 77.3973C11.9487 77.3153 11.8856 77.1942 11.8592 77.0357C11.7973 76.6655 11.8714 76.2789 12.0805 75.8775C12.2896 75.4761 12.5871 75.1278 12.973 74.8326C13.3589 74.5382 13.7717 74.3398 14.2116 74.2383C14.1759 74.7045 14.0737 75.1785 13.9054 75.6596ZM41.4826 76.3664C41.7577 76.0478 42.0338 75.8822 42.3106 75.8705C42.5228 75.8611 42.6418 75.9361 42.6678 76.0938C42.7141 76.3742 42.5781 76.6476 42.2597 76.9131C41.9413 77.1794 41.4964 77.3903 40.925 77.5496C41.0215 77.0802 41.2073 76.6858 41.4826 76.3664ZM54.4687 77.3528C54.3757 77.2786 54.2735 77.2427 54.162 77.2427C54.0647 77.2427 53.9869 77.2778 53.9281 77.3473C53.8694 77.4176 53.8089 77.5262 53.7467 77.6738C53.5309 78.1587 53.2393 78.5656 52.8716 78.8936C52.9517 78.6562 52.9715 78.4141 52.9308 78.1666C52.8901 77.9182 52.8051 77.6574 52.6756 77.3832C52.5459 77.1091 52.412 76.8686 52.2738 76.6624C52.1356 76.4562 51.9842 76.2251 51.8196 75.9689C51.6551 75.7127 51.5315 75.498 51.4491 75.3246C51.6599 74.7639 51.7492 74.3851 51.7169 74.1883C51.6922 74.0368 51.6215 73.9149 51.5054 73.8212C51.3891 73.7275 51.2392 73.6814 51.0558 73.6838C50.8363 73.6869 50.6549 73.8173 50.5115 74.075C50.3682 74.3335 50.3271 74.6498 50.3887 75.0247C50.3979 75.0809 50.4071 75.1372 50.4163 75.1926C50.1434 76.2555 49.8685 77.0966 49.5917 77.7183C49.4652 78.0033 49.3794 78.2165 49.3339 78.3563C49.3319 78.3626 49.3318 78.3673 49.33 78.3735C48.9853 79.01 48.6576 79.3349 48.348 79.3419C48.258 79.3435 48.1799 79.3076 48.1136 79.2341C48.0473 79.1599 48.003 79.0553 47.9808 78.9202C47.9459 78.7078 47.9591 78.4641 48.0206 78.1892C48.082 77.9151 48.1576 77.6659 48.2472 77.4426C48.337 77.22 48.4124 76.9701 48.4734 76.6936C48.5346 76.4172 48.5473 76.1704 48.5118 75.9548C48.4623 75.6534 48.3279 75.4121 48.1087 75.2309C47.8896 75.0497 47.6269 74.963 47.3212 74.9708C47.0515 74.9778 46.7698 75.1051 46.4761 75.3519C46.1824 75.5987 45.9049 75.9158 45.6433 76.3039C45.6715 76.1673 45.6997 76.0306 45.7278 75.8947C45.7919 75.6909 45.8186 75.5565 45.8078 75.4909C45.7882 75.3714 45.7314 75.273 45.6375 75.1965C45.5436 75.12 45.4301 75.0841 45.297 75.0887C45.0202 75.0973 44.843 75.2746 44.7658 75.6182C44.5872 76.4125 44.4363 77.1708 44.3071 77.8987C44.0998 78.3712 43.8112 78.7421 43.4379 79.0069C43.054 79.2802 42.6033 79.427 42.0856 79.4497C41.7836 79.463 41.5242 79.395 41.3074 79.2443C41.0906 79.0936 40.9586 78.8757 40.9118 78.5914C40.8903 78.4602 40.8787 78.368 40.877 78.3134C41.7701 78.1275 42.4893 77.8284 43.0343 77.4129C43.5794 76.9974 43.8145 76.5632 43.7397 76.1087C43.6864 75.7854 43.5294 75.5394 43.2682 75.3714C43.007 75.2035 42.6663 75.1286 42.2457 75.1465C41.9257 75.1606 41.6032 75.2629 41.2779 75.4542C40.9527 75.6464 40.6649 75.8947 40.4144 76.2001C40.1639 76.5046 39.9764 76.8787 39.8519 77.3215C39.7786 77.5816 39.7445 77.8464 39.7409 78.1142C39.2882 79.167 38.8693 79.7082 38.4844 79.7293C38.391 79.7347 38.3061 79.6934 38.2298 79.6043C38.1535 79.5161 38.1011 79.3849 38.0727 79.2123C38.0144 78.8593 38.1127 78.0377 38.3678 76.7475C38.4831 76.1056 38.6499 75.3363 38.8684 74.4405C39.1612 73.6885 39.2855 73.1777 39.2411 72.909C39.2233 72.8013 39.1718 72.7138 39.0864 72.6466C39.0011 72.5795 38.8956 72.5498 38.7697 72.5568C38.6369 72.5639 38.513 72.6162 38.3986 72.7138C38.2842 72.8114 38.2022 72.9528 38.153 73.1379C37.9084 74.1828 37.7115 75.1114 37.5624 75.9228C37.2921 75.5823 36.9433 75.4253 36.5159 75.4519C36.0167 75.4839 35.5484 75.6885 35.1113 76.065C34.6742 76.4414 34.3434 76.9178 34.1185 77.4918C33.9856 77.8315 33.915 78.1689 33.8935 78.5055C33.4455 79.5481 33.0257 80.0893 32.6343 80.1198C32.5445 80.1268 32.4665 80.0948 32.4004 80.0245C32.3343 79.9542 32.29 79.8519 32.2679 79.7176C32.233 79.5075 32.2463 79.263 32.3077 78.985C32.3689 78.707 32.4443 78.4539 32.5338 78.2259C32.6233 77.9986 32.6986 77.744 32.7595 77.4645C32.8206 77.1849 32.8333 76.9373 32.7978 76.7233C32.7485 76.425 32.6144 76.1907 32.3956 76.022C32.1768 75.8525 31.9148 75.7799 31.6098 75.8049C31.3406 75.8268 31.0597 75.9689 30.7667 76.2313C30.4736 76.4945 30.1969 76.8272 29.936 77.2294C29.9641 77.0912 29.9921 76.9529 30.0202 76.8155C30.0842 76.6077 30.1108 76.4718 30.1 76.407C30.0804 76.2883 30.0238 76.1938 29.9301 76.122C29.8364 76.0509 29.7232 76.0212 29.5906 76.0329C29.3144 76.0571 29.1378 76.243 29.0607 76.5913C28.8825 77.3965 28.7319 78.1634 28.6029 78.8991C28.31 79.5723 27.9275 79.9323 27.4538 79.9776C27.3857 79.9839 27.3001 79.9847 27.1972 79.9792C27.5954 79.2396 27.7362 78.5172 27.6191 77.8112C27.5338 77.2958 27.3169 76.9092 26.9684 76.6522C26.6199 76.3953 26.1751 76.2938 25.6341 76.3484C25.2901 76.3836 24.9542 76.5109 24.6263 76.7319C24.2984 76.9521 24.0157 77.2255 23.7781 77.5511C23.5406 77.8776 23.3639 78.2571 23.248 78.6906C23.181 78.9413 23.149 79.1904 23.1443 79.438C22.8651 79.9972 22.3765 80.3751 21.6761 80.5743C21.8197 80.0768 21.8499 79.577 21.7666 79.0756C21.6815 78.5617 21.4503 78.1252 21.0734 77.7667C21.5173 77.2762 21.8457 76.7163 22.0583 76.0853C22.271 75.455 22.3274 74.8388 22.2277 74.2375C22.1292 73.6439 21.8957 73.2035 21.5272 72.9169C21.1585 72.6302 20.6809 72.5217 20.0942 72.5927C18.9927 72.7263 17.8927 73.7744 16.7949 75.7385C16.7976 75.4472 16.7813 75.1957 16.746 74.9833C16.678 74.5733 16.5094 74.2297 16.2406 73.9516C15.9717 73.6744 15.638 73.4909 15.2398 73.4026C15.2374 73.387 15.2349 73.3722 15.2323 73.3573C15.1706 72.9856 15.05 72.7044 14.8705 72.5147C14.6909 72.3249 14.4994 72.2444 14.296 72.2725C14.171 72.2905 14.0698 72.3467 13.9923 72.4412C13.9149 72.5357 13.8852 72.638 13.9035 72.7474C13.9111 72.7927 13.9443 72.8505 14.0033 72.9192C14.0648 73.0035 14.1211 73.166 14.172 73.4065C13.7224 73.494 13.2783 73.6674 12.8391 73.9282C12.4 74.1883 12.0218 74.4913 11.7044 74.8357C11.3871 75.1801 11.143 75.5589 10.9724 75.9728C10.8017 76.3867 10.7472 76.7788 10.8088 77.1489C10.8861 77.6144 11.0752 77.9541 11.3762 78.1697C11.677 78.386 12.0574 78.4594 12.5176 78.3915C12.8423 78.3431 13.1642 78.1861 13.4837 77.9213C13.8031 77.6558 14.0828 77.3325 14.3224 76.949C14.562 76.5663 14.7651 76.1454 14.9317 75.6862C15.0984 75.227 15.2039 74.7795 15.2483 74.3429C15.4905 74.5038 15.6433 74.7748 15.7069 75.1582C15.7845 75.6245 15.7099 76.4734 15.4838 77.7058C15.4014 78.1548 15.2927 78.639 15.1579 79.1576C15.0231 79.677 14.9144 80.0713 14.8316 80.3431C14.6062 80.921 14.4456 81.3834 14.3498 81.7301C14.254 82.0769 14.2208 82.3401 14.2505 82.5181C14.2775 82.6806 14.3441 82.8055 14.45 82.8938C14.5558 82.9812 14.6838 83.0148 14.8338 82.9937C14.9802 82.9734 15.1003 82.8891 15.1944 82.7399C15.2883 82.5915 15.3772 82.3393 15.4602 81.9824C15.6867 80.9937 15.935 80.026 16.205 79.0787C16.3424 78.5875 16.4842 78.165 16.63 77.8128C16.7759 77.4598 16.9695 77.0638 17.2106 76.6249C17.4969 76.1071 17.7982 75.63 18.1147 75.1942C18.431 74.7576 18.7749 74.3781 19.1465 74.0547C19.518 73.7314 19.8558 73.5518 20.1598 73.5151C20.3957 73.4862 20.5963 73.5448 20.7608 73.69C20.9253 73.8353 21.0332 74.0618 21.0843 74.3702C21.1631 74.8451 21.127 75.3418 20.9758 75.8596C20.8246 76.3773 20.5896 76.8412 20.271 77.2513C19.7414 77.0287 19.1548 76.9568 18.5113 77.0388C18.0753 77.0943 17.7309 77.2356 17.4782 77.4621C17.2257 77.6886 17.1243 77.9526 17.1741 78.2517C17.222 78.5399 17.3833 78.7593 17.6585 78.9093C17.9334 79.06 18.2999 79.1061 18.7574 79.0483C19.3224 78.9772 19.8647 78.7593 20.3842 78.3946C20.5467 78.6039 20.6542 78.8686 20.7074 79.1873C20.8013 79.7543 20.74 80.2861 20.5237 80.7852C20.5202 80.7859 20.5165 80.7859 20.513 80.7867C19.9763 80.8508 19.4155 80.8297 18.8306 80.725C18.2456 80.6204 17.8015 80.4681 17.4979 80.2674C17.243 80.0956 16.9921 80.026 16.7456 80.0588C16.56 80.0831 16.4259 80.1658 16.3433 80.3072C16.2608 80.4478 16.2416 80.6508 16.2857 80.9164C16.4066 81.6442 16.7286 82.1862 17.2517 82.5439C17.7749 82.9016 18.3867 83.0359 19.0876 82.9484C19.5131 82.8961 19.9164 82.7415 20.2972 82.4869C20.678 82.2315 20.9967 81.909 21.2529 81.5185C21.9698 81.3771 22.5502 81.1499 22.9939 80.8351C23.1231 80.743 23.2399 80.6407 23.3502 80.5321C23.4707 80.7992 23.6373 81.0187 23.8629 81.1788C24.2285 81.438 24.6729 81.5404 25.1958 81.4865C25.7619 81.4279 26.2681 81.1522 26.7146 80.6594C26.947 80.6985 27.1956 80.7055 27.461 80.6805C27.7944 80.6493 28.097 80.5493 28.3688 80.383C28.3654 80.4072 28.3611 80.4329 28.3578 80.4571C28.3463 80.5626 28.3474 80.6579 28.3612 80.7414C28.3847 80.8828 28.4427 80.9859 28.5354 81.0515C28.628 81.1163 28.7319 81.1436 28.8465 81.1335C29.1082 81.11 29.2573 80.9437 29.2934 80.6344C29.3495 80.2033 29.4516 79.7543 29.6 79.2872C29.7483 78.821 29.9109 78.4407 30.0878 78.1462C30.3246 77.7308 30.5718 77.3723 30.8294 77.0724C31.0871 76.7717 31.3235 76.6132 31.5388 76.5952C31.6788 76.5843 31.7585 76.6382 31.7781 76.7561C31.806 76.9248 31.789 77.1411 31.7274 77.4059C31.6658 77.6706 31.5909 77.9213 31.5029 78.1595C31.415 78.3969 31.3426 78.6625 31.2857 78.9561C31.2289 79.2498 31.218 79.5036 31.2535 79.7176C31.3154 80.0924 31.4687 80.3759 31.7135 80.5696C31.9583 80.7633 32.26 80.8461 32.619 80.8187C33.0604 80.7844 33.4648 80.5595 33.832 80.1432C33.9281 80.0346 34.0206 79.9167 34.1102 79.7925C34.209 79.9878 34.3375 80.1526 34.5006 80.2814C34.8078 80.5259 35.1769 80.6329 35.6078 80.604C36.1645 80.5673 36.6601 80.1947 37.0947 79.4856C37.191 79.8058 37.3642 80.0471 37.6143 80.2104C37.8643 80.3736 38.1474 80.4462 38.4637 80.4282C38.6828 80.4158 38.8868 80.3658 39.0753 80.2783C39.2638 80.1901 39.4283 80.0831 39.5686 79.955C39.7089 79.8277 39.8455 79.6629 39.9789 79.4598C39.9966 79.4333 40.0108 79.4083 40.0277 79.3817C40.1498 79.5832 40.3108 79.7519 40.5113 79.887C40.9107 80.1557 41.4376 80.2752 42.0918 80.2463C42.8323 80.2135 43.4627 80.0026 43.9824 79.6114C44.0083 79.5918 44.0303 79.5676 44.0556 79.5473C44.0538 79.6121 44.0552 79.6746 44.0644 79.7301C44.0879 79.873 44.1461 79.9792 44.239 80.0495C44.332 80.1198 44.436 80.1526 44.551 80.1487C44.8135 80.1393 44.9628 79.9815 44.9991 79.6738C45.0552 79.2459 45.1577 78.8023 45.3064 78.3438C45.4552 77.8854 45.6182 77.5137 45.7955 77.2294C46.033 76.8264 46.2808 76.482 46.5389 76.1954C46.7972 75.9095 47.0343 75.7635 47.25 75.758C47.3902 75.7541 47.4703 75.8119 47.49 75.9322C47.5179 76.1017 47.5008 76.3172 47.4391 76.5788C47.3773 76.8397 47.3024 77.0872 47.2141 77.32C47.126 77.5527 47.0534 77.8143 46.9963 78.1049C46.9393 78.3946 46.9285 78.6484 46.964 78.864C47.0262 79.242 47.1799 79.5348 47.4251 79.7418C47.6705 79.9487 47.9728 80.0479 48.3326 80.0401C48.7751 80.03 49.1801 79.8269 49.5481 79.4309C49.5696 79.4083 49.5893 79.3802 49.6106 79.3568C49.7003 79.4552 49.8014 79.5497 49.9278 79.634C50.2923 79.8777 50.7625 79.9956 51.3381 79.9886C52.0252 79.9808 52.6718 79.7839 53.2782 79.3966C53.8846 79.01 54.3264 78.5 54.6037 77.8643C54.6379 77.7862 54.6482 77.7073 54.6349 77.6253C54.6171 77.5168 54.5617 77.4262 54.4687 77.3528Z" fill="#1F1E1B"/>
<path id="Fill 12" fill-rule="evenodd" clip-rule="evenodd" d="M59.1152 72.7052C58.9534 73.1562 58.7403 73.5336 58.4756 73.8358C58.2109 74.138 57.9366 74.2883 57.6528 74.2852C57.5178 74.2845 57.402 74.2349 57.3053 74.138C57.2088 74.0412 57.1476 73.9117 57.122 73.7506C57.0622 73.3732 57.1346 73.0012 57.3395 72.6355C57.5443 72.2697 57.8338 71.9706 58.2082 71.7382C58.5826 71.5065 58.9813 71.374 59.4043 71.3422C59.3731 71.7994 59.2768 72.2535 59.1152 72.7052ZM66.795 71.3933C66.7468 71.0873 66.6465 70.8439 66.4943 70.6626C66.3419 70.4813 66.181 70.3868 66.0116 70.3798C65.8732 70.3744 65.7588 70.4232 65.6683 70.5255C65.5778 70.6277 65.5413 70.7347 65.5592 70.847C65.5664 70.8935 65.5874 70.9617 65.6223 71.0508C65.657 71.1407 65.683 71.2399 65.7001 71.3484C65.8087 72.0373 65.7672 72.8098 65.5754 73.6653C65.3837 74.5216 65.0817 75.343 64.6695 76.1326C64.1683 77.0997 63.6537 77.8529 63.126 78.393C62.5982 78.9323 62.1059 79.1973 61.6491 79.1864C61.4 79.1802 61.1839 79.1004 61.0009 78.9462C60.8178 78.7928 60.7049 78.5805 60.6623 78.3108C60.6074 77.9637 60.623 77.5878 60.7092 77.1841C60.7953 76.7796 60.9146 76.3891 61.0671 76.0117C61.2194 75.6343 61.3715 75.2546 61.5229 74.8711C61.6745 74.4883 61.7917 74.0853 61.8749 73.663C61.958 73.2399 61.97 72.8408 61.9107 72.4666C61.8436 72.0419 61.6763 71.6708 61.4089 71.3523C61.1414 71.0346 60.8049 70.8044 60.3994 70.6618C60.3976 70.6502 60.3957 70.6386 60.3939 70.627C60.3341 70.2488 60.2171 69.9517 60.0432 69.7351C59.8691 69.5184 59.6834 69.4085 59.4862 69.4054C59.365 69.4033 59.2669 69.4432 59.1918 69.5248C59.1166 69.6062 59.0878 69.703 59.1056 69.8148C59.1129 69.861 59.1451 69.9231 59.2023 70.0009C59.2619 70.0938 59.3165 70.2643 59.366 70.5107C58.9302 70.527 58.4991 70.6301 58.0729 70.8199C57.647 71.009 57.2798 71.2508 56.9717 71.5429C56.6636 71.835 56.4267 72.1729 56.261 72.5572C56.0955 72.9408 56.0423 73.3213 56.1023 73.6986C56.1772 74.1721 56.361 74.5386 56.653 74.7998C56.9452 75.0609 57.3163 75.1934 57.7663 75.1981C58.0813 75.2012 58.3936 75.0958 58.7036 74.8827C59.0135 74.6696 59.2846 74.3922 59.517 74.0497C59.7493 73.7072 59.9454 73.3213 60.1052 72.892C60.2649 72.4619 60.3663 72.0342 60.4094 71.608C60.6377 71.8087 60.7794 72.083 60.8343 72.4301C60.888 72.7696 60.8708 73.1407 60.7826 73.5421C60.6944 73.9443 60.5724 74.3341 60.4165 74.7122C60.2606 75.0896 60.1048 75.4685 59.9491 75.8482C59.7936 76.2279 59.6733 76.6285 59.5881 77.0508C59.5029 77.4724 59.4894 77.866 59.5473 78.2325C59.6365 78.7951 59.8716 79.25 60.2526 79.5979C60.6336 79.9451 61.0821 80.1248 61.5977 80.1372C62.3383 80.1551 63.0491 79.873 63.7302 79.2911C64.4113 78.7091 65.0392 77.8645 65.6139 76.7564C66.0799 75.8513 66.4245 74.9315 66.6481 73.9947C66.8715 73.0586 66.9206 72.1915 66.795 71.3933Z" fill="#1F1E1B"/>
<path id="Fill 13" fill-rule="evenodd" clip-rule="evenodd" d="M95.6663 81.9948C95.5371 82.1749 95.341 82.2467 95.0786 82.2093C94.841 82.1749 94.6432 82.0735 94.4861 81.9043C94.329 81.735 94.2397 81.5814 94.2181 81.4433C94.1862 81.2452 94.2341 81.0096 94.3617 80.7374C94.5977 80.2319 94.7915 79.7444 94.943 79.2748C94.967 79.317 95.0172 79.4074 95.0946 79.5463C95.1727 79.6844 95.2245 79.7803 95.2525 79.8326C95.2796 79.8848 95.325 79.973 95.3872 80.0962C95.4502 80.2194 95.4965 80.3177 95.5252 80.3918C95.5539 80.4651 95.5898 80.5564 95.6312 80.6656C95.6719 80.774 95.7054 80.8786 95.7301 80.9784C95.7541 81.079 95.7748 81.1804 95.7907 81.2834C95.837 81.5767 95.7963 81.8138 95.6663 81.9948ZM90.6088 80.4176C90.2507 81.1461 89.8807 81.4877 89.5003 81.4409C89.3472 81.4222 89.214 81.345 89.1 81.2093C88.986 81.0736 88.9102 80.8895 88.8727 80.6563C88.8025 80.214 88.8368 79.7748 88.9748 79.3388C89.1136 78.9028 89.3145 78.5572 89.5777 78.3029C89.84 78.0487 90.1128 77.9395 90.3935 77.9746C90.6 78.0003 90.7707 78.0728 90.9063 78.1906C91.0418 78.3084 91.1343 78.4597 91.1846 78.6446C91.0434 79.3154 90.852 79.9059 90.6088 80.4176ZM74.1164 79.7078C73.9864 79.8981 73.7886 79.9847 73.5247 79.9675C73.2854 79.9511 73.0861 79.8653 72.9282 79.7078C72.7703 79.551 72.6802 79.4043 72.6586 79.267C72.6411 79.1571 72.6507 79.0323 72.6834 78.8958C72.7408 78.785 72.7974 78.6735 72.8508 78.5533C72.8755 78.5019 72.8819 78.4418 72.8787 78.377C73.0813 77.9161 73.2527 77.4715 73.3875 77.0432C73.4114 77.0838 73.4625 77.1704 73.5406 77.303C73.6188 77.4356 73.6714 77.5276 73.6993 77.5775C73.7264 77.6282 73.7719 77.7125 73.8349 77.831C73.8987 77.9488 73.9449 78.044 73.9737 78.1157C74.0032 78.1875 74.0383 78.2756 74.0805 78.3809C74.122 78.487 74.1555 78.5884 74.1802 78.6875C74.2049 78.7858 74.2249 78.8856 74.2416 78.9878C74.2879 79.2772 74.2464 79.5174 74.1164 79.7078ZM69.079 78.519C68.7188 79.2756 68.3475 79.6446 67.9647 79.6266C67.8111 79.6196 67.6769 79.5525 67.5622 79.4254C67.4475 79.2982 67.3716 79.1196 67.3344 78.8903C67.2638 78.4535 67.298 78.0112 67.437 77.5651C67.5761 77.1181 67.7777 76.757 68.0422 76.4832C68.3066 76.2094 68.5802 76.0791 68.8625 76.0932C69.07 76.1033 69.2417 76.1618 69.3779 76.2694C69.5141 76.3771 69.6074 76.5214 69.6579 76.7024C69.5161 77.3841 69.3233 77.9894 69.079 78.519ZM80.5886 77.3404C80.8622 77.0596 81.1357 76.9317 81.4108 76.9574C81.6214 76.9769 81.7394 77.0674 81.7649 77.2289C81.8112 77.5159 81.6764 77.7702 81.3598 77.9917C81.0448 78.214 80.603 78.3646 80.0352 78.4465C80.1317 77.9902 80.3159 77.6212 80.5886 77.3404ZM98.3275 80.8099C98.2358 80.7218 98.1353 80.6695 98.0252 80.6531C97.9295 80.6383 97.8522 80.6609 97.7948 80.7226C97.7366 80.7834 97.6767 80.8825 97.6153 81.0205C97.4032 81.4721 97.1153 81.8325 96.7525 82.104C96.8314 81.8801 96.8514 81.6406 96.8107 81.3871C96.7708 81.1336 96.6871 80.8598 96.5595 80.5658C96.4311 80.2717 96.2995 80.012 96.1632 79.7842C96.0268 79.5572 95.8769 79.3037 95.715 79.0221C95.5523 78.7413 95.4303 78.5081 95.3489 78.3224C95.5571 77.7944 95.6456 77.4301 95.6137 77.2281C95.589 77.0736 95.5196 76.9403 95.4048 76.8295C95.2899 76.718 95.1416 76.6493 94.9606 76.6236C94.7445 76.5924 94.565 76.6953 94.4239 76.9309C94.2819 77.1665 94.2413 77.4761 94.3019 77.8607C94.3114 77.9176 94.3202 77.9753 94.3298 78.0323C94.0802 78.9745 93.8298 79.7257 93.577 80.2912C93.5538 80.3325 93.5307 80.3754 93.5084 80.4277C93.0514 81.4292 92.6296 81.9051 92.242 81.8544C92.1495 81.8419 92.0658 81.7842 91.99 81.6812C91.9151 81.579 91.8632 81.4386 91.8345 81.26C91.7899 80.98 91.7986 80.6555 91.8608 80.2881C91.9222 79.9207 92.0307 79.4457 92.1854 78.8622C92.3983 78.3599 92.4932 78.0393 92.4717 77.9012C92.4517 77.7788 92.3991 77.6735 92.3122 77.5869C92.2253 77.4995 92.1176 77.4481 91.99 77.4309C91.8584 77.4137 91.7356 77.4527 91.6216 77.5479C91.5083 77.6438 91.431 77.7796 91.3887 77.9566C91.1176 77.519 90.7523 77.2702 90.2938 77.2133C89.9238 77.1665 89.5649 77.2257 89.218 77.3911C88.8703 77.5557 88.5761 77.7889 88.3336 78.0892C88.092 78.3895 87.9126 78.7522 87.7969 79.1758C87.7491 79.3505 87.7212 79.5268 87.7044 79.7039C87.5114 80.1258 87.3065 80.4628 87.088 80.7148C86.8679 80.9683 86.6526 81.0829 86.4428 81.0595C86.2467 81.0377 86.1254 80.8832 86.08 80.5954C86.0449 80.3747 86.0561 80.1383 86.1135 79.8848C86.1709 79.6321 86.2443 79.4121 86.3336 79.2241C86.4229 79.0369 86.4987 78.8302 86.5601 78.6048C86.6223 78.3794 86.639 78.1781 86.6111 78.0011C86.5936 77.8903 86.5569 77.7866 86.5011 77.6899C86.4452 77.5924 86.3655 77.4995 86.2626 77.4106C86.1589 77.3217 86.0672 77.2484 85.9859 77.1914C85.9053 77.1337 85.7905 77.0588 85.643 76.9652C85.4947 76.8716 85.3894 76.8038 85.3272 76.7624C85.4795 76.3568 85.5401 76.0596 85.5106 75.8709C85.4867 75.7211 85.4213 75.594 85.3152 75.4894C85.21 75.3849 85.0768 75.3249 84.9165 75.3077C84.7091 75.2858 84.5313 75.3997 84.3822 75.6493C84.2323 75.8989 84.1892 76.2203 84.2522 76.6142C84.261 76.6712 84.2705 76.7281 84.2793 76.785C84.0433 77.6485 83.7554 78.4535 83.4188 79.2015C83.4157 79.2085 83.4125 79.2124 83.4101 79.2187C83.2035 79.682 82.9093 80.0229 82.5289 80.2436C82.1485 80.4636 81.7011 80.5494 81.1875 80.5018C80.8877 80.4737 80.6301 80.37 80.4148 80.1906C80.2003 80.0104 80.0695 79.7748 80.0224 79.4847C80.0009 79.3505 79.9897 79.2569 79.9881 79.2023C80.8749 79.1383 81.5879 78.9371 82.1285 78.5962C82.6692 78.2554 82.9021 77.8544 82.8279 77.3895C82.7753 77.0596 82.6198 76.7921 82.3606 76.5893C82.1014 76.3857 81.7633 76.2648 81.3462 76.2258C81.0288 76.1961 80.7091 76.2546 80.3861 76.4013C80.0631 76.5487 79.7776 76.7577 79.5288 77.0284C79.28 77.2991 79.0934 77.647 78.9698 78.0721C78.8972 78.3217 78.8637 78.5814 78.8597 78.8482C78.8095 78.9597 78.7593 79.0666 78.709 79.1656C78.3159 79.9425 77.9466 80.3177 77.6013 80.2904C77.3222 80.2678 77.1532 80.0712 77.0933 79.6984C76.9953 79.0884 77.1428 78.0572 77.5343 76.6072C77.7959 76.6275 78.0575 76.6493 78.3191 76.6704C78.4371 76.6805 78.5256 76.6556 78.5846 76.5971C78.6149 76.5674 78.6341 76.53 78.6444 76.4847C78.6564 76.4379 78.6596 76.3826 78.6492 76.317C78.6333 76.2195 78.5854 76.1361 78.5057 76.0674C78.4267 75.9988 78.3278 75.9598 78.2098 75.9496C78.0527 75.9372 77.8956 75.9239 77.7385 75.9114C77.8222 75.6415 77.906 75.3717 77.9889 75.1018C78.1931 74.6189 78.284 74.3046 78.2608 74.1595C78.2409 74.0339 78.1835 73.9286 78.0886 73.8436C77.9937 73.7586 77.8789 73.7102 77.7433 73.6993C77.5343 73.6829 77.3438 73.8569 77.1731 74.2227C77.1141 74.3459 77.0575 74.4918 77.0032 74.6603C76.878 75.0479 76.7528 75.4364 76.6284 75.8241C76.4179 75.8077 76.2082 75.7921 75.9976 75.7765C75.7999 75.7617 75.6858 75.8178 75.6579 75.9442C75.6459 75.9886 75.6428 76.0401 75.6523 76.1025C75.6914 76.3459 75.8429 76.4769 76.1077 76.4964C76.2201 76.505 76.3326 76.5136 76.445 76.5222C76.2265 77.381 76.0933 78.0892 76.0439 78.6501C75.8333 79.0876 75.5566 79.4503 75.2097 79.7343C75.2887 79.5042 75.3086 79.2639 75.2679 79.0128C75.2281 78.7624 75.1435 78.4948 75.0144 78.2109C74.886 77.927 74.7528 77.6766 74.6156 77.4598C74.4785 77.2437 74.3277 77.0003 74.165 76.732C74.0016 76.4637 73.8788 76.2398 73.7966 76.0596C74.0064 75.516 74.0949 75.1447 74.063 74.9458C74.0383 74.7929 73.9681 74.665 73.8524 74.5628C73.7368 74.4598 73.5885 74.4029 73.4059 74.3904C73.1882 74.3764 73.0079 74.4926 72.8652 74.7391C72.7232 74.9855 72.6826 75.2983 72.7432 75.6782C72.7527 75.7344 72.7615 75.7913 72.7711 75.8482C72.4999 76.888 72.2264 77.707 71.9513 78.3061C71.8341 78.5635 71.7535 78.7577 71.7065 78.8942C71.3564 79.5323 71.0277 79.8489 70.7211 79.8318C70.6282 79.8263 70.5438 79.7748 70.4678 79.6781C70.3919 79.5814 70.3398 79.4449 70.3114 79.2686C70.2667 78.9917 70.2754 78.6672 70.3375 78.2944C70.3998 77.9223 70.5086 77.4387 70.6641 76.8435C70.878 76.3248 70.974 75.998 70.9518 75.8607C70.9323 75.7398 70.8789 75.6392 70.7915 75.5589C70.7042 75.4785 70.5961 75.4348 70.4674 75.4278C70.3351 75.42 70.2119 75.4684 70.0975 75.5729C69.9833 75.6766 69.9051 75.8194 69.8633 75.9988C69.5903 75.5815 69.2233 75.3615 68.762 75.3389C68.3901 75.3202 68.0298 75.4075 67.6809 75.5986C67.332 75.7897 67.0359 76.0448 66.7926 76.3638C66.5493 76.6829 66.3694 77.0588 66.253 77.4917C66.1365 77.9239 66.1132 78.3568 66.1832 78.7897C66.262 79.2764 66.4536 79.6586 66.7579 79.9363C67.0622 80.2148 67.4289 80.363 67.858 80.3825C68.4124 80.4082 68.9057 80.0915 69.3382 79.4324C69.4341 79.7624 69.6065 80.0229 69.8553 80.214C70.1042 80.4051 70.3859 80.5096 70.7005 80.5268C71.1403 80.5517 71.5406 80.3817 71.901 80.0159C71.9234 79.9925 71.9449 79.9644 71.9672 79.9402C72.0573 80.0471 72.1586 80.15 72.2854 80.2452C72.6475 80.5174 73.1148 80.6719 73.6866 80.7093C74.3684 80.7545 75.0112 80.6087 75.6132 80.2694C75.807 80.1594 75.9777 80.0307 76.138 79.8934C76.2281 80.1695 76.3677 80.3981 76.559 80.5751C76.8262 80.8216 77.1651 80.9612 77.5758 80.994C78.0152 81.0299 78.4171 80.8684 78.7824 80.5096C78.9028 80.3918 79.016 80.2553 79.1261 80.111C79.2497 80.3458 79.4132 80.5517 79.6245 80.7241C80.0216 81.047 80.5448 81.2381 81.1939 81.2982C81.9284 81.3661 82.5536 81.2413 83.0688 80.9207C83.5129 80.6446 83.8638 80.2475 84.1318 79.7421C84.1756 79.6805 84.2195 79.6064 84.2618 79.5065C84.5895 78.7702 84.8591 78.0533 85.0696 77.356C85.1509 77.4075 85.2139 77.4488 85.2578 77.4808C85.3009 77.5128 85.3519 77.5534 85.4109 77.6017C85.4691 77.6509 85.513 77.7 85.5417 77.7499C85.5712 77.7991 85.5903 77.8537 85.5999 77.9129C85.6222 78.0541 85.6031 78.2366 85.5425 78.4582C85.4811 78.6797 85.4085 78.8895 85.3248 79.0876C85.2411 79.2858 85.1717 79.5143 85.1167 79.7741C85.0616 80.033 85.0513 80.2709 85.0856 80.4878C85.147 80.8739 85.3001 81.1859 85.5425 81.4253C85.7857 81.6648 86.0856 81.8037 86.4412 81.8434C86.9748 81.9027 87.4628 81.6445 87.9086 81.0821C88.0067 81.3021 88.1351 81.4963 88.2993 81.6594C88.6024 81.9604 88.9668 82.1367 89.3943 82.1882C89.9453 82.2561 90.4366 81.9768 90.8664 81.3505C90.9621 81.6874 91.1335 81.9612 91.3808 82.171C91.6288 82.3809 91.9087 82.5064 92.2213 82.5478C92.6591 82.6063 93.0562 82.4659 93.4151 82.1281C93.4462 82.0985 93.4757 82.0626 93.506 82.0314C93.6001 82.1562 93.7086 82.2787 93.8473 82.3933C94.207 82.6929 94.6711 82.8824 95.2397 82.9635C95.9175 83.061 96.5555 82.9628 97.1536 82.6695C97.7517 82.3762 98.1871 81.9339 98.4607 81.3411C98.4941 81.2693 98.5045 81.1913 98.491 81.1079C98.4734 80.9971 98.4192 80.8973 98.3275 80.8099Z" fill="#1F1E1B"/>
<path id="Fill 14" fill-rule="evenodd" clip-rule="evenodd" d="M67.9605 73.7122C67.8613 73.686 67.7751 73.6965 67.7011 73.7451C67.6272 73.7937 67.5876 73.8654 67.5823 73.9603C67.5769 74.0553 67.6072 74.1457 67.6736 74.2316C67.7399 74.3168 67.8225 74.3729 67.9216 74.3998C68.0209 74.426 68.1073 74.4155 68.1811 74.3669C68.255 74.3183 68.2946 74.2473 68.3 74.1517C68.3054 74.0575 68.2739 73.9671 68.2059 73.8826C68.1414 73.7959 68.0595 73.7391 67.9605 73.7122Z" fill="#1F1E1B"/>
<path id="Fill 15" fill-rule="evenodd" clip-rule="evenodd" d="M69.3985 73.7128C69.2994 73.6859 69.2128 73.6963 69.1391 73.7441C69.0651 73.7927 69.0257 73.8637 69.0202 73.9585C69.0148 74.0534 69.0452 74.1445 69.1115 74.2297C69.1779 74.3156 69.2605 74.3724 69.3596 74.3993C69.4587 74.4262 69.5452 74.4157 69.6191 74.3672C69.6929 74.3193 69.7326 74.2484 69.7379 74.1535C69.7434 74.0586 69.712 73.9682 69.6439 73.8838C69.5794 73.7964 69.4976 73.7389 69.3985 73.7128Z" fill="#1F1E1B"/>
<path id="Fill 16" fill-rule="evenodd" clip-rule="evenodd" d="M5.22987 67.9741L4.78295 68.1212L5.15249 69.4336L4.15975 69.7596L3.78991 68.4474L3.35125 68.5914L3.72094 69.904L2.95055 70.1573L2.58086 68.8446L2.15686 68.9839L2.67847 70.8362L5.75163 69.8265L5.22987 67.9741Z" fill="#1F1E1B"/>
<path id="Fill 17" fill-rule="evenodd" clip-rule="evenodd" d="M4.9131 66.544L3.34753 66.9799L4.6219 65.1406L4.46723 64.3965L3.0923 66.4433L1.43793 65.4168L1.58428 66.1221L3.11725 67.0442L1.84903 67.3971L1.96863 67.9741L5.0327 67.121L4.9131 66.544Z" fill="#1F1E1B"/>
<path id="Fill 18" fill-rule="evenodd" clip-rule="evenodd" d="M1.25061 63.5283C1.22302 63.3661 1.22856 63.2063 1.26729 63.0496C1.30635 62.8926 1.37536 62.7489 1.47464 62.6185C1.57523 62.4847 1.69705 62.375 1.84036 62.289C1.98391 62.2031 2.14089 62.1464 2.31138 62.1186C2.48056 62.091 2.64682 62.0951 2.81014 62.1312C2.97339 62.167 3.12467 62.2325 3.26415 62.3272C3.40372 62.4233 3.5174 62.5387 3.60521 62.6734C3.69294 62.8084 3.75055 62.9559 3.77789 63.1168C3.80564 63.2805 3.8006 63.4407 3.76251 63.5965C3.7241 63.7526 3.65501 63.8974 3.55451 64.031C3.45401 64.1648 3.33275 64.2742 3.19083 64.3591C3.04891 64.4438 2.89258 64.5003 2.72193 64.5282C2.54998 64.5563 2.38169 64.5526 2.21771 64.5174C2.05373 64.4824 1.90294 64.4174 1.76525 64.3224C1.6256 64.2278 1.51208 64.1123 1.42427 63.976C1.33606 63.8397 1.27828 63.6907 1.25061 63.5283ZM2.11249 65.0673C2.34092 65.1196 2.57602 65.1264 2.8173 65.087C3.06022 65.0476 3.28035 64.9669 3.47753 64.8451C3.67471 64.7234 3.843 64.5649 3.98175 64.3692C4.11968 64.1768 4.21522 63.9655 4.26844 63.7354C4.32158 63.5051 4.32793 63.2712 4.28749 63.0338C4.24745 62.7994 4.16477 62.5828 4.0392 62.384C3.9138 62.185 3.75283 62.0145 3.55614 61.8718C3.3601 61.7308 3.14738 61.6337 2.91895 61.5806C2.69019 61.5274 2.45598 61.5205 2.21624 61.5594C1.97789 61.5983 1.75914 61.6792 1.55952 61.8019C1.36014 61.9248 1.18949 62.0843 1.04757 62.2803C0.908657 62.4759 0.813444 62.687 0.762013 62.914C0.710582 63.1409 0.705293 63.3731 0.745656 63.6106C0.786427 63.8493 0.868538 64.0686 0.992802 64.2675C1.11666 64.4665 1.27681 64.6367 1.47302 64.7776C1.67085 64.9186 1.88414 65.0153 2.11249 65.0673Z" fill="#1F1E1B"/>
<path id="Fill 19" fill-rule="evenodd" clip-rule="evenodd" d="M4.13017 58.6724L3.61533 58.7216L3.7423 59.9705L0.718933 60.2602L0.775659 60.8189L4.3137 60.48L4.13017 58.6724Z" fill="#1F1E1B"/>
<path id="Fill 20" fill-rule="evenodd" clip-rule="evenodd" d="M0.593654 55.7386C0.652797 55.5879 0.740371 55.4541 0.856377 55.3372C0.97393 55.2174 1.10949 55.1239 1.26321 55.0568C1.41669 54.9898 1.58019 54.953 1.75338 54.9472C1.92486 54.9412 2.08934 54.9665 2.24656 55.0227C2.40387 55.0789 2.54546 55.163 2.67132 55.2745C2.79702 55.3875 2.89461 55.5165 2.96378 55.6613C3.03318 55.806 3.07082 55.96 3.07669 56.1227C3.0828 56.2888 3.0564 56.4469 2.99791 56.5968C2.93942 56.7466 2.85119 56.8815 2.7338 57.0015C2.61649 57.1215 2.48175 57.2146 2.32966 57.2808C2.1774 57.3472 2.0148 57.3833 1.84161 57.3893C1.66711 57.3954 1.5006 57.3706 1.34247 57.3151C1.18451 57.2594 1.04326 57.176 0.919104 57.0642C0.793242 56.9528 0.69581 56.8239 0.626403 56.6775C0.557158 56.5313 0.51944 56.3759 0.513412 56.2113C0.507384 56.0468 0.534348 55.8895 0.593654 55.7386ZM1.16529 57.8474C1.38508 57.9281 1.61766 57.9643 1.8623 57.9558C2.10848 57.9473 2.33764 57.895 2.54961 57.7994C2.76158 57.7037 2.94944 57.5675 3.11326 57.3912C3.27554 57.2176 3.39839 57.0202 3.48164 56.7984C3.5649 56.5767 3.60237 56.3456 3.59349 56.105C3.58494 55.8672 3.5315 55.6419 3.43317 55.4289C3.33493 55.2158 3.19782 55.0261 3.02162 54.8598C2.84549 54.6953 2.64745 54.5719 2.42742 54.4903C2.20746 54.4088 1.97594 54.3721 1.73261 54.3806C1.49106 54.3887 1.26296 54.4413 1.0488 54.5379C0.834707 54.6346 0.643755 54.7712 0.47716 54.9478C0.313336 55.1241 0.190813 55.3218 0.109919 55.5404C0.0288624 55.7588 -0.00738923 55.9886 0.00124599 56.2291C0.0101256 56.4712 0.062833 56.6991 0.159613 56.9122C0.256392 57.1254 0.392763 57.3144 0.568971 57.479C0.7464 57.6438 0.945336 57.7664 1.16529 57.8474Z" fill="#1F1E1B"/>
<path id="Fill 21" fill-rule="evenodd" clip-rule="evenodd" d="M0.444496 53.0487C0.603218 53.2384 0.789384 53.385 1.00356 53.4881C1.2175 53.5913 1.45375 53.649 1.71248 53.6615C1.9664 53.6739 2.20664 53.6401 2.43361 53.56C2.66033 53.4801 2.86001 53.3589 3.03266 53.1966C3.20694 53.0314 3.34058 52.835 3.43317 52.6082C3.52593 52.3815 3.57886 52.1209 3.59189 51.8259C3.61494 51.299 3.49962 50.8841 3.24603 50.5814C2.99251 50.2787 2.62515 50.1158 2.14353 50.0922C2.10476 50.0903 2.02992 50.089 1.91892 50.0887C1.87682 50.0883 1.84408 50.0877 1.82071 50.0864L1.75808 51.5107L2.22773 51.5334L2.26585 50.669L2.31479 50.6715C2.57026 50.6839 2.76783 50.7895 2.90749 50.9882C3.04683 51.1868 3.10929 51.4534 3.09463 51.7873C3.07745 52.18 2.94292 52.4941 2.69144 52.7287C2.43996 52.9632 2.12097 53.0712 1.73447 53.0524C1.35456 53.0339 1.05104 52.8956 0.82432 52.6376C0.597599 52.38 0.492788 52.056 0.509972 51.6665C0.51836 51.4783 0.558509 51.3094 0.630662 51.1605C0.702816 51.0114 0.80844 50.8795 0.94778 50.7651L0.660387 50.3228C0.450197 50.4881 0.291068 50.6801 0.183163 50.8986C0.0752585 51.1174 0.0149133 51.3684 0.00237195 51.6518C-0.00935505 51.9201 0.0224056 52.1741 0.0975724 52.4142C0.172983 52.6542 0.288462 52.8656 0.444496 53.0487Z" fill="#1F1E1B"/>
<path id="Fill 22" fill-rule="evenodd" clip-rule="evenodd" d="M4.3137 48.9321L0.777677 48.6553L0.718933 49.0939L4.25471 49.3708L4.3137 48.9321Z" fill="#1F1E1B"/>
<path id="Fill 23" fill-rule="evenodd" clip-rule="evenodd" d="M1.5149 47.6113C1.72848 47.6392 1.91845 47.6078 2.0848 47.517C2.25107 47.4261 2.45321 47.2269 2.69131 46.9195C2.70577 46.8991 2.72799 46.87 2.75806 46.8319C2.96355 46.5593 3.1661 46.4363 3.36555 46.4625C3.51883 46.4824 3.63395 46.5412 3.71092 46.6388C3.78805 46.7363 3.81436 46.8575 3.7901 47.0026C3.76444 47.1559 3.70357 47.2766 3.60732 47.3647C3.51115 47.4529 3.38401 47.5055 3.22608 47.5225L3.36522 47.9395C3.62145 47.9212 3.82964 47.8389 3.99003 47.6929C4.1505 47.5467 4.25223 47.3457 4.29504 47.0898C4.34627 46.7843 4.29202 46.5299 4.13245 46.3257C3.97279 46.1215 3.73208 45.9983 3.41 45.9562C3.18874 45.9273 2.99476 45.9584 2.82849 46.0501C2.66214 46.1417 2.47666 46.3257 2.27215 46.6025C2.26178 46.6166 2.24772 46.6357 2.22926 46.6598C1.99623 46.9763 1.77726 47.1211 1.57307 47.0942C1.443 47.0772 1.34576 47.025 1.28122 46.9375C1.21683 46.8501 1.19559 46.7406 1.21773 46.6092C1.23309 46.5161 1.27166 46.4369 1.33335 46.3715C1.39471 46.3061 1.48409 46.2504 1.60093 46.204L1.44202 45.793C1.25123 45.8267 1.09501 45.912 0.973265 46.0485C0.851522 46.1851 0.772267 46.3642 0.735172 46.586C0.689907 46.8556 0.739258 47.0849 0.883388 47.2737C1.02727 47.4625 1.23783 47.5749 1.5149 47.6113Z" fill="#1F1E1B"/>
<path id="Fill 24" fill-rule="evenodd" clip-rule="evenodd" d="M4.63919 44.5773L3.0577 44.2475L4.89626 43.3613L5.0327 42.7163L3.02558 43.7208L1.90673 42.2153L1.77744 42.8266L2.82499 44.1986L1.54383 43.9313L1.43793 44.4313L4.53359 45.0774L4.63919 44.5773Z" fill="#1F1E1B"/>
<path id="Fill 25" fill-rule="evenodd" clip-rule="evenodd" d="M2.83166 40.7184L5.61089 41.3987L5.75163 40.9205L2.97217 40.2402L3.20086 39.4624L2.75609 39.3535L2.15686 41.3911L2.60162 41.5001L2.83166 40.7184Z" fill="#1F1E1B"/>
<path id="Fill 26" fill-rule="evenodd" clip-rule="evenodd" d="M6.25059 40.7846L6.47056 40.4812L5.35301 39.3535L5.03265 39.8159L6.25059 40.7846Z" fill="#1F1E1B"/>
<path id="Fill 27" fill-rule="evenodd" clip-rule="evenodd" d="M7.05259 36.0145L5.4766 35.4404L6.11988 33.9982L7.69578 34.5723L7.90851 34.0955L4.66344 32.9136L4.45071 33.3903L5.64774 33.8262L5.00446 35.2686L3.80752 34.8325L3.59479 35.3092L6.83994 36.4912L7.05259 36.0145Z" fill="#1F1E1B"/>
<path id="Fill 28" fill-rule="evenodd" clip-rule="evenodd" d="M7.33706 32.071L6.82174 31.4542C6.78452 31.4137 6.74318 31.3711 6.69703 31.3269C6.65095 31.2827 6.60014 31.2375 6.54466 31.1909C6.62054 31.2055 6.69053 31.2171 6.7538 31.2256C6.81715 31.2341 6.87408 31.24 6.92443 31.2436L7.72899 31.2666L7.33706 32.071ZM9.10465 31.3256L9.34642 30.8298L5.80116 30.7671L5.75165 30.8685L7.98207 33.6292L8.22277 33.1353L7.64279 32.4359L8.20122 31.2901L9.10465 31.3256Z" fill="#1F1E1B"/>
<path id="Fill 29" fill-rule="evenodd" clip-rule="evenodd" d="M5.44317 30.6152C5.48505 30.5296 5.55082 30.4721 5.64091 30.442C5.73078 30.4118 5.81844 30.4174 5.90347 30.4585C5.9885 30.5 6.04596 30.5655 6.07617 30.6553C6.10647 30.7448 6.10079 30.8314 6.05985 30.9151C6.01797 31.0004 5.95293 31.0587 5.86506 31.0899C5.77698 31.1209 5.68931 31.1153 5.60228 31.073C5.51736 31.0315 5.45906 30.9665 5.42759 30.8772C5.39602 30.788 5.40118 30.7009 5.44317 30.6152ZM5.43927 31.4059C5.62038 31.4936 5.80265 31.5065 5.98598 31.4435C6.16909 31.3809 6.30484 31.2591 6.39324 31.0789C6.48175 30.8984 6.49427 30.7164 6.43081 30.5324C6.36736 30.3486 6.2457 30.213 6.06648 30.1259C5.88905 30.0396 5.70657 30.0288 5.51936 30.0927C5.33193 30.1572 5.19481 30.2774 5.10841 30.4544C5.02075 30.6326 5.00906 30.8142 5.07389 30.9985C5.13819 31.1826 5.26005 31.3186 5.43927 31.4059Z" fill="#1F1E1B"/>
<path id="Fill 30" fill-rule="evenodd" clip-rule="evenodd" d="M9.81375 29.328L7.44305 27.9053L7.18951 28.3867L9.9639 30.0518L10.7843 28.4938L10.3805 28.2516L9.81375 29.328Z" fill="#1F1E1B"/>
<path id="Fill 31" fill-rule="evenodd" clip-rule="evenodd" d="M12.2222 26.4788L11.8293 26.2307L11.2118 27.2163L8.90363 25.7588L8.62744 26.1997L11.3289 27.9053L12.2222 26.4788Z" fill="#1F1E1B"/>
<path id="Fill 32" fill-rule="evenodd" clip-rule="evenodd" d="M11.1322 25.0226L11.3341 24.7049C11.397 24.6058 11.4526 24.5305 11.5004 24.4783C11.5485 24.4265 11.5978 24.3852 11.6484 24.3549C11.7314 24.3091 11.8178 24.2914 11.9075 24.3019C11.9971 24.3125 12.0851 24.3521 12.1718 24.4199C12.2446 24.4772 12.3009 24.5462 12.3406 24.6268C12.3801 24.7076 12.3988 24.7922 12.3961 24.8807C12.3955 24.9548 12.3742 25.0392 12.3324 25.134C12.2907 25.229 12.2153 25.3625 12.1059 25.5342L11.9985 25.7033L11.1322 25.0226ZM10.7982 24.7601L10.0193 24.1478L10.1385 23.96C10.2969 23.7111 10.4342 23.5659 10.5511 23.5237C10.6679 23.4812 10.8005 23.5186 10.9488 23.6351C11.0851 23.7421 11.151 23.8666 11.1467 24.0086C11.1425 24.1507 11.0663 24.3389 10.9176 24.5725L10.7982 24.7601ZM12.5485 25.7088C12.732 25.4201 12.8472 25.2025 12.8941 25.0556C12.9408 24.9092 12.9528 24.7649 12.93 24.6232C12.9107 24.4902 12.8649 24.3636 12.7932 24.2434C12.7211 24.1231 12.6303 24.0195 12.5203 23.9329C12.3384 23.7901 12.1558 23.7223 11.9722 23.7295C11.7885 23.7367 11.6286 23.819 11.492 23.9753C11.5436 23.8038 11.5445 23.6424 11.4947 23.4918C11.4449 23.3414 11.3476 23.2093 11.2028 23.0954C11.0817 23.0001 10.9546 22.9392 10.8216 22.9119C10.6889 22.8846 10.5617 22.8935 10.4403 22.9386C10.3459 22.9736 10.2551 23.0345 10.1681 23.1219C10.0811 23.2093 9.96851 23.3614 9.83029 23.5787L9.34644 24.3398L12.0621 26.4741L12.5485 25.7088Z" fill="#1F1E1B"/>
<path id="Fill 33" fill-rule="evenodd" clip-rule="evenodd" d="M13.2048 21.7572C13.1777 21.7052 13.1467 21.6503 13.1115 21.5924C13.0766 21.5348 13.037 21.4745 12.993 21.4121C13.0643 21.4454 13.1302 21.4742 13.1906 21.4981C13.2511 21.522 13.3057 21.5418 13.3543 21.5574L14.1357 21.7773L13.5713 22.5319L13.2048 21.7572ZM14.2024 23.8652L13.7898 22.9895L14.5922 21.9168L15.4696 22.1712L15.817 21.7072L12.2222 20.75L13.8565 24.3276L14.2024 23.8652Z" fill="#1F1E1B"/>
<path id="Fill 34" fill-rule="evenodd" clip-rule="evenodd" d="M15.1836 19.6351L14.423 18.9368L14.4941 18.8586C14.6922 18.6399 14.858 18.5176 14.991 18.4918C15.1242 18.4659 15.2635 18.5198 15.4095 18.6538C15.5449 18.7781 15.605 18.902 15.5897 19.0263C15.5745 19.1504 15.4628 19.3272 15.2547 19.5566L15.1836 19.6351ZM16.6801 21.0586L15.4939 19.9698L15.5384 19.9209L17.5294 20.1221L17.9739 19.632L15.9349 19.4433C16.0937 19.2196 16.1597 19.0011 16.1331 18.7874C16.1066 18.5737 15.9872 18.3695 15.7748 18.1743C15.654 18.0637 15.5226 17.9841 15.3804 17.936C15.2383 17.8878 15.0979 17.8757 14.9588 17.8995C14.8429 17.9201 14.7291 17.9687 14.6174 18.0455C14.5059 18.122 14.3697 18.2491 14.209 18.4264L13.6602 19.0316L16.3117 21.4653L16.6801 21.0586Z" fill="#1F1E1B"/>
<path id="Fill 35" fill-rule="evenodd" clip-rule="evenodd" d="M16.8395 16.4304L18.9975 18.6035L19.4118 18.201L17.2539 16.0283L17.9277 15.3735L17.5822 15.0259L15.817 16.7405L16.1624 17.0884L16.8395 16.4304Z" fill="#1F1E1B"/>
<path id="Fill 36" fill-rule="evenodd" clip-rule="evenodd" d="M20.1307 17.7729L19.7912 16.457L19.4117 16.6398L19.8752 17.8881L20.1307 17.7729Z" fill="#1F1E1B"/>
<path id="Fill 37" fill-rule="evenodd" clip-rule="evenodd" d="M22.8978 12.6945L20.1307 12.3781L22.1288 15.026L22.5037 14.7338L21.1674 12.9629C21.2433 12.9867 21.3194 13.0065 21.3958 13.0224C21.4721 13.0384 21.5482 13.0511 21.6239 13.0601L24.4445 13.3792L22.448 10.7329L22.0714 11.0264L23.4037 12.792C23.3074 12.768 23.218 12.7481 23.1359 12.7329C23.0539 12.7177 22.9744 12.7049 22.8978 12.6945Z" fill="#1F1E1B"/>
<path id="Fill 38" fill-rule="evenodd" clip-rule="evenodd" d="M24.0112 9.29406C24.1075 9.31388 24.1977 9.29632 24.282 9.24136C24.3682 9.18528 24.4203 9.1107 24.4383 9.01732C24.4559 8.92436 24.4357 8.83417 24.378 8.74644C24.3232 8.66385 24.2481 8.61321 24.1525 8.59411C24.057 8.5749 23.9687 8.59174 23.8874 8.64444C23.8063 8.69734 23.7553 8.77284 23.7343 8.87022C23.7135 8.96771 23.7293 9.05605 23.7819 9.13535C23.8388 9.22113 23.9152 9.27403 24.0112 9.29406Z" fill="#1F1E1B"/>
<path id="Fill 39" fill-rule="evenodd" clip-rule="evenodd" d="M24.7302 8.57827C24.8265 8.59809 24.9169 8.58033 25.0012 8.52558C25.0874 8.4695 25.1393 8.39493 25.1571 8.30157C25.175 8.20861 25.155 8.11823 25.0972 8.03072C25.0424 7.94814 24.9672 7.89719 24.8717 7.87819C24.776 7.85919 24.6876 7.87583 24.6064 7.92873C24.5251 7.98162 24.4741 8.05711 24.4533 8.15438C24.4325 8.25186 24.4483 8.34008 24.5006 8.41938C24.5574 8.50514 24.6339 8.55824 24.7302 8.57827Z" fill="#1F1E1B"/>
<path id="Fill 40" fill-rule="evenodd" clip-rule="evenodd" d="M25.3306 11.2437L25.1845 10.4653C25.1719 10.4125 25.156 10.3555 25.1367 10.2951C25.1175 10.2347 25.0942 10.1709 25.0669 10.1038C25.1334 10.154 25.1957 10.1987 25.2536 10.2374C25.3115 10.2762 25.3643 10.3095 25.412 10.3377L26.1895 10.7615L25.3306 11.2437ZM27.5109 11.5009L28.0392 11.204L24.4445 9.30176L25.0561 12.8793L25.5824 12.5838L25.4191 11.7043L26.6402 11.0186L27.5109 11.5009Z" fill="#1F1E1B"/>
<path id="Fill 41" fill-rule="evenodd" clip-rule="evenodd" d="M27.7611 8.77443L27.2932 7.93185L27.3769 7.88245C27.6112 7.74497 27.7898 7.68391 27.9131 7.69928C28.0366 7.71497 28.1431 7.80346 28.233 7.96515C28.3163 8.11518 28.3337 8.24293 28.2859 8.34944C28.2377 8.4557 28.0909 8.5808 27.845 8.72527L27.7611 8.77443ZM28.6679 10.4774L27.938 9.16298L27.9908 9.13192L29.6712 9.88827L30.1961 9.58008L28.4701 8.82117C28.6713 8.66752 28.7902 8.4919 28.827 8.29377C28.8636 8.09587 28.8166 7.87899 28.6858 7.64345C28.6114 7.50975 28.5191 7.40067 28.4085 7.3166C28.298 7.23262 28.1786 7.18113 28.0509 7.16215C27.9441 7.14686 27.8313 7.157 27.7123 7.1932C27.5935 7.22916 27.4392 7.30309 27.2492 7.4145L26.6013 7.79501L28.2328 10.7329L28.6679 10.4774Z" fill="#1F1E1B"/>
<path id="Fill 42" fill-rule="evenodd" clip-rule="evenodd" d="M30.5117 7.32417L30.1243 6.49288L30.2405 6.43075C30.4804 6.30291 30.6606 6.24783 30.7806 6.26503C30.9004 6.28262 30.9974 6.37091 31.0715 6.52981C31.1404 6.6777 31.1468 6.80348 31.0901 6.90658C31.0336 7.00961 30.8794 7.12802 30.6279 7.2622L30.5117 7.32417ZM31.2921 9.07528L30.6682 7.73653L30.8396 7.64531L30.9293 7.59768C31.1325 7.48918 31.2766 7.39796 31.3618 7.32378C31.4469 7.24983 31.5124 7.16646 31.5582 7.07405C31.6142 6.95961 31.6392 6.82931 31.6331 6.68349C31.6268 6.53726 31.5908 6.39366 31.5251 6.2525C31.4591 6.11104 31.3743 5.99509 31.2699 5.90403C31.1656 5.81281 31.0534 5.7559 30.9335 5.73331C30.837 5.71699 30.7353 5.72238 30.6284 5.74972C30.5215 5.77722 30.3662 5.84498 30.1629 5.95316L29.4771 6.31884L30.8673 9.30171L31.2921 9.07528Z" fill="#1F1E1B"/>
<path id="Fill 43" fill-rule="evenodd" clip-rule="evenodd" d="M33.4658 6.59383L33.0692 5.70564L33.1637 5.6667C33.4275 5.5575 33.6238 5.51792 33.7526 5.54732C33.8809 5.57689 33.9835 5.67704 34.0595 5.84753C34.1302 6.00552 34.1338 6.13435 34.0707 6.23386C34.0075 6.33345 33.8374 6.44024 33.5603 6.55489L33.4658 6.59383ZM34.2261 8.38368L33.6075 6.99875L33.6668 6.97423L35.3563 7.91683L35.9477 7.67254L34.2107 6.72202C34.4413 6.59335 34.5878 6.43303 34.6496 6.24123C34.7115 6.04967 34.6873 5.82958 34.5766 5.5817C34.5134 5.44061 34.4283 5.32195 34.3211 5.22597C34.2141 5.12991 34.094 5.06517 33.9607 5.0316C33.8497 5.0042 33.729 5.00156 33.5991 5.02327C33.4692 5.0453 33.2973 5.1005 33.0833 5.18879L32.353 5.49044L33.7359 8.58638L34.2261 8.38368Z" fill="#1F1E1B"/>
<path id="Fill 44" fill-rule="evenodd" clip-rule="evenodd" d="M35.9129 4.80227C35.9836 4.64969 36.0793 4.51852 36.1996 4.40926C36.32 4.29984 36.4585 4.21789 36.6147 4.16285C36.7711 4.1083 36.93 4.08657 37.092 4.09772C37.2539 4.10879 37.4075 4.15203 37.5532 4.22718C37.7024 4.30267 37.8313 4.40328 37.94 4.52895C38.0489 4.65454 38.1309 4.79839 38.1867 4.96091C38.2418 5.12173 38.2652 5.28522 38.2566 5.45129C38.2478 5.61721 38.2081 5.77641 38.1373 5.92915C38.065 6.08222 37.9693 6.21314 37.8504 6.322C37.7313 6.4311 37.5945 6.51264 37.4396 6.56671C37.2818 6.62207 37.1227 6.64445 36.9619 6.6337C36.8008 6.62279 36.6459 6.57964 36.4968 6.50416C36.3476 6.42876 36.2193 6.32863 36.1119 6.20425C36.0044 6.07971 35.9227 5.93643 35.8669 5.77391C35.8109 5.61026 35.7866 5.44523 35.7941 5.27859C35.802 5.11211 35.8413 4.95331 35.9129 4.80227ZM35.6773 6.56776C35.8305 6.73998 36.0156 6.8776 36.2322 6.98008C36.4456 7.08239 36.6707 7.13977 36.9077 7.15254C37.1447 7.16547 37.3773 7.13169 37.606 7.05152C37.8316 6.97248 38.0325 6.85441 38.2089 6.69771C38.3853 6.54101 38.5278 6.35424 38.6366 6.13758C38.7439 5.92132 38.8051 5.69665 38.82 5.46382C38.8347 5.23091 38.8033 5.00042 38.7249 4.7722C38.6471 4.5456 38.531 4.34509 38.3764 4.17077C38.2217 3.99654 38.0355 3.85656 37.8177 3.7511C37.6011 3.64847 37.376 3.59141 37.1427 3.57985C36.9093 3.56822 36.6784 3.6024 36.45 3.68265C36.22 3.76322 36.0164 3.88113 35.8397 4.03662C35.6629 4.19187 35.5208 4.37774 35.4135 4.594C35.3065 4.81156 35.2461 5.03687 35.2321 5.26938C35.2177 5.50205 35.25 5.7331 35.3288 5.96261C35.408 6.19383 35.5244 6.39546 35.6773 6.56776Z" fill="#1F1E1B"/>
<path id="Fill 45" fill-rule="evenodd" clip-rule="evenodd" d="M40.4722 2.79393L40.6829 2.74484C40.9837 2.67506 41.2094 2.63993 41.3602 2.63907C41.5107 2.63859 41.6478 2.66456 41.7713 2.71697C41.9369 2.78959 42.0762 2.89497 42.1888 3.03365C42.3013 3.17241 42.387 3.34393 42.4467 3.54876C42.5057 3.75367 42.524 3.94106 42.5011 4.11108C42.4779 4.2815 42.4135 4.43392 42.3078 4.56944C42.2304 4.66858 42.1287 4.75004 42.0032 4.8135C41.8776 4.87704 41.6801 4.94019 41.4106 5.0027L40.9201 5.11668L40.2612 2.84287L40.4722 2.79393ZM41.2603 5.54118L41.417 5.50487C41.8404 5.40645 42.1455 5.31102 42.3325 5.21843C42.5191 5.12592 42.6755 5.00736 42.801 4.86244C42.967 4.67103 43.0716 4.4527 43.1151 4.20746C43.1581 3.96261 43.1386 3.69732 43.0557 3.41197C42.9732 3.12679 42.8462 2.88526 42.6747 2.68769C42.5033 2.49012 42.293 2.34449 42.0444 2.25095C41.8559 2.17897 41.6512 2.14416 41.4293 2.1466C41.2075 2.14874 40.8411 2.20944 40.3294 2.32815L39.5425 2.5108L40.4734 5.72407L41.2603 5.54118Z" fill="#1F1E1B"/>
<path id="Fill 46" fill-rule="evenodd" clip-rule="evenodd" d="M44.6777 4.82804C44.9209 5.00344 45.2518 5.05129 45.6704 4.97097C46.0887 4.8908 46.3832 4.72247 46.5538 4.46682C46.7246 4.21102 46.7726 3.86597 46.6979 3.43134L46.3541 1.43115L45.8595 1.52584L46.1951 3.47787C46.2448 3.76762 46.219 3.99763 46.117 4.16752C46.0154 4.33741 45.839 4.44624 45.5883 4.49455C45.3362 4.54303 45.1342 4.50652 44.9824 4.38487C44.8307 4.26377 44.7299 4.05815 44.6801 3.7684L44.3446 1.81668L43.8562 1.91028L44.2 3.9104C44.2749 4.3465 44.4342 4.65232 44.6777 4.82804Z" fill="#1F1E1B"/>
<path id="Fill 47" fill-rule="evenodd" clip-rule="evenodd" d="M47.6599 3.38655C47.7664 3.59659 47.9062 3.77353 48.0794 3.91763C48.2541 4.06456 48.4504 4.1686 48.6676 4.22969C48.8848 4.29102 49.1164 4.3076 49.3623 4.28001C49.5555 4.25809 49.7322 4.21148 49.8923 4.14061C50.0524 4.06933 50.1972 3.97273 50.3268 3.85056L50.2635 3.22902C50.1199 3.39003 49.9659 3.51568 49.8011 3.60621C49.6363 3.69651 49.4586 3.75225 49.2685 3.77369C48.942 3.81067 48.6596 3.72272 48.4207 3.50961C48.1823 3.29658 48.0444 3.00774 48.0071 2.64253C47.9686 2.26501 48.0473 1.94526 48.2435 1.68321C48.4394 1.42107 48.7132 1.27017 49.0643 1.23029C49.246 1.20973 49.4224 1.22333 49.594 1.27098C49.7653 1.3188 49.9317 1.40043 50.0931 1.51621L50.065 0.958194C49.8921 0.859244 49.717 0.790877 49.5397 0.752527C49.3628 0.714015 49.1798 0.705358 48.9909 0.726798C48.7508 0.754064 48.5318 0.821784 48.3343 0.930847C48.1365 1.03959 47.9665 1.18619 47.8239 1.37074C47.6813 1.55351 47.5788 1.75869 47.517 1.98612C47.4551 2.21372 47.4366 2.45142 47.462 2.69948C47.4873 2.94747 47.5532 3.17643 47.6599 3.38655Z" fill="#1F1E1B"/>
<path id="Fill 48" fill-rule="evenodd" clip-rule="evenodd" d="M53.2026 4.21554L53.1819 3.70618L51.7547 3.76124L51.7086 2.63032L53.1357 2.57551L53.1153 2.07573L51.6882 2.13054L51.6523 1.25301L53.0793 1.19829L53.0594 0.715332L51.0458 0.792881L51.1888 4.29292L53.2026 4.21554Z" fill="#1F1E1B"/>
<path id="Fill 49" fill-rule="evenodd" clip-rule="evenodd" d="M55.1799 0.501276L55.2721 0.502289C55.5294 0.505414 55.7051 0.547637 55.7995 0.62879C55.8937 0.709859 55.9398 0.848436 55.9379 1.0441C55.9364 1.22532 55.8907 1.35081 55.8016 1.42073C55.7122 1.49091 55.5324 1.52418 55.2625 1.52089L55.1702 1.51987L55.1799 0.501276ZM55.1338 1.96812L55.1915 1.96879L56.2206 3.57049L56.7974 3.57759L55.7321 1.94869C55.9698 1.91931 56.15 1.82498 56.273 1.66546C56.3961 1.50619 56.459 1.28427 56.4616 0.999512C56.4631 0.837881 56.4381 0.688494 56.3866 0.552197C56.3351 0.415816 56.261 0.304262 56.1645 0.21745C56.0838 0.144995 55.9861 0.092807 55.8715 0.0606328C55.7566 0.028543 55.5947 0.0112314 55.3861 0.00878246L54.6745 0L54.6405 3.55107L55.1186 3.55698L55.1338 1.96812Z" fill="#1F1E1B"/>
<path id="Fill 50" fill-rule="evenodd" clip-rule="evenodd" d="M58.2671 2.10076C58.2894 2.04918 58.3119 1.99267 58.3343 1.93125C58.3566 1.8699 58.3781 1.80323 58.3991 1.73197C58.413 1.81077 58.4276 1.8826 58.4424 1.94704C58.4572 2.0114 58.4717 2.0687 58.4863 2.11854L58.7414 2.90272L57.9133 2.83519L58.2671 2.10076ZM57.7054 3.27081L58.8826 3.36684L59.1639 4.25157L59.6732 4.29292L58.461 0.715332L56.7974 4.05856L57.3048 4.09991L57.7054 3.27081Z" fill="#1F1E1B"/>
<path id="Fill 51" fill-rule="evenodd" clip-rule="evenodd" d="M60.8633 4.22218L61.3568 4.29292L61.6926 1.36942L62.4951 1.48454L62.549 1.01664L60.4459 0.715332L60.3922 1.18323L61.199 1.29868L60.8633 4.22218Z" fill="#1F1E1B"/>
<path id="Fill 52" fill-rule="evenodd" clip-rule="evenodd" d="M65.6886 3.38528L67.1518 3.68499L67.2677 3.19169L65.8042 2.89231L66.0068 2.03075L67.4699 2.3303L67.5817 1.85373L65.5171 1.43115L64.7059 4.88562L65.3076 5.00874L65.6886 3.38528Z" fill="#1F1E1B"/>
<path id="Fill 53" fill-rule="evenodd" clip-rule="evenodd" d="M69.9986 2.13013C70.0974 2.15896 70.1887 2.15014 70.2719 2.10335C70.3553 2.05667 70.4121 1.98301 70.4419 1.88277C70.4699 1.78828 70.4604 1.69861 70.4129 1.61376C70.3656 1.52912 70.2954 1.4731 70.2021 1.44602C70.1084 1.41883 70.0175 1.42899 69.9288 1.47608C69.8404 1.52348 69.7825 1.59253 69.7556 1.68322C69.7261 1.78151 69.735 1.87374 69.7821 1.95921C69.8292 2.04487 69.9011 2.10192 69.9986 2.13013Z" fill="#1F1E1B"/>
<path id="Fill 54" fill-rule="evenodd" clip-rule="evenodd" d="M68.2025 3.58606C68.2509 3.41953 68.326 3.27088 68.428 3.13977C68.5296 3.00867 68.6531 2.90247 68.7982 2.82135C68.9433 2.73869 69.0965 2.68823 69.2576 2.66995C69.4184 2.65159 69.5781 2.66623 69.7368 2.7133C69.8953 2.76061 70.0373 2.83631 70.1626 2.94049C70.2879 3.04474 70.3881 3.17034 70.4634 3.31698C70.5415 3.46604 70.5884 3.62367 70.6048 3.7902C70.6212 3.95624 70.6053 4.12205 70.5573 4.2868C70.5097 4.45033 70.4348 4.59713 70.3322 4.72726C70.2299 4.85756 70.1061 4.96391 69.9607 5.04657C69.814 5.12866 69.6607 5.17929 69.5013 5.19806C69.3419 5.21682 69.1837 5.20267 69.0267 5.15608C68.8666 5.10828 68.724 5.0329 68.5992 4.92954C68.4745 4.82618 68.3732 4.69993 68.2952 4.55103C68.2174 4.40181 68.1705 4.24506 68.1544 4.08039C68.1383 3.9158 68.1544 3.75097 68.2025 3.58606ZM67.8064 4.78315C67.9211 4.99174 68.0714 5.17096 68.257 5.32051C68.4425 5.47022 68.6512 5.57956 68.8833 5.64864C69.1126 5.71665 69.3437 5.73873 69.5774 5.71463C69.811 5.69061 70.0342 5.62219 70.2473 5.50969C70.4588 5.39686 70.6376 5.24966 70.7836 5.06881C70.9292 4.88773 71.0364 4.68132 71.1035 4.44944C71.1706 4.21926 71.1914 3.98746 71.1659 3.75494C71.1395 3.52201 71.0691 3.29862 70.9524 3.08453C70.8348 2.8736 70.6846 2.69502 70.5014 2.54847C70.318 2.40199 70.1104 2.2941 69.8785 2.22503C69.6451 2.15539 69.4118 2.13218 69.1785 2.15491C68.9453 2.17747 68.7228 2.24517 68.5116 2.35816C68.2994 2.47268 68.1207 2.62069 67.9757 2.80178C67.8303 2.98295 67.7239 3.19024 67.6562 3.42358C67.5879 3.65804 67.5665 3.89073 67.5922 4.12124C67.6177 4.3515 67.6889 4.57222 67.8064 4.78315Z" fill="#1F1E1B"/>
<path id="Fill 55" fill-rule="evenodd" clip-rule="evenodd" d="M69.2794 2.12998C69.3786 2.15911 69.4697 2.15008 69.5533 2.10311C69.6363 2.05685 69.693 1.9831 69.7228 1.883C69.7509 1.78802 69.7414 1.69838 69.6942 1.61386C69.647 1.52904 69.5764 1.47325 69.483 1.44607C69.3897 1.41888 69.2986 1.42883 69.2099 1.47612C69.1214 1.5235 69.0635 1.59233 69.0364 1.6832C69.0072 1.78156 69.016 1.87367 69.063 1.95931C69.1099 2.04485 69.1823 2.10167 69.2794 2.12998Z" fill="#1F1E1B"/>
<path id="Fill 56" fill-rule="evenodd" clip-rule="evenodd" d="M72.7859 4.14724L72.8829 4.17853C73.1554 4.26567 73.3283 4.35743 73.4008 4.45397C73.4734 4.55036 73.4759 4.6771 73.4067 4.83382C73.3435 4.97892 73.2524 5.06497 73.1343 5.09193C73.0153 5.11888 72.8129 5.08658 72.5269 4.99496L72.4291 4.96353L72.7859 4.14724ZM72.2385 5.31238L72.2992 5.33211L72.8483 6.95948L73.459 7.15522L72.8804 5.49404C73.1436 5.54859 73.3671 5.53183 73.5518 5.44418C73.7366 5.35653 73.8791 5.1985 73.9787 4.97053C74.0352 4.8409 74.0596 4.7125 74.0504 4.58577C74.0419 4.45903 74.0014 4.34472 73.9289 4.24298C73.8673 4.15837 73.7813 4.08437 73.6699 4.02079C73.5594 3.95684 73.3932 3.88971 73.1722 3.81897L72.419 3.57764L71.1765 6.42369L71.6826 6.58577L72.2385 5.31238Z" fill="#1F1E1B"/>
<path id="Fill 57" fill-rule="evenodd" clip-rule="evenodd" d="M77.9468 8.89126L76.8531 8.35451L77.2831 7.44325L78.3775 7.98023L78.5674 7.57766L77.4729 7.04077L77.8073 6.33373L78.901 6.87063L79.085 6.48154L77.5408 5.72412L76.2092 8.54429L77.7533 9.30171L77.9468 8.89126Z" fill="#1F1E1B"/>
<path id="Fill 58" fill-rule="evenodd" clip-rule="evenodd" d="M78.8075 9.48382L79.9721 7.60138C79.981 7.67909 79.9931 7.75577 80.01 7.83111C80.0261 7.90661 80.0455 7.98025 80.0689 8.05241L80.9405 10.7326L82.6798 7.91978L82.2367 7.68901L81.0753 9.56597C81.0592 9.46938 81.0406 9.38086 81.0212 9.30063C81.0019 9.22033 80.9809 9.14351 80.9583 9.07016L80.1069 6.43945L78.366 9.25415L78.8075 9.48382Z" fill="#1F1E1B"/>
<path id="Fill 59" fill-rule="evenodd" clip-rule="evenodd" d="M84.8587 11.7927L85.0281 11.9001L85.1763 11.9946C85.2751 12.0578 85.3509 12.1132 85.403 12.161C85.455 12.2088 85.4956 12.2582 85.5265 12.3086C85.5715 12.3915 85.5891 12.4775 85.5785 12.5667C85.5671 12.6561 85.5274 12.7436 85.4586 12.8296C85.4012 12.9021 85.3315 12.9579 85.2504 12.9971C85.1692 13.0362 85.0845 13.0545 84.9954 13.0514C84.9213 13.0508 84.8366 13.0294 84.7413 12.9874C84.6461 12.9453 84.5129 12.8696 84.3408 12.7603L84.1715 12.6529L84.8587 11.7927ZM85.7409 10.6875L85.9288 10.8068C86.1775 10.9653 86.3231 11.1026 86.3645 11.2189C86.4069 11.3353 86.369 11.4673 86.2516 11.6148C86.1431 11.7497 86.0179 11.815 85.8758 11.8105C85.7329 11.8059 85.545 11.7292 85.3112 11.5804L85.1233 11.4612L85.7409 10.6875ZM84.8181 13.5468C84.9645 13.5938 85.1092 13.6063 85.2521 13.5838C85.3853 13.5649 85.5124 13.52 85.6332 13.4487C85.7541 13.3777 85.8582 13.2876 85.9455 13.1781C86.0902 12.9975 86.159 12.816 86.1519 12.6333C86.1458 12.4505 86.0646 12.2907 85.9076 12.1544C86.0796 12.2064 86.241 12.2077 86.3928 12.1585C86.5436 12.1095 86.6768 12.013 86.7915 11.8692C86.8877 11.7489 86.9494 11.6228 86.9777 11.4904C87.005 11.3583 86.9971 11.2316 86.9521 11.1106C86.9177 11.0163 86.8568 10.9259 86.7695 10.8389C86.6821 10.752 86.5295 10.6394 86.3125 10.5012L85.5512 10.0171L83.3987 12.7135L84.1644 13.2005C84.4529 13.3842 84.6708 13.4996 84.8181 13.5468Z" fill="#1F1E1B"/>
<path id="Fill 60" fill-rule="evenodd" clip-rule="evenodd" d="M87.3579 13.5017L88.1364 13.1392C88.1886 13.1122 88.2433 13.0815 88.3022 13.0467C88.3602 13.0119 88.4207 12.9728 88.4829 12.9292C88.4498 13.0002 88.4207 13.0658 88.3959 13.1258C88.3718 13.186 88.3519 13.2404 88.3362 13.2886L88.1123 14.0664L87.3579 13.5017ZM88.1762 15.7412L89.1503 12.1636L85.5555 13.7796L86.0182 14.1255L86.8978 13.7176L87.9706 14.5205L87.7119 15.3936L88.1762 15.7412Z" fill="#1F1E1B"/>
<path id="Fill 61" fill-rule="evenodd" clip-rule="evenodd" d="M89.2855 12.7969C89.3652 12.8611 89.452 12.8879 89.5472 12.8765C89.6423 12.8647 89.722 12.8186 89.7892 12.7372C89.8512 12.6606 89.8781 12.5738 89.8667 12.4778C89.8564 12.3813 89.813 12.3027 89.7385 12.2421C89.663 12.1812 89.5751 12.1559 89.4748 12.1656C89.3755 12.1755 89.2948 12.2175 89.2349 12.2908C89.1697 12.3708 89.1428 12.4594 89.1521 12.5562C89.1625 12.6535 89.2069 12.7336 89.2855 12.7969Z" fill="#1F1E1B"/>
<path id="Fill 62" fill-rule="evenodd" clip-rule="evenodd" d="M88.5667 12.0816C88.6463 12.1462 88.7332 12.1726 88.8284 12.1612C88.9236 12.1496 89.0043 12.1034 89.0705 12.022C89.1326 11.9452 89.1585 11.8584 89.1481 11.7621C89.1378 11.6659 89.0943 11.5875 89.0188 11.5267C88.9433 11.4657 88.8564 11.4404 88.756 11.4503C88.6567 11.4602 88.576 11.5016 88.516 11.5754C88.4508 11.6553 88.4239 11.7439 88.4332 11.841C88.4435 11.9382 88.488 12.0184 88.5667 12.0816Z" fill="#1F1E1B"/>
<path id="Fill 63" fill-rule="evenodd" clip-rule="evenodd" d="M88.4314 16.79L88.8666 17.1723L90.9796 14.9564L91.6885 15.5781L92.0262 15.2233L90.1705 13.5947L89.832 13.9493L90.5444 14.5742L88.4314 16.79Z" fill="#1F1E1B"/>
<path id="Fill 64" fill-rule="evenodd" clip-rule="evenodd" d="M90.5883 18.907L90.9927 19.3188L93.1748 17.1702L93.8334 17.8398L94.183 17.4958L92.4578 15.7412L92.1082 16.0851L92.7703 16.7582L90.5883 18.907Z" fill="#1F1E1B"/>
<path id="Fill 65" fill-rule="evenodd" clip-rule="evenodd" d="M94.6726 19.2544L94.7411 19.3213C94.9317 19.5082 95.0319 19.659 95.0428 19.7734C95.0545 19.8878 94.9868 20.0004 94.8414 20.111C94.7069 20.2137 94.5807 20.2529 94.462 20.2287C94.3442 20.2047 94.1846 20.0943 93.9849 19.8982L93.9164 19.8311L94.6726 19.2544ZM92.3804 20.9612L93.5595 20.0618L93.6022 20.104L93.196 21.7621L93.623 22.1811L94.0225 20.4813C94.2222 20.6356 94.4261 20.7112 94.6358 20.7084C94.8456 20.7056 95.0553 20.6235 95.2668 20.4623C95.3871 20.3709 95.4773 20.2674 95.5392 20.152C95.601 20.0368 95.6278 19.9197 95.6194 19.8005C95.6119 19.7009 95.5768 19.6008 95.5149 19.4998C95.4523 19.3987 95.3436 19.2722 95.189 19.1206L94.6626 18.6035L92.0261 20.6138L92.3804 20.9612Z" fill="#1F1E1B"/>
<path id="Fill 66" fill-rule="evenodd" clip-rule="evenodd" d="M95.2795 24.3276L95.643 24.0234L94.8661 22.9708L95.6732 22.2949L96.45 23.3472L96.8067 23.0485L96.0299 21.9961L96.6563 21.4713L97.4332 22.5238L97.7778 22.2352L96.6813 20.75L94.183 22.8429L95.2795 24.3276Z" fill="#1F1E1B"/>
<path id="Fill 67" fill-rule="evenodd" clip-rule="evenodd" d="M97.3386 26.9075L98.5768 25.9371L99.2561 27.1897L99.6324 26.8949L98.9531 25.6422L99.61 25.1275L100.289 26.3799L100.654 26.0949L99.6945 24.3276L97.0588 26.3928L97.3386 26.9075Z" fill="#1F1E1B"/>
<path id="Fill 68" fill-rule="evenodd" clip-rule="evenodd" d="M101.309 27.1621L101.359 27.2453C101.498 27.4776 101.56 27.6553 101.545 27.7777C101.529 27.9002 101.44 28.0065 101.278 28.0963C101.128 28.1796 100.999 28.1973 100.892 28.1499C100.786 28.1025 100.659 27.9569 100.513 27.713L100.464 27.6295L101.309 27.1621ZM100.95 28.6875C101.149 28.7233 101.367 28.676 101.603 28.5454C101.737 28.4711 101.846 28.3789 101.93 28.2689C102.015 28.1586 102.066 28.0402 102.085 27.9131C102.1 27.8069 102.089 27.6948 102.052 27.5767C102.016 27.4586 101.942 27.3055 101.829 27.1172L101.444 26.4741L98.4967 28.1036L98.7546 28.5355L100.073 27.8066L100.105 27.8586L99.3497 29.5308L99.6609 30.0517L100.418 28.3344C100.574 28.5339 100.751 28.6516 100.95 28.6875Z" fill="#1F1E1B"/>
<path id="Fill 69" fill-rule="evenodd" clip-rule="evenodd" d="M101.585 31.2612C101.639 31.2568 101.696 31.2501 101.758 31.2409C101.82 31.2319 101.885 31.2195 101.954 31.2042C101.898 31.2554 101.848 31.3037 101.803 31.3486C101.759 31.3939 101.72 31.4353 101.688 31.4728L101.189 32.0902L100.802 31.291L101.585 31.2612ZM100.338 31.3106L100.889 32.4469L100.322 33.1374L100.561 33.6292L102.81 30.7671L99.2157 30.8531L99.4528 31.3429L100.338 31.3106Z" fill="#1F1E1B"/>
<path id="Fill 70" fill-rule="evenodd" clip-rule="evenodd" d="M103.275 34.6516L104.834 32.9136L101.373 33.4944L101.556 33.9675L103.186 33.6793C103.27 33.666 103.348 33.6496 103.422 33.6295C103.495 33.6097 103.565 33.587 103.628 33.5617C103.573 33.6066 103.519 33.6548 103.465 33.707C103.411 33.7587 103.357 33.8163 103.302 33.8791L101.969 35.3999L103.91 35.5483C103.997 35.5543 104.079 35.5545 104.157 35.5493C104.235 35.544 104.312 35.5334 104.386 35.5174C104.331 35.5505 104.262 35.5912 104.178 35.6399C104.076 35.6976 104.015 35.7342 103.993 35.7497L102.626 36.7293L102.811 37.2067L105.686 35.1136L103.415 35.0052C103.392 35.0047 103.359 35.0032 103.316 35.0011C103.157 34.9924 103.028 34.9913 102.929 34.9976C103.016 34.9124 103.089 34.84 103.149 34.7809C103.208 34.7217 103.25 34.6787 103.275 34.6516Z" fill="#1F1E1B"/>
<path id="Fill 71" fill-rule="evenodd" clip-rule="evenodd" d="M105.532 37.3768L102.81 38.1741L102.977 38.6378L105.699 37.8405L105.969 38.5948L106.405 38.467L105.696 36.4912L105.261 36.6188L105.532 37.3768Z" fill="#1F1E1B"/>
<path id="Fill 72" fill-rule="evenodd" clip-rule="evenodd" d="M103.684 40.7846L107.124 39.8824L106.969 39.3535L103.529 40.2556L103.684 40.7846Z" fill="#1F1E1B"/>
<path id="Fill 73" fill-rule="evenodd" clip-rule="evenodd" d="M107.176 42.0706L107.218 42.243L107.261 42.4152C107.321 42.6608 107.35 42.8444 107.345 42.9664C107.341 43.0883 107.31 43.1983 107.253 43.2966C107.174 43.4283 107.062 43.5372 106.918 43.6238C106.774 43.7102 106.597 43.7742 106.388 43.8153C106.178 43.8565 105.987 43.865 105.815 43.8405C105.644 43.8164 105.491 43.7592 105.357 43.6694C105.259 43.6032 105.18 43.5182 105.12 43.4147C105.059 43.3109 105.003 43.1491 104.948 42.9288L104.849 42.5284L107.176 42.0706ZM104.407 42.7894L104.439 42.9178C104.525 43.2633 104.611 43.5132 104.698 43.6677C104.786 43.8221 104.902 43.9522 105.044 44.0586C105.232 44.1993 105.45 44.2911 105.698 44.3342C105.944 44.3776 106.214 44.3702 106.506 44.313C106.798 44.2552 107.047 44.1606 107.253 44.0284C107.458 43.8963 107.614 43.7312 107.716 43.533C107.795 43.3829 107.838 43.2184 107.843 43.0388C107.848 42.8592 107.799 42.5608 107.695 42.1427L107.536 41.5L104.248 42.1466L104.407 42.7894Z" fill="#1F1E1B"/>
<path id="Fill 74" fill-rule="evenodd" clip-rule="evenodd" d="M105.033 48.1992L106.617 48.0047L106.776 49.3707L107.257 49.3115L107.098 47.9456L107.938 47.8427L108.097 49.2087L108.562 49.1515L108.337 47.2241L104.967 47.6375L105.033 48.1992Z" fill="#1F1E1B"/>
<path id="Fill 75" fill-rule="evenodd" clip-rule="evenodd" d="M109.659 51.5169C109.759 51.5129 109.841 51.4748 109.907 51.4026C109.973 51.3303 110.004 51.2457 110 51.1483C109.996 51.0511 109.957 50.9681 109.884 50.8993C109.81 50.8308 109.726 50.7982 109.631 50.8021C109.528 50.8061 109.442 50.8444 109.376 50.9166C109.308 50.9888 109.277 51.0757 109.281 51.1769C109.286 51.2802 109.323 51.3637 109.394 51.4275C109.466 51.4911 109.554 51.521 109.659 51.5169Z" fill="#1F1E1B"/>
<path id="Fill 76" fill-rule="evenodd" clip-rule="evenodd" d="M109.884 51.6147C109.811 51.546 109.726 51.5137 109.631 51.5174C109.527 51.5214 109.443 51.5597 109.375 51.6317C109.308 51.7043 109.277 51.7908 109.281 51.8922C109.286 51.9953 109.323 52.0789 109.394 52.1428C109.465 52.2065 109.553 52.2363 109.659 52.2322C109.758 52.2282 109.841 52.1898 109.907 52.1179C109.972 52.0458 110.003 51.9607 110 51.8637C109.996 51.7662 109.957 51.6835 109.884 51.6147Z" fill="#1F1E1B"/>
<path id="Fill 77" fill-rule="evenodd" clip-rule="evenodd" d="M107.971 52.2999C107.912 52.4508 107.825 52.5851 107.709 52.7023C107.593 52.8228 107.457 52.9168 107.304 52.9845C107.15 53.0523 106.987 53.0894 106.815 53.0961C106.643 53.1028 106.478 53.0783 106.321 53.0224C106.163 52.967 106.021 52.8836 105.895 52.7726C105.768 52.6601 105.67 52.5314 105.601 52.3871C105.53 52.2426 105.492 52.089 105.486 51.9261C105.478 51.76 105.504 51.6017 105.562 51.4517C105.62 51.3014 105.707 51.1661 105.825 51.0457C105.941 50.9252 106.076 50.8315 106.228 50.7648C106.379 50.6978 106.542 50.6612 106.715 50.6545C106.889 50.6477 107.057 50.6715 107.215 50.7266C107.373 50.7814 107.514 50.8644 107.639 50.9755C107.765 51.0866 107.864 51.2149 107.933 51.3609C108.003 51.507 108.042 51.6623 108.048 51.8266C108.055 51.991 108.029 52.1489 107.971 52.2999ZM107.39 50.1936C107.17 50.1137 106.937 50.0785 106.692 50.0879C106.445 50.0974 106.217 50.1506 106.005 50.2473C105.794 50.3439 105.606 50.4807 105.443 50.658C105.282 50.8321 105.16 51.0299 105.077 51.252C104.995 51.4742 104.959 51.7052 104.969 51.9461C104.978 52.1835 105.033 52.4086 105.132 52.6214C105.231 52.8342 105.369 53.0233 105.546 53.1888C105.723 53.3526 105.922 53.475 106.142 53.5557C106.362 53.6362 106.594 53.6721 106.837 53.6625C107.079 53.6534 107.307 53.5999 107.52 53.5023C107.734 53.4047 107.924 53.2674 108.09 53.0902C108.253 52.9131 108.375 52.715 108.455 52.4962C108.535 52.2772 108.57 52.0475 108.561 51.8068C108.551 51.5647 108.497 51.3372 108.399 51.1245C108.302 50.9117 108.165 50.7232 107.988 50.5595C107.809 50.3953 107.61 50.2734 107.39 50.1936Z" fill="#1F1E1B"/>
<path id="Fill 78" fill-rule="evenodd" clip-rule="evenodd" d="M107.039 54.9232L108.056 54.941L108.054 55.0326C108.048 55.2886 108.005 55.4632 107.922 55.5565C107.84 55.6496 107.702 55.6946 107.506 55.6911C107.326 55.6879 107.2 55.6416 107.131 55.5521C107.062 55.4626 107.03 55.2837 107.036 55.0147L107.039 54.9232ZM105.004 54.8554L106.592 54.8831L106.59 54.9408L104.98 55.9521L104.967 56.5259L106.604 55.4789C106.631 55.7157 106.724 55.8958 106.882 56.0196C107.04 56.1431 107.261 56.2075 107.545 56.2125C107.707 56.2153 107.856 56.1917 107.993 56.1415C108.129 56.091 108.242 56.0185 108.329 55.9233C108.403 55.8434 108.456 55.7464 108.489 55.6326C108.522 55.5185 108.541 55.3579 108.546 55.1501L108.562 54.4417L105.015 54.3794L105.004 54.8554Z" fill="#1F1E1B"/>
<path id="Fill 79" fill-rule="evenodd" clip-rule="evenodd" d="M106.493 59.8337L107.202 60.2154C107.252 60.2396 107.307 60.2642 107.366 60.2889C107.426 60.3137 107.49 60.3378 107.56 60.3614C107.482 60.3723 107.41 60.384 107.346 60.3962C107.281 60.4087 107.224 60.421 107.174 60.4336L106.386 60.6578L106.493 59.8337ZM105.272 59.1776L106.072 59.6094L105.921 60.781L105.033 61.0274L104.967 61.5344L108.562 60.4626L105.337 58.6724L105.272 59.1776Z" fill="#1F1E1B"/>
<path id="Fill 80" fill-rule="evenodd" clip-rule="evenodd" d="M104.248 64.2969L104.727 64.3966L104.938 62.9823L107.749 63.568L107.843 62.9354L104.553 62.25L104.248 64.2969Z" fill="#1F1E1B"/>
<path id="Fill 81" fill-rule="evenodd" clip-rule="evenodd" d="M104.248 67.1317L104.715 67.2589L104.981 65.8637L107.724 66.6112L107.843 65.9872L104.633 65.1123L104.248 67.1317Z" fill="#1F1E1B"/>
<path id="Fill 82" fill-rule="evenodd" clip-rule="evenodd" d="M104.557 68.6219L105.161 69.1208C105.204 69.1533 105.251 69.1867 105.303 69.2211C105.355 69.2556 105.413 69.2902 105.474 69.3251C105.398 69.3241 105.328 69.325 105.265 69.3275C105.201 69.3301 105.145 69.334 105.096 69.3391L104.31 69.446L104.557 68.6219ZM103.516 67.7637L104.197 68.3283L103.848 69.4996L102.963 69.6137L102.81 70.1209L106.405 69.5832L103.667 67.2588L103.516 67.7637Z" fill="#1F1E1B"/>
</g>
</svg>
