<svg width="120" height="95" viewBox="0 0 120 95" fill="none" xmlns="http://www.w3.org/2000/svg">
<path fill-rule="evenodd" clip-rule="evenodd" d="M59.9854 0C26.8637 -7.50682e-05 0.0882671 26.725 0.000217125 59.8765C-0.0282829 70.5959 2.75009 80.6631 7.64084 89.3845C9.32924 92.3947 12.5058 94.2632 15.9552 94.2632H104.015C107.448 94.2632 110.624 92.4195 112.306 89.425C117.187 80.7389 119.97 70.7146 119.97 60.0397C119.97 26.8808 93.114 7.50682e-05 59.9854 0Z" fill="#1F1E1B"/>
<path fill-rule="evenodd" clip-rule="evenodd" d="M15.9847 86.1474C15.0499 85.5528 14.3461 84.6287 14.0268 83.5613C13.8883 83.0981 13.9438 82.5906 14.1795 82.168L14.2585 82.0269L14.8328 83.9464C14.9077 84.1971 15.1711 84.339 15.4213 84.2639C15.6713 84.1888 15.8134 83.9253 15.7385 83.6754L15.1642 81.7551L15.308 81.8302C15.7366 82.0531 16.0618 82.4465 16.2004 82.9097C16.5197 83.9771 16.439 85.1362 15.9847 86.1474ZM15.7442 80.9909L14.7863 80.4917L14.5996 79.8679C14.5247 79.6172 14.2613 79.4753 14.0112 79.5504C13.7611 79.6254 13.6191 79.8889 13.6939 80.1396L13.8807 80.7635L13.3542 81.7071C12.9946 82.3512 12.9097 83.1259 13.1212 83.833C13.5513 85.2706 14.561 86.4927 15.8915 87.1848L15.9622 87.2216C16.189 87.3402 16.4683 87.2561 16.593 87.0332L16.6321 86.9626C17.3634 85.6527 17.5361 84.0762 17.1061 82.6387C16.8946 81.9315 16.3983 81.331 15.7442 80.9909Z" fill="#FFFFFE"/>
<path fill-rule="evenodd" clip-rule="evenodd" d="M105.148 83.9098C105.01 84.3729 104.684 84.7663 104.256 84.99L104.112 85.0643L104.686 83.1448C104.761 82.8941 104.619 82.6306 104.369 82.5555C104.119 82.4812 103.855 82.6231 103.78 82.8731L103.206 84.7933L103.127 84.6514C102.892 84.2296 102.836 83.7214 102.974 83.2582C103.294 82.1915 103.997 81.2674 104.932 80.6721C105.387 81.6833 105.467 82.8423 105.148 83.9098ZM105.541 79.787C105.416 79.5633 105.136 79.48 104.91 79.5979L104.839 79.6346C103.509 80.3275 102.499 81.5496 102.069 82.9872C101.857 83.6943 101.942 84.469 102.301 85.1131L102.828 86.0567L102.642 86.6805C102.567 86.9305 102.709 87.1948 102.959 87.2691C103.209 87.3441 103.472 87.2023 103.547 86.9515L103.734 86.3277L104.692 85.8293C105.346 85.4885 105.842 84.8879 106.054 84.1815C106.483 82.7432 106.311 81.1675 105.58 79.8568L105.541 79.787Z" fill="#FFFFFE"/>
<path fill-rule="evenodd" clip-rule="evenodd" d="M59.1126 59.4866C59.1127 59.2074 59.3521 58.9798 59.6464 58.9796C59.9407 58.9795 60.1803 59.2076 60.1803 59.4866C60.1803 59.8006 60.1803 60.1146 60.1803 60.4286C59.8244 60.4278 59.4685 60.4278 59.1126 60.4286C59.1126 60.1146 59.1126 59.8006 59.1126 59.4866ZM58.6822 61.2461C59.3251 61.244 59.9678 61.244 60.6106 61.2461C60.8482 61.2473 61.0413 61.0649 61.0409 60.8397C61.0408 60.3895 61.0408 59.9395 61.0408 59.4895C61.0409 58.7597 60.4151 58.1627 59.6464 58.1631C58.8774 58.1626 58.2521 58.76 58.252 59.4895C58.252 59.9395 58.252 60.3895 58.2519 60.8397C58.252 61.0646 58.4446 61.2472 58.6822 61.2461Z" fill="#FFFFFE"/>
<path fill-rule="evenodd" clip-rule="evenodd" d="M59.1129 51.5854C59.1127 51.3058 59.3524 51.0786 59.6464 51.0786C59.9406 51.0791 60.1798 51.3058 60.18 51.5854C60.18 51.8994 60.18 52.2135 60.18 52.5275C59.8243 52.5272 59.4686 52.5272 59.1128 52.5275C59.1129 52.2135 59.1129 51.8994 59.1129 51.5854ZM58.6827 53.3449C59.3251 53.3431 59.9677 53.3431 60.6102 53.3449C60.8477 53.3456 61.0405 53.1637 61.0403 52.9381C61.0403 52.4879 61.0403 52.0379 61.0402 51.5876C61.0401 50.8577 60.4149 50.2624 59.6464 50.2622C58.8781 50.2619 58.2528 50.8583 58.2527 51.5876C58.2526 52.0379 58.2526 52.4879 58.2526 52.9381C58.2526 53.1634 58.4452 53.3463 58.6827 53.3449Z" fill="#FFFFFE"/>
<path fill-rule="evenodd" clip-rule="evenodd" d="M77.1007 65.0679C77.1015 65.448 77.1015 65.8281 77.1015 66.2081C76.9327 66.1964 76.7632 66.1848 76.5937 66.1733C76.5937 65.7936 76.5937 65.414 76.593 65.0342C76.7625 65.0453 76.932 65.0565 77.1007 65.0679ZM76.1647 66.9715C76.6207 67.0019 77.0767 67.0337 77.532 67.0667C77.769 67.0844 77.961 66.9127 77.961 66.6836C77.961 66.0266 77.9602 65.3698 77.9595 64.7129C77.9595 64.4841 77.7675 64.2846 77.5297 64.2688C77.0745 64.2379 76.6185 64.2083 76.1632 64.1797C75.9255 64.1643 75.7335 64.3381 75.7335 64.5661C75.7342 65.2208 75.7342 65.8755 75.735 66.53C75.735 66.7585 75.9277 66.9557 76.1647 66.9715Z" fill="#FFFFFE"/>
<path fill-rule="evenodd" clip-rule="evenodd" d="M28.187 73.5765C28.3798 73.5489 28.5675 73.5602 28.7437 73.6103C28.852 73.641 28.9739 73.6232 29.0818 73.5614C29.1895 73.4999 29.2729 73.3989 29.313 73.2837C29.6318 72.3602 30.4756 71.6599 31.4129 71.5442C32.0632 71.4633 32.6809 71.6708 33.1069 72.109C33.1831 72.1867 33.2919 72.2274 33.4083 72.2195C33.5247 72.2139 33.6391 72.1585 33.7242 72.07C34.1188 71.6618 34.6317 71.4057 35.1682 71.348C35.8883 71.2708 36.5524 71.5582 36.9443 72.1136C37.0282 72.2331 37.1625 72.2943 37.3171 72.2674C37.3453 72.2643 37.3828 72.2599 37.4296 72.2446C37.4303 72.2442 37.4311 72.244 37.4319 72.2439C38.8641 71.783 39.5983 72.4617 39.9433 73.0127C35.604 73.3832 31.27 73.8786 26.9442 74.4942C27.1879 74.0174 27.6541 73.6518 28.187 73.5765ZM27.9468 66.3977C27.9477 63.2494 29.0119 60.069 29.6302 60.0113C30.2481 59.9519 31.3115 62.8938 31.31 66.005C31.309 67.9461 30.8281 69.355 30.0542 69.8114C30.0546 68.9092 30.055 68.007 30.0553 67.1048C30.0556 66.8704 29.8639 66.702 29.6277 66.7302C29.3913 66.7583 29.2 66.9713 29.1998 67.2067C29.1995 68.1122 29.1992 69.0179 29.1989 69.9234C28.4253 69.6624 27.9464 68.3591 27.9468 66.3977ZM33.3735 63.0691C33.3757 58.9744 34.7561 54.7185 35.7467 54.6562C36.7375 54.5909 38.1129 58.6155 38.1098 62.6576C38.1076 65.3912 37.3579 67.3223 36.166 67.7949C36.1669 66.5518 36.1678 65.3088 36.1688 64.0656C36.1689 63.8345 35.9769 63.6639 35.7403 63.6848C35.5035 63.7056 35.3116 63.9106 35.3112 64.1425C35.3104 65.3881 35.3095 66.6337 35.3086 67.8793C34.1175 67.6394 33.3719 65.8353 33.3735 63.0691ZM41.4673 65.0658C41.7442 65.0463 42.0213 65.0293 42.2983 65.0107C41.4866 65.8964 40.675 66.7876 39.8639 67.688C39.588 67.7098 39.312 67.7305 39.0362 67.7532C39.8463 66.8501 40.6567 65.9542 41.4673 65.0658ZM41.2356 61.9538C41.4038 61.9429 41.8999 62.583 42.2396 64.187C41.9205 64.2081 41.6014 64.2276 41.2823 64.2498C41.1637 64.258 41.0505 64.3133 40.9693 64.4026C40.6618 64.7401 40.3545 65.081 40.0471 65.4206C40.2811 63.4923 40.9162 61.9734 41.2356 61.9538ZM53.7211 49.1937L53.7518 48.6324C55.0307 47.2095 56.3095 45.7951 57.5878 44.387C59.0815 44.3889 60.8532 44.3909 62.3677 44.3931C62.5991 44.5845 62.8306 44.7772 63.0622 44.969C62.3126 45.787 61.5629 46.6061 60.8131 47.4269C60.6576 47.5971 60.6775 47.8543 60.8569 48.0029C61.7104 48.7065 62.564 49.4139 63.4177 50.1237C64.0798 50.6741 64.7419 51.2267 65.404 51.7815C65.476 51.8418 65.5481 51.9023 65.6202 51.9628C66.0781 56.9516 66.8904 61.4937 68.0386 65.4979C62.5243 65.3152 57.0048 65.3113 51.4903 65.4886C51.3867 65.3866 51.2831 65.2845 51.1796 65.1824C52.8219 59.3163 53.4685 53.2722 53.7211 49.1937ZM42.1742 55.7531C42.823 56.2602 43.4719 56.7675 44.1208 57.2754C43.6549 57.8153 43.1888 58.3567 42.7229 58.9008C42.074 58.3965 41.4253 57.8924 40.7767 57.3885C41.2425 56.8409 41.7084 56.2962 42.1742 55.7531ZM52.9737 43.4855C53.6231 44.0121 54.2726 44.5396 54.9223 45.0675C54.4564 45.5838 53.9904 46.1015 53.5243 46.6199C52.8747 46.0939 52.2252 45.5688 51.5758 45.0442C52.0417 44.5235 52.5078 44.0039 52.9737 43.4855ZM55.8103 44.7094C55.8103 44.7093 55.8102 44.7092 55.81 44.7091C55.6767 44.6004 55.5433 44.4924 55.41 44.3838C55.6178 44.3843 55.8504 44.3846 56.1034 44.3849C56.0058 44.4929 55.908 44.6014 55.8103 44.7094ZM46.1336 51.1875C46.285 51.0147 46.4363 50.8416 46.5877 50.669C47.2366 51.1851 47.8858 51.7016 48.5351 52.2188C48.3833 52.3907 48.2316 52.5644 48.0799 52.7367C47.7367 53.1265 47.3936 53.5163 47.0505 53.9079C46.9718 53.9976 46.8931 54.0866 46.8145 54.1765C46.1653 53.6629 45.5164 53.15 44.8676 52.6373C44.9452 52.5482 45.0227 52.4587 45.1002 52.3697C45.4447 51.9745 45.7891 51.5808 46.1336 51.1875ZM50.6083 46.1274C50.7434 45.9761 50.8784 45.8246 51.0135 45.6734C51.6627 46.1971 52.3121 46.7212 52.9615 47.2462C52.8066 47.4188 52.6516 47.5928 52.4967 47.7657C52.1821 48.1169 51.8674 48.4684 51.5527 48.8207C51.4488 48.9371 51.3448 49.0527 51.241 49.1693C50.5916 48.6472 49.9423 48.1258 49.2933 47.605C49.3861 47.5003 49.479 47.3955 49.5718 47.291C49.9174 46.9023 50.2628 46.5146 50.6083 46.1274ZM47.7281 49.3735C48.0158 49.0475 48.3034 48.7211 48.5911 48.3962C48.6375 48.3439 48.6838 48.2919 48.7301 48.2395C49.3793 48.7595 50.0286 49.2798 50.678 49.8011C50.628 49.8573 50.5779 49.914 50.5279 49.9702C50.2369 50.2972 49.946 50.6257 49.6551 50.9538C49.4733 51.1589 49.2915 51.3629 49.1096 51.5684C48.4605 51.0501 47.8113 50.5326 47.1621 50.0153C47.3508 49.801 47.5394 49.5874 47.7281 49.3735ZM45.1931 56.0379C45.0232 56.2336 44.8533 56.428 44.6834 56.6241C44.0347 56.1153 43.3859 55.6068 42.7374 55.0987C42.9238 54.8819 43.1104 54.6657 43.2968 54.4497C43.5565 54.1488 43.8162 53.8479 44.0759 53.5483C44.1522 53.4603 44.2285 53.3728 44.3049 53.2849C44.9536 53.7963 45.6025 54.3081 46.2515 54.8205C46.1767 54.9061 46.102 54.9927 46.0273 55.0784C45.7492 55.3974 45.4712 55.7176 45.1931 56.0379ZM56.2175 39.4983C56.2522 39.4734 56.28 39.4436 56.3044 39.412C56.857 39.8638 57.4096 40.3161 57.9622 40.769C57.7579 41.2416 57.7972 41.7804 58.0665 42.2206C57.659 42.6689 57.2515 43.1184 56.8438 43.568C55.7317 43.5668 54.8304 43.5659 54.4027 43.5648C54.2611 43.4498 54.1196 43.3346 53.9782 43.2196C54.1575 41.728 54.9523 40.4041 56.2175 39.4983ZM43.3323 23.5464C43.8703 23.994 44.4084 24.4374 44.9464 24.883C44.3845 25.508 43.8225 26.1346 43.2605 26.7628C42.7225 26.3178 42.1843 25.8751 41.6464 25.428C42.2083 24.799 42.7703 24.172 43.3323 23.5464ZM55.7197 36.975C55.1817 36.5351 54.6439 36.0961 54.106 35.6567C54.6681 35.0351 55.2301 34.4144 55.7921 33.7948C56.3301 34.2353 56.8679 34.6755 57.406 35.1166C56.844 35.7351 56.2819 36.3545 55.7197 36.975ZM48.3496 30.9513C47.6884 30.4099 47.0275 29.8666 46.3663 29.3235C46.9281 28.6972 47.4898 28.0724 48.0514 27.4489C48.7127 27.993 49.374 28.5364 50.0354 29.079C49.4735 29.7019 48.9116 30.3259 48.3496 30.9513ZM50.8218 32.9732C50.2186 32.4803 49.6153 31.9876 49.0123 31.4941C49.5742 30.8689 50.1363 30.2452 50.6983 29.6227C51.3013 30.1172 51.9044 30.6113 52.5076 31.1053C51.9456 31.7269 51.3837 32.3493 50.8218 32.9732ZM55.1423 33.2627C54.5802 33.8828 54.0183 34.5035 53.4562 35.1258C53.0295 34.7772 52.6028 34.4287 52.1761 34.0803C51.9412 33.8884 51.7063 33.6962 51.4714 33.5042C52.0333 32.8808 52.5954 32.2585 53.1573 31.6373C53.4232 31.855 53.6893 32.0728 53.9552 32.2905C54.3508 32.6143 54.7466 32.9387 55.1423 33.2627ZM46.6156 26.2652C46.7628 26.3866 46.9099 26.5083 47.0571 26.6296C47.172 26.7243 47.287 26.8194 47.4019 26.9141C46.84 27.5379 46.2783 28.1633 45.7165 28.7901C45.6052 28.6987 45.494 28.6078 45.3829 28.5163C45.2279 28.3888 45.0731 28.261 44.9182 28.1335C44.5816 27.8563 44.2453 27.5767 43.9089 27.2988C44.4704 26.6714 45.0319 26.0458 45.5934 25.4216C45.9342 25.7033 46.2749 25.9841 46.6156 26.2652ZM61.283 38.6885C60.9247 39.0814 60.5662 39.4743 60.2077 39.8678C59.7203 39.6818 59.167 39.7178 58.7101 39.9636C58.272 39.6041 57.8341 39.2452 57.3961 38.8864C58.1042 38.5973 58.8543 38.4484 59.6271 38.4492C60.189 38.4485 60.745 38.5322 61.283 38.6885ZM78.348 25.994C77.8822 26.5116 77.4165 27.0246 76.9515 27.5401C76.302 26.9937 75.6525 26.4493 75.003 25.9067C75.4687 25.3912 75.9345 24.878 76.4002 24.3606C77.049 24.9033 77.6985 25.4477 78.348 25.994ZM66.1738 39.3548C65.5241 38.8134 64.8743 38.2736 64.2247 37.735C64.6901 37.2263 65.1553 36.7179 65.6206 36.2094C66.2701 36.749 66.9197 37.2901 67.5693 37.8327C67.1041 38.34 66.6391 38.8475 66.1738 39.3548ZM70.4105 34.7303C69.7612 34.1859 69.1118 33.6431 68.4625 33.102C68.9844 32.5309 69.5061 31.9596 70.0278 31.3878C70.6772 31.9296 71.3266 32.4733 71.9761 33.0184C71.4543 33.5898 70.9324 34.1599 70.4105 34.7303ZM70.6012 30.7589C71.1733 30.1313 71.7453 29.5029 72.3173 28.8734C72.9664 29.4158 73.6155 29.9597 74.2645 30.5054C73.6927 31.1342 73.1211 31.7633 72.5492 32.3902C71.8999 31.8448 71.2505 31.3012 70.6012 30.7589ZM68.8074 36.4821C68.5822 36.7279 68.3569 36.9735 68.1316 37.2192C67.482 36.6761 66.8324 36.1348 66.183 35.5947C66.2053 35.5703 66.2276 35.5459 66.25 35.5215C66.6868 35.044 67.1238 34.5662 67.5605 34.0886C67.6738 33.9647 67.787 33.841 67.9002 33.7172C68.5496 34.2582 69.199 34.8007 69.8485 35.3448C69.6846 35.5238 69.5209 35.7033 69.357 35.8822C69.1738 36.0822 68.9907 36.2822 68.8074 36.4821ZM73.5757 27.4865C73.8651 27.1672 74.1545 26.8484 74.4439 26.5285C75.093 27.0708 75.7417 27.6148 76.3905 28.1607C76.092 28.4905 75.7935 28.8222 75.4957 29.1513C75.3802 29.2783 75.2655 29.4054 75.15 29.5324C75.0427 29.6511 74.9347 29.7688 74.827 29.8874C74.1778 29.3414 73.5286 28.7972 72.8794 28.2546C72.9729 28.1516 73.0664 28.0482 73.1599 27.9451C73.2985 27.7924 73.4371 27.6394 73.5757 27.4865ZM58.9215 42.9196C59.1272 42.9971 59.3444 43.0369 59.5615 43.0366C59.8689 43.0365 60.1749 42.959 60.445 42.8077C60.754 43.0619 61.063 43.3173 61.372 43.5721C60.3864 43.5712 59.3272 43.5703 58.3309 43.5693C58.5277 43.3528 58.7246 43.1359 58.9215 42.9196ZM60.1335 40.7661C60.31 40.9108 60.4158 41.1126 60.4327 41.3331C60.4492 41.554 60.3751 41.7671 60.2223 41.9349C59.9077 42.2797 59.3554 42.318 58.9918 42.0193C58.6283 41.7211 58.588 41.1959 58.903 40.8508C59.0754 40.6618 59.3187 40.5644 59.5632 40.5643C59.7656 40.564 59.9687 40.6312 60.1335 40.7661ZM62.4222 39.1575C64.1168 40.0693 65.2046 41.7466 65.3182 43.5783C65.1783 43.5768 64.2996 43.5753 63.0917 43.5739C62.4529 43.0448 61.8142 42.5175 61.1754 41.9912C61.2677 41.7666 61.3088 41.5239 61.2901 41.2761C61.271 41.0234 61.1911 40.7844 61.0614 40.5714C61.5005 40.0899 61.9397 39.609 62.3788 39.1283C62.3929 39.1383 62.4064 39.149 62.4222 39.1575ZM64.081 44.3959C64.5515 44.3968 64.9495 44.3977 65.2425 44.3987C65.2418 44.6535 65.2416 44.9982 65.2431 45.3619C64.8557 45.0389 64.4684 44.7176 64.081 44.3959ZM75.8445 59.6741C75.306 59.1968 74.767 58.7226 74.2284 58.2502C74.7901 57.6539 75.3517 57.0577 75.9127 56.4613C76.4512 56.9363 76.9897 57.413 77.5282 57.8929C76.9672 58.4868 76.4055 59.0804 75.8445 59.6741ZM66.8262 51.8942C66.7675 51.8448 66.7089 51.7948 66.6502 51.7454C67.2121 51.1378 67.774 50.5307 68.3357 49.924C68.4047 49.9824 68.4737 50.0403 68.5426 50.0988C68.8291 50.3413 69.1156 50.5853 69.4021 50.8289C69.6507 51.0403 69.8994 51.2516 70.148 51.4637C69.5864 52.0679 69.0247 52.6727 68.4628 53.2777C68.2411 53.0895 68.0194 52.9032 67.7977 52.7155C67.4739 52.4415 67.15 52.167 66.8262 51.8942ZM69.6749 54.3116C69.4922 54.1555 69.3096 53.9979 69.1269 53.8423C69.6887 53.2383 70.2504 52.6348 70.8121 52.0314C70.9982 52.1908 71.1844 52.3511 71.3706 52.511C71.7561 52.842 72.1416 53.1734 72.527 53.5065C72.6181 53.5851 72.709 53.6644 72.8 53.7431C72.6878 53.863 72.5757 53.9831 72.4636 54.1029C72.0143 54.5836 71.565 55.0641 71.1155 55.5451C71.0258 55.4679 70.936 55.3917 70.8463 55.3146C70.4559 54.9789 70.0654 54.6451 69.6749 54.3116ZM72.9196 57.1082C72.6283 56.8547 72.3369 56.6011 72.0454 56.3489C71.9524 56.2683 71.8592 56.1866 71.7661 56.1062C72.2023 55.6401 72.6385 55.1743 73.0746 54.7085C73.1998 54.5747 73.3252 54.4408 73.4503 54.3071C73.5418 54.3865 73.6333 54.4654 73.7247 54.545C74.0352 54.8152 74.3456 55.087 74.6561 55.3586C74.8581 55.5353 75.06 55.7123 75.2625 55.8897C74.701 56.4866 74.1399 57.0836 73.5784 57.6806C73.3589 57.4888 73.1392 57.2992 72.9196 57.1082ZM61.7448 47.656C62.3069 47.0416 62.8691 46.4281 63.4313 45.8153C63.9697 46.2622 64.5084 46.7108 65.0469 47.1604C64.4848 47.7713 63.9227 48.3828 63.3605 48.9951C62.8219 48.5475 62.2833 48.101 61.7448 47.656ZM64.4706 49.9202C64.3174 49.7924 64.1641 49.6635 64.0109 49.5359C64.5729 48.9248 65.1349 48.3143 65.6968 47.7041C65.8934 47.8686 66.09 48.0335 66.2866 48.1984C66.6244 48.4817 66.9621 48.7652 67.2999 49.0496C67.4283 49.1577 67.5565 49.2664 67.6849 49.3746C67.1506 49.9526 66.6161 50.5308 66.0816 51.1095C66.0466 51.1032 66.0107 51.0994 65.9736 51.1014C65.9474 51.103 65.9224 51.1077 65.898 51.1135C65.8189 51.0472 65.74 50.9816 65.6609 50.9153C65.2642 50.5828 64.8673 50.2512 64.4706 49.9202ZM69.2006 72.3704C66.7636 72.2697 64.3259 72.2074 61.888 72.1838C61.8879 71.4828 61.8878 70.7816 61.8877 70.0806C61.8874 68.9084 60.8821 67.9443 59.6464 67.9447C58.4105 67.9446 57.4051 68.9088 57.4051 70.0806C57.4049 70.7817 57.4048 71.4828 57.4048 72.1838C56.0267 72.1971 54.6488 72.225 53.271 72.2629C53.2657 70.638 53.2604 69.0132 53.2552 67.3884C53.2549 67.285 53.2134 67.1873 53.1391 67.1135C52.8586 66.836 52.5781 66.5611 52.2976 66.2842C57.7813 66.1224 63.2697 66.1393 68.7523 66.34C68.9006 66.3455 69.049 66.351 69.1974 66.3567C69.1984 68.3612 69.1996 70.3659 69.2006 72.3704ZM50.0434 72.3722C49.8712 72.3794 49.6988 72.3873 49.5265 72.3948C49.5268 71.8443 49.5272 71.2937 49.5274 70.7431C49.6999 70.7355 49.8721 70.7277 50.0443 70.7207C50.044 71.2712 50.0437 71.8217 50.0434 72.3722ZM58.266 72.1792C58.2661 71.4775 58.2661 70.7755 58.2661 70.0737C58.2661 69.3523 58.8857 68.7612 59.6464 68.7612C60.4077 68.7608 61.0264 69.3517 61.0266 70.0737C61.0267 70.7755 61.0267 71.4775 61.0268 72.1792C60.1065 72.1738 59.1862 72.1738 58.266 72.1792ZM52.395 67.5762C52.3999 69.146 52.4049 70.7159 52.4099 72.2857C51.908 72.3014 51.4061 72.3214 50.9041 72.3403C50.9045 71.6523 50.9048 70.9641 50.9052 70.276C50.9053 70.0498 50.7127 69.8732 50.4751 69.8831C50.0159 69.9014 49.5568 69.921 49.0978 69.9421C48.8601 69.953 48.6676 70.1454 48.6673 70.3727C48.6669 71.0605 48.6664 71.7481 48.6661 72.4359C48.034 72.4659 47.402 72.4978 46.7701 72.533C46.771 70.9587 46.7721 69.3844 46.7732 67.8101C47.7103 66.8028 48.6476 65.8042 49.5849 64.8132C50.5213 65.7312 51.458 66.6518 52.395 67.5762ZM48.5935 64.6654C47.7814 65.5279 46.9693 66.3949 46.1574 67.2699C45.8762 67.2848 45.5951 67.3014 45.314 67.3174C46.1287 66.4392 46.9437 65.5663 47.7586 64.7011C48.0369 64.6883 48.3152 64.6773 48.5935 64.6654ZM46.5787 64.7592C45.7642 65.629 44.9497 66.5038 44.1354 67.3866C43.8161 67.4063 43.497 67.4268 43.1778 67.4478C43.9909 66.5614 44.8043 65.6807 45.6178 64.8078C45.938 64.7905 46.2584 64.7754 46.5787 64.7592ZM44.438 64.8762C43.6249 65.7538 42.8118 66.6366 41.9989 67.5282C41.6803 67.5506 41.3617 67.5727 41.0431 67.5963C41.8544 66.7017 42.6659 65.8129 43.4777 64.9325C43.7977 64.9124 44.1179 64.8949 44.438 64.8762ZM38.7958 71.2808C38.7966 70.3898 38.7973 69.4989 38.7979 68.608C41.1674 68.4062 43.5394 68.2388 45.9131 68.1073C45.9121 69.5992 45.911 71.0911 45.91 72.5831C44.2407 72.6823 42.5719 72.7995 40.9039 72.935C40.5988 72.2504 39.9269 71.4378 38.7958 71.2808ZM71.9614 66.0806C72.5278 65.4791 73.0942 64.8771 73.6603 64.2768C74.7232 63.7182 75.7852 63.1642 76.848 62.6128C77.9107 63.2978 78.9735 63.9912 80.0362 64.6956C80.6025 65.3767 81.1687 66.0631 81.7342 66.7521C81.7357 68.9111 81.738 71.07 81.7395 73.229C81.2055 73.1778 80.6707 73.1311 80.1367 73.0837C80.1352 71.5092 80.1345 69.9348 80.133 68.3602C80.133 68.3509 80.1307 68.342 80.13 68.3328C80.1292 68.3167 80.1285 68.3008 80.1255 68.2847C80.1225 68.2723 80.1187 68.2604 80.1157 68.2483C80.1112 68.2337 80.1075 68.2192 80.1022 68.2049C80.097 68.1925 80.091 68.1808 80.085 68.1688C80.0782 68.1557 80.0722 68.1425 80.064 68.1297C80.0557 68.1172 80.0467 68.1058 80.0377 68.094C80.031 68.0851 80.025 68.0755 80.0175 68.0669C80.016 68.0647 80.013 68.0631 80.0115 68.0609C80.0017 68.0507 79.9912 68.0419 79.9807 68.0324C79.9695 68.022 79.9582 68.0111 79.9462 68.0019C79.938 67.9954 79.9282 67.9904 79.9192 67.9845C79.9042 67.9748 79.8892 67.9647 79.8735 67.9568C79.8645 67.9521 79.854 67.949 79.8442 67.9449C79.8277 67.938 79.812 67.9308 79.7947 67.9258C79.7842 67.9227 79.7737 67.9214 79.7632 67.9191C79.7452 67.9153 79.728 67.9114 79.7107 67.9097C79.7085 67.9094 79.7062 67.9086 79.7032 67.9084C77.8035 67.7514 75.9015 67.617 73.9981 67.5047C73.996 67.5047 73.9939 67.5051 73.9918 67.5051C73.9733 67.5042 73.9552 67.5056 73.937 67.5071C73.927 67.5079 73.9167 67.5078 73.9069 67.5091C73.8908 67.5116 73.8754 67.5162 73.8598 67.5205C73.849 67.5234 73.8377 67.5253 73.8271 67.5291C73.8139 67.5338 73.8016 67.5407 73.7888 67.5468C73.7771 67.5524 73.765 67.5572 73.754 67.5639C73.7438 67.5701 73.7346 67.578 73.7249 67.5853C73.7127 67.5942 73.7003 67.6029 73.6894 67.6131C73.6876 67.6148 73.6855 67.6159 73.6837 67.6176C73.6767 67.6243 73.672 67.6323 73.6656 67.6394C73.6556 67.6506 73.6456 67.6616 73.637 67.6739C73.6296 67.6844 73.6239 67.6957 73.6177 67.7068C73.6111 67.7187 73.6043 67.7304 73.599 67.7431C73.5938 67.7555 73.5903 67.7682 73.5865 67.7811C73.5827 67.7935 73.5787 67.8056 73.5762 67.8186C73.5733 67.8335 73.5725 67.8485 73.5715 67.8636C73.5708 67.873 73.5685 67.882 73.5685 67.8916C73.5696 69.4592 73.5707 71.0266 73.5718 72.5941C73.0364 72.5618 72.501 72.5291 71.9656 72.5005C71.9642 70.3606 71.9627 68.2207 71.9614 66.0806ZM89.7382 65.6337C90.435 66.5189 91.1317 67.4114 91.8285 68.3117C88.9792 67.9393 86.1247 67.6179 83.2665 67.3449C82.392 66.2701 81.5167 65.2049 80.6415 64.1497C80.6107 64.1139 80.5762 64.0822 80.538 64.0567C79.8232 63.5816 79.1077 63.1127 78.3922 62.6465C81.078 62.83 83.7615 63.0506 86.4412 63.3131C87.5407 64.0744 88.6402 64.8477 89.7382 65.6337ZM91.6687 72.6622C91.455 72.5689 91.23 72.502 90.9967 72.4698C90.453 72.3943 89.9392 72.5047 89.52 72.7803C89.2695 72.6404 88.9995 72.5497 88.725 72.5141C87.7807 72.3926 86.9865 72.9332 86.7555 73.7651C86.4367 73.7275 86.118 73.6923 85.7985 73.6561C85.7985 73.2444 85.7985 72.8326 85.7977 72.4208C85.7977 72.1883 85.6065 71.9774 85.3695 71.9503C84.912 71.8982 84.4552 71.8474 83.9977 71.7978C83.7607 71.7725 83.5695 71.9393 83.5695 72.171C83.5695 72.5851 83.5702 72.9993 83.5702 73.4134C83.2455 73.3797 82.9215 73.3477 82.5967 73.3154C82.596 71.477 82.5945 69.6384 82.593 67.7999C82.644 67.8622 82.695 67.9236 82.7452 67.9859C82.7482 67.9897 82.752 67.9923 82.7557 67.996C82.7685 68.0112 82.7827 68.0251 82.7977 68.0387C82.806 68.0461 82.8142 68.054 82.8225 68.0608C82.839 68.0738 82.857 68.0847 82.875 68.0955C82.8825 68.1003 82.8907 68.106 82.8982 68.1104C82.9215 68.1223 82.9455 68.1319 82.9702 68.1401C82.974 68.1413 82.9777 68.1434 82.9815 68.1447C83.0107 68.1533 83.04 68.1595 83.0707 68.1625C85.941 68.4393 88.8075 68.7701 91.668 69.149C91.668 70.32 91.668 71.4911 91.6687 72.6622ZM87.6675 73.8765C87.8617 73.5169 88.2615 73.3014 88.725 73.3624C88.9485 73.3924 89.1675 73.4851 89.3572 73.6303C89.5297 73.7623 89.754 73.7662 89.895 73.6396C90.1875 73.377 90.579 73.2637 90.9967 73.3234C91.6432 73.4145 92.196 73.9008 92.4187 74.5042C90.8362 74.2785 89.2522 74.0693 87.6675 73.8765ZM76.2232 70.6184C75.6262 71.1107 75.0285 71.6048 74.4313 72.0992C74.4304 71.0303 74.4297 69.9612 74.4289 68.8922C75.027 69.4641 75.6255 70.0391 76.2232 70.6184ZM76.8532 70.0993C76.266 69.5289 75.6787 68.9627 75.0915 68.3995C76.2652 68.4753 77.439 68.5598 78.612 68.6531C78.0255 69.1346 77.4397 69.6163 76.8532 70.0993ZM79.278 72.4775C78.6802 71.8856 78.0817 71.2972 77.484 70.7134C78.081 70.2229 78.678 69.7335 79.275 69.2445C79.2765 70.3221 79.2772 71.3997 79.278 72.4775ZM75.0817 72.6901C75.6727 72.2029 76.2637 71.7158 76.854 71.2305C77.4397 71.8005 78.0255 72.375 78.6112 72.9526C77.4352 72.856 76.2585 72.7688 75.0817 72.6901ZM84.4267 72.6842C84.5985 72.7035 84.7702 72.7227 84.9412 72.7424C84.942 73.0152 84.942 73.2879 84.942 73.5607C84.7702 73.5418 84.5992 73.5218 84.4275 73.5033C84.4275 73.2302 84.4267 72.9572 84.4267 72.6842ZM99.1215 76.0579C99.1672 75.7891 98.9857 75.5324 98.7165 75.4866C96.9157 75.1796 95.112 74.8963 93.3075 74.6318C93.1852 74.1087 92.9062 73.6239 92.523 73.2449C92.5222 71.9172 92.5222 70.5894 92.5222 69.2616C92.6017 69.2725 92.6805 69.2821 92.76 69.293C92.9265 69.3158 93.0787 69.2393 93.1477 69.0961C93.2175 68.9533 93.1927 68.7699 93.0832 68.6282C92.1705 67.4374 91.2562 66.2608 90.3412 65.0966C90.312 65.0593 90.2775 65.0257 90.2385 64.9981C89.0872 64.1728 87.9352 63.3614 86.7817 62.5634C86.715 62.517 86.6385 62.4888 86.5605 62.4811C83.349 62.1716 80.1322 61.9176 76.9117 61.7192C76.9027 61.7188 76.8937 61.7203 76.884 61.7203C76.8727 61.7186 76.8607 61.7175 76.8495 61.7167C76.8345 61.7157 76.8202 61.7155 76.806 61.7159C76.7917 61.7165 76.7775 61.7177 76.7632 61.7195C76.7512 61.7211 76.7392 61.7232 76.728 61.7258C76.7122 61.7291 76.6972 61.7334 76.6822 61.7385C76.6717 61.7421 76.6612 61.7463 76.6515 61.7506C76.6425 61.7545 76.6327 61.7568 76.6245 61.7614C75.4687 62.3634 74.3129 62.9693 73.1566 63.5798C73.1179 63.6 73.083 63.627 73.0533 63.6583C72.1348 64.634 71.2161 65.611 70.2971 66.5904C70.1422 66.7556 70.1626 67.0155 70.3429 67.171C70.424 67.2413 70.5241 67.2783 70.6233 67.283C70.7442 67.2887 70.8641 67.2455 70.9493 67.1551C71.0002 67.101 71.051 67.0472 71.1019 66.9931C71.1031 68.8149 71.1042 70.6368 71.1053 72.4587C70.7572 72.4414 70.4093 72.4246 70.0612 72.409C70.06 70.2662 70.0587 68.1235 70.0575 65.9809C70.0577 65.7551 69.8644 65.5621 69.6271 65.5534C69.3951 65.5442 69.163 65.5356 68.931 65.5272C67.8292 61.7378 67.0321 57.4536 66.558 52.752C67.1139 53.2202 67.6699 53.6875 68.2258 54.1593C68.2258 54.1593 68.2258 54.1594 68.2259 54.1594C68.2303 54.1631 68.2346 54.1668 68.239 54.1705C68.2391 54.1706 68.2392 54.1708 68.2393 54.1708C69.0162 54.8304 69.7932 55.4953 70.5701 56.163C70.798 56.3588 71.026 56.5553 71.2538 56.7519C71.8005 57.2236 72.3471 57.6976 72.8938 58.1738C73.7984 58.9619 74.7031 59.7543 75.6075 60.5561C75.6885 60.6281 75.789 60.6669 75.8887 60.6725C76.0087 60.6787 76.1287 60.6377 76.2135 60.5481C76.962 59.7579 77.7105 58.9677 78.459 58.177C78.4605 58.1755 78.4612 58.1738 78.462 58.1723C78.5827 58.0453 78.7027 57.9182 78.8227 57.7911C79.0312 57.5714 79.005 57.2179 78.7635 57.0017C74.5477 53.2273 70.3276 49.6155 66.1084 46.086C66.1 45.415 66.1012 44.6245 66.1027 44.2388C66.1555 44.1715 66.1877 44.0887 66.1877 43.9977C66.1877 43.9669 66.1877 43.936 66.1877 43.9052C66.187 41.6939 64.9465 39.6316 62.946 38.5071C63.0762 38.3645 63.2065 38.2221 63.3367 38.0796C63.337 38.0798 63.3373 38.0801 63.3376 38.0803C64.2038 38.7973 65.0704 39.5165 65.9368 40.2387C66.0181 40.3062 66.1183 40.3404 66.2179 40.3414C66.3382 40.3427 66.4578 40.2955 66.543 40.2035C67.1955 39.4924 67.848 38.7815 68.5003 38.0703C68.5006 38.07 68.5008 38.0699 68.5011 38.0697C68.5814 37.982 68.6619 37.8942 68.7423 37.8065C69.3003 37.1981 69.8584 36.5894 70.4162 35.9804C70.5376 35.8479 70.6591 35.7157 70.7803 35.5832C70.8376 35.5206 70.8949 35.4578 70.9521 35.3953C71.6076 34.6794 72.263 33.9629 72.9184 33.2451C72.9186 33.245 72.9187 33.2448 72.9189 33.2447C72.9572 33.2026 72.9956 33.1604 73.034 33.1182C73.6625 32.4297 74.2909 31.7397 74.9193 31.0488C75.012 30.947 75.1042 30.8459 75.1965 30.7441C75.2985 30.6324 75.3997 30.52 75.5017 30.4081C75.9862 29.874 76.4715 29.3389 76.9567 28.8029C77.0782 28.6681 77.2005 28.534 77.3227 28.3991C77.3235 28.3979 77.3242 28.3966 77.325 28.3955C77.976 27.6752 78.627 26.9536 79.2787 26.229C79.4332 26.0566 79.4137 25.7942 79.2337 25.6427C78.3682 24.9135 77.502 24.1877 76.6365 23.4648C76.6342 23.4633 76.632 23.4622 76.6297 23.4606C76.6312 23.4591 76.6327 23.4577 76.6335 23.4563C76.4947 23.3402 76.3552 23.2242 76.2165 23.1082C75.9757 22.908 75.612 22.9327 75.4035 23.164C70.8915 28.1833 66.3769 33.106 61.8572 38.0588C61.8096 38.0103 61.7503 37.9709 61.6795 37.9486C61.0156 37.7387 60.325 37.6325 59.6271 37.6328C58.7094 37.633 57.8185 37.8123 56.9806 38.1676C56.9511 38.1801 56.9242 38.1957 56.8993 38.2133C56.8481 38.2422 56.779 38.2816 56.7082 38.3226C56.5017 38.1535 56.2953 37.9848 56.0888 37.816C56.8383 36.9892 57.5878 36.164 58.337 35.3401C58.4116 35.2578 58.4488 35.1515 58.4407 35.0435C58.4324 34.9353 58.3793 34.8347 58.2932 34.7643C57.5396 34.1458 56.7863 33.5289 56.0329 32.9116C56.0317 32.9106 56.0308 32.9093 56.0296 32.9083C55.5544 32.519 55.0793 32.1297 54.6042 31.7405C53.4078 30.7605 52.2116 29.7806 51.0157 28.7991C50.9891 28.7773 50.9626 28.7556 50.9359 28.7337C50.9359 28.7337 50.9359 28.7337 50.9359 28.7337C50.9314 28.73 50.927 28.7265 50.9227 28.7229C50.9226 28.7228 50.9225 28.7227 50.9224 28.7226C50.8959 28.7008 50.8694 28.679 50.8429 28.6573C49.7919 27.7946 48.741 26.9298 47.6902 26.0633C47.4082 25.8308 47.1263 25.5978 46.8443 25.3649C45.7528 24.4633 44.6614 23.56 43.5702 22.651C43.3907 22.5016 43.1203 22.5207 42.9645 22.6933C42.2151 23.5268 41.4658 24.3632 40.7161 25.2033C40.7014 25.2197 40.6893 25.2379 40.6775 25.2562C40.573 25.3733 40.4686 25.4904 40.3642 25.6076C40.156 25.8419 40.1821 26.1933 40.4222 26.393C45.4971 30.6109 50.5741 34.7291 55.6564 38.8822C54.3798 39.8139 53.5276 41.1187 53.2142 42.5985C53.2133 42.5979 53.2124 42.597 53.2115 42.5963C53.1252 42.5263 53.0124 42.4917 52.8993 42.5015C52.7857 42.5106 52.68 42.5626 52.6053 42.6455C51.9531 43.3713 51.3008 44.1 50.6486 44.8303C50.6473 44.8317 50.6458 44.8326 50.6446 44.834C50.5531 44.9364 50.4616 45.0401 50.3701 45.1426C49.8111 45.7692 49.252 46.3978 48.6928 47.0284C48.5824 47.1529 48.472 47.2761 48.3616 47.4009C48.2933 47.478 48.225 47.556 48.1567 47.6332C47.5338 48.3373 46.9108 49.0433 46.2879 49.7531C46.2688 49.7748 46.2498 49.7962 46.2307 49.818C46.2306 49.8181 46.2305 49.8183 46.2304 49.8184C46.2267 49.8227 46.2229 49.8269 46.2192 49.8312C46.2191 49.8313 46.219 49.8314 46.219 49.8314C46.2112 49.8402 46.2036 49.8491 46.1958 49.8579C45.5335 50.613 44.8712 51.3727 44.209 52.1351C44.1181 52.2397 44.0271 52.3429 43.9362 52.4477C43.8243 52.5766 43.7125 52.7075 43.6006 52.8366C43.1419 53.3665 42.6832 53.8984 42.2244 54.4321C42.085 54.5944 41.9455 54.7546 41.806 54.9172C41.8034 54.9202 41.8018 54.9236 41.7994 54.9267C41.1484 55.6859 40.4974 56.4479 39.8467 57.216C39.7724 57.304 39.7348 57.4148 39.7429 57.5243C39.7507 57.634 39.8042 57.733 39.8899 57.7994C40.7547 58.4695 41.6197 59.1397 42.4849 59.8109C42.4881 59.8134 42.4918 59.8149 42.495 59.8172C42.6304 59.9224 42.7659 60.0274 42.9014 60.1326C43.1419 60.3191 43.5063 60.2732 43.7146 60.0307C46.7524 56.494 49.7917 53.0509 52.8303 49.6598C52.567 53.5666 51.9454 59.0845 50.486 64.499C50.2906 64.3068 50.0949 64.1129 49.8994 63.9208C49.8977 63.9193 49.8956 63.9182 49.8939 63.9166C49.8157 63.8425 49.7067 63.7983 49.5855 63.8028C48.9106 63.8285 48.2359 63.857 47.5612 63.8879C47.5606 63.8879 47.56 63.8879 47.5594 63.888C46.1341 63.9532 44.7094 64.0301 43.2853 64.1183C43.2818 64.1186 43.2784 64.1186 43.275 64.119C43.2218 64.1223 43.1687 64.1262 43.1155 64.1295C42.8884 62.9923 42.3384 61.055 41.2362 61.1246C39.7896 61.2157 39.1843 64.7156 39.109 66.4595C38.6502 66.9698 38.1915 67.4813 37.7329 67.9967C37.6156 68.1286 37.5837 68.3079 37.6513 68.4551C37.7045 68.5712 37.8127 68.6474 37.9398 68.6671C37.9391 69.5405 37.9384 70.4139 37.9378 71.2873C37.7958 71.307 37.649 71.3351 37.4962 71.3744C37.1464 70.9767 36.6841 70.7012 36.1641 70.5733C36.1645 69.934 36.165 69.2946 36.1654 68.6553C37.5868 68.2499 38.965 66.5051 38.9681 62.5918C38.971 59.3761 37.8958 53.6822 35.7473 53.8182C33.5988 53.9546 32.5183 59.8807 32.5167 63.1524C32.5145 67.1286 33.8874 68.6192 35.308 68.7413C35.3076 69.327 35.3071 69.9126 35.3068 70.4983C35.2609 70.5011 35.2149 70.5042 35.1687 70.509C34.5541 70.5738 33.9619 70.8247 33.4644 71.2254C32.9014 70.7977 32.1738 70.6054 31.4134 70.6977C30.9317 70.756 30.4688 70.9276 30.0537 71.1844C30.0537 71.0255 30.0538 70.8667 30.0538 70.7078C31.1389 70.3094 32.1648 68.9004 32.1664 65.9122C32.1678 63.5553 31.4026 58.995 29.6305 59.1608C27.858 59.3283 27.0924 64.1085 27.092 66.5047C27.0919 69.5396 28.1143 70.7011 29.1985 70.8192C29.1985 71.1845 29.1984 71.5499 29.1982 71.9153C28.9919 72.1543 28.814 72.4198 28.6743 72.7068C28.5154 72.6944 28.3525 72.7001 28.1872 72.7227C27.178 72.8632 26.3181 73.6552 26.0221 74.6266C24.2052 74.8926 22.3897 75.1781 20.5761 75.4866C20.4459 75.5091 20.3322 75.5804 20.2558 75.6885C20.1794 75.7966 20.1496 75.9273 20.1717 76.0579C20.194 76.1885 20.2657 76.3026 20.3737 76.3792C20.4579 76.4392 20.5564 76.47 20.6575 76.47C20.6856 76.47 20.7139 76.4678 20.7423 76.4625C46.5573 72.0618 72.7358 72.0618 98.5507 76.4625C98.8252 76.5105 99.0757 76.3244 99.1215 76.0579Z" fill="#FFFFFE"/>
<path fill-rule="evenodd" clip-rule="evenodd" d="M93.6847 80.9544C93.6645 81.0452 93.621 81.1075 93.5542 81.1413C93.4875 81.1751 93.417 81.1713 93.3412 81.13C93.2662 81.088 93.2092 81.0204 93.171 80.9273C93.138 80.8358 93.132 80.7449 93.1522 80.6541C93.1725 80.5625 93.216 80.5002 93.2827 80.4664C93.3495 80.4326 93.4185 80.4356 93.4905 80.4762C93.5632 80.5167 93.618 80.5835 93.657 80.6774C93.6952 80.7705 93.705 80.8628 93.6847 80.9544ZM93.453 80.1264C93.2767 80.0596 93.123 80.0693 92.9917 80.1541C92.8605 80.2397 92.79 80.3763 92.781 80.5633C92.7712 80.7509 92.8252 80.9334 92.943 81.1128C93.0607 81.2922 93.2077 81.4145 93.384 81.4813C93.5602 81.5482 93.714 81.5392 93.8445 81.4543C93.9757 81.3695 94.0462 81.2329 94.056 81.046C94.0657 80.859 94.0095 80.6766 93.8887 80.4987C93.774 80.317 93.6292 80.1932 93.453 80.1264Z" fill="#FFFFFE"/>
<path fill-rule="evenodd" clip-rule="evenodd" d="M56.8666 83.65C56.7441 83.8429 56.5582 83.9405 56.3092 83.9442C56.0837 83.9472 55.8966 83.8789 55.7478 83.7393C55.5991 83.5997 55.5142 83.4653 55.4935 83.3354C55.4789 83.2431 55.4827 83.1395 55.5048 83.0246C55.567 82.8993 55.6276 82.7702 55.6851 82.6335C55.7105 82.5765 55.7167 82.5104 55.7104 82.4399C55.8972 81.9894 56.055 81.5556 56.1804 81.1404C56.2031 81.1772 56.2513 81.2568 56.3247 81.3784C56.3981 81.5008 56.4478 81.5848 56.4737 81.6314C56.4997 81.6772 56.5424 81.7552 56.602 81.8641C56.6616 81.9737 56.7052 82.0615 56.7326 82.1283C56.7601 82.1951 56.7935 82.2777 56.8328 82.376C56.8721 82.4744 56.9033 82.5697 56.9266 82.6628C56.9499 82.7559 56.9692 82.8505 56.9846 82.9473C57.0286 83.2221 56.9893 83.4563 56.8666 83.65ZM42.8915 83.3121C42.553 84.0786 42.2038 84.4742 41.8444 84.499C41.6999 84.5087 41.5729 84.4584 41.4636 84.3488C41.3541 84.2392 41.2821 84.0756 41.2471 83.8586C41.1814 83.4495 41.2138 83.0224 41.3443 82.5772C41.475 82.1321 41.6652 81.7627 41.915 81.4677C42.1648 81.1735 42.4226 81.0173 42.6881 81C42.883 80.988 43.0446 81.0263 43.1725 81.1149C43.3005 81.2035 43.3882 81.3326 43.4356 81.5008C43.3024 82.1726 43.1212 82.7762 42.8915 83.3121ZM33.0721 84.1919C32.923 84.2182 32.8057 84.2835 32.7202 84.3871C32.6348 84.4907 32.6032 84.6123 32.6256 84.752C32.6351 84.8105 32.6571 84.8623 32.6916 84.9073C32.474 85.1641 32.2429 85.306 31.9982 85.3315C31.8037 85.3525 31.6319 85.2962 31.4826 85.1633C31.3333 85.0305 31.2365 84.8263 31.1921 84.5523C31.1437 84.252 31.1508 83.942 31.2134 83.6222C31.276 83.3024 31.3746 83.0209 31.5092 82.7769C31.6438 82.5329 31.801 82.3295 31.9807 82.1651C32.1604 82.0007 32.3374 81.9091 32.5118 81.8911C32.6929 81.8723 32.8461 81.9249 32.9717 82.048C33.0972 82.1711 33.1815 82.3663 33.2247 82.6343C33.3099 83.162 33.259 83.6815 33.0721 84.1919ZM26.1526 86.6594C25.798 86.7052 25.4646 86.6497 25.1524 86.4935C24.8403 86.3374 24.6433 86.1129 24.5616 85.8179C24.5497 85.7864 24.5539 85.7594 24.5743 85.7384C24.5947 85.7166 24.6234 85.7151 24.6604 85.7323C25.3303 86.0927 26.1187 86.2691 27.0259 86.2638C26.7615 86.4868 26.4704 86.6182 26.1526 86.6594ZM25.8289 83.0404C25.5413 83.0779 25.3849 83.0186 25.3594 82.8617C25.3299 82.6793 25.5076 82.563 25.8922 82.5127C26.2435 82.4676 26.552 82.4969 26.8183 82.6013C26.4965 82.8505 26.1669 82.9969 25.8289 83.0404ZM21.4384 80.4851C21.2809 80.9482 21.0743 81.3469 20.819 81.6809C20.5636 82.015 20.3026 82.2026 20.0356 82.2432C19.9054 82.2634 19.7938 82.2342 19.7008 82.1553C19.6077 82.0765 19.5487 81.9602 19.524 81.8078C19.4661 81.452 19.5354 81.0804 19.7311 80.6945C19.9267 80.3087 20.2051 79.9739 20.5661 79.6901C20.9272 79.4071 21.3134 79.2164 21.725 79.1188C21.6916 79.567 21.5959 80.0227 21.4384 80.4851ZM47.2406 81.1644C47.4981 80.8582 47.7564 80.699 48.0154 80.6878C48.2139 80.6788 48.3253 80.7508 48.3496 80.9025C48.3929 81.172 48.2656 81.4347 47.9677 81.6899C47.6698 81.9459 47.2536 82.1486 46.7189 82.3017C46.8092 81.8506 46.9831 81.4715 47.2406 81.1644ZM59.3909 82.1126C59.3039 82.0412 59.2082 82.0067 59.1039 82.0067C59.0129 82.0067 58.9401 82.0405 58.8851 82.1073C58.8301 82.1749 58.7736 82.2792 58.7154 82.4211C58.5134 82.8873 58.2406 83.2784 57.8966 83.5937C57.9715 83.3654 57.9901 83.1327 57.952 82.8948C57.9139 82.6561 57.8344 82.4053 57.7132 82.1418C57.5919 81.8783 57.4666 81.6471 57.3373 81.449C57.208 81.2508 57.0663 81.0286 56.9123 80.7823C56.7584 80.5361 56.6428 80.3297 56.5657 80.163C56.7629 79.624 56.8465 79.26 56.8162 79.0708C56.7931 78.9252 56.727 78.8081 56.6183 78.718C56.5095 78.6279 56.3692 78.5836 56.1976 78.5859C55.9923 78.5889 55.8226 78.7142 55.6884 78.9619C55.5543 79.2104 55.5159 79.5144 55.5735 79.8748C55.5821 79.9288 55.5907 79.9829 55.5993 80.0362C55.344 81.0578 55.0868 81.8663 54.8278 82.4639C54.7095 82.7379 54.6292 82.9428 54.5866 83.0772C54.5847 83.0832 54.5846 83.0877 54.583 83.0937C54.2604 83.7055 53.9539 84.0178 53.6641 84.0245C53.58 84.026 53.5069 83.9915 53.4448 83.921C53.3828 83.8496 53.3413 83.749 53.3206 83.6192C53.2879 83.415 53.3003 83.1808 53.3578 82.9165C53.4153 82.653 53.486 82.4136 53.5699 82.1989C53.6539 81.9849 53.7244 81.7447 53.7815 81.479C53.8387 81.2132 53.8507 80.976 53.8174 80.7688C53.7711 80.4791 53.6454 80.2471 53.4403 80.073C53.2352 79.8988 52.9894 79.8155 52.7035 79.823C52.4511 79.8297 52.1875 79.9521 51.9127 80.1893C51.6379 80.4265 51.3783 80.7313 51.1336 81.1044C51.16 80.973 51.1863 80.8417 51.2126 80.711C51.2726 80.5151 51.2976 80.386 51.2875 80.3229C51.2691 80.2081 51.216 80.1135 51.1281 80.0399C51.0403 79.9664 50.9341 79.9318 50.8096 79.9363C50.5505 79.9446 50.3848 80.115 50.3125 80.4453C50.1454 81.2087 50.0042 81.9376 49.8834 82.6373C49.6894 83.0914 49.4194 83.448 49.0701 83.7025C48.7109 83.9652 48.2892 84.1064 47.8048 84.1281C47.5223 84.1409 47.2796 84.0756 47.0767 83.9307C46.8739 83.7858 46.7504 83.5764 46.7066 83.3031C46.6864 83.177 46.6756 83.0884 46.674 83.0359C47.5096 82.8572 48.1825 82.5697 48.6925 82.1704C49.2025 81.771 49.4224 81.3536 49.3525 80.9167C49.3026 80.6059 49.1557 80.3695 48.9113 80.2081C48.667 80.0467 48.3481 79.9746 47.9546 79.9919C47.6552 80.0054 47.3535 80.1037 47.0491 80.2876C46.7449 80.4723 46.4756 80.711 46.2412 81.0046C46.0069 81.2973 45.8314 81.6569 45.7149 82.0825C45.6463 82.3325 45.6144 82.587 45.611 82.8445C45.1875 83.8564 44.7955 84.3766 44.4354 84.3969C44.348 84.4021 44.2686 84.3624 44.1972 84.2768C44.1259 84.1919 44.0768 84.0658 44.0502 83.8999C43.9957 83.5606 44.0877 82.7709 44.3263 81.5308C44.4342 80.9137 44.5903 80.1743 44.7947 79.3133C45.0687 78.5904 45.185 78.0994 45.1435 77.8412C45.1268 77.7376 45.0786 77.6535 44.9987 77.5889C44.9189 77.5244 44.8201 77.4959 44.7024 77.5026C44.5781 77.5094 44.4622 77.5597 44.3551 77.6535C44.2481 77.7473 44.1714 77.8832 44.1253 78.0611C43.8965 79.0655 43.7122 79.9581 43.5727 80.7381C43.3199 80.4108 42.9935 80.2599 42.5936 80.2854C42.1266 80.3162 41.6884 80.5129 41.2795 80.8747C40.8705 81.2365 40.561 81.6944 40.3506 82.2462C40.2262 82.5727 40.1602 82.897 40.14 83.2206C39.7209 84.2227 39.3281 84.7429 38.9619 84.7722C38.8779 84.779 38.8049 84.7482 38.743 84.6806C38.6812 84.6131 38.6398 84.5147 38.6191 84.3856C38.5864 84.1837 38.5989 83.9487 38.6563 83.6815C38.7136 83.4142 38.7841 83.171 38.8678 82.9518C38.9516 82.7334 39.022 82.4887 39.079 82.2199C39.1362 81.9512 39.1481 81.7132 39.1149 81.5075C39.0688 81.2207 38.9433 80.9955 38.7385 80.8334C38.5339 80.6705 38.2887 80.6007 38.0033 80.6247C37.7515 80.6457 37.4887 80.7823 37.2145 81.0346C36.9403 81.2876 36.6814 81.6073 36.4372 81.994C36.4636 81.8611 36.4897 81.7282 36.5161 81.5961C36.5759 81.3964 36.6008 81.2658 36.5907 81.2035C36.5724 81.0894 36.5194 80.9985 36.4318 80.9295C36.3441 80.8612 36.2382 80.8326 36.1141 80.8439C35.8557 80.8672 35.6905 81.0458 35.6183 81.3806C35.4516 82.1546 35.3107 82.8918 35.19 83.5989C34.9159 84.246 34.558 84.5921 34.1148 84.6356C34.0511 84.6416 33.971 84.6424 33.8748 84.6371C34.2473 83.9262 34.379 83.2318 34.2695 82.5532C34.1896 82.0578 33.9868 81.6862 33.6607 81.4392C33.3346 81.1922 32.9184 81.0946 32.4122 81.1472C32.0904 81.181 31.7761 81.3033 31.4693 81.5158C31.1626 81.7275 30.898 81.9902 30.6757 82.3032C30.4535 82.617 30.2881 82.9818 30.1798 83.3985C30.1171 83.6394 30.0871 83.8789 30.0827 84.1169C29.8215 84.6544 29.3644 85.0177 28.709 85.2091C28.8433 84.7309 28.8716 84.2505 28.7937 83.7686C28.714 83.2746 28.4977 82.855 28.1451 82.5104C28.5604 82.039 28.8677 81.5008 29.0666 80.8942C29.2656 80.2884 29.3184 79.6961 29.2251 79.1181C29.133 78.5476 28.9144 78.1242 28.5697 77.8487C28.2247 77.5732 27.7779 77.4688 27.229 77.5371C26.1983 77.6655 25.1692 78.6729 24.142 80.5609C24.1445 80.2809 24.1293 80.0392 24.0963 79.835C24.0326 79.4409 23.8749 79.1106 23.6234 78.8433C23.3718 78.5768 23.0596 78.4004 22.687 78.3156C22.6847 78.3006 22.6824 78.2863 22.68 78.2721C22.6222 77.9147 22.5094 77.6445 22.3414 77.4621C22.1734 77.2797 21.9943 77.2023 21.8039 77.2294C21.687 77.2466 21.5923 77.3007 21.5198 77.3915C21.4474 77.4823 21.4196 77.5807 21.4367 77.6858C21.4438 77.7293 21.4749 77.7849 21.5301 77.8509C21.5876 77.932 21.6403 78.0881 21.688 78.3194C21.2673 78.4034 20.8517 78.5701 20.4408 78.8208C20.0299 79.0708 19.6761 79.3621 19.3792 79.6931C19.0822 80.0242 18.8539 80.3882 18.6943 80.7861C18.5346 81.184 18.4836 81.5608 18.5412 81.9166C18.6136 82.364 18.7904 82.6906 19.072 82.8978C19.3535 83.1057 19.7095 83.1763 20.14 83.111C20.4438 83.0644 20.745 82.9135 21.0439 82.6591C21.3428 82.4038 21.6045 82.093 21.8287 81.7245C22.0528 81.3566 22.2429 80.952 22.3987 80.5106C22.5547 80.0692 22.6534 79.6391 22.6949 79.2194C22.9216 79.3741 23.0645 79.6346 23.124 80.0031C23.1966 80.4513 23.1268 81.2673 22.9153 82.4519C22.8382 82.8835 22.7365 83.3489 22.6104 83.8474C22.4842 84.3466 22.3825 84.7257 22.3051 84.9869C22.0942 85.5424 21.9439 85.9868 21.8543 86.3201C21.7647 86.6534 21.7336 86.9064 21.7614 87.0776C21.7866 87.2337 21.8489 87.3538 21.948 87.4387C22.0471 87.5227 22.1668 87.555 22.3071 87.5347C22.4441 87.5152 22.5565 87.4341 22.6445 87.2908C22.7324 87.1481 22.8155 86.9057 22.8932 86.5626C23.1052 85.6122 23.3374 84.6821 23.59 83.7716C23.7186 83.2994 23.8513 82.8933 23.9877 82.5547C24.1243 82.2154 24.3053 81.8348 24.5309 81.4129C24.7988 80.9152 25.0807 80.4566 25.3768 80.0377C25.6728 79.618 25.9945 79.2532 26.3422 78.9424C26.6898 78.6316 27.0058 78.459 27.2903 78.4237C27.511 78.3959 27.6987 78.4522 27.8526 78.5919C28.0066 78.7315 28.1075 78.9492 28.1553 79.2457C28.229 79.7021 28.1953 80.1796 28.0538 80.6773C27.9123 81.175 27.6925 81.6209 27.3943 82.015C26.8988 81.801 26.35 81.732 25.7479 81.8108C25.3399 81.8641 25.0177 82 24.7813 82.2177C24.5451 82.4354 24.4502 82.6891 24.4968 82.9766C24.5416 83.2536 24.6925 83.4645 24.95 83.6087C25.2073 83.7536 25.5501 83.7978 25.9782 83.7423C26.5068 83.674 27.0142 83.4645 27.5003 83.114C27.6523 83.3152 27.7529 83.5696 27.8026 83.8759C27.8905 84.4209 27.8332 84.9321 27.6308 85.4118C27.6275 85.4126 27.6241 85.4126 27.6208 85.4133C27.1186 85.4749 26.5939 85.4546 26.0467 85.354C25.4993 85.2534 25.0838 85.107 24.7998 84.9141C24.5613 84.749 24.3265 84.6821 24.0959 84.7137C23.9222 84.7369 23.7967 84.8165 23.7195 84.9524C23.6422 85.0875 23.6243 85.2827 23.6656 85.5379C23.7787 86.2376 24.0799 86.7585 24.5694 87.1023C25.0589 87.4462 25.6313 87.5753 26.2871 87.4912C26.6852 87.4409 27.0625 87.2923 27.4189 87.0475C27.7751 86.8021 28.0733 86.492 28.313 86.1167C28.9838 85.9808 29.5268 85.7624 29.942 85.4599C30.0628 85.3713 30.1721 85.2729 30.2753 85.1686C30.3881 85.4253 30.544 85.6363 30.7551 85.7902C31.0971 86.0394 31.5129 86.1377 32.0022 86.0859C32.5318 86.0296 33.0055 85.7646 33.4232 85.2909C33.6406 85.3285 33.8733 85.3352 34.1215 85.3112C34.4335 85.2812 34.7166 85.1851 34.9709 85.0252C34.9678 85.0485 34.9637 85.0732 34.9606 85.0965C34.9498 85.1979 34.9509 85.2894 34.9639 85.3698C34.9858 85.5056 35.0401 85.6047 35.1268 85.6678C35.2135 85.7301 35.3107 85.7564 35.4179 85.7466C35.6627 85.7241 35.8022 85.5642 35.836 85.2669C35.8885 84.8525 35.984 84.4209 36.1228 83.972C36.2617 83.5238 36.4138 83.1583 36.5793 82.8753C36.8008 82.4759 37.0321 82.1313 37.2732 81.8431C37.5142 81.554 37.7354 81.4017 37.9369 81.3844C38.0679 81.3739 38.1424 81.4257 38.1608 81.539C38.1869 81.7012 38.171 81.9091 38.1133 82.1636C38.0557 82.4181 37.9856 82.6591 37.9033 82.888C37.8211 83.1162 37.7533 83.3715 37.7001 83.6537C37.6469 83.936 37.6367 84.1799 37.6699 84.3856C37.7279 84.746 37.8713 85.0184 38.1004 85.2046C38.3294 85.3908 38.6117 85.4704 38.9476 85.4441C39.3606 85.4111 39.7389 85.1949 40.0825 84.7947C40.1724 84.6904 40.2589 84.577 40.3428 84.4577C40.4352 84.6454 40.5555 84.8038 40.708 84.9276C40.9955 85.1626 41.3408 85.2654 41.744 85.2376C42.2649 85.2024 42.7285 84.8443 43.1352 84.1627C43.2253 84.4705 43.3873 84.7024 43.6213 84.8593C43.8553 85.0162 44.1202 85.086 44.416 85.0687C44.6211 85.0567 44.8119 85.0087 44.9883 84.9246C45.1647 84.8398 45.3186 84.7369 45.4498 84.6138C45.5811 84.4915 45.709 84.3331 45.8338 84.1379C45.8503 84.1124 45.8635 84.0884 45.8794 84.0628C45.9937 84.2565 46.1443 84.4187 46.3318 84.5485C46.7056 84.8068 47.1985 84.9216 47.8106 84.8938C48.5035 84.8623 49.0933 84.6596 49.5796 84.2835C49.6038 84.2648 49.6243 84.2415 49.648 84.222C49.6463 84.2843 49.6477 84.3443 49.6563 84.3976C49.6783 84.535 49.7327 84.6371 49.8196 84.7047C49.9066 84.7722 50.0039 84.8038 50.1115 84.8C50.3572 84.791 50.4969 84.6394 50.5308 84.3436C50.5833 83.9322 50.6792 83.5058 50.8183 83.0652C50.9575 82.6245 51.1101 82.2672 51.276 81.994C51.4981 81.6066 51.73 81.2755 51.9715 81C52.2132 80.7253 52.435 80.5849 52.6369 80.5797C52.768 80.5759 52.843 80.6315 52.8613 80.7471C52.8875 80.91 52.8715 81.1172 52.8137 81.3686C52.7559 81.6194 52.6858 81.8573 52.6033 82.081C52.5208 82.3047 52.4529 82.5562 52.3995 82.8355C52.3461 83.114 52.336 83.3579 52.3693 83.5651C52.4274 83.9285 52.5712 84.21 52.8007 84.4089C53.0302 84.6078 53.3131 84.7032 53.6497 84.6957C54.0637 84.6859 54.4427 84.4907 54.787 84.1101C54.8071 84.0884 54.8256 84.0613 54.8455 84.0388C54.9294 84.1334 55.024 84.2242 55.1422 84.3053C55.4833 84.5395 55.9232 84.6529 56.4618 84.6461C57.1047 84.6386 57.7096 84.4494 58.277 84.0771C58.8444 83.7055 59.2577 83.2153 59.5172 82.6043C59.5492 82.5292 59.5588 82.4534 59.5464 82.3745C59.5297 82.2702 59.4779 82.1831 59.3909 82.1126Z" fill="#FFFFFE"/>
<path fill-rule="evenodd" clip-rule="evenodd" d="M63.5081 77.7203C63.3508 78.1572 63.1436 78.5228 62.8862 78.8155C62.6287 79.1083 62.362 79.2539 62.086 79.2509C61.9548 79.2502 61.8422 79.2021 61.7482 79.1083C61.6543 79.0145 61.5948 78.8891 61.5699 78.733C61.5118 78.3674 61.5822 78.0071 61.7815 77.6527C61.9806 77.2984 62.2621 77.0086 62.6262 76.7834C62.9902 76.559 63.3779 76.4306 63.7893 76.3998C63.7589 76.8427 63.6653 77.2826 63.5081 77.7203ZM70.9761 76.4494C70.9292 76.1529 70.8317 75.9172 70.6837 75.7415C70.5355 75.5658 70.379 75.4743 70.2143 75.4675C70.0798 75.4622 69.9685 75.5095 69.8805 75.6086C69.7925 75.7077 69.757 75.8113 69.7744 75.9202C69.7814 75.9652 69.8018 76.0313 69.8357 76.1176C69.8695 76.2047 69.8948 76.3008 69.9114 76.4058C70.017 77.0732 69.9766 77.8216 69.7902 78.6504C69.6037 79.4799 69.3101 80.2756 68.9092 81.0406C68.4219 81.9774 67.9215 82.7071 67.4083 83.2303C66.8951 83.7528 66.4164 84.0095 65.9722 83.999C65.7299 83.993 65.5198 83.9157 65.3418 83.7663C65.1638 83.6177 65.054 83.412 65.0126 83.1507C64.9591 82.8144 64.9744 82.4503 65.0581 82.0592C65.1419 81.6674 65.2579 81.289 65.4062 80.9235C65.5543 80.5579 65.7022 80.19 65.8495 79.8185C65.9968 79.4476 66.1108 79.0573 66.1917 78.6481C66.2725 78.2383 66.2842 77.8517 66.2266 77.4891C66.1613 77.0777 65.9986 76.7181 65.7385 76.4096C65.4784 76.1018 65.1512 75.8789 64.7569 75.7407C64.7551 75.7295 64.7533 75.7182 64.7516 75.707C64.6934 75.3406 64.5796 75.0527 64.4105 74.8429C64.2412 74.633 64.0607 74.5266 63.8689 74.5235C63.751 74.5215 63.6556 74.5602 63.5826 74.6393C63.5095 74.7181 63.4815 74.8119 63.4988 74.9202C63.5059 74.9649 63.5372 75.025 63.5929 75.1004C63.6508 75.1905 63.7039 75.3556 63.752 75.5944C63.3283 75.6101 62.909 75.71 62.4946 75.8939C62.0804 76.0771 61.7234 76.3113 61.4238 76.5943C61.1242 76.8773 60.8938 77.2046 60.7327 77.5769C60.5717 77.9485 60.52 78.3171 60.5783 78.6827C60.6512 79.1413 60.8299 79.4964 61.1139 79.7494C61.398 80.0024 61.7588 80.1307 62.1964 80.1352C62.5027 80.1382 62.8065 80.0361 63.1079 79.8297C63.4093 79.6233 63.6729 79.3545 63.8989 79.0227C64.1248 78.6909 64.3154 78.3171 64.4708 77.9012C64.6261 77.4846 64.7248 77.0702 64.7666 76.6573C64.9887 76.8518 65.1265 77.1175 65.1799 77.4538C65.2321 77.7826 65.2153 78.1422 65.1295 78.531C65.0438 78.9206 64.9252 79.2982 64.7735 79.6646C64.6219 80.0301 64.4704 80.3972 64.3191 80.7651C64.1678 81.1329 64.0508 81.521 63.968 81.9301C63.8851 82.3385 63.872 82.7198 63.9283 83.0749C64.015 83.6199 64.2436 84.0606 64.6141 84.3976C64.9846 84.7339 65.4208 84.9081 65.9221 84.9201C66.6424 84.9374 67.3336 84.6641 67.9958 84.1003C68.6581 83.5366 69.2687 82.7183 69.8276 81.6449C70.2808 80.7681 70.6159 79.877 70.8333 78.9694C71.0505 78.0626 71.0983 77.2226 70.9761 76.4494Z" fill="#FFFFFE"/>
<path fill-rule="evenodd" clip-rule="evenodd" d="M98.1127 86.4674C97.9912 86.6408 97.8067 86.7099 97.56 86.6739C97.3365 86.6408 97.1505 86.5433 97.0027 86.3804C96.855 86.2175 96.771 86.0696 96.7507 85.9367C96.7207 85.746 96.7657 85.5193 96.8857 85.2573C97.1077 84.7709 97.29 84.3017 97.4325 83.8498C97.455 83.8903 97.5022 83.9774 97.575 84.111C97.6485 84.2439 97.6972 84.3362 97.7235 84.3865C97.749 84.4368 97.7917 84.5217 97.8502 84.6403C97.9095 84.7589 97.953 84.8535 97.98 84.9248C98.007 84.9953 98.0407 85.0832 98.0797 85.1883C98.118 85.2926 98.1495 85.3932 98.1727 85.4893C98.1952 85.5861 98.2147 85.6837 98.2297 85.7828C98.2732 86.0651 98.235 86.2933 98.1127 86.4674ZM93.3562 84.9496C93.0195 85.6507 92.6715 85.9795 92.3137 85.9345C92.1697 85.9164 92.0445 85.8421 91.9372 85.7115C91.83 85.5809 91.7587 85.4037 91.7235 85.1793C91.6575 84.7536 91.6897 84.331 91.8195 83.9114C91.95 83.4917 92.139 83.1592 92.3865 82.9145C92.6332 82.6697 92.8897 82.5646 93.1537 82.5984C93.348 82.6232 93.5085 82.693 93.636 82.8064C93.7635 82.9197 93.8505 83.0653 93.8977 83.2433C93.765 83.8888 93.585 84.4571 93.3562 84.9496ZM77.8455 84.2664C77.7232 84.4496 77.5372 84.5329 77.289 84.5164C77.064 84.5006 76.8765 84.4181 76.728 84.2664C76.5795 84.1155 76.4947 83.9744 76.4745 83.8423C76.458 83.7365 76.467 83.6163 76.4977 83.485C76.5517 83.3784 76.605 83.271 76.6552 83.1554C76.6785 83.1059 76.6845 83.0481 76.6815 82.9858C76.872 82.5421 77.0332 82.1142 77.16 81.7021C77.1825 81.7411 77.2305 81.8245 77.304 81.9521C77.3775 82.0797 77.427 82.1683 77.4532 82.2163C77.4787 82.2651 77.5215 82.3462 77.5807 82.4603C77.6407 82.5736 77.6842 82.6652 77.7112 82.7343C77.739 82.8034 77.772 82.8882 77.8117 82.9895C77.8507 83.0916 77.8822 83.1892 77.9055 83.2845C77.9287 83.3791 77.9475 83.4752 77.9632 83.5736C78.0067 83.8521 77.9677 84.0833 77.8455 84.2664ZM73.1079 83.1224C72.7691 83.8506 72.4199 84.2056 72.06 84.1884C71.9155 84.1816 71.7892 84.117 71.6814 83.9947C71.5735 83.8723 71.5021 83.7004 71.4672 83.4797C71.4007 83.0593 71.4329 82.6337 71.5636 82.2043C71.6944 81.7742 71.8841 81.4266 72.1328 81.1631C72.3815 80.8996 72.6388 80.7743 72.9043 80.7878C73.0994 80.7975 73.261 80.8538 73.3891 80.9574C73.5171 81.061 73.6048 81.1999 73.6523 81.3741C73.519 82.0302 73.3377 82.6127 73.1079 83.1224ZM83.9325 81.9881C84.1897 81.7179 84.447 81.5948 84.7057 81.6195C84.9037 81.6383 85.0147 81.7254 85.0387 81.8808C85.0822 82.157 84.9555 82.4017 84.6577 82.6149C84.3615 82.8289 83.946 82.9738 83.412 83.0526C83.5027 82.6134 83.676 82.2584 83.9325 81.9881ZM100.615 85.3271C100.529 85.2423 100.435 85.192 100.331 85.1763C100.241 85.162 100.168 85.1838 100.114 85.2431C100.06 85.3016 100.003 85.397 99.9457 85.5298C99.7462 85.9645 99.4755 86.3113 99.1342 86.5725C99.2085 86.3571 99.2272 86.1266 99.189 85.8827C99.1515 85.6387 99.0727 85.3752 98.9527 85.0922C98.832 84.8092 98.7082 84.5592 98.58 84.34C98.4517 84.1216 98.3107 83.8776 98.1585 83.6066C98.0055 83.3363 97.8907 83.1119 97.8142 82.9332C98.01 82.425 98.0932 82.0744 98.0632 81.88C98.04 81.7314 97.9747 81.603 97.8667 81.4964C97.7587 81.3891 97.6192 81.323 97.449 81.2982C97.2457 81.2682 97.077 81.3673 96.9442 81.594C96.8107 81.8207 96.7725 82.1187 96.8295 82.4888C96.8385 82.5436 96.8467 82.5992 96.8557 82.654C96.621 83.5608 96.3855 84.2837 96.1477 84.8279C96.126 84.8677 96.1042 84.909 96.0832 84.9593C95.6535 85.9232 95.2567 86.3811 94.8922 86.3323C94.8052 86.3203 94.7265 86.2648 94.6552 86.1657C94.5847 86.0673 94.536 85.9322 94.509 85.7603C94.467 85.4908 94.4752 85.1785 94.5337 84.8249C94.5915 84.4714 94.6935 84.0142 94.839 83.4527C95.0392 82.9693 95.1285 82.6607 95.1082 82.5279C95.0895 82.41 95.04 82.3087 94.9582 82.2253C94.8765 82.1413 94.7752 82.0917 94.6552 82.0752C94.5315 82.0587 94.416 82.0962 94.3087 82.1878C94.2022 82.2801 94.1295 82.4107 94.0897 82.5812C93.8347 82.16 93.4912 81.9206 93.06 81.8658C92.712 81.8207 92.3745 81.8778 92.0482 82.0369C91.7212 82.1953 91.4445 82.4198 91.2165 82.7088C90.9892 82.9978 90.8205 83.3468 90.7117 83.7545C90.6667 83.9226 90.6405 84.0923 90.6247 84.2627C90.4432 84.6688 90.2505 84.9931 90.045 85.2356C89.838 85.4795 89.6355 85.5899 89.4382 85.5674C89.2537 85.5463 89.1397 85.3977 89.097 85.1207C89.064 84.9083 89.0745 84.6808 89.1285 84.4368C89.1825 84.1936 89.2515 83.9819 89.3355 83.801C89.4195 83.6208 89.4907 83.4219 89.5485 83.205C89.607 82.988 89.6227 82.7943 89.5965 82.6239C89.58 82.5173 89.5455 82.4175 89.493 82.3244C89.4405 82.2306 89.3655 82.1413 89.2687 82.0557C89.1712 81.9701 89.085 81.8995 89.0085 81.8447C88.9327 81.7892 88.8247 81.7171 88.686 81.627C88.5465 81.537 88.4475 81.4716 88.389 81.4319C88.5322 81.0415 88.5892 80.7555 88.5615 80.5738C88.539 80.4297 88.4775 80.3073 88.3777 80.2067C88.2787 80.1062 88.1535 80.0483 88.0027 80.0318C87.8077 80.0108 87.6405 80.1204 87.5002 80.3606C87.3592 80.6009 87.3187 80.9101 87.378 81.2892C87.3862 81.344 87.3952 81.3988 87.4035 81.4536C87.1815 82.2846 86.9107 83.0593 86.5942 83.7792C86.5912 83.786 86.5882 83.7898 86.586 83.7958C86.3917 84.2417 86.115 84.5697 85.7572 84.7822C85.3995 84.9938 84.9787 85.0764 84.4957 85.0306C84.2137 85.0036 83.9715 84.9038 83.769 84.7311C83.5672 84.5577 83.4442 84.331 83.4 84.0517C83.3797 83.9226 83.3692 83.8325 83.3677 83.78C84.2017 83.7184 84.8722 83.5248 85.3807 83.1967C85.8892 82.8687 86.1082 82.4828 86.0385 82.0354C85.989 81.7179 85.8427 81.4604 85.599 81.2652C85.3552 81.0693 85.0372 80.9529 84.645 80.9154C84.3465 80.8869 84.0457 80.9432 83.742 81.0843C83.4382 81.2262 83.1697 81.4274 82.9357 81.6878C82.7017 81.9483 82.5262 82.2831 82.41 82.6923C82.3417 82.9325 82.3102 83.1824 82.3065 83.4392C82.2592 83.5465 82.212 83.6494 82.1647 83.7447C81.795 84.4924 81.4477 84.8535 81.123 84.8272C80.8605 84.8054 80.7015 84.6163 80.6452 84.2574C80.553 83.6704 80.6917 82.678 81.06 81.2825C81.306 81.302 81.552 81.323 81.798 81.3433C81.909 81.353 81.9922 81.329 82.0477 81.2727C82.0762 81.2442 82.0942 81.2082 82.104 81.1646C82.1152 81.1196 82.1182 81.0663 82.1085 81.0032C82.0935 80.9094 82.0485 80.8291 81.9735 80.763C81.8992 80.6969 81.8062 80.6594 81.6952 80.6496C81.5475 80.6376 81.3997 80.6249 81.252 80.6129C81.3307 80.3531 81.4095 80.0934 81.4875 79.8337C81.6795 79.369 81.765 79.0665 81.7432 78.9268C81.7245 78.806 81.6705 78.7046 81.5812 78.6228C81.492 78.541 81.384 78.4944 81.2565 78.4839C81.06 78.4682 80.8807 78.6356 80.7202 78.9876C80.6647 79.1062 80.6115 79.2466 80.5605 79.4088C80.4427 79.7819 80.325 80.1557 80.208 80.5288C80.01 80.513 79.8127 80.498 79.6147 80.483C79.4287 80.4687 79.3215 80.5228 79.2952 80.6444C79.284 80.6872 79.281 80.7367 79.29 80.7968C79.3267 81.031 79.4692 81.1571 79.7182 81.1759C79.824 81.1841 79.9297 81.1924 80.0355 81.2006C79.83 82.0271 79.7047 82.7088 79.6582 83.2485C79.4602 83.6696 79.2 84.0187 78.8737 84.292C78.948 84.0705 78.9667 83.8393 78.9285 83.5976C78.891 83.3566 78.8115 83.0991 78.69 82.8259C78.5692 82.5526 78.444 82.3117 78.315 82.103C78.186 81.895 78.0442 81.6608 77.8912 81.4026C77.7375 81.1443 77.622 80.9289 77.5447 80.7555C77.742 80.2323 77.8252 79.8749 77.7952 79.6835C77.772 79.5364 77.706 79.4133 77.5972 79.3149C77.4885 79.2158 77.349 79.161 77.1772 79.149C76.9725 79.1355 76.803 79.2474 76.6687 79.4846C76.5352 79.7218 76.497 80.0228 76.554 80.3884C76.563 80.4425 76.5712 80.4973 76.5802 80.5521C76.3252 81.5527 76.068 82.3409 75.8092 82.9175C75.699 83.1652 75.6232 83.3521 75.579 83.4835C75.2497 84.0975 74.9407 84.4023 74.6523 84.3858C74.5649 84.3805 74.4855 84.331 74.4141 84.2379C74.3427 84.1448 74.2937 84.0135 74.2669 83.8438C74.2249 83.5773 74.2331 83.265 74.2915 82.9062C74.3501 82.5481 74.4524 82.0827 74.5987 81.5099C74.7998 81.0107 74.8901 80.6962 74.8693 80.5641C74.8509 80.4477 74.8006 80.3509 74.7185 80.2736C74.6364 80.1962 74.5347 80.1542 74.4137 80.1474C74.2893 80.1399 74.1734 80.1865 74.0658 80.2871C73.9584 80.3869 73.8849 80.5243 73.8455 80.6969C73.5888 80.2953 73.2436 80.0836 72.8098 80.0619C72.46 80.0438 72.1212 80.1279 71.793 80.3118C71.4649 80.4958 71.1864 80.7412 70.9576 81.0483C70.7288 81.3553 70.5596 81.7171 70.4501 82.1337C70.3405 82.5496 70.3186 82.9663 70.3845 83.3829C70.4586 83.8513 70.6387 84.2191 70.925 84.4864C71.2111 84.7544 71.5561 84.897 71.9596 84.9158C72.481 84.9405 72.9449 84.6358 73.3517 84.0014C73.4419 84.319 73.604 84.5697 73.838 84.7536C74.0721 84.9375 74.3371 85.0381 74.6329 85.0547C75.0465 85.0787 75.423 84.915 75.762 84.563C75.783 84.5404 75.8032 84.5134 75.8242 84.4901C75.909 84.593 76.0042 84.6921 76.1235 84.7837C76.464 85.0456 76.9035 85.1943 77.4412 85.2303C78.0825 85.2739 78.687 85.1335 79.2532 84.8069C79.4355 84.7011 79.596 84.5772 79.7467 84.4451C79.8315 84.7108 79.9627 84.9308 80.1427 85.1012C80.394 85.3384 80.7127 85.4728 81.099 85.5043C81.5122 85.5388 81.8902 85.3835 82.2337 85.0381C82.347 84.9248 82.4535 84.7934 82.557 84.6545C82.6732 84.8805 82.827 85.0787 83.0257 85.2446C83.3992 85.5554 83.8912 85.7393 84.5017 85.7971C85.1925 85.8624 85.7805 85.7423 86.265 85.4337C86.6827 85.168 87.0127 84.7859 87.2647 84.2995C87.306 84.2402 87.3472 84.1688 87.387 84.0728C87.6952 83.3641 87.9487 82.6742 88.1467 82.0031C88.2232 82.0527 88.2825 82.0925 88.3237 82.1232C88.3642 82.154 88.4122 82.193 88.4677 82.2396C88.5225 82.2869 88.5637 82.3342 88.5907 82.3822C88.6185 82.4295 88.6365 82.4821 88.6455 82.5391C88.6665 82.675 88.6485 82.8506 88.5915 83.0638C88.5337 83.277 88.4655 83.479 88.3867 83.6696C88.308 83.8603 88.2427 84.0803 88.191 84.3302C88.1392 84.5795 88.1295 84.8084 88.1617 85.0171C88.2195 85.3887 88.3635 85.689 88.5915 85.9194C88.8202 86.1499 89.1022 86.2835 89.4367 86.3218C89.9385 86.3789 90.3975 86.1304 90.8167 85.5891C90.909 85.8008 91.0297 85.9877 91.1842 86.1446C91.4692 86.4344 91.812 86.6041 92.214 86.6536C92.7322 86.7189 93.1942 86.4502 93.5985 85.8474C93.6885 86.1717 93.8497 86.4352 94.0822 86.6371C94.3155 86.839 94.5787 86.9599 94.8727 86.9997C95.2845 87.056 95.658 86.9208 95.9955 86.5958C96.0247 86.5673 96.0525 86.5327 96.081 86.5027C96.1695 86.6228 96.2715 86.7407 96.402 86.851C96.7402 87.1393 97.1767 87.3217 97.7115 87.3998C98.349 87.4936 98.949 87.399 99.5115 87.1168C100.074 86.8345 100.483 86.4089 100.741 85.8384C100.772 85.7693 100.782 85.6942 100.769 85.6139C100.753 85.5073 100.702 85.4112 100.615 85.3271Z" fill="#FFFFFE"/>
<path fill-rule="evenodd" clip-rule="evenodd" d="M72.3672 78.6917C72.2773 78.6655 72.1992 78.676 72.1321 78.7248C72.0652 78.7736 72.0293 78.8456 72.0245 78.941C72.0196 79.0363 72.0471 79.1271 72.1072 79.2135C72.1673 79.299 72.2422 79.3553 72.3319 79.3824C72.4219 79.4086 72.5002 79.3981 72.5671 79.3493C72.634 79.3005 72.6698 79.2292 72.6748 79.1331C72.6796 79.0386 72.6511 78.9477 72.5895 78.8629C72.5311 78.7758 72.4568 78.7188 72.3672 78.6917Z" fill="#FFFFFE"/>
<path fill-rule="evenodd" clip-rule="evenodd" d="M73.4843 78.749C73.3945 78.7219 73.3161 78.7325 73.2493 78.7805C73.1823 78.8293 73.1466 78.9006 73.1416 78.9959C73.1368 79.0913 73.1643 79.1829 73.2244 79.2684C73.2844 79.3548 73.3593 79.4118 73.4491 79.4388C73.5388 79.4659 73.6171 79.4554 73.6841 79.4066C73.7509 79.3585 73.7869 79.2872 73.7917 79.1919C73.7967 79.0965 73.7683 79.0057 73.7065 78.9209C73.6481 78.833 73.5741 78.7752 73.4843 78.749Z" fill="#FFFFFE"/>
<path fill-rule="evenodd" clip-rule="evenodd" d="M13.3916 73.5381L12.9528 73.6719L13.3156 74.8662L12.3409 75.1629L11.9777 73.9688L11.547 74.0998L11.91 75.2942L11.1535 75.5247L10.7905 74.3302L10.3742 74.457L10.8864 76.1425L13.9039 75.2237L13.3916 73.5381Z" fill="#FFFFFE"/>
<path fill-rule="evenodd" clip-rule="evenodd" d="M13.0396 72.1915L11.4727 72.5686L12.7481 70.9776L12.5933 70.334L11.2172 72.1045L9.56144 71.2166L9.70792 71.8266L11.2422 72.6242L9.97289 72.9295L10.0926 73.4285L13.1593 72.6906L13.0396 72.1915Z" fill="#FFFFFE"/>
<path fill-rule="evenodd" clip-rule="evenodd" d="M9.53189 68.8315C9.50647 68.6785 9.51157 68.5277 9.54727 68.3798C9.58327 68.2316 9.64687 68.0961 9.73837 67.973C9.83107 67.8467 9.94334 67.7432 10.0754 67.662C10.2077 67.581 10.3524 67.5274 10.5095 67.5012C10.6654 67.4752 10.8187 67.4791 10.9692 67.5131C11.1196 67.5469 11.2591 67.6087 11.3876 67.6981C11.5162 67.7888 11.621 67.8977 11.7019 68.0248C11.7828 68.1521 11.8359 68.2914 11.8611 68.4433C11.8867 68.5978 11.882 68.7489 11.8469 68.8959C11.8115 69.0432 11.7478 69.1798 11.6552 69.3059C11.5626 69.4322 11.4508 69.5354 11.32 69.6156C11.1892 69.6955 11.0452 69.7488 10.8879 69.7751C10.7294 69.8016 10.5743 69.7982 10.4232 69.765C10.2721 69.732 10.1331 69.6706 10.0062 69.5809C9.87749 69.4917 9.77287 69.3827 9.69194 69.254C9.61064 69.1254 9.55739 68.9848 9.53189 68.8315ZM10.3262 70.2839C10.5367 70.3333 10.7534 70.3396 10.9758 70.3025C11.1997 70.2652 11.4025 70.1891 11.5843 70.0742C11.766 69.9593 11.9211 69.8098 12.049 69.6251C12.1761 69.4435 12.2641 69.2442 12.3132 69.027C12.3622 68.8097 12.368 68.589 12.3307 68.3649C12.2938 68.1437 12.2176 67.9393 12.1019 67.7517C11.9863 67.5639 11.838 67.403 11.6567 67.2684C11.476 67.1353 11.28 67.0436 11.0695 66.9935C10.8586 66.9433 10.6428 66.9369 10.4218 66.9735C10.2022 67.0102 10.0006 67.0866 9.81659 67.2024C9.63284 67.3184 9.47557 67.4689 9.34477 67.6538C9.21674 67.8384 9.12899 68.0377 9.08159 68.2518C9.03419 68.466 9.02932 68.6851 9.06652 68.9092C9.10409 69.1345 9.17977 69.3414 9.29429 69.5291C9.40844 69.7169 9.55604 69.8775 9.73687 70.0105C9.91919 70.1436 10.1158 70.2348 10.3262 70.2839Z" fill="#FFFFFE"/>
<path fill-rule="evenodd" clip-rule="evenodd" d="M11.7278 64.1982L11.2711 64.2432L11.3837 65.3848L8.70149 65.6496L8.75182 66.1603L11.8906 65.8505L11.7278 64.1982Z" fill="#FFFFFE"/>
<path fill-rule="evenodd" clip-rule="evenodd" d="M8.94157 61.7602C8.99602 61.618 9.07664 61.4918 9.18344 61.3816C9.29167 61.2685 9.41647 61.1803 9.55799 61.117C9.69929 61.0538 9.84982 61.0191 10.0093 61.0136C10.1671 61.0079 10.3186 61.0318 10.4633 61.0849C10.6081 61.1379 10.7385 61.2172 10.8544 61.3224C10.9701 61.429 11.0599 61.5507 11.1236 61.6872C11.1875 61.8238 11.2222 61.969 11.2276 62.1226C11.2332 62.2792 11.2089 62.4284 11.155 62.5697C11.1012 62.7111 11.02 62.8383 10.9119 62.9515C10.8039 63.0647 10.6798 63.1526 10.5398 63.2149C10.3996 63.2776 10.2499 63.3116 10.0905 63.3173C9.92984 63.3231 9.77654 63.2997 9.63097 63.2473C9.48554 63.1948 9.35549 63.1161 9.24119 63.0107C9.12532 62.9055 9.03562 62.784 8.97172 62.6459C8.90797 62.508 8.87324 62.3613 8.86769 62.2061C8.86214 62.0509 8.88697 61.9025 8.94157 61.7602ZM9.46784 63.7494C9.67019 63.8256 9.88432 63.8597 10.1095 63.8517C10.3362 63.8437 10.5472 63.7944 10.7423 63.7042C10.9375 63.6139 11.1104 63.4854 11.2612 63.3191C11.4106 63.1553 11.5237 62.9692 11.6004 62.76C11.677 62.5507 11.7115 62.3328 11.7034 62.1058C11.6955 61.8815 11.6463 61.669 11.5558 61.468C11.4653 61.267 11.3391 61.088 11.1769 60.9312C11.0147 60.776 10.8324 60.6596 10.6298 60.5827C10.4273 60.5058 10.2142 60.4711 9.99014 60.4792C9.76777 60.4868 9.55777 60.5364 9.36059 60.6276C9.16349 60.7188 8.98769 60.8476 8.83432 61.0142C8.68349 61.1805 8.57069 61.367 8.49622 61.5732C8.42159 61.7793 8.38822 61.996 8.39617 62.2228C8.40434 62.4513 8.45287 62.6662 8.54197 62.8673C8.63107 63.0683 8.75662 63.2467 8.91884 63.4019C9.08219 63.5574 9.26534 63.6731 9.46784 63.7494Z" fill="#FFFFFE"/>
<path fill-rule="evenodd" clip-rule="evenodd" d="M8.83229 59.0888C8.97847 59.2551 9.14992 59.3837 9.34717 59.4742C9.54419 59.5647 9.76177 59.6154 10 59.6264C10.2339 59.6372 10.4551 59.6075 10.6642 59.5373C10.873 59.4672 11.0569 59.3609 11.2159 59.2185C11.3764 59.0736 11.4994 58.9014 11.5847 58.7023C11.6701 58.5035 11.7189 58.2749 11.7309 58.0161C11.7521 57.554 11.6459 57.1899 11.4124 56.9244C11.1789 56.6589 10.8406 56.516 10.397 56.4953C10.3613 56.4936 10.2924 56.4925 10.1902 56.4922C10.1514 56.4919 10.1212 56.4914 10.0997 56.4902L10.042 57.7396L10.4746 57.7596L10.5097 57.0013L10.5547 57.0035C10.79 57.0144 10.972 57.107 11.1006 57.2813C11.2289 57.4555 11.2864 57.6894 11.2729 57.9823C11.2571 58.3267 11.1332 58.6023 10.9016 58.808C10.67 59.0138 10.3762 59.1085 10.0203 59.092C9.67042 59.0758 9.39089 58.9545 9.18209 58.7282C8.97329 58.5021 8.87677 58.218 8.89259 57.8763C8.90032 57.7112 8.93729 57.563 9.00374 57.4324C9.07019 57.3016 9.16747 57.186 9.29579 57.0856L9.03112 56.6976C8.83754 56.8426 8.69099 57.011 8.59162 57.2027C8.49224 57.3947 8.43667 57.6148 8.42512 57.8634C8.41432 58.0987 8.44357 58.3216 8.51279 58.5322C8.58224 58.7427 8.68859 58.9282 8.83229 59.0888Z" fill="#FFFFFE"/>
<path fill-rule="evenodd" clip-rule="evenodd" d="M11.8657 55.2153L8.72812 54.8931L8.67599 55.4035L11.8134 55.7257L11.8657 55.2153Z" fill="#FFFFFE"/>
<path fill-rule="evenodd" clip-rule="evenodd" d="M9.63172 53.9325C9.82777 53.9615 10.0021 53.9289 10.1548 53.8345C10.3075 53.7401 10.493 53.5332 10.7116 53.2138C10.7248 53.1926 10.7452 53.1623 10.7728 53.1228C10.9615 52.8396 11.1474 52.7118 11.3305 52.739C11.4712 52.7597 11.5768 52.8208 11.6475 52.9222C11.7183 53.0235 11.7424 53.1494 11.7202 53.3002C11.6966 53.4594 11.6407 53.5848 11.5524 53.6763C11.4641 53.7679 11.3474 53.8226 11.2024 53.8403L11.3302 54.2735C11.5654 54.2545 11.7565 54.169 11.9037 54.0173C12.051 53.8654 12.1444 53.6566 12.1837 53.3907C12.2307 53.0734 12.1809 52.809 12.0344 52.5969C11.8879 52.3848 11.6669 52.2567 11.3713 52.213C11.1682 52.183 10.9901 52.2154 10.8375 52.3105C10.6848 52.4057 10.5145 52.5969 10.3268 52.8844C10.3173 52.8991 10.3044 52.919 10.2874 52.9441C10.0735 53.2728 9.87254 53.4233 9.68512 53.3953C9.56572 53.3776 9.47647 53.3234 9.41722 53.2325C9.35812 53.1417 9.33862 53.028 9.35894 52.8914C9.37304 52.7947 9.40844 52.7124 9.46507 52.6445C9.52139 52.5765 9.60344 52.5186 9.71069 52.4704L9.56482 52.0435C9.38969 52.0785 9.24629 52.1672 9.13454 52.3089C9.02279 52.4509 8.95004 52.6369 8.91599 52.8673C8.87444 53.1474 8.91974 53.3857 9.05204 53.5818C9.18412 53.7779 9.37739 53.8947 9.63172 53.9325Z" fill="#FFFFFE"/>
<path fill-rule="evenodd" clip-rule="evenodd" d="M12.508 51.0084L10.931 50.677L12.7644 49.7866L12.9004 49.1386L10.899 50.1478L9.78329 48.6353L9.65437 49.2494L10.699 50.6279L9.42142 50.3593L9.31582 50.8616L12.4027 51.5108L12.508 51.0084Z" fill="#FFFFFE"/>
<path fill-rule="evenodd" clip-rule="evenodd" d="M10.5271 47.5134L13.153 48.2186L13.2859 47.7229L10.6598 47.0177L10.8759 46.2115L10.4557 46.0986L9.88949 48.2107L10.3097 48.3236L10.5271 47.5134Z" fill="#FFFFFE"/>
<path fill-rule="evenodd" clip-rule="evenodd" d="M14.1537 47.0991L14.3392 46.8646L13.3966 45.9932L13.1263 46.3505L14.1537 47.0991Z" fill="#FFFFFE"/>
<path fill-rule="evenodd" clip-rule="evenodd" d="M14.7569 43.221L13.3362 42.6479L13.9161 41.2079L15.3367 41.7811L15.5285 41.3051L12.6031 40.125L12.4114 40.6009L13.4905 41.0362L12.9106 42.4763L11.8315 42.0409L11.6398 42.5168L14.5652 43.697L14.7569 43.221Z" fill="#FFFFFE"/>
<path fill-rule="evenodd" clip-rule="evenodd" d="M15.1222 39.2458L14.6164 38.6408C14.5799 38.601 14.5393 38.5593 14.494 38.5159C14.4488 38.4726 14.3989 38.4282 14.3445 38.3825C14.419 38.3968 14.4877 38.4082 14.5498 38.4165C14.6119 38.4249 14.6678 38.4307 14.7172 38.4342L15.5069 38.4568L15.1222 39.2458ZM16.8571 38.5146L17.0944 38.0283L13.6147 37.9668L13.5661 38.0663L15.7553 40.7742L15.9916 40.2898L15.4223 39.6037L15.9704 38.4798L16.8571 38.5146Z" fill="#FFFFFE"/>
<path fill-rule="evenodd" clip-rule="evenodd" d="M12.846 37.6506C12.8758 37.5893 12.9227 37.5481 12.9869 37.5265C13.051 37.5049 13.1134 37.509 13.174 37.5384C13.2346 37.5681 13.2756 37.615 13.2971 37.6793C13.3187 37.7434 13.3147 37.8054 13.2855 37.8654C13.2556 37.9265 13.2093 37.9682 13.1467 37.9906C13.0839 38.0128 13.0214 38.0088 12.9594 37.9784C12.8989 37.9487 12.8573 37.9022 12.8349 37.8382C12.8124 37.7743 12.8161 37.712 12.846 37.6506ZM12.8432 38.2169C12.9723 38.2797 13.1022 38.2889 13.2328 38.2438C13.3633 38.199 13.4601 38.1118 13.5231 37.9827C13.5862 37.8535 13.5951 37.7231 13.5499 37.5913C13.5046 37.4596 13.4179 37.3626 13.2902 37.3002C13.1638 37.2383 13.0337 37.2306 12.9003 37.2764C12.7667 37.3226 12.669 37.4087 12.6074 37.5355C12.5449 37.6631 12.5366 37.7931 12.5828 37.9251C12.6286 38.057 12.7155 38.1543 12.8432 38.2169Z" fill="#FFFFFE"/>
<path fill-rule="evenodd" clip-rule="evenodd" d="M17.2375 36.8515L14.8882 35.5298L14.6369 35.977L17.3863 37.524L18.1993 36.0766L17.7992 35.8515L17.2375 36.8515Z" fill="#FFFFFE"/>
<path fill-rule="evenodd" clip-rule="evenodd" d="M19.4523 34.064L19.0639 33.8195L18.4536 34.7906L16.172 33.3545L15.899 33.789L18.5693 35.4696L19.4523 34.064Z" fill="#FFFFFE"/>
<path fill-rule="evenodd" clip-rule="evenodd" d="M18.9645 32.2371L19.156 31.9659C19.2157 31.8813 19.2684 31.817 19.3138 31.7725C19.3594 31.7282 19.4062 31.693 19.4542 31.6671C19.5329 31.6279 19.6148 31.6129 19.6999 31.6218C19.7848 31.6309 19.8684 31.6647 19.9506 31.7225C20.0197 31.7715 20.0731 31.8304 20.1106 31.8992C20.1481 31.9682 20.1658 32.0404 20.1634 32.116C20.1628 32.1792 20.1426 32.2513 20.1029 32.3323C20.0634 32.4134 19.9918 32.5273 19.8881 32.6739L19.7862 32.8183L18.9645 32.2371ZM18.6478 32.013L17.9089 31.4903L18.022 31.3299C18.1723 31.1174 18.3025 30.9934 18.4134 30.9574C18.5242 30.9211 18.6499 30.953 18.7906 31.0525C18.9199 31.1439 18.9823 31.2501 18.9783 31.3714C18.9743 31.4927 18.902 31.6534 18.761 31.8528L18.6478 32.013ZM20.3079 32.823C20.482 32.5765 20.5912 32.3907 20.6357 32.2653C20.68 32.1404 20.6914 32.0172 20.6697 31.8962C20.6514 31.7826 20.608 31.6745 20.5399 31.5719C20.4716 31.4692 20.3854 31.3807 20.2811 31.3068C20.1086 31.1848 19.9354 31.1269 19.7613 31.1331C19.5871 31.1393 19.4353 31.2095 19.3058 31.343C19.3547 31.1965 19.3556 31.0587 19.3084 30.9302C19.2611 30.8017 19.1689 30.6889 19.0315 30.5917C18.9166 30.5103 18.7961 30.4583 18.67 30.435C18.544 30.4118 18.4234 30.4193 18.3083 30.4579C18.2188 30.4877 18.1326 30.5398 18.0501 30.6143C17.9676 30.6889 17.8608 30.8189 17.7297 31.0044L17.2708 31.6541L19.8466 33.4764L20.3079 32.823Z" fill="#FFFFFE"/>
<path fill-rule="evenodd" clip-rule="evenodd" d="M20.5929 29.1814C20.5664 29.1342 20.5361 29.0843 20.5018 29.0317C20.4676 28.9794 20.429 28.9246 20.386 28.868C20.4556 28.8982 20.52 28.9243 20.579 28.946C20.6381 28.9677 20.6914 28.9858 20.7389 28.9999L21.502 29.1996L20.9508 29.885L20.5929 29.1814ZM21.5671 31.0959L21.1642 30.3006L21.9478 29.3263L22.8047 29.5574L23.144 29.136L19.6333 28.2666L21.2293 31.5159L21.5671 31.0959Z" fill="#FFFFFE"/>
<path fill-rule="evenodd" clip-rule="evenodd" d="M22.5475 27.1059L21.8791 26.4954L21.9415 26.427C22.1157 26.2358 22.2613 26.1289 22.3783 26.1063C22.4953 26.0836 22.6177 26.1307 22.7461 26.2479C22.865 26.3566 22.9178 26.465 22.9044 26.5736C22.891 26.682 22.7929 26.8367 22.61 27.0372L22.5475 27.1059ZM23.8627 28.3504L22.8202 27.3985L22.8593 27.3557L24.609 27.5316L24.9996 27.1031L23.2078 26.9382C23.3473 26.7426 23.4053 26.5516 23.3819 26.3647C23.3587 26.1779 23.2537 25.9994 23.0671 25.8287C22.9609 25.732 22.8454 25.6624 22.7205 25.6204C22.5955 25.5782 22.4722 25.5677 22.35 25.5885C22.2481 25.6065 22.1481 25.649 22.0499 25.7161C21.952 25.783 21.8323 25.8941 21.691 26.0491L21.2087 26.5782L23.5389 28.706L23.8627 28.3504Z" fill="#FFFFFE"/>
<path fill-rule="evenodd" clip-rule="evenodd" d="M23.876 24.3907L25.7813 26.3324L26.1471 25.9727L24.2419 24.0314L24.8368 23.4464L24.5317 23.1357L22.9732 24.6678L23.2782 24.9787L23.876 24.3907Z" fill="#FFFFFE"/>
<path fill-rule="evenodd" clip-rule="evenodd" d="M27.4935 25.7644L27.1229 24.5347L26.7086 24.7054L27.2146 25.8721L27.4935 25.7644Z" fill="#FFFFFE"/>
<path fill-rule="evenodd" clip-rule="evenodd" d="M30.0561 20.8548L27.2928 20.5435L29.2881 23.1481L29.6625 22.8607L28.328 21.1188C28.4038 21.1422 28.4798 21.1617 28.5562 21.1773C28.6324 21.193 28.7083 21.2055 28.7839 21.2144L31.6006 21.5282L29.6069 18.9253L29.2308 19.2139L30.5613 20.9507C30.4651 20.9271 30.3759 20.9075 30.2938 20.8925C30.212 20.8776 30.1326 20.865 30.0561 20.8548Z" fill="#FFFFFE"/>
<path fill-rule="evenodd" clip-rule="evenodd" d="M30.7906 17.5386C30.8605 17.5531 30.9259 17.5403 30.987 17.5001C31.0495 17.4591 31.0872 17.4046 31.1002 17.3364C31.113 17.2684 31.0984 17.2025 31.0565 17.1384C31.0168 17.0781 30.9624 17.0411 30.8931 17.0271C30.8239 17.0131 30.7598 17.0254 30.7009 17.0639C30.6421 17.1025 30.6052 17.1577 30.5899 17.2289C30.5749 17.3001 30.5863 17.3647 30.6244 17.4226C30.6657 17.4853 30.721 17.524 30.7906 17.5386Z" fill="#FFFFFE"/>
<path fill-rule="evenodd" clip-rule="evenodd" d="M31.4461 17.108C31.5159 17.1225 31.5814 17.1095 31.6425 17.0695C31.705 17.0285 31.7425 16.974 31.7554 16.9058C31.7684 16.8379 31.7539 16.7718 31.7121 16.7078C31.6723 16.6475 31.6179 16.6103 31.5487 16.5964C31.4793 16.5825 31.4152 16.5946 31.3564 16.6333C31.2975 16.672 31.2606 16.7271 31.2455 16.7982C31.2304 16.8695 31.2418 16.9339 31.2798 16.9919C31.3209 17.0546 31.3763 17.0934 31.4461 17.108Z" fill="#FFFFFE"/>
<path fill-rule="evenodd" clip-rule="evenodd" d="M32.223 19.4584L32.098 18.6789C32.0872 18.626 32.0737 18.5689 32.0571 18.5084C32.0407 18.448 32.0208 18.3841 31.9974 18.3169C32.0543 18.3671 32.1076 18.4119 32.1571 18.4507C32.2066 18.4895 32.2519 18.5229 32.2927 18.5511L32.9578 18.9756L32.223 19.4584ZM34.0881 19.7159L34.54 19.4187L31.465 17.5137L31.9882 21.0964L32.4384 20.8005L32.2987 19.9196L33.3433 19.233L34.0881 19.7159Z" fill="#FFFFFE"/>
<path fill-rule="evenodd" clip-rule="evenodd" d="M34.5936 17.3049L34.145 16.5186L34.2253 16.4725C34.4499 16.3442 34.6211 16.2873 34.7393 16.3016C34.8577 16.3162 34.9598 16.3988 35.046 16.5497C35.1259 16.6897 35.1425 16.8089 35.0967 16.9083C35.0505 17.0075 34.9098 17.1242 34.6741 17.259L34.5936 17.3049ZM35.4629 18.894L34.7632 17.6675L34.8138 17.6385L36.4247 18.3443L36.9279 18.0567L35.2733 17.3485C35.4661 17.2051 35.5801 17.0412 35.6154 16.8563C35.6505 16.6717 35.6054 16.4693 35.4801 16.2495C35.4088 16.1247 35.3203 16.0229 35.2142 15.9445C35.1083 15.8661 34.9939 15.8181 34.8714 15.8004C34.769 15.7861 34.6609 15.7956 34.5468 15.8293C34.4329 15.8629 34.285 15.9319 34.1029 16.0359L33.4818 16.3909L35.0458 19.1324L35.4629 18.894Z" fill="#FFFFFE"/>
<path fill-rule="evenodd" clip-rule="evenodd" d="M37.0987 15.9155L36.7066 15.1281L36.8242 15.0692C37.067 14.9481 37.2493 14.896 37.3708 14.9122C37.492 14.9289 37.5902 15.0125 37.6651 15.163C37.7349 15.3031 37.7413 15.4223 37.684 15.5199C37.6268 15.6175 37.4708 15.7297 37.2163 15.8568L37.0987 15.9155ZM37.8884 17.5741L37.2571 16.306L37.4305 16.2196L37.5213 16.1745C37.7269 16.0717 37.8727 15.9853 37.9589 15.9151C38.0451 15.845 38.1114 15.7661 38.1577 15.6785C38.2144 15.5701 38.2396 15.4467 38.2335 15.3086C38.2271 15.1701 38.1907 15.0341 38.1242 14.9004C38.0574 14.7664 37.9716 14.6566 37.866 14.5703C37.7604 14.4839 37.6468 14.43 37.5256 14.4086C37.4278 14.3931 37.3249 14.3983 37.2167 14.4241C37.1086 14.4502 36.9514 14.5144 36.7457 14.6168L36.0517 14.9632L37.4585 17.7886L37.8884 17.5741Z" fill="#FFFFFE"/>
<path fill-rule="evenodd" clip-rule="evenodd" d="M39.5877 14.7688L39.2306 13.9366L39.3157 13.9001C39.5532 13.7978 39.7299 13.7607 39.8458 13.7883C39.9614 13.816 40.0537 13.9098 40.1222 14.0696C40.1858 14.2176 40.189 14.3383 40.1323 14.4315C40.0753 14.5249 39.9222 14.6249 39.6727 14.7323L39.5877 14.7688ZM40.2721 16.4458L39.7153 15.1482L39.7687 15.1252L41.2897 16.0084L41.8221 15.7795L40.2583 14.8889C40.4659 14.7684 40.5978 14.6182 40.6534 14.4384C40.7092 14.259 40.6873 14.0527 40.5877 13.8205C40.5308 13.6883 40.4542 13.5771 40.3577 13.4872C40.2613 13.3972 40.1532 13.3365 40.0333 13.3051C39.9333 13.2794 39.8246 13.2769 39.7077 13.2973C39.5908 13.3179 39.436 13.3696 39.2433 13.4524L38.5858 13.735L39.8308 16.6358L40.2721 16.4458Z" fill="#FFFFFE"/>
<path fill-rule="evenodd" clip-rule="evenodd" d="M42.2613 13.0438C42.3276 12.9021 42.4174 12.7802 42.5302 12.6787C42.6432 12.5771 42.7731 12.501 42.9196 12.4499C43.0663 12.3992 43.2154 12.379 43.3672 12.3893C43.5191 12.3996 43.6632 12.4398 43.7998 12.5096C43.9399 12.5797 44.0607 12.6732 44.1627 12.7899C44.2648 12.9066 44.3418 13.0402 44.3941 13.1911C44.4458 13.3405 44.4677 13.4924 44.4597 13.6467C44.4514 13.8008 44.4142 13.9487 44.3478 14.0905C44.2799 14.2327 44.1902 14.3543 44.0787 14.4554C43.9669 14.5568 43.8386 14.6325 43.6933 14.6828C43.5453 14.7342 43.396 14.755 43.2452 14.745C43.0941 14.7349 42.9488 14.6948 42.8089 14.6247C42.6691 14.5546 42.5487 14.4616 42.448 14.3461C42.3471 14.2304 42.2705 14.0973 42.2182 13.9463C42.1656 13.7943 42.1428 13.641 42.1498 13.4862C42.1573 13.3316 42.1942 13.1841 42.2613 13.0438ZM42.0403 14.6837C42.184 14.8437 42.3576 14.9715 42.5608 15.0667C42.7609 15.1618 42.9721 15.2151 43.1944 15.2269C43.4167 15.2389 43.6348 15.2076 43.8494 15.1331C44.061 15.0597 44.2495 14.95 44.4149 14.8044C44.5804 14.6589 44.7141 14.4854 44.8161 14.2841C44.9167 14.0833 44.9741 13.8746 44.9881 13.6583C45.0019 13.442 44.9725 13.2279 44.8989 13.0159C44.8259 12.8054 44.717 12.6191 44.572 12.4572C44.4269 12.2954 44.2522 12.1653 44.048 12.0674C43.8448 11.972 43.6336 11.919 43.4148 11.9083C43.1959 11.8975 42.9793 11.9293 42.7651 12.0038C42.5494 12.0786 42.3583 12.1882 42.1927 12.3326C42.0268 12.4768 41.8935 12.6495 41.7928 12.8503C41.6925 13.0524 41.6359 13.2617 41.6227 13.4777C41.6092 13.6938 41.6395 13.9084 41.7134 14.1216C41.7877 14.3364 41.8969 14.5237 42.0403 14.6837Z" fill="#FFFFFE"/>
<path fill-rule="evenodd" clip-rule="evenodd" d="M46.2409 11.481L46.4202 11.4343C46.6761 11.3679 46.868 11.3345 46.9963 11.3337C47.1244 11.3332 47.241 11.3579 47.346 11.4078C47.4869 11.4769 47.6054 11.5771 47.7011 11.709C47.7969 11.8409 47.8698 12.0041 47.9206 12.1989C47.9707 12.3937 47.9863 12.572 47.9668 12.7336C47.947 12.8957 47.8923 13.0407 47.8024 13.1696C47.7365 13.2639 47.65 13.3413 47.5432 13.4017C47.4364 13.4621 47.2684 13.5222 47.0392 13.5816L46.6219 13.69L46.0615 11.5275L46.2409 11.481ZM46.9114 14.0937L47.0446 14.0592C47.4048 13.9656 47.6644 13.8748 47.8234 13.7868C47.9821 13.6988 48.1151 13.586 48.2219 13.4482C48.3631 13.2662 48.4521 13.0585 48.4891 12.8253C48.5257 12.5924 48.5091 12.3401 48.4386 12.0688C48.3684 11.7975 48.2604 11.5678 48.1144 11.3799C47.9686 11.192 47.7898 11.0535 47.5783 10.9646C47.418 10.8961 47.2438 10.863 47.0551 10.8653C46.8664 10.8674 46.5547 10.9251 46.1195 11.038L45.4501 11.2117L46.242 14.2677L46.9114 14.0937Z" fill="#FFFFFE"/>
<path fill-rule="evenodd" clip-rule="evenodd" d="M49.9399 13.1293C50.188 13.2988 50.5255 13.3451 50.9524 13.2675C51.3792 13.19 51.6796 13.0273 51.8536 12.7803C52.0278 12.5331 52.0768 12.1996 52.0006 11.7796L51.6499 9.84668L51.1454 9.93819L51.4877 11.8246C51.5384 12.1046 51.512 12.3269 51.4081 12.491C51.3044 12.6552 51.1245 12.7604 50.8687 12.8071C50.6116 12.8539 50.4055 12.8186 50.2507 12.7011C50.0959 12.584 49.9931 12.3853 49.9423 12.1053L49.6001 10.2192L49.102 10.3097L49.4527 12.2426C49.529 12.664 49.6915 12.9595 49.9399 13.1293Z" fill="#FFFFFE"/>
<path fill-rule="evenodd" clip-rule="evenodd" d="M53.0798 11.9037C53.1838 12.0986 53.3201 12.2628 53.4891 12.3965C53.6596 12.5328 53.851 12.6293 54.0629 12.686C54.2749 12.7429 54.5008 12.7583 54.7407 12.7327C54.9292 12.7124 55.1015 12.6691 55.2577 12.6034C55.4139 12.5372 55.5552 12.4476 55.6816 12.3342L55.6198 11.7576C55.4798 11.907 55.3296 12.0235 55.1688 12.1075C55.008 12.1913 54.8347 12.243 54.6491 12.2629C54.3306 12.2972 54.0551 12.2156 53.8221 12.0179C53.5894 11.8202 53.455 11.5523 53.4185 11.2134C53.3809 10.8631 53.4577 10.5665 53.6491 10.3233C53.8403 10.0801 54.1074 9.94009 54.45 9.90308C54.6272 9.88401 54.7993 9.89663 54.9667 9.94084C55.1338 9.98521 55.2962 10.0609 55.4536 10.1684L55.4263 9.65063C55.2576 9.55882 55.0867 9.49539 54.9138 9.4598C54.7411 9.42407 54.5626 9.41604 54.3783 9.43593C54.1441 9.46123 53.9305 9.52406 53.7378 9.62525C53.5448 9.72615 53.3789 9.86217 53.2398 10.0334C53.1007 10.203 53.0007 10.3934 52.9404 10.6044C52.88 10.8155 52.862 11.0361 52.8868 11.2662C52.9114 11.4963 52.9757 11.7088 53.0798 11.9037Z" fill="#FFFFFE"/>
<path fill-rule="evenodd" clip-rule="evenodd" d="M58.3808 12.4162L58.3627 11.9571L57.1162 12.0067L57.0759 10.9875L58.3223 10.9381L58.3045 10.4877L57.058 10.5371L57.0267 9.74628L58.2731 9.69696L58.2557 9.26172L56.497 9.33161L56.6219 12.4859L58.3808 12.4162Z" fill="#FFFFFE"/>
<path fill-rule="evenodd" clip-rule="evenodd" d="M59.8046 9.68682L59.8972 9.68772C60.1558 9.69049 60.3324 9.72803 60.4272 9.80017C60.5219 9.87223 60.5682 9.99542 60.5663 10.1694C60.5648 10.3305 60.5189 10.442 60.4294 10.5042C60.3395 10.5665 60.1588 10.5961 59.8876 10.5932L59.7949 10.5923L59.8046 9.68682ZM59.7583 10.9908L59.8163 10.9914L60.8503 12.4152L61.4299 12.4215L60.3595 10.9735C60.5983 10.9474 60.7795 10.8635 60.9031 10.7217C61.0267 10.5801 61.0899 10.3828 61.0926 10.1297C61.0941 9.98604 61.069 9.85324 61.0172 9.73208C60.9654 9.61085 60.891 9.51168 60.794 9.43451C60.7129 9.3701 60.6147 9.32371 60.4996 9.29511C60.3841 9.26658 60.2215 9.2512 60.0118 9.24902L59.2968 9.24121L59.2626 12.3979L59.743 12.4032L59.7583 10.9908Z" fill="#FFFFFE"/>
<path fill-rule="evenodd" clip-rule="evenodd" d="M63.1461 10.5693C63.1697 10.5205 63.1935 10.467 63.2172 10.4089C63.2408 10.3509 63.2636 10.2878 63.2858 10.2204C63.3005 10.295 63.316 10.3629 63.3316 10.4238C63.3473 10.4847 63.3627 10.5389 63.3781 10.5861L63.6482 11.3278L62.7715 11.2639L63.1461 10.5693ZM62.5514 11.676L63.7978 11.7668L64.0955 12.6037L64.6348 12.6428L63.3514 9.25879L61.59 12.4211L62.1272 12.4602L62.5514 11.676Z" fill="#FFFFFE"/>
<path fill-rule="evenodd" clip-rule="evenodd" d="M65.4775 12.7623L65.986 12.8276L66.3319 10.1283L67.1588 10.2346L67.2144 9.80262L65.0475 9.52441L64.9921 9.95643L65.8234 10.063L65.4775 12.7623Z" fill="#FFFFFE"/>
<path fill-rule="evenodd" clip-rule="evenodd" d="M69.9136 12.0041L71.1321 12.2717L71.2286 11.8313L70.0099 11.5641L70.1786 10.795L71.397 11.0624L71.4901 10.637L69.7708 10.2598L69.0953 13.3434L69.5964 13.4533L69.9136 12.0041Z" fill="#FFFFFE"/>
<path fill-rule="evenodd" clip-rule="evenodd" d="M74.4911 11.0441C74.5626 11.0652 74.6286 11.0588 74.6887 11.0246C74.749 10.9904 74.7901 10.9365 74.8116 10.8632C74.8318 10.794 74.8249 10.7284 74.7907 10.6663C74.7565 10.6044 74.7057 10.5634 74.6383 10.5436C74.5705 10.5237 74.5048 10.5311 74.4407 10.5656C74.3768 10.6003 74.335 10.6508 74.3155 10.7171C74.2942 10.7891 74.3006 10.8566 74.3347 10.9191C74.3687 10.9818 74.4207 11.0235 74.4911 11.0441Z" fill="#FFFFFE"/>
<path fill-rule="evenodd" clip-rule="evenodd" d="M72.4499 12.5114C72.4953 12.3569 72.5658 12.2189 72.6615 12.0972C72.7568 11.9755 72.8727 11.877 73.0088 11.8017C73.1449 11.725 73.2887 11.6781 73.4398 11.6611C73.5907 11.6441 73.7405 11.6577 73.8895 11.7014C74.0381 11.7453 74.1714 11.8156 74.2889 11.9123C74.4065 12.009 74.5005 12.1256 74.5712 12.2617C74.6444 12.4 74.6884 12.5464 74.7038 12.7009C74.7192 12.855 74.7043 13.0089 74.6593 13.1618C74.6146 13.3136 74.5444 13.4499 74.4481 13.5707C74.3521 13.6916 74.2359 13.7903 74.0995 13.867C73.9618 13.9432 73.8181 13.9902 73.6685 14.0076C73.519 14.025 73.3705 14.0119 73.2232 13.9687C73.0729 13.9243 72.9392 13.8543 72.8221 13.7584C72.7051 13.6625 72.61 13.5453 72.5368 13.4071C72.4639 13.2686 72.4198 13.1231 72.4048 12.9703C72.3897 12.8175 72.4048 12.6645 72.4499 12.5114ZM72.0783 13.6225C72.1859 13.8161 72.3269 13.9825 72.5011 14.1213C72.6751 14.2602 72.8709 14.3617 73.0886 14.4258C73.3038 14.489 73.5206 14.5095 73.7399 14.4871C73.9591 14.4648 74.1685 14.4013 74.3684 14.2969C74.5669 14.1921 74.7346 14.0555 74.8716 13.8877C75.0082 13.7196 75.1087 13.528 75.1717 13.3128C75.2347 13.0992 75.2542 12.884 75.2302 12.6682C75.2055 12.452 75.1395 12.2447 75.03 12.0459C74.9196 11.8502 74.7787 11.6844 74.6068 11.5484C74.4348 11.4124 74.24 11.3123 74.0224 11.2482C73.8034 11.1836 73.5845 11.162 73.3657 11.1831C73.1468 11.2041 72.9381 11.2669 72.7399 11.3718C72.5408 11.4781 72.3732 11.6154 72.2371 11.7835C72.1006 11.9517 72.0008 12.1441 71.9373 12.3606C71.8732 12.5783 71.8531 12.7942 71.8773 13.0082C71.9012 13.2219 71.968 13.4268 72.0783 13.6225Z" fill="#FFFFFE"/>
<path fill-rule="evenodd" clip-rule="evenodd" d="M73.7386 10.8225C73.8103 10.8438 73.8762 10.8372 73.9366 10.8028C73.9966 10.769 74.0375 10.715 74.0591 10.6417C74.0794 10.5722 74.0725 10.5066 74.0384 10.4448C74.0043 10.3827 73.9533 10.3418 73.8858 10.3219C73.8184 10.3021 73.7525 10.3093 73.6885 10.3439C73.6245 10.3786 73.5826 10.429 73.5631 10.4955C73.542 10.5675 73.5483 10.6349 73.5823 10.6976C73.6162 10.7602 73.6685 10.8018 73.7386 10.8225Z" fill="#FFFFFE"/>
<path fill-rule="evenodd" clip-rule="evenodd" d="M76.9747 12.7588L77.061 12.7913C77.3032 12.8818 77.457 12.9771 77.5215 13.0774C77.586 13.1776 77.5882 13.3092 77.5267 13.4721C77.4705 13.6228 77.3895 13.7122 77.2845 13.7402C77.1787 13.7682 76.9987 13.7346 76.7445 13.6395L76.6575 13.6068L76.9747 12.7588ZM76.488 13.9692L76.542 13.9897L77.0302 15.6804L77.5732 15.8838L77.0587 14.158C77.2927 14.2146 77.4915 14.1972 77.6557 14.1062C77.82 14.0151 77.9467 13.8509 78.0352 13.6141C78.0855 13.4794 78.1072 13.346 78.099 13.2143C78.0915 13.0827 78.0555 12.9639 77.991 12.8582C77.9362 12.7703 77.8597 12.6934 77.7607 12.6274C77.6625 12.561 77.5147 12.4912 77.3182 12.4177L76.6485 12.167L75.5437 15.1238L75.9937 15.2922L76.488 13.9692Z" fill="#FFFFFE"/>
<path fill-rule="evenodd" clip-rule="evenodd" d="M81.3967 17.1281L80.2732 16.5867L80.715 15.6676L81.8392 16.2092L82.0342 15.8032L80.91 15.2616L81.2535 14.5485L82.377 15.09L82.566 14.6976L80.9797 13.9336L79.6117 16.7782L81.198 17.5421L81.3967 17.1281Z" fill="#FFFFFE"/>
<path fill-rule="evenodd" clip-rule="evenodd" d="M82.3882 18.1664L83.4705 16.2571C83.4787 16.3359 83.49 16.4137 83.5057 16.4901C83.5207 16.5667 83.5387 16.6414 83.5605 16.7146L84.3705 19.4329L85.9867 16.5801L85.575 16.346L84.4957 18.2497C84.4807 18.1518 84.4635 18.062 84.4455 17.9806C84.4275 17.8992 84.408 17.8212 84.387 17.7468L83.5957 15.0786L81.978 17.9335L82.3882 18.1664Z" fill="#FFFFFE"/>
<path fill-rule="evenodd" clip-rule="evenodd" d="M87.8857 19.8908L88.0297 19.9932L88.1557 20.0833C88.2397 20.1435 88.3042 20.1964 88.3485 20.2419C88.3927 20.2875 88.4272 20.3346 88.4535 20.3827C88.4917 20.4617 88.5067 20.5438 88.4977 20.6288C88.488 20.714 88.4542 20.7975 88.3957 20.8795C88.347 20.9486 88.2877 21.0018 88.2187 21.0392C88.1497 21.0765 88.0777 21.0939 88.002 21.091C87.939 21.0904 87.867 21.07 87.786 21.0299C87.705 20.9898 87.5917 20.9176 87.4455 20.8134L87.3015 20.711L87.8857 19.8908ZM88.6357 18.837L88.7955 18.9508C89.007 19.1019 89.1307 19.2328 89.166 19.3437C89.202 19.4547 89.1697 19.5805 89.07 19.7212C88.9777 19.8498 88.8712 19.912 88.7505 19.9077C88.629 19.9034 88.4692 19.8303 88.2705 19.6884L88.1107 19.5747L88.6357 18.837ZM87.8512 21.5634C87.9757 21.6082 88.0987 21.62 88.2202 21.5986C88.3335 21.5806 88.4415 21.5378 88.5442 21.4698C88.647 21.4021 88.7355 21.3162 88.8097 21.2118C88.9327 21.0396 88.9912 20.8665 88.9852 20.6923C88.98 20.518 88.911 20.3656 88.7775 20.2356C88.9237 20.2853 89.061 20.2865 89.19 20.2396C89.3182 20.1928 89.4315 20.1009 89.529 19.9637C89.6107 19.849 89.6632 19.7288 89.6872 19.6026C89.7105 19.4766 89.7037 19.3558 89.6655 19.2405C89.6362 19.1505 89.5845 19.0643 89.5102 18.9814C89.436 18.8985 89.3062 18.7912 89.1217 18.6593L88.4745 18.1978L86.6445 20.7688L87.2955 21.2331C87.5407 21.4083 87.726 21.5183 87.8512 21.5634Z" fill="#FFFFFE"/>
<path fill-rule="evenodd" clip-rule="evenodd" d="M90.228 21.8873L90.9322 21.5316C90.9795 21.5051 91.029 21.475 91.0822 21.4409C91.1347 21.4067 91.1895 21.3684 91.2457 21.3256C91.2157 21.3952 91.1895 21.4596 91.167 21.5185C91.1452 21.5776 91.1272 21.6309 91.113 21.6782L90.9105 22.4415L90.228 21.8873ZM90.9682 24.0849L91.8495 20.5742L88.5975 22.16L89.016 22.4995L89.8117 22.0992L90.7822 22.8871L90.5482 23.7439L90.9682 24.0849Z" fill="#FFFFFE"/>
<path fill-rule="evenodd" clip-rule="evenodd" d="M92.3265 20.6087C92.3842 20.6556 92.4472 20.6752 92.5162 20.6669C92.5852 20.6582 92.643 20.6245 92.6917 20.5651C92.7367 20.5091 92.7562 20.4457 92.748 20.3756C92.7405 20.305 92.709 20.2476 92.655 20.2034C92.6002 20.1589 92.5365 20.1404 92.4637 20.1475C92.3917 20.1547 92.3332 20.1854 92.2897 20.239C92.2425 20.2974 92.223 20.3621 92.2297 20.4329C92.2372 20.5039 92.2695 20.5624 92.3265 20.6087Z" fill="#FFFFFE"/>
<path fill-rule="evenodd" clip-rule="evenodd" d="M91.7175 20.1144C91.7752 20.1615 91.8382 20.1808 91.9072 20.1725C91.9762 20.164 92.0347 20.1303 92.0827 20.0708C92.1277 20.0148 92.1465 19.9514 92.139 19.8811C92.1315 19.8108 92.1 19.7535 92.0452 19.7091C91.9905 19.6646 91.9275 19.6462 91.8547 19.6534C91.7827 19.6606 91.7242 19.6908 91.6807 19.7447C91.6335 19.8031 91.614 19.8678 91.6207 19.9386C91.6282 20.0096 91.6605 20.0682 91.7175 20.1144Z" fill="#FFFFFE"/>
<path fill-rule="evenodd" clip-rule="evenodd" d="M91.7692 24.8256L92.1472 25.172L93.9825 23.1641L94.5982 23.7274L94.8915 23.4059L93.2797 21.9302L92.9857 22.2515L93.6045 22.8177L91.7692 24.8256Z" fill="#FFFFFE"/>
<path fill-rule="evenodd" clip-rule="evenodd" d="M93.6045 26.5778L93.9637 26.9436L95.9017 25.035L96.4867 25.6298L96.7972 25.3243L95.265 23.7656L94.9545 24.0711L95.5425 24.6691L93.6045 26.5778Z" fill="#FFFFFE"/>
<path fill-rule="evenodd" clip-rule="evenodd" d="M97.3837 26.6299L97.4452 26.6995C97.6162 26.8934 97.7062 27.0501 97.716 27.1689C97.7265 27.2876 97.6657 27.4046 97.5352 27.5194C97.4145 27.626 97.3012 27.6667 97.1947 27.6416C97.089 27.6166 96.9457 27.502 96.7665 27.2984L96.705 27.2288L97.3837 26.6299ZM95.3265 28.4022L96.3847 27.4683L96.423 27.5121L96.0585 29.2338L96.4417 29.6689L96.8002 27.9038C96.9795 28.064 97.1625 28.1426 97.3507 28.1397C97.539 28.1368 97.7272 28.0516 97.917 27.8842C98.025 27.7893 98.106 27.6818 98.1615 27.562C98.217 27.4423 98.241 27.3207 98.2335 27.1969C98.2267 27.0936 98.1952 26.9896 98.1397 26.8847C98.0835 26.7798 97.986 26.6484 97.8472 26.491L97.3747 25.9541L95.0085 28.0414L95.3265 28.4022Z" fill="#FFFFFE"/>
<path fill-rule="evenodd" clip-rule="evenodd" d="M97.899 31.5183L98.2597 31.2346L97.4887 30.253L98.2897 29.6228L99.0607 30.6041L99.4147 30.3256L98.6437 29.3441L99.2655 28.8547L100.036 29.8363L100.378 29.5671L99.2902 28.1821L96.8107 30.1338L97.899 31.5183Z" fill="#FFFFFE"/>
<path fill-rule="evenodd" clip-rule="evenodd" d="M99.6382 33.9959L100.879 33.1857L101.56 34.2315L101.938 33.9854L101.257 32.9394L101.915 32.5097L102.596 33.5554L102.961 33.3174L102 31.8418L99.3577 33.5661L99.6382 33.9959Z" fill="#FFFFFE"/>
<path fill-rule="evenodd" clip-rule="evenodd" d="M103.369 34.8566L103.414 34.9369C103.543 35.1612 103.601 35.3328 103.587 35.451C103.573 35.5692 103.49 35.6718 103.339 35.7585C103.201 35.8389 103.081 35.856 102.982 35.8103C102.883 35.7645 102.766 35.6239 102.63 35.3884L102.584 35.3078L103.369 34.8566ZM103.035 36.3294C103.219 36.3639 103.422 36.3182 103.641 36.1921C103.765 36.1204 103.867 36.0314 103.945 35.9252C104.023 35.8187 104.071 35.7044 104.088 35.5817C104.102 35.4791 104.092 35.3709 104.058 35.2569C104.024 35.1429 103.955 34.995 103.85 34.8133L103.494 34.1924L100.759 35.7656L100.999 36.1826L102.222 35.4788L102.251 35.529L101.551 37.1435L101.839 37.6464L102.542 35.9885C102.686 36.181 102.85 36.2947 103.035 36.3294Z" fill="#FFFFFE"/>
<path fill-rule="evenodd" clip-rule="evenodd" d="M104.304 38.1848C104.358 38.1804 104.416 38.1738 104.478 38.1647C104.539 38.1558 104.605 38.1436 104.675 38.1285C104.618 38.1791 104.568 38.2266 104.523 38.271C104.479 38.3157 104.44 38.3565 104.407 38.3934L103.906 39.0026L103.516 38.2142L104.304 38.1848ZM103.049 38.2335L103.603 39.3545L103.033 40.0357L103.273 40.5209L105.536 37.6973L101.92 37.7821L102.159 38.2653L103.049 38.2335Z" fill="#FFFFFE"/>
<path fill-rule="evenodd" clip-rule="evenodd" d="M105.225 41.8349L106.723 40.2261L103.396 40.7637L103.572 41.2017L105.139 40.9349C105.22 40.9226 105.295 40.9073 105.366 40.8888C105.436 40.8705 105.503 40.8494 105.565 40.826C105.511 40.8675 105.459 40.9122 105.407 40.9605C105.355 41.0084 105.304 41.0617 105.251 41.1198L103.969 42.5275L105.835 42.6649C105.919 42.6704 105.997 42.6706 106.073 42.6658C106.148 42.6609 106.222 42.6511 106.293 42.6362C106.24 42.6669 106.174 42.7046 106.093 42.7496C105.995 42.803 105.936 42.8369 105.915 42.8513L104.601 43.758L104.779 44.1999L107.543 42.2625L105.359 42.1622C105.337 42.1617 105.306 42.1603 105.265 42.1583C105.112 42.1503 104.987 42.1492 104.892 42.1551C104.976 42.0762 105.046 42.0092 105.103 41.9545C105.16 41.8997 105.201 41.8599 105.225 41.8349Z" fill="#FFFFFE"/>
<path fill-rule="evenodd" clip-rule="evenodd" d="M107.72 44.5035L105.134 45.3427L105.292 45.8308L107.878 44.9916L108.136 45.7856L108.55 45.6511L107.876 43.5713L107.462 43.7056L107.72 44.5035Z" fill="#FFFFFE"/>
<path fill-rule="evenodd" clip-rule="evenodd" d="M105.87 47.7941L108.91 46.9506L108.772 46.4561L105.733 47.2996L105.87 47.7941Z" fill="#FFFFFE"/>
<path fill-rule="evenodd" clip-rule="evenodd" d="M108.886 48.7041L108.926 48.8854L108.967 49.0665C109.023 49.3247 109.05 49.5178 109.045 49.6461C109.042 49.7743 109.012 49.89 108.958 49.9933C108.885 50.1318 108.78 50.2464 108.645 50.3374C108.51 50.4283 108.344 50.4955 108.148 50.5388C107.952 50.5822 107.773 50.5911 107.612 50.5653C107.452 50.54 107.308 50.4798 107.183 50.3853C107.091 50.3157 107.017 50.2264 106.961 50.1176C106.904 50.0084 106.851 49.8382 106.8 49.6066L106.707 49.1855L108.886 48.7041ZM106.293 49.46L106.323 49.5949C106.403 49.9583 106.484 50.2212 106.566 50.3835C106.648 50.5459 106.756 50.6827 106.89 50.7946C107.066 50.9426 107.27 51.0392 107.502 51.0844C107.733 51.1301 107.986 51.1223 108.259 51.0621C108.532 51.0014 108.766 50.9019 108.958 50.7628C109.151 50.624 109.297 50.4503 109.393 50.2419C109.467 50.0841 109.507 49.9111 109.511 49.7222C109.516 49.5334 109.47 49.2195 109.373 48.7799L109.224 48.104L106.144 48.784L106.293 49.46Z" fill="#FFFFFE"/>
<path fill-rule="evenodd" clip-rule="evenodd" d="M107.172 54.3932L108.644 54.2167L108.792 55.4564L109.239 55.4027L109.091 54.1631L109.872 54.0697L110.02 55.3094L110.452 55.2575L110.243 53.5083L107.111 53.8834L107.172 54.3932Z" fill="#FFFFFE"/>
<path fill-rule="evenodd" clip-rule="evenodd" d="M111.297 57.7181C111.369 57.7152 111.429 57.6876 111.476 57.6354C111.524 57.5831 111.547 57.5219 111.544 57.4514C111.541 57.3811 111.513 57.321 111.46 57.2712C111.406 57.2217 111.346 57.1981 111.277 57.2009C111.202 57.2038 111.139 57.2315 111.091 57.2838C111.043 57.336 111.02 57.3989 111.023 57.4721C111.026 57.5468 111.053 57.6072 111.105 57.6534C111.157 57.6994 111.22 57.7211 111.297 57.7181Z" fill="#FFFFFE"/>
<path fill-rule="evenodd" clip-rule="evenodd" d="M111.491 58.056C111.438 58.0063 111.376 57.9829 111.307 57.9856C111.232 57.9885 111.171 58.0162 111.122 58.0683C111.073 58.1208 111.051 58.1834 111.054 58.2568C111.057 58.3313 111.084 58.3918 111.136 58.4381C111.187 58.4842 111.251 58.5057 111.328 58.5028C111.4 58.4998 111.46 58.4721 111.508 58.42C111.555 58.3679 111.577 58.3063 111.575 58.2361C111.572 58.1656 111.544 58.1057 111.491 58.056Z" fill="#FFFFFE"/>
<path fill-rule="evenodd" clip-rule="evenodd" d="M110.168 58.3424C110.114 58.4847 110.034 58.6114 109.927 58.722C109.82 58.8356 109.696 58.9243 109.555 58.9882C109.413 59.0522 109.263 59.0872 109.104 59.0935C108.946 59.0998 108.794 59.0767 108.649 59.024C108.504 58.9716 108.373 58.893 108.257 58.7883C108.141 58.6822 108.05 58.5608 107.986 58.4247C107.922 58.2884 107.887 58.1434 107.881 57.9897C107.874 57.8331 107.898 57.6838 107.951 57.5423C108.004 57.4005 108.085 57.2728 108.193 57.1593C108.3 57.0456 108.424 56.9573 108.564 56.8943C108.703 56.8311 108.853 56.7966 109.012 56.7903C109.173 56.7838 109.327 56.8063 109.472 56.8583C109.618 56.91 109.748 56.9883 109.863 57.093C109.979 57.1978 110.07 57.3189 110.134 57.4566C110.198 57.5944 110.233 57.741 110.239 57.8959C110.246 58.051 110.222 58.1999 110.168 58.3424ZM109.633 56.3555C109.431 56.2801 109.216 56.2469 108.991 56.2558C108.764 56.2647 108.553 56.315 108.359 56.4062C108.164 56.4972 107.992 56.6264 107.842 56.7935C107.693 56.9578 107.581 57.1444 107.505 57.3539C107.429 57.5635 107.395 57.7814 107.405 58.0087C107.413 58.2326 107.464 58.445 107.555 58.6457C107.646 58.8464 107.773 59.0248 107.936 59.1809C108.099 59.3354 108.282 59.4509 108.484 59.527C108.688 59.603 108.901 59.6368 109.125 59.6277C109.347 59.6192 109.557 59.5687 109.753 59.4766C109.951 59.3846 110.125 59.255 110.278 59.0879C110.428 58.9208 110.54 58.734 110.614 58.5276C110.688 58.321 110.72 58.1043 110.711 57.8773C110.702 57.6489 110.653 57.4342 110.563 57.2336C110.473 57.0329 110.347 56.8551 110.184 56.7007C110.02 56.5458 109.836 56.4308 109.633 56.3555Z" fill="#FFFFFE"/>
<path fill-rule="evenodd" clip-rule="evenodd" d="M109.358 61.111L110.263 61.129L110.261 61.2215C110.256 61.4802 110.217 61.6567 110.143 61.7509C110.071 61.845 109.948 61.8905 109.774 61.887C109.613 61.8838 109.501 61.8369 109.44 61.7466C109.379 61.656 109.351 61.4753 109.356 61.2035L109.358 61.111ZM107.549 61.0425L108.961 61.0705L108.959 61.1288L107.527 62.1506L107.516 62.7305L108.972 61.6725C108.996 61.9118 109.078 62.0938 109.219 62.2189C109.359 62.3436 109.555 62.4088 109.808 62.4138C109.952 62.4166 110.085 62.3928 110.206 62.3421C110.328 62.2911 110.428 62.2178 110.506 62.1216C110.571 62.0408 110.618 61.9429 110.647 61.8278C110.677 61.7125 110.694 61.5502 110.698 61.3403L110.713 60.6245L107.559 60.5615L107.549 61.0425Z" fill="#FFFFFE"/>
<path fill-rule="evenodd" clip-rule="evenodd" d="M108.509 65.7579L109.186 66.1628C109.234 66.1885 109.286 66.2145 109.343 66.2407C109.4 66.267 109.462 66.2926 109.528 66.3176C109.453 66.3292 109.385 66.3415 109.324 66.3545C109.262 66.3678 109.207 66.3809 109.159 66.3941L108.407 66.632L108.509 65.7579ZM107.343 65.0621L108.107 65.5201L107.963 66.7626L107.115 67.0239L107.052 67.5616L110.485 66.4249L107.405 64.5264L107.343 65.0621Z" fill="#FFFFFE"/>
<path fill-rule="evenodd" clip-rule="evenodd" d="M106.655 69.7715L107.107 69.8511L107.306 68.7212L109.96 69.1891L110.05 68.6838L106.943 68.1362L106.655 69.7715Z" fill="#FFFFFE"/>
<path fill-rule="evenodd" clip-rule="evenodd" d="M106.139 72.0857L106.586 72.1877L106.841 71.0691L109.468 71.6684L109.582 71.1682L106.507 70.4668L106.139 72.0857Z" fill="#FFFFFE"/>
<path fill-rule="evenodd" clip-rule="evenodd" d="M106.969 73.755L107.57 74.2666C107.613 74.2999 107.66 74.3342 107.712 74.3695C107.764 74.4048 107.821 74.4403 107.882 74.4761C107.806 74.475 107.737 74.4759 107.674 74.4786C107.611 74.4812 107.554 74.4852 107.506 74.4904L106.724 74.6001L106.969 73.755ZM105.934 72.8752L106.612 73.454L106.264 74.655L105.385 74.772L105.233 75.292L108.808 74.7407L106.085 72.3574L105.934 72.8752Z" fill="#FFFFFE"/>
</svg>
