<svg width="24" height="24" viewBox="0 0 24 24" fill="none" xmlns="http://www.w3.org/2000/svg">
<path d="M24 11.998C23.999 5.61477 19.0009 0.349601 12.6264 0.0165978C6.25194 -0.316406 0.732449 4.39933 0.0663487 10.7477C-0.599751 17.096 3.82071 22.8547 10.1255 23.852V15.4666H7.07909V11.998H10.1255V9.35429C10.1255 6.3469 11.9172 4.6857 14.6576 4.6857C15.5575 4.69819 16.4554 4.77639 17.344 4.9197V7.87309H15.8305C15.3081 7.80371 14.7825 7.97568 14.4021 8.34045C14.0218 8.70521 13.8279 9.22316 13.8754 9.74803V11.998H17.2037L16.6713 15.4666H13.8754V23.852C19.7069 22.9295 24.0009 17.902 24 11.998Z" fill="#2E2923"/>
</svg>
