<svg width="24" height="24" viewBox="0 0 24 24" fill="none" xmlns="http://www.w3.org/2000/svg">
<g id="logo-instagram">
<path id="Combined Shape" fill-rule="evenodd" clip-rule="evenodd" d="M7.052 0.072C8.332 0.014 8.741 0 12 0C15.259 0 15.668 0.014 16.948 0.072C18.898 0.161 20.611 0.639 21.986 2.014C23.361 3.389 23.839 5.102 23.928 7.052C23.986 8.332 24 8.741 24 12C24 15.259 23.986 15.668 23.928 16.948C23.839 18.898 23.361 20.611 21.986 21.986C20.611 23.361 18.898 23.839 16.948 23.928C15.668 23.986 15.259 24 12 24C8.741 24 8.332 23.986 7.052 23.928C5.102 23.839 3.389 23.361 2.014 21.986C0.639 20.611 0.161 18.898 0.072 16.948C0.014 15.668 0 15.259 0 12C0 8.741 0.014 8.332 0.072 7.052C0.161 5.102 0.639 3.389 2.014 2.014C3.389 0.639 5.102 0.161 7.052 0.072ZM16.849 2.232C15.584 2.174 15.204 2.162 12 2.162C8.796 2.162 8.416 2.174 7.151 2.232C5.785 2.294 4.518 2.568 3.543 3.543C2.568 4.518 2.294 5.785 2.232 7.151C2.174 8.416 2.162 8.796 2.162 12C2.162 15.204 2.174 15.584 2.232 16.849C2.294 18.215 2.568 19.482 3.543 20.457C4.518 21.432 5.785 21.706 7.151 21.768C8.416 21.826 8.796 21.838 12 21.838C15.204 21.838 15.584 21.826 16.849 21.768C18.215 21.706 19.482 21.432 20.457 20.457C21.432 19.482 21.706 18.215 21.768 16.849C21.826 15.584 21.838 15.204 21.838 12C21.838 8.796 21.826 8.416 21.768 7.151C21.706 5.785 21.432 4.518 20.457 3.543C19.482 2.568 18.215 2.294 16.849 2.232ZM5.838 12C5.838 8.597 8.597 5.838 12 5.838C15.403 5.838 18.162 8.597 18.162 12C18.162 15.403 15.403 18.162 12 18.162C8.597 18.162 5.838 15.403 5.838 12ZM8 12C8 14.209 9.791 16 12 16C14.209 16 16 14.209 16 12C16 9.791 14.209 8 12 8C9.791 8 8 9.791 8 12ZM19.846 5.594C19.846 6.38929 19.2013 7.034 18.406 7.034C17.6107 7.034 16.966 6.38929 16.966 5.594C16.966 4.79871 17.6107 4.154 18.406 4.154C19.2013 4.154 19.846 4.79871 19.846 5.594Z" fill="#2E2923"/>
</g>
</svg>
