<svg width="20" height="27" viewBox="0 0 20 27" fill="none" xmlns="http://www.w3.org/2000/svg">
<path fill-rule="evenodd" clip-rule="evenodd" d="M0 3C0 1.34315 1.34315 0 3 0C4.65685 0 6 1.34315 6 3C6 4.65685 4.65685 6 3 6C1.34315 6 0 4.65685 0 3ZM7 3C7 1.34315 8.34315 0 10 0C11.6569 0 13 1.34315 13 3C13 4.65685 11.6569 6 10 6C8.34315 6 7 4.65685 7 3ZM17 6C18.6569 6 20 4.65685 20 3C20 1.34315 18.6569 0 17 0C15.3431 0 14 1.34315 14 3C14 4.65685 15.3431 6 17 6ZM0 10C0 8.34315 1.34315 7 3 7C4.65685 7 6 8.34315 6 10C6 11.6569 4.65685 13 3 13C1.34315 13 0 11.6569 0 10ZM10 7C8.34315 7 7 8.34315 7 10C7 11.6569 8.34315 13 10 13C11.6569 13 13 11.6569 13 10C13 8.34315 11.6569 7 10 7ZM14 10C14 8.34315 15.3431 7 17 7C18.6569 7 20 8.34315 20 10C20 11.6569 18.6569 13 17 13C15.3431 13 14 11.6569 14 10ZM3 14C1.34315 14 0 15.3431 0 17C0 18.6569 1.34315 20 3 20C4.65685 20 6 18.6569 6 17C6 15.3431 4.65685 14 3 14ZM7 17C7 15.3431 8.34315 14 10 14C11.6569 14 13 15.3431 13 17C13 18.6569 11.6569 20 10 20C8.34315 20 7 18.6569 7 17ZM17 14C15.3431 14 14 15.3431 14 17C14 18.6569 15.3431 20 17 20C18.6569 20 20 18.6569 20 17C20 15.3431 18.6569 14 17 14ZM7 24C7 22.3431 8.34315 21 10 21C11.6569 21 13 22.3431 13 24C13 25.6569 11.6569 27 10 27C8.34315 27 7 25.6569 7 24Z" fill="#3B3028"/>
</svg>
