<svg width="148" height="50" viewBox="0 0 148 50" fill="none" xmlns="http://www.w3.org/2000/svg">
<g id="Group 25">
<g id="duvel">
<path id="Shape" fill-rule="evenodd" clip-rule="evenodd" d="M9.81968 0.0507812L14.1049 0.198113L31.1946 5.41872C32.1796 5.71338 33.2135 6.30439 34.1985 7.19091C35.6263 8.52111 36.3655 10.0971 36.3655 11.8702C36.3655 26.6943 36.4649 34.3783 36.7107 35.0181C37.0062 35.8061 37.2024 36.4965 37.252 36.9882L35.8242 37.5783C35.1835 37.825 34.0015 38.6122 32.3766 39.8439C30.4074 41.3223 28.9787 42.6019 28.0922 43.784C27.8851 44.0324 27.6856 44.2694 27.495 44.4959L27.4948 44.4962C27.006 45.0771 26.575 45.5892 26.2207 46.0495C25.5312 46.9849 25.0875 47.6752 24.8416 48.0684L24.3491 49.0037L23.3144 48.8556C19.4737 47.9202 16.3216 47.4285 14.0064 47.4285C10.707 47.4285 8.14598 47.7232 6.37295 48.2166L4.89542 48.5129C4.64959 48.4144 4.55108 48.0195 4.59991 47.3309V17.633L14.7944 12.3139L15.09 13.2004V38.0229H25.0866V16.4021C25.2348 15.4659 24.8896 14.7764 24.1016 14.5306L9.4745 10.098C8.68648 9.80247 7.79996 9.65514 6.91345 9.65514H1.15066L0.0183105 9.50697L7.25863 0.986971C7.55497 0.592121 8.39182 0.296615 9.81968 0.0507812ZM50.304 49.1527L50.107 49.0046L46.3142 46.4444C46.2403 46.37 46.1539 46.3082 46.0675 46.2464L46.0674 46.2463L46.0674 46.2463L46.0674 46.2463L46.0674 46.2463C45.9815 46.1848 45.8955 46.1233 45.8217 46.0495C44.739 45.2623 44.0984 44.524 43.8028 43.8825L43.0645 41.7643C42.9668 41.3711 42.9172 40.7792 42.9172 40.0906V27.5808C43.1638 26.7928 42.8675 25.956 42.1292 25.1679C41.3908 24.3302 40.8983 23.8377 40.6028 23.6904L46.7091 18.618L47.6453 18.027C48.1866 17.8788 48.6791 17.9276 49.1228 18.2728C49.9165 18.8284 50.6581 19.4548 51.3387 20.1443C52.2252 20.9812 52.668 21.573 52.668 21.8189L52.9139 23.4934V39.1064C53.5049 40.2884 54.2441 41.1749 55.2291 41.7651L57.1494 42.9471C57.6916 43.2435 57.9871 43.0456 57.9871 42.4555V26.5958C58.0856 26.1538 57.7901 25.5619 57.1006 24.8236L56.0659 23.8386C56.0163 23.6912 56.2141 23.3949 56.6569 23.0506L62.2219 18.618C63.4527 17.5833 64.4386 17.5345 65.1769 18.3713L67.0485 20.1443C67.7868 20.9324 68.1311 21.967 68.1808 23.1491V39.7951C68.2793 40.3869 68.7222 41.0268 69.6087 41.7651L70.9885 42.7998C71.0862 42.948 70.9389 43.342 70.3975 43.8833L64.3889 48.8572C64.0926 48.9069 63.6994 48.7587 63.1084 48.4152C62.3204 47.9707 61.4827 47.3805 60.4977 46.5437C60.3007 46.3955 60.1037 46.2474 59.9563 46.0504C59.1683 45.4105 58.6758 44.8675 58.43 44.4255C58.1345 43.9321 57.8878 43.6375 57.7405 43.539C57.5923 43.539 57.3953 43.6375 57.0998 43.8825C56.2853 44.5026 55.5623 45.0935 54.9068 45.6292L54.9065 45.6294L54.9061 45.6297L54.9059 45.6299C54.7297 45.7739 54.5583 45.914 54.3914 46.0495C52.6672 47.4782 51.5837 48.4144 51.1408 48.8564C51.0423 48.9061 50.9935 48.9549 50.9438 49.0046C50.7468 49.2024 50.501 49.2512 50.304 49.1527ZM129.694 29.2562L122.355 16.7464L105.857 20.7353V42.8974C105.857 44.1291 106.201 45.2127 106.892 46.0495C107.482 46.8375 108.369 47.4782 109.502 47.921C110.832 48.5129 112.506 48.8564 114.476 49.0046L114.577 49.0124C115.18 49.0593 115.744 49.1031 116.396 49.1031C117.173 49.1031 117.902 49.0549 118.629 49.0067L118.629 49.0067L118.662 49.0046C120.483 48.9149 122.286 48.6008 124.031 48.0692L127.134 39.4516L116.939 40.8786C115.757 40.8786 115.165 40.1402 115.165 38.6619C115.165 37.6768 115.412 37.037 115.856 36.7903L129.694 29.2562ZM115.412 34.2798L119.993 31.8164L115.412 24.3799V34.2798ZM142.007 4.3352C141.513 3.79301 140.874 3.3005 140.086 2.75916C139.151 2.16815 138.559 1.97115 138.314 2.21698L131.222 8.42261L132.452 9.65346C133.044 10.2445 133.34 10.934 133.34 11.722V40.4837C133.388 40.6807 133.536 41.0756 133.882 41.6657C134.916 43.539 135.9 45.0157 136.738 46.0495C137.035 46.4444 137.281 46.7382 137.575 47.0345L139.644 48.6594C139.841 48.8076 140.087 48.9557 140.235 49.0046C140.53 49.1527 140.777 49.2016 140.974 49.1527L141.122 49.0046L147.525 43.1938C147.967 42.7501 148.066 42.4554 147.918 42.3073L146.491 41.6657C145.899 41.3711 145.259 40.8777 144.667 40.1402C144.027 39.4516 143.781 38.9582 143.781 38.6619V9.06329C143.78 7.24058 143.19 5.66539 142.007 4.3352ZM78.7197 18.5195C78.9167 18.2736 79.3612 18.1751 80.0499 18.0766C80.8379 18.027 81.3809 18.224 81.8238 18.6188L83.7955 20.391C84.682 21.3264 85.124 22.2626 85.124 23.2476V39.3531C85.124 39.7951 85.47 40.2884 86.1587 40.8786C86.6032 41.3223 87.5882 41.9124 89.1137 42.6508L90.1973 43.2923C90.4439 43.2923 90.5424 42.7989 90.5921 41.8636V18.0766H100.441V40.2396C95.1712 42.1103 92.0191 43.4405 90.8859 44.0803C89.8183 44.7619 88.735 45.4188 87.6371 46.0504C85.5685 47.3309 84.485 48.0204 84.3865 48.2174L84.0901 48.6594L83.7955 49.0046H83.7458C83.6456 49.0542 83.4991 49.0542 83.351 49.0046C83.0058 48.9557 82.5638 48.7091 81.9223 48.3159C80.6923 47.479 79.6087 46.739 78.7205 46.0504C77.5393 45.1647 76.7505 44.3767 76.2588 43.7848C76.2174 43.7207 76.1773 43.6587 76.1386 43.5988C75.7614 43.0155 75.5143 42.6334 75.4708 42.4563C75.3226 42.1111 75.3226 41.4704 75.3723 40.4374C75.4708 39.0576 75.4708 34.6738 75.3723 27.3847C75.4708 26.4981 75.1753 25.7598 74.4858 25.2673L73.1556 24.2326C72.8104 23.8386 72.8104 23.3949 73.3029 22.9521L78.7197 18.5195Z" fill="#C0BAB3"/>
</g>
</g>
</svg>
