<svg width="148" height="50" viewBox="0 0 148 50" fill="none" xmlns="http://www.w3.org/2000/svg">
<g id="Group 25">
<g id="loggly">
<path id="Shape" fill-rule="evenodd" clip-rule="evenodd" d="M11.9918 39.3189C12.2883 39.3189 12.5416 39.1058 12.7485 38.6708C12.9532 38.2389 13.0572 37.577 13.0572 36.6757C13.0572 35.7024 12.9595 35.0084 12.7636 34.591C12.5679 34.1819 12.3091 33.9753 11.9918 33.9753H10.103V1.21002C10.103 1.02184 10.0452 0.855047 9.93305 0.705312C9.82119 0.556156 9.6307 0.426367 9.36071 0.325195C9.08379 0.221711 8.7268 0.144242 8.2773 0.0835391C7.82521 0.0289062 7.25258 0 6.56172 0C6.3085 0 6.07812 0.00635938 5.85641 0.0150313C5.85044 0.0150313 5.84536 0.0112268 5.84031 0.00744594C5.83532 0.0037115 5.83035 0 5.82461 0H1.06751C0.750984 0 0.491984 0.207258 0.296578 0.61975C0.100594 1.03109 0 1.72773 0 2.701C0 3.6023 0.106664 4.26772 0.307273 4.69669C0.515398 5.13144 0.768617 5.34766 1.06751 5.34766H3.0207V33.975H1.06751C0.750984 33.975 0.491984 34.1819 0.296578 34.5907C0.100594 35.0084 0 35.7024 0 36.6757C0 37.577 0.106664 38.2389 0.307273 38.6708C0.515398 39.1058 0.768617 39.3189 1.06751 39.3189H11.9918ZM114.508 38.6708C114.301 39.1058 114.047 39.3189 113.749 39.3189H102.831C102.531 39.3189 102.277 39.1058 102.069 38.6708C101.862 38.2389 101.757 37.577 101.757 36.6757C101.757 35.7024 101.856 35.0084 102.056 34.5907C102.252 34.1819 102.51 33.975 102.831 33.975H104.782V5.34766H102.831C102.531 5.34766 102.277 5.13144 102.069 4.69669C101.862 4.26801 101.757 3.60259 101.757 2.70129C101.757 1.72802 101.856 1.03137 102.056 0.620039C102.252 0.207258 102.51 0 102.831 0H107.583C107.588 0 107.594 0.00370358 107.599 0.00743399L107.599 0.00744581C107.604 0.0112267 107.609 0.0150313 107.615 0.0150313C107.837 0.00635938 108.072 0 108.32 0C109.014 0 109.584 0.0289062 110.036 0.0835391C110.485 0.144242 110.846 0.221711 111.116 0.325195C111.391 0.426367 111.582 0.556156 111.692 0.705312C111.806 0.848687 111.867 1.02683 111.866 1.21002V33.9753H113.75C114.068 33.9753 114.327 34.1819 114.522 34.591C114.717 35.0084 114.82 35.7024 114.82 36.6757C114.82 37.577 114.715 38.2389 114.508 38.6708ZM40.006 35.8036C38.8633 37.078 37.4301 38.0626 35.7076 38.7584C33.9839 39.4521 31.968 39.7978 29.6648 39.7978C27.4361 39.7978 25.4953 39.4897 23.8453 38.8702C22.1954 38.2508 20.8281 37.3495 19.743 36.1692C18.6535 34.989 17.8482 33.5379 17.3241 31.8096C16.7994 30.0848 16.5413 28.116 16.5413 25.9046C16.5413 23.7659 16.8229 21.8129 17.3958 20.0395C17.969 18.2682 18.8238 16.7489 19.967 15.4845C21.1099 14.2178 22.5411 13.2362 24.2544 12.545C25.9679 11.8513 27.9775 11.5056 30.2802 11.5056C32.532 11.5056 34.4785 11.8079 36.1276 12.4181C37.7776 13.0257 39.1402 13.9241 40.2173 15.1044C41.2963 16.2852 42.0973 17.7392 42.6208 19.464C43.1455 21.1889 43.4071 23.1698 43.4071 25.3976C43.4071 27.5335 43.1275 29.4864 42.5642 31.2477C42.0016 33.0104 41.1495 34.5285 40.006 35.8033V35.8036ZM35.8313 22.2621C35.6348 21.2198 35.3009 20.3162 34.8358 19.5476C34.3661 18.7787 33.7443 18.1797 32.9664 17.7479C32.1868 17.3157 31.2101 17.1004 30.0298 17.1004C28.9788 17.1004 28.0639 17.2958 27.2745 17.6785C26.4888 18.0615 25.8407 18.6263 25.3334 19.3657C24.8302 20.1057 24.453 20.9981 24.1968 22.0352C23.9436 23.0767 23.8196 24.2639 23.8196 25.5965C23.8196 26.8316 23.9202 27.9697 24.1278 29.0109C24.3318 30.0504 24.666 30.9586 25.1239 31.7263C25.5843 32.4944 26.2064 33.0904 26.9927 33.5122C27.7815 33.9345 28.7548 34.1449 29.918 34.1449C30.9832 34.1449 31.9102 33.9518 32.6987 33.5665C33.4882 33.1835 34.1328 32.6273 34.6398 31.8928C35.1462 31.1615 35.52 30.2784 35.7622 29.2361C36.0048 28.1963 36.1276 27.0097 36.1276 25.68C36.1276 24.4408 36.0276 23.3019 35.8313 22.2621ZM58.2198 16.5127C59.5853 16.5127 60.6444 16.887 61.3966 17.6351C62.1441 18.3867 62.519 19.4348 62.519 20.7853C62.519 21.3496 62.4297 21.8849 62.2516 22.4009C62.0727 22.9189 61.8102 23.3739 61.4651 23.7659C61.1165 24.159 60.682 24.4706 60.158 24.6917C59.6345 24.9204 59.015 25.0319 58.3033 25.0319C56.9707 25.0319 55.9345 24.6605 55.1829 23.9214C54.4342 23.1811 54.0605 22.1731 54.0605 20.8975C54.0582 20.3305 54.1423 19.7666 54.3099 19.225C54.4805 18.6896 54.7372 18.2228 55.0846 17.8167C55.4338 17.4134 55.8683 17.0972 56.3918 16.8636C56.919 16.6275 57.5269 16.5127 58.2198 16.5127ZM53.0493 41.7126C53.0493 42.6463 53.5214 43.3597 54.4669 43.8479C55.4127 44.3341 56.7467 44.5789 58.4736 44.5789C59.5391 44.5789 60.4369 44.47 61.1691 44.254C61.9001 44.0381 62.4904 43.7522 62.9419 43.3955C63.3911 43.0391 63.7085 42.6448 63.8987 42.2005C64.0828 41.7611 64.1777 41.2969 64.1777 40.8107C64.1777 39.9643 63.8403 39.3191 63.1665 38.8702C62.4904 38.4176 61.5663 38.1759 60.3857 38.1389L55.352 37.9976C54.8623 38.3543 54.477 38.6936 54.1871 39.0257C53.8951 39.3509 53.6598 39.6663 53.4815 39.9643C53.306 40.2635 53.1875 40.5581 53.13 40.8393C53.0751 41.1186 53.0493 41.4102 53.0493 41.7123V41.7126ZM67.5782 17.4941H70.5284C70.829 17.4941 71.0816 17.2776 71.2886 16.8489C71.4938 16.417 71.5973 15.7522 71.5973 14.8509C71.5973 13.8776 71.4996 13.1841 71.303 12.7693C71.105 12.358 70.8484 12.151 70.5284 12.151H62.5734C61.9568 11.9828 61.2867 11.851 60.5667 11.7559C59.8443 11.6634 59.0904 11.6171 58.3036 11.6171C56.7667 11.6171 55.361 11.8276 54.0891 12.2482C52.8135 12.6711 51.7168 13.2818 50.7975 14.0768C49.8821 14.8746 49.1629 15.8499 48.6498 17.0021C48.1353 18.1569 47.878 19.4634 47.878 20.9261C47.878 22.2939 48.0743 23.4398 48.4662 24.355C48.8599 25.2733 49.384 26.0622 50.0408 26.7186C49.2337 27.4531 48.5784 28.2715 48.0743 29.1803C47.5673 30.0908 47.314 31.0985 47.314 32.2047C47.314 33.082 47.5329 33.8949 47.976 34.6337C48.4133 35.3775 49.036 35.9643 49.8413 36.3935C49.2603 36.8257 48.7475 37.2743 48.298 37.7435C47.8497 38.2129 47.4696 38.7055 47.1591 39.2203C46.8512 39.7371 46.6139 40.2754 46.4558 40.839C46.298 41.3995 46.2202 41.9907 46.2202 42.6101C46.2202 43.6039 46.4385 44.5182 46.8799 45.3513C47.3192 46.1867 48.0222 46.903 48.9871 47.5014C49.9517 48.104 51.1889 48.5723 52.6978 48.9094C54.2044 49.2461 56.0258 49.4158 58.1628 49.4158C60.3568 49.4158 62.2684 49.1799 63.9103 48.7128C65.551 48.2414 66.9131 47.6051 67.9982 46.8001C69.0859 45.993 69.9017 45.0397 70.4451 43.9424C70.9865 42.8483 71.2611 41.6837 71.2611 40.4448C71.2611 39.3186 71.0588 38.3161 70.6553 37.4356C70.2559 36.5567 69.66 35.7813 68.9134 35.1694C68.1537 34.5453 67.2183 34.055 66.1031 33.7073C64.9865 33.3616 63.7198 33.1598 62.2938 33.102L56.1937 32.8771C55.3355 32.8404 54.6617 32.6505 54.1871 32.3019C53.7084 31.9535 53.4693 31.5098 53.4693 30.9658C53.4693 30.5516 53.5555 30.1804 53.7347 29.8428C53.9133 29.5026 54.1145 29.2124 54.3397 28.967C54.7372 29.2338 55.2951 29.4639 56.0258 29.6587C56.758 29.8541 57.5266 29.9524 58.3302 29.9524C59.9076 29.9524 61.3333 29.7547 62.6196 29.3476C63.8987 28.9476 64.9989 28.3539 65.9083 27.5745C66.8154 26.8004 67.5149 25.8436 67.9982 24.7099C68.4876 23.5751 68.7295 22.2763 68.7295 20.8145C68.7295 20.1948 68.6437 19.5987 68.4636 19.0281C68.287 18.4555 67.9921 17.9456 67.5782 17.4941ZM89.166 17.6348C88.4161 16.8867 87.3573 16.5124 85.9892 16.5124C85.2945 16.5124 84.6846 16.6272 84.1611 16.8633C83.6379 17.0969 83.2014 17.4131 82.8502 17.8164C82.5009 18.229 82.2388 18.708 82.0796 19.2247C81.9105 19.7661 81.8249 20.33 81.8258 20.8972C81.8258 22.1728 82.2016 23.1808 82.9505 23.9211C83.7027 24.6602 84.7427 25.0317 86.0724 25.0317C86.7867 25.0317 87.4041 24.9201 87.9276 24.6914C88.4508 24.4703 88.8893 24.1587 89.2336 23.7656C89.5805 23.3736 89.8435 22.9186 90.0227 22.4006C90.2022 21.8846 90.2887 21.3493 90.2887 20.785C90.2887 19.4345 89.9135 18.3864 89.166 17.6348ZM82.2363 43.8476C81.2887 43.3594 80.8155 42.646 80.8155 41.7123V41.712C80.8155 41.4099 80.841 41.1183 80.8993 40.839C80.9577 40.5578 81.0719 40.2632 81.2508 39.964C81.4286 39.666 81.6659 39.3507 81.9544 39.0255C82.2429 38.6933 82.6317 38.354 83.1185 37.9973L88.1511 38.1386C89.3313 38.1756 90.2603 38.4173 90.935 38.8699C91.6129 39.3189 91.9453 39.964 91.9453 40.8104C91.9482 41.2879 91.8534 41.7608 91.6666 42.2002C91.4802 42.6445 91.1613 43.0388 90.7113 43.3952C90.2603 43.7519 89.6712 44.0378 88.9408 44.2537C88.2094 44.4697 87.3107 44.5786 86.2421 44.5786C84.517 44.5786 83.1786 44.3338 82.2363 43.8476ZM98.2986 17.4941H95.349C95.7586 17.9456 96.0546 18.4555 96.2335 19.0281C96.413 19.5987 96.5012 20.1948 96.5012 20.8145C96.5012 22.2763 96.257 23.5751 95.7705 24.7099C95.2819 25.8436 94.583 26.8004 93.673 27.5745C92.7671 28.3539 91.671 28.9476 90.3858 29.3476C89.1009 29.7547 87.6761 29.9524 86.1025 29.9524C85.2945 29.9524 84.5271 29.8541 83.7975 29.6587C83.065 29.4639 82.5013 29.2338 82.1076 28.967C81.8693 29.2314 81.6666 29.5258 81.5046 29.8428C81.3257 30.1804 81.2373 30.5516 81.2373 30.9658C81.2373 31.5098 81.4743 31.9535 81.9544 32.3019C82.4314 32.6505 83.1 32.8404 83.9657 32.8771L90.0629 33.102C91.4889 33.1598 92.7581 33.3616 93.8739 33.7073C94.9854 34.055 95.9263 34.5453 96.6836 35.1694C97.4395 35.7981 98.0214 36.554 98.4243 37.4356C98.8267 38.3161 99.0291 39.3186 99.0291 40.4448C99.0291 41.6837 98.7591 42.8483 98.2145 43.9424C97.6699 45.0397 96.8576 45.993 95.7705 46.8001C94.6813 47.6051 93.3189 48.2414 91.6825 48.7128C90.0415 49.1799 88.1253 49.4158 85.9351 49.4158C83.7975 49.4158 81.9697 49.2461 80.4646 48.9094C78.9534 48.5723 77.7194 48.104 76.7542 47.5014C75.7899 46.903 75.0863 46.1867 74.6458 45.3513C74.2058 44.5182 73.9873 43.6039 73.9873 42.6101C73.9873 41.9907 74.0679 41.3995 74.2269 40.839C74.3845 40.2754 74.6206 39.7371 74.9247 39.2203C75.2495 38.6876 75.632 38.1923 76.0654 37.7435C76.5174 37.2743 77.0308 36.8257 77.6095 36.3935C76.8045 35.9643 76.1816 35.3775 75.743 34.6337C75.2996 33.8949 75.0811 33.082 75.0811 32.2047C75.0811 31.0985 75.3352 30.0908 75.8413 29.1803C76.3472 28.2715 77.0005 27.4531 77.8081 26.7186C77.1514 26.0622 76.6273 25.2733 76.2356 24.355C75.8413 23.4398 75.6453 22.2939 75.6453 20.9261C75.6453 19.4634 75.902 18.1569 76.4171 17.0021C76.9328 15.8499 77.6497 14.8746 78.5669 14.0768C79.4821 13.2818 80.5828 12.6711 81.8567 12.2482C83.1277 11.8276 84.536 11.6171 86.0724 11.6171C86.8615 11.6171 87.6154 11.6634 88.3343 11.7559C89.057 11.851 89.7273 11.9828 90.3468 12.151H98.2986C98.6174 12.151 98.8735 12.358 99.0713 12.7693C99.2719 13.1841 99.369 13.8776 99.369 14.8509C99.369 15.7522 99.2649 16.417 99.0568 16.8489C98.8501 17.2776 98.5963 17.4941 98.2986 17.4941ZM146.93 17.3325C147.226 17.3325 147.481 17.1194 147.687 16.6879C147.895 16.2528 148 15.5915 148 14.6925C148 13.7169 147.902 13.0226 147.701 12.6083C147.506 12.1961 147.249 11.9886 146.93 11.9886H142.752C142.751 11.9886 142.75 11.9887 142.749 11.989C142.748 11.9891 142.747 11.9893 142.746 11.9896C142.743 11.9904 142.739 11.9915 142.736 11.9915C142.662 11.9915 142.593 11.9894 142.523 11.9873C142.449 11.9851 142.375 11.9828 142.291 11.9828C141.263 11.9828 140.541 12.0207 140.126 12.0961C139.719 12.1704 139.419 12.2886 139.245 12.447C139.065 12.6054 138.918 12.9306 138.809 13.4168L133.413 30.5458H133.326L127.422 13.7542C127.293 13.3249 127.162 12.9905 127.032 12.7546C126.899 12.5219 126.704 12.3459 126.438 12.2337C126.178 12.1218 125.812 12.0522 125.344 12.0236C124.876 11.9972 124.239 11.9828 123.433 11.9828C123.37 11.9828 123.315 11.9843 123.26 11.9857L123.26 11.9857C123.207 11.9872 123.154 11.9886 123.094 11.9886H118.342C118.023 11.9886 117.767 12.1961 117.571 12.6083C117.373 13.0226 117.276 13.7169 117.276 14.6925C117.276 15.5915 117.378 16.2528 117.583 16.6879C117.79 17.1194 118.044 17.3325 118.342 17.3325H121.143L128.83 37.8825C128.922 38.1458 129.069 38.3944 129.267 38.6312C129.462 38.8636 129.681 39.0376 129.926 39.1495L127.982 44.0349H125.312C124.995 44.0349 124.735 44.2419 124.539 44.6544C124.343 45.0654 124.246 45.7621 124.246 46.7348C124.246 47.6337 124.348 48.3021 124.552 48.7339C124.76 49.1635 125.014 49.3794 125.312 49.3794H130.642C130.729 49.3794 130.813 49.3551 130.892 49.3204C131.702 49.2753 132.376 49.1889 132.878 49.0513C133.627 48.8432 134.085 48.5058 134.254 48.0373L137.289 39.1495L144.699 17.3325H146.93Z" fill="#C0BAB3"/>
</g>
</g>
</svg>
