<svg width="148" height="31" viewBox="0 0 148 31" fill="none" xmlns="http://www.w3.org/2000/svg">
<g id="Group 25">
<g id="ntt-docomo-logo">
<path id="Shape" fill-rule="evenodd" clip-rule="evenodd" d="M15.6164 10.6327V0H21.3923V26.6479C20.3244 27.154 19.4023 27.7358 18.5002 28.3051C16.3359 29.6709 14.2862 30.9644 10.6124 30.9644C3.68391 30.9644 0 25.3874 0 20.1373C0 14.8704 3.68503 9.29796 10.6124 9.29796C12.5493 9.29796 14.2188 9.79342 15.6164 10.6327ZM108.096 11.6224C110.769 9.76083 112.832 9.29796 115.044 9.29796C119.967 9.29796 123.404 12.7942 123.404 17.8297V30.7048H117.628V18.1274C117.628 15.9771 116.357 14.903 114.273 14.903C112.069 14.903 110.981 16.0389 110.981 17.8578V30.7048H105.214V17.8578C105.214 16.0389 104.122 14.903 101.92 14.903C99.8373 14.903 98.5644 15.9771 98.5644 18.1274V30.7048H92.7886V17.8297C92.7886 12.7942 96.2265 9.29796 101.147 9.29796C103.361 9.29796 105.422 9.76083 108.096 11.6224ZM59.4874 30.7048C52.9431 30.7048 48.7986 26.0547 48.7986 20.1328V20.1317C48.7986 14.2098 52.9431 9.56085 59.4874 9.56085H65.5272V15.1648H60.0312C56.5146 15.1648 54.5778 17.3185 54.5778 20.1328C54.5778 22.946 56.5146 25.0998 60.0312 25.0998H65.5272V30.7048H59.4874ZM137.263 25.3615C134.047 25.3615 132.306 22.773 132.306 20.1306C132.306 17.4904 134.047 14.903 137.263 14.903C140.481 14.903 142.222 17.4915 142.222 20.1306C142.222 22.773 140.481 25.3615 137.263 25.3615ZM126.531 20.1373C126.531 14.8244 130.41 9.29796 137.273 9.29796C144.122 9.29796 148 14.8244 148 20.1373C148 25.4346 144.122 30.9644 137.273 30.9644C130.41 30.9644 126.531 25.4346 126.531 20.1373ZM5.7792 20.1306C5.7792 17.4904 7.52061 14.903 10.7349 14.903C13.9526 14.903 15.6344 17.3803 15.6906 19.9947V20.2665C15.6344 22.882 13.9526 25.3615 10.7349 25.3615C7.52061 25.3615 5.7792 22.773 5.7792 20.1295V20.1306ZM35.3785 25.3615C32.1654 25.3615 30.4228 22.773 30.4228 20.1306C30.4228 17.4904 32.1654 14.903 35.3785 14.903C38.5984 14.903 40.3387 17.4915 40.3387 20.1306C40.3387 22.773 38.5984 25.3615 35.3785 25.3615ZM24.6493 20.1373C24.6493 14.8244 28.5264 9.29796 35.3875 9.29796C42.2352 9.29796 46.1134 14.8244 46.1134 20.1373C46.1134 25.4346 42.2352 30.9644 35.3875 30.9644C28.5264 30.9644 24.6493 25.4346 24.6493 20.1373ZM78.9259 25.3615C75.7116 25.3615 73.9691 22.773 73.9691 20.1306C73.9691 17.4904 75.7116 14.903 78.9259 14.903C82.1402 14.903 83.8816 17.4915 83.8816 20.1306C83.8816 22.773 82.1402 25.3615 78.927 25.3615H78.9259ZM68.191 20.1373C68.191 14.8244 72.0715 9.29796 78.9338 9.29796H78.9327C85.7825 9.29796 89.6619 14.8244 89.6619 20.1373C89.6619 25.4346 85.7825 30.9644 78.9327 30.9644C72.0715 30.9644 68.191 25.4346 68.191 20.1373Z" fill="#C0BAB3"/>
</g>
</g>
</svg>
