<svg width="148" height="103" viewBox="0 0 148 103" fill="none" xmlns="http://www.w3.org/2000/svg">
<g id="Group 25">
<g id="staatsbosbeheer">
<path id="Shape" fill-rule="evenodd" clip-rule="evenodd" d="M37.1154 1.77165C37.7474 1.29852 38.3795 0.82522 39.009 0.375876C35.8111 -0.11033 32.1388 -0.0755442 28.9994 0.457306C31.0075 1.54989 33.0156 3.40379 34.241 5.38973C34.3485 5.75814 34.2916 6.00322 33.9556 6.34C33.682 6.53053 33.3128 6.63726 32.9919 6.4831C29.7584 4.34458 26.1818 3.01167 22.4384 2.10962C21.4441 2.50104 20.4647 2.9293 19.5022 3.39352C24.6244 4.70034 29.4856 7.767 32.7903 12.3784C32.9555 12.7635 32.8266 13.0441 32.5887 13.2694C32.2337 13.5801 31.9349 13.5904 31.5902 13.4718C26.3834 9.74028 20.5482 7.49267 14.2251 6.44673C14.1477 6.50459 14.07 6.56243 13.9922 6.62035C13.2696 7.15846 12.5371 7.70391 11.8826 8.337C14.735 8.6817 17.4333 9.41852 19.9291 10.6676C23.4844 12.3666 26.7439 15.2119 29.5094 18.3687C29.6349 18.5115 29.7105 18.6078 29.7774 18.6931C29.8391 18.7716 29.8934 18.8408 29.9726 18.9284C30.164 19.1355 30.3205 19.3553 30.2833 19.6526C30.2343 19.8905 30.164 20.1158 29.9624 20.2826C29.7481 20.5206 29.3908 20.5443 29.0817 20.4842C27.2278 19.1173 25.3383 17.8698 23.3539 16.8349C18.5156 14.4711 13.4883 12.4978 7.62773 12.6994C7.54767 12.8016 7.46719 12.9038 7.38663 13.0061C6.85783 13.6775 6.326 14.3527 5.89241 15.0648C9.69667 14.7565 13.2037 15.5044 16.3644 16.9425C21.0952 19.2486 25.5051 22.5176 29.3908 26.6768L29.5102 26.9037C29.6643 27.3488 29.4864 27.6524 29.1655 27.9015C28.9164 28.0572 28.5243 28.1046 28.25 27.9608C25.9312 26.3448 23.5318 24.9305 21.0352 23.7414C15.5802 21.2219 9.70853 19.1901 3.1238 19.915C2.75825 20.7174 2.42515 21.5342 2.1253 22.3635C5.77461 21.7919 9.44764 22.2915 12.5973 23.5999C18.9314 26.2618 24.875 30.504 29.7355 36.1504C29.899 36.3492 30.0661 36.5467 30.2334 36.7444C30.7965 37.4098 31.361 38.0769 31.7926 38.8004C31.8993 39.1569 31.7688 39.4787 31.4834 39.7159C31.2218 39.9412 30.8296 39.8827 30.5324 39.7633C25.1477 34.415 19.0389 30.6226 12.3119 28.4952C8.82941 27.1757 4.31362 26.9275 0.533866 27.8777L0.473782 27.9268L0.2121 30.4946C5.50107 29.3767 11.0762 30.4226 15.4734 32.8948C22.391 36.7346 29.3331 43.1161 33.8734 49.8914C33.8734 49.8914 33.9619 50.0361 33.9912 50.2962C34.0386 50.7144 33.7421 51.033 33.3848 51.1516C33.1358 51.1982 32.8274 51.1982 32.6242 51.033C28.582 46.4089 23.2986 42.4797 18.8136 39.6329C14.3271 36.7852 6.98736 34.3684 0.0452881 35.6649C0.0517104 36.4653 0.119637 37.2641 0.248467 38.0541C5.89241 37.1259 11.2897 38.5166 15.8181 41.1437C22.6772 45.5408 29.2611 52.0663 33.7295 58.9127C33.8836 59.1404 34.0386 59.3776 34.0149 59.6867C34.0386 60.0543 33.7058 60.3753 33.3848 60.5065C33.0527 60.6488 32.6962 60.5176 32.4464 60.2796C28.5117 55.3598 23.4962 50.8559 18.3614 47.7292C13.4409 44.472 7.59373 42.7841 1.26989 43.6158C1.48806 44.3853 1.73409 45.1466 2.0075 45.8982C6.92728 45.6128 11.2897 46.8493 15.2244 49.0368C21.2739 52.7573 27.2886 58.772 31.1988 64.7843C31.3538 64.9986 31.4605 65.2492 31.4479 65.5346C31.4249 65.8793 31.1395 66.1876 30.8186 66.2943C30.5458 66.3773 30.2596 66.2943 30.0217 66.152C26.6356 61.8853 22.4274 58.1411 17.9582 55.5733C13.9294 53.3273 9.7702 51.2591 4.71761 51.6639C5.08681 52.3296 5.50186 53.0071 5.97779 53.6016C12.6463 54.7535 18.695 58.0692 23.176 63.8222C25.3636 66.4967 25.6845 70.9777 24.0322 73.9961C22.0115 77.4439 18.5401 80.7714 15.2252 82.8158L15.6173 82.8388L31.1814 82.8277C30.8494 78.5364 31.8163 74.5069 33.6235 70.9999C34.7849 69.274 35.6103 67.7593 36.434 65.3164C37.7788 61.3263 38.0958 56.9165 36.8444 52.7193C37.5852 52.4049 38.3587 52.156 39.1288 51.9081C39.7551 51.7065 40.3791 51.5057 40.9815 51.271C39.965 49.7101 39.0131 48.1081 38.1283 46.469C37.7709 45.8025 37.0942 44.4483 37.0942 44.4483C35.192 40.8938 34.0046 37.0318 33.1603 33.0378C31.723 25.9179 32.8867 18.394 36.6665 12.701L36.7194 12.6148L36.6665 12.5231L34.4805 9.52762V9.4446C35.2488 8.87542 36.0216 8.31142 36.7962 7.74616C37.2675 7.40225 37.7394 7.05788 38.2113 6.71157C37.671 5.87965 37.0694 5.08092 36.4672 4.28144C36.183 3.90408 35.8986 3.52655 35.6205 3.14527L35.5012 2.9666C36.0378 2.57837 36.5765 2.17507 37.1154 1.77165ZM46.393 4.78889C46.9163 4.07578 47.1511 3.40616 47.3401 2.59819C46.472 2.21872 45.57 1.89695 44.6553 1.63606C44.6096 1.78409 44.5652 1.93274 44.5207 2.08147C44.2297 3.0551 43.9378 4.03184 43.2884 4.85688C42.7984 5.50203 42.127 5.76195 41.4652 6.0182C40.7612 6.29074 40.068 6.55911 39.6153 7.28237C39.5679 7.45946 39.5323 7.74565 39.7821 7.81601C40.1303 7.84276 40.3655 7.65213 40.628 7.43951C40.831 7.275 41.0503 7.09733 41.3507 6.99697C41.8413 6.7989 42.3329 6.66621 42.8132 6.53658C43.2166 6.42771 43.6119 6.32099 43.992 6.17951C45.2047 5.82613 45.7573 5.52017 46.393 4.78889Z" fill="#C0BAB3"/>
<path id="Shape_2" fill-rule="evenodd" clip-rule="evenodd" d="M52.165 5.05847C51.5713 6.89024 50.2755 9.01769 48.2548 9.62248C48.0444 9.67884 47.8306 9.73292 47.6152 9.78739L47.6151 9.7874L47.615 9.78745C45.9208 10.2159 44.1317 10.6683 43.2038 12.4393C43.1101 12.5955 43.0182 12.752 42.9266 12.9081C42.2511 14.0584 41.5864 15.1904 40.2707 16.0926C39.8327 16.3092 39.3165 16.4934 38.7576 16.4934C38.6905 16.4934 38.6471 16.4466 38.6039 16.4001C38.578 16.372 38.5521 16.3441 38.5212 16.3266C38.4773 16.223 38.4777 16.106 38.5224 16.0028C38.567 15.8996 38.652 15.8192 38.7576 15.7803C40.685 15.444 41.4229 13.5858 42.0587 11.9848C42.1643 11.7188 42.2671 11.4599 42.3721 11.2163C43.0963 9.52761 44.9027 8.31565 46.5677 7.81601C48.22 7.09184 49.4193 5.37945 49.5387 3.63306C50.4423 4.02518 51.3096 4.52404 52.165 5.05847ZM56.8721 8.50539C56.3495 10.2889 55.2909 12.4156 53.3066 13.0101C52.8895 13.1622 52.4485 13.2628 52.0074 13.3635C50.8643 13.6243 49.7207 13.8852 48.9916 15.0427C48.7414 15.4763 48.5166 15.9496 48.2882 16.4304C47.5402 18.0051 46.7542 19.6597 44.9154 20.2605C44.6306 20.348 44.338 20.4285 44.043 20.5096C42.4537 20.9468 40.7957 21.4029 39.9229 23.0766C39.4359 24.5035 38.4374 25.8823 37.0942 26.7614C36.8633 26.8745 36.5961 26.7836 36.5242 26.5361C36.4351 26.3077 36.61 26.1372 36.7746 25.9767C36.8071 25.945 36.8392 25.9136 36.8689 25.8823C38.0111 25.2267 38.4224 24.2104 38.8349 23.1908C39.0959 22.5457 39.3575 21.8993 39.8051 21.342C40.4517 20.3387 41.3938 19.9425 42.343 19.5433C43.1717 19.1948 44.0059 18.8439 44.6537 18.0848C45.4615 17.317 45.8548 16.3752 46.2484 15.4326C46.6653 14.4343 47.0826 13.4351 47.9931 12.6409C48.6533 11.9764 49.4557 11.6413 50.2559 11.3072C51.2005 10.9128 52.1422 10.5196 52.8433 9.58691C53.6157 8.6477 53.9833 7.55354 54.2094 6.3898L54.3035 6.45697C55.189 7.0893 56.0803 7.72582 56.8721 8.50539ZM60.9507 12.7018C60.1983 11.7754 59.3963 10.8905 58.5481 10.051V10.0494H58.4896C58.4416 10.1925 58.3946 10.3361 58.3475 10.4796C57.9527 11.6837 57.5578 12.8879 56.612 13.8655C55.9275 14.6333 55.0745 14.984 54.2198 15.3353C53.7527 15.5274 53.285 15.7196 52.8441 15.9803C51.6357 16.7441 51.2264 17.8891 50.8155 19.0386C50.5229 19.8572 50.2295 20.678 49.6462 21.3649C48.8892 22.2294 47.9019 22.6038 46.9208 22.9758C45.7297 23.4274 44.5478 23.8755 43.7983 25.1929C43.5291 25.7138 43.2956 26.3015 43.057 26.9021L43.057 26.9022L43.057 26.9023C42.3055 28.7941 41.5032 30.8138 39.3742 31.2741C39.2295 31.3065 39.0683 31.331 38.9307 31.3452C38.8115 31.3562 38.6859 31.3557 38.5632 31.3552C38.1131 31.3533 37.7017 31.3515 37.7844 31.92C37.8919 32.1105 38.1172 32.1579 38.3314 32.1816C39.424 32.2046 40.4225 32.003 41.2906 31.4693C42.8958 30.3655 43.6681 28.7099 44.41 27.1196C44.4752 26.9798 44.5402 26.8405 44.6055 26.7021C45.346 25.3607 46.6039 24.9759 47.8576 24.5924C48.4362 24.4154 49.0139 24.2387 49.5395 23.9683C51.1268 23.3708 51.8279 21.9496 52.511 20.5649C52.7642 20.0517 53.0149 19.5435 53.3074 19.0841C53.9804 17.8318 55.1669 17.5304 56.3515 17.2294C56.9438 17.0789 57.5357 16.9285 58.0627 16.6594C59.5346 16.0615 60.1413 14.6174 60.6951 13.2993C60.7806 13.0959 60.8648 12.8956 60.9507 12.7018ZM64.3731 17.8595C63.8023 19.4407 62.3413 21.1404 60.5823 21.3436C58.8343 21.5452 57.0745 22.1856 56.1606 23.8869C56.1003 24.0018 56.0391 24.1194 55.977 24.239C54.9987 26.1211 53.7646 28.4952 51.4179 28.8193C49.4098 29.0336 47.2824 30.459 46.6286 32.4678C46.0807 33.9533 44.9517 35.6649 43.3232 36.1519C43.1483 36.2054 42.9732 36.2621 42.7973 36.319C41.8022 36.6412 40.7813 36.9717 39.6398 36.7702C39.4612 36.6745 39.4011 36.4373 39.4722 36.2349C39.584 36.0135 39.8013 35.9921 40.018 35.9708C40.1263 35.9602 40.2344 35.9495 40.3292 35.914C42.2195 35.6523 44.4173 35.1297 45.1786 33.0624C45.4375 32.6004 45.6484 32.0978 45.8608 31.5919C46.4188 30.2623 46.9864 28.9099 48.4588 28.2129C48.8391 28.0452 49.2421 27.9002 49.6491 27.7538C51.0606 27.2459 52.5198 26.7209 53.2489 25.1708C53.5757 24.6094 53.8357 23.9792 54.098 23.3432C54.78 21.6899 55.4782 19.9972 57.4097 19.3703C57.6329 19.2852 57.8635 19.2057 58.0963 19.1254L58.0965 19.1254L58.0968 19.1252L58.0969 19.1252L58.0969 19.1252L58.097 19.1252C59.2628 18.7232 60.4835 18.3022 61.1167 17.0642C61.6145 16.2309 61.8533 15.3092 62.096 14.372L62.116 14.2948C62.9951 15.4111 63.7193 16.6357 64.3731 17.8595ZM66.963 24.0521V23.8869C66.5235 22.5303 66.0483 21.176 65.3945 19.9419C65.2514 20.4645 65.0498 20.9523 64.7644 21.4029C64.0256 22.7588 62.7452 23.2216 61.4787 23.6794C61.0351 23.8397 60.5931 23.9995 60.1767 24.1968C58.5562 25.0025 57.8875 26.5274 57.2368 28.0111L57.2368 28.0111C57.0428 28.4535 56.8504 28.8922 56.6349 29.3071C55.7862 30.7261 54.3821 31.2544 53.0168 31.7682C52.7581 31.8655 52.5007 31.9624 52.2488 32.0646C50.4059 32.8489 49.5276 34.7747 49.028 36.4856C48.458 38.4233 46.3906 39.255 44.713 39.7657C43.1208 40.2535 41.9207 41.9295 41.3507 43.3913C41.3024 43.5684 41.2771 43.7439 41.5523 43.8775C41.7293 43.9613 41.8724 43.9249 42.0393 43.736C42.5863 42.369 43.8813 41.1555 45.3194 40.8235C47.1503 40.4424 49.1821 40.0028 50.1332 38.0549C50.8819 36.3425 51.8456 34.1676 53.841 33.5256C55.7439 33.1928 57.6097 32.4686 58.8098 30.7333C59.0931 30.3059 59.3226 29.8218 59.5538 29.3341C60.1271 28.1248 60.7106 26.8939 62.15 26.4539C63.8972 26.0128 65.6689 25.5266 66.963 24.0521ZM68.2469 29.8407C67.7636 30.1836 67.2041 30.3743 66.6462 30.5644C65.7916 30.8556 64.9409 31.1456 64.3731 31.9793C64.001 32.4989 63.6847 33.0919 63.3654 33.6906L63.3654 33.6907C62.5518 35.2162 61.7185 36.7785 59.8921 37.2572C59.7568 37.2786 59.6203 37.2994 59.4829 37.3203C57.7981 37.5767 56.0025 37.8499 55.1012 39.5743C54.9734 39.8496 54.8509 40.1385 54.7263 40.4324C54.0973 41.9155 53.4147 43.525 51.7381 44.1399C51.1754 44.4124 50.5596 44.559 49.9449 44.7054C48.8187 44.9737 47.6965 45.241 46.9124 46.2792C46.2577 47.0794 45.8441 47.9387 45.4345 48.7897L45.4344 48.7898L45.4344 48.7898L45.4344 48.7899L45.4343 48.79L45.4343 48.7901L45.4342 48.7902L45.4342 48.7903L45.4341 48.7904C45.3295 49.0078 45.2251 49.2248 45.117 49.44C44.999 49.6341 44.7611 49.7189 44.547 49.6432C44.3564 49.5364 44.2916 49.2945 44.3896 49.0123C45.1739 47.0153 46.2096 44.6151 48.541 43.8538C50.1332 43.3438 52.0575 42.4521 52.6401 40.6574C52.7696 40.3619 52.8883 40.0565 53.0076 39.7492L53.0076 39.7491L53.0076 39.7491L53.0077 39.749L53.0077 39.7489L53.0077 39.7489L53.0077 39.7488L53.0078 39.7488L53.0078 39.7487L53.0078 39.7487L53.0078 39.7486L53.0079 39.7485L53.0079 39.7485L53.0079 39.7484L53.0079 39.7484L53.0079 39.7483L53.008 39.7483L53.008 39.7482L53.008 39.7481L53.008 39.7481L53.0081 39.748L53.0081 39.748L53.0081 39.7479L53.0081 39.7479L53.0082 39.7478L53.0082 39.7477C53.5029 38.4739 54.0101 37.1682 55.351 36.4041C55.945 36.043 56.6153 35.8135 57.2841 35.5845C58.5551 35.1494 59.8204 34.7162 60.5451 33.3849C60.7928 32.9035 60.976 32.3813 61.1595 31.8582C61.6016 30.598 62.0455 29.3325 63.3975 28.6185C63.8844 28.3421 64.4014 28.1416 64.9177 27.9413C65.8885 27.5648 66.8566 27.1893 67.6169 26.3124C67.6427 26.426 67.6687 26.5396 67.6948 26.6533L67.6949 26.6534C67.9331 27.6918 68.1728 28.737 68.2469 29.8407ZM67.241 38.0018C67.5609 37.2657 67.8835 36.5236 68.473 35.914L68.4509 31.897C68.1529 31.9935 67.8682 32.135 67.5939 32.3255C66.2087 33.1895 65.642 34.5151 65.0784 35.8336L65.0784 35.8337C64.8591 36.3467 64.6403 36.8586 64.3739 37.3418C63.6042 38.53 62.4472 38.9433 61.2818 39.3596C60.3955 39.6762 59.5044 39.9945 58.775 40.6567C57.877 41.4469 57.509 42.4737 57.1407 43.5016C56.7388 44.6229 56.3365 45.7455 55.2451 46.5639C54.5834 47.0307 53.8332 47.3041 53.0838 47.5771C51.8689 48.0198 50.6562 48.4617 49.8265 49.7262C49.5004 50.2683 49.2504 50.8589 49.0003 51.45C48.4661 52.712 47.931 53.9763 46.6523 54.7764C46.023 55.0688 45.3563 55.273 44.6888 55.4774C43.5912 55.8136 42.4916 56.1504 41.553 56.8809C41.4732 56.9433 41.3854 57.0059 41.2957 57.0698C40.9101 57.3448 40.4893 57.6449 40.5182 58.0573C40.6407 58.3356 40.8629 58.3308 41.0661 58.2597C42.2148 57.1853 43.5777 56.7386 45.0332 56.4145C45.7089 56.3115 46.1839 56.1922 46.8416 56.027L46.8539 56.0239C48.6869 55.3326 49.5773 53.6179 50.4187 51.9974L50.4187 51.9974L50.4188 51.9973L50.4188 51.9973L50.4188 51.9973L50.4188 51.9972C50.6465 51.5588 50.8706 51.1272 51.1088 50.7247C51.9169 49.4888 53.1547 49.1919 54.3934 48.8947C55.1216 48.7201 55.85 48.5453 56.4918 48.1798C57.8769 47.4608 58.381 46.2019 58.8855 44.9421L58.8855 44.9421C59.1559 44.2668 59.4264 43.5912 59.8328 42.9983C60.5666 41.9308 61.6901 41.7251 62.8185 41.5185C63.6998 41.3572 64.584 41.1953 65.2878 40.6219C66.3763 39.9911 66.8062 39.002 67.241 38.0018ZM66.3693 46.1354C65.9493 46.4607 65.4503 46.6245 64.9542 46.7874C64.2159 47.0298 63.484 47.27 63.0291 48.0375C62.1619 50.1294 60.9143 52.7565 58.4414 53.4095C56.695 53.6704 54.7091 54.2167 53.9841 56.1212C53.9326 56.2316 53.8805 56.3447 53.8275 56.4599C53.3332 57.5339 52.7602 58.779 51.8369 59.5894C51.4242 59.9523 51.0092 60.2069 50.3704 60.4061C49.7577 60.5958 49.2311 60.7239 48.6319 60.8417C48.144 60.9385 47.6453 61.0162 47.147 61.0938L47.1462 61.0939H47.1461L47.1461 61.094L47.1461 61.094L47.146 61.094L47.1457 61.094H47.1457L47.1457 61.094L47.1456 61.094L47.1456 61.0941L47.1455 61.0941L47.1455 61.0941L47.1455 61.0941L47.1454 61.0941L47.1454 61.0941L47.1454 61.0941L47.1453 61.0941L47.1453 61.0942L47.1453 61.0942L47.1452 61.0942L47.1452 61.0942L47.1452 61.0942C45.4428 61.3595 43.7453 61.624 42.5017 62.645C42.4326 62.7022 42.3322 62.7737 42.236 62.8423C42.1605 62.8961 42.0877 62.948 42.0345 62.9897C41.7819 63.1871 41.6103 63.3396 41.4493 63.4827C41.2827 63.6308 41.1275 63.7688 40.9056 63.936C40.6091 64.0546 40.4589 63.8696 40.3751 63.7044C40.3575 63.3768 40.6106 63.1673 40.8661 62.9559C40.9552 62.8822 41.0447 62.8082 41.123 62.7288C42.8408 60.9859 45.0018 60.4216 47.1782 59.8533C47.605 59.7419 48.0324 59.6303 48.4572 59.5096C50.8574 58.8194 51.9634 56.2287 52.6765 54.1471C53.1398 53.196 54.1383 52.4489 55.0656 52.09C56.7171 51.6749 58.4042 51.1761 59.4865 49.5839C59.9161 48.9311 60.1721 48.1733 60.4276 47.417C60.907 45.9977 61.3847 44.5835 63.0046 43.8775C63.4053 43.7231 63.8163 43.5956 64.2268 43.4682C65.5214 43.0666 66.8114 42.6663 67.7592 41.4298C67.4516 43.0576 66.929 44.6032 66.3693 46.1354ZM0.159135 102.511C0.977384 102.727 1.82805 102.861 2.6795 102.861C4.89865 102.861 6.19995 101.709 6.19916 99.9904C6.19916 98.1909 4.91989 97.7714 3.85317 97.4216L3.84639 97.4194L3.8034 97.4053C3.0546 97.1603 2.4281 96.9553 2.4281 96.3339C2.4281 95.8999 2.74512 95.5157 3.61317 95.5157C4.24123 95.5204 4.86322 95.6391 5.4489 95.8659L5.71611 94.1132C5.03147 93.9314 4.19741 93.797 3.51356 93.797C1.36081 93.797 0.125931 94.8824 0.125931 96.5498C0.125931 98.3381 1.39402 98.7547 2.46209 99.0883L2.51249 99.1051C3.24201 99.3474 3.86379 99.5539 3.86379 100.206C3.86379 100.807 3.39576 101.108 2.6123 101.108C1.86125 101.108 1.06039 100.907 0.476157 100.69L0.159135 102.511ZM12.2052 102.844C10.9031 102.844 9.86902 102.161 9.86902 100.374V95.7505H8.58354V94.0302H9.90144L10.4857 91.5438H12.1048V94.0302H14.0567V95.7505H12.1048V99.6726C12.1048 100.575 12.2716 101.092 13.0724 101.092H14.0907V102.626C13.6401 102.761 12.8732 102.844 12.2052 102.844ZM22.1847 101.609L22.4013 102.626H24.0536V97.0352C24.0536 94.8145 23.0353 93.831 20.3489 93.831C19.2975 93.831 18.1796 94.0476 17.2949 94.3978L17.5954 96.0327C18.3306 95.7157 19.1646 95.5323 20.1157 95.5323C21.417 95.5323 21.851 95.9489 21.851 97.1672V97.4004H20.9C18.1124 97.4004 16.5779 98.2203 16.5779 100.307C16.5779 101.841 17.729 102.844 19.4817 102.844C20.8162 102.844 21.617 102.293 22.1847 101.609ZM21.851 98.8559H20.6992C19.2477 98.8559 18.797 99.2559 18.797 100.074C18.797 100.79 19.2311 101.192 20.0153 101.192C20.7 101.192 21.3 100.824 21.851 100.19V98.8559ZM32.897 101.609L33.1136 102.626H34.7675V97.0352C34.7675 94.8145 33.7492 93.831 31.0621 93.831C30.0114 93.831 28.8919 94.0476 28.0089 94.3978L28.3077 96.0327C29.0429 95.7157 29.8778 95.5323 30.8288 95.5323C32.1309 95.5323 32.5642 95.9489 32.5642 97.1672V97.4004H31.6131C28.8255 97.4004 27.2894 98.2203 27.2894 100.307C27.2894 101.841 28.4405 102.844 30.194 102.844C31.5293 102.844 32.3302 102.293 32.897 101.609ZM32.5626 98.8559H31.4107C29.9592 98.8559 29.5086 99.2559 29.5086 100.074C29.5086 100.79 29.9426 101.192 30.7277 101.192C31.4115 101.192 32.0123 100.824 32.5626 100.19V98.8559ZM38.9845 100.374C38.9845 102.161 40.0193 102.844 41.3206 102.844C41.9887 102.844 42.7563 102.761 43.2069 102.626V101.092H42.1887C41.387 101.092 41.2202 100.575 41.2202 99.6726V95.7505H43.1722V94.0302H41.2202V91.5438H39.6019L39.0177 94.0302H37.6998V95.7505H38.9845V100.374ZM48.3133 102.861C47.4618 102.861 46.6112 102.727 45.7929 102.511L46.1099 100.69C46.6934 100.907 47.495 101.108 48.2461 101.108C49.0303 101.108 49.4976 100.807 49.4976 100.206C49.4976 99.5539 48.8758 99.3474 48.1463 99.1051L48.0959 99.0883C47.0278 98.7547 45.7597 98.3381 45.7597 96.5498C45.7597 94.8824 46.9946 93.797 49.1473 93.797C49.8312 93.797 50.6653 93.9314 51.3499 94.1132L51.0827 95.8659C50.497 95.6391 49.875 95.5204 49.247 95.5157C48.3789 95.5157 48.0619 95.8999 48.0619 96.3339C48.0619 96.9553 48.6884 97.1603 49.4372 97.4053L49.4802 97.4194L49.487 97.4216C50.5537 97.7714 51.8329 98.1909 51.8329 99.9904C51.8345 101.709 50.5324 102.861 48.3133 102.861ZM55.0688 102.259C56.1036 102.592 57.4049 102.827 58.59 102.827C61.7286 102.827 63.3809 100.991 63.3809 98.0709C63.3809 95.8999 62.4971 93.797 59.7917 93.797C58.79 93.797 57.9394 94.231 57.3053 94.7481V90.1097H55.0688V102.259ZM59.2905 95.6335C58.5236 95.6335 57.8058 96.1505 57.3053 96.6684V100.725C57.6888 100.926 58.2564 101.058 58.8232 101.058C60.2913 101.058 61.0274 99.8742 61.0274 98.2717C61.0282 96.7514 60.6107 95.6335 59.2905 95.6335ZM66.1646 98.4709C66.1646 101.209 67.7505 102.861 70.5538 102.861C73.441 102.861 75.0926 100.925 75.0926 98.2701C75.0926 95.6327 73.6743 93.797 70.7373 93.797C67.7671 93.797 66.1646 95.6651 66.1646 98.4709ZM70.6044 95.5671C69.1861 95.5671 68.5015 96.7688 68.5015 98.2551C68.5015 100.141 69.2526 101.092 70.7215 101.092C72.1397 101.092 72.7572 99.6726 72.7572 98.4219C72.7572 96.768 72.1224 95.5671 70.6044 95.5671ZM77.9284 102.511C78.7474 102.727 79.5981 102.861 80.4487 102.861C82.6679 102.861 83.9692 101.709 83.9692 99.9904C83.9692 98.1906 82.6895 97.7713 81.6218 97.4214L81.6156 97.4194L81.5735 97.4056C80.8243 97.1605 80.1981 96.9556 80.1981 96.3339C80.1981 95.8999 80.5144 95.5157 81.3824 95.5157C82.0105 95.5204 82.6324 95.6391 83.2181 95.8659L83.4853 94.1132C82.8015 93.9314 81.9659 93.797 81.282 93.797C79.1293 93.797 77.8944 94.8824 77.8944 96.5498C77.8944 98.3381 79.1632 98.7547 80.2305 99.0883L80.2795 99.1046C81.0104 99.3471 81.6322 99.5535 81.6322 100.206C81.6322 100.807 81.1658 101.108 80.3815 101.108C79.6297 101.108 78.8296 100.907 78.2446 100.69L77.9284 102.511ZM90.7262 102.827C89.5404 102.827 88.2391 102.592 87.2042 102.259V90.1097H89.44V94.7481C90.0748 94.231 90.9255 93.797 91.9287 93.797C94.6309 93.797 95.5156 95.8999 95.5156 98.0709C95.5164 100.991 93.8641 102.827 90.7262 102.827ZM89.44 96.6684C89.9404 96.1505 90.6583 95.6335 91.4275 95.6335C92.7462 95.6335 93.1628 96.7514 93.1628 98.2717C93.1628 99.8742 92.4292 101.058 90.9595 101.058C90.3911 101.058 89.8258 100.926 89.44 100.725V96.6684ZM106.26 98.8559H100.605C100.605 100.341 101.488 101.092 102.941 101.092C103.757 101.092 104.927 100.957 105.794 100.724L106.01 102.376C104.874 102.744 103.723 102.861 102.59 102.861C99.6851 102.861 98.3 101.442 98.3 98.4219C98.3 95.5995 99.9183 93.797 102.605 93.797C105.176 93.797 106.294 95.2991 106.294 97.821C106.294 98.1624 106.282 98.4192 106.268 98.7053L106.268 98.7057L106.26 98.8559ZM100.605 97.4012C100.654 96.3838 101.22 95.3829 102.44 95.3829C103.674 95.3829 104.108 96.2335 104.059 97.4012H100.605ZM115.236 102.625V97.5364C115.236 96.1671 114.902 95.5489 113.9 95.5489C113.116 95.5489 112.381 96.0984 111.813 96.7996V102.625H109.577V90.1089H111.813V94.8137C112.466 94.2468 113.25 93.7962 114.402 93.7962C116.486 93.7962 117.472 95.1473 117.472 97.1348V102.625H115.236ZM123.062 98.8559H128.719L128.726 98.7058C128.74 98.4195 128.753 98.1626 128.752 97.821C128.752 95.2991 127.634 93.797 125.065 93.797C122.375 93.797 120.757 95.5995 120.757 98.4219C120.757 101.442 122.142 102.861 125.048 102.861C126.183 102.861 127.333 102.744 128.468 102.376L128.253 100.724C127.385 100.957 126.216 101.092 125.399 101.092C123.946 101.092 123.062 100.341 123.062 98.8559ZM124.897 95.3829C123.678 95.3829 123.111 96.3838 123.062 97.4012H126.517C126.566 96.2335 126.132 95.3829 124.897 95.3829ZM133.838 98.8559H139.495L139.503 98.7058C139.517 98.4195 139.529 98.1626 139.529 97.821C139.529 95.2991 138.411 93.797 135.84 93.797C133.155 93.797 131.535 95.5995 131.535 98.4219C131.535 101.442 132.92 102.861 135.825 102.861C136.959 102.861 138.11 102.744 139.245 102.376L139.029 100.724C138.162 100.957 136.993 101.092 136.176 101.092C134.723 101.092 133.838 100.341 133.838 98.8559ZM135.674 95.3829C134.456 95.3829 133.889 96.3838 133.838 97.4012H137.294C137.343 96.2335 136.909 95.3829 135.674 95.3829ZM146.902 95.9331C147.183 95.9416 147.463 95.9808 147.736 96.0501L147.953 93.8642C147.769 93.8318 147.435 93.7978 147.218 93.7978C146.011 93.7978 145.378 94.6829 144.84 95.4346C144.82 95.4621 144.801 95.4894 144.781 95.5165L144.531 94.031H142.811V102.627H145.048V97.2518C145.549 96.6684 146.234 95.9331 146.902 95.9331Z" fill="#C0BAB3"/>
</g>
</g>
</svg>
