<svg width="148" height="99" viewBox="0 0 148 99" fill="none" xmlns="http://www.w3.org/2000/svg">
<g id="Group 25">
<g id="shepherd">
<g id="Group">
<path id="Shape" fill-rule="evenodd" clip-rule="evenodd" d="M138.508 69.8635C136.173 69.8635 134.338 69.0059 133.003 67.2899C131.667 65.5744 130.999 63.2832 130.999 60.4166C130.999 57.6369 131.664 55.4028 132.994 53.7141C134.324 52.0258 136.157 51.1814 138.492 51.1814C141.032 51.1814 142.829 52.0829 143.883 53.8852C143.774 52.8211 143.72 51.795 143.72 50.8067V45.0247L147.987 44.7477V69.5213H144.29L143.818 67.0782C143.633 67.3714 143.462 67.624 143.305 67.8356C143.147 68.0473 142.916 68.2918 142.612 68.5687C142.308 68.8456 141.98 69.0681 141.627 69.2365C141.274 69.4049 140.829 69.5513 140.291 69.6763C139.754 69.8009 139.159 69.8635 138.508 69.8635ZM20.0476 45.0248V69.5215L24.3149 69.5213V60.9051C24.3149 59.2982 24.4452 57.9953 24.7058 56.9961C25.0749 56.2362 25.6286 55.6145 26.3671 55.1312C27.1054 54.6483 27.9524 54.4066 28.908 54.4066C30.0263 54.4066 30.819 54.7487 31.286 55.4327C31.7528 56.1169 31.9864 57.1917 31.9864 58.6577V69.5213H36.2538V58.1851C36.2538 55.8072 35.7025 54.0455 34.6006 52.8998C33.4984 51.7543 31.9483 51.1814 29.9505 51.1814C27.5507 51.1814 25.6396 52.0284 24.2173 53.7223C24.2328 53.144 24.2491 52.5658 24.2661 51.9876C24.2987 50.8531 24.315 50.1609 24.315 49.911V44.7478L20.0476 45.0248ZM0.0463867 67.8602C2.32661 69.1851 4.90541 69.8473 7.783 69.8473C10.5084 69.8473 12.6747 69.2365 14.2813 68.0151C15.8883 66.7934 16.6919 65.0482 16.6919 62.7786C16.6919 60.8786 16.2221 59.3964 15.283 58.3321C14.3437 57.2678 12.783 56.3774 10.6004 55.6608C10.2963 55.5629 9.63387 55.3511 8.61336 55.0255C7.59255 54.6995 6.95203 54.4879 6.6914 54.39C5.37741 53.9884 4.72057 53.1252 4.72057 51.8003C4.76382 50.7253 5.11953 49.9571 5.78739 49.4956C6.45514 49.0342 7.44586 48.8034 8.75995 48.8034C10.5842 48.8034 12.5603 49.2814 14.6885 50.2367L16.0243 47.0118C13.9394 45.8286 11.4581 45.2366 8.58072 45.2366C6.03996 45.2366 4.0012 45.8229 2.46483 46.9956C0.928056 48.1685 0.160025 49.8352 0.160025 51.996C0.160025 55.0798 1.76168 57.1864 4.96499 58.3156C5.21481 58.4133 5.62468 58.5516 6.19471 58.7308C6.80356 58.9218 7.41439 59.1065 8.02711 59.2847C8.67865 59.4749 9.07485 59.5916 9.21614 59.635C11.214 60.2105 12.2131 61.2474 12.2131 62.7459C12.2131 63.8753 11.8547 64.7412 11.1381 65.3437C10.4215 65.9464 9.36262 66.2476 7.96203 66.2476C6.82187 66.2476 5.65172 66.0741 4.45208 65.7265C3.25224 65.3791 2.14187 64.923 1.12126 64.3583L0.0463867 67.8602ZM48.7301 69.8635C45.8525 69.8635 43.613 69.0357 42.0115 67.3795C40.4097 65.7239 39.6091 63.4353 39.6091 60.5142C39.6091 57.6694 40.3636 55.4055 41.873 53.7223C43.3821 52.0393 45.44 51.1923 48.046 51.1814C50.5108 51.1814 52.4247 51.9527 53.7874 53.4943C55.15 55.0363 55.8316 57.0833 55.8316 59.6348C55.8316 59.8195 55.8288 60.118 55.8234 60.5305C55.8188 60.8345 55.8161 61.1385 55.8153 61.4425H43.909C43.9523 63.1149 44.4111 64.4096 45.2853 65.3271C46.1592 66.2448 47.362 66.7033 48.8931 66.7033C50.8475 66.7033 52.7259 66.1931 54.5286 65.1724L55.1313 68.2017C53.3396 69.3098 51.206 69.8635 48.7301 69.8635ZM51.8087 58.7553H43.9905C44.0989 57.2569 44.5304 56.1277 45.2854 55.3675C46.0401 54.6076 46.9657 54.2274 48.0625 54.2274C49.2352 54.2274 50.1527 54.6183 50.8152 55.4001C51.4774 56.1819 51.8087 57.3004 51.8087 58.7553ZM59.3009 76.965V51.6214H62.9655L63.4217 54.1296C64.0081 53.1849 64.7871 52.4548 65.759 51.9389C66.7305 51.4232 67.8139 51.1652 69.0084 51.1652C70.4743 51.1652 71.7636 51.5723 72.8767 52.3869C73.9896 53.2011 74.8338 54.3116 75.4095 55.7176C75.985 57.1239 76.2727 58.712 76.2727 60.4818C76.2727 63.2507 75.6023 65.5064 74.2612 67.2493C72.9201 68.992 71.104 69.8635 68.8129 69.8635C67.6836 69.8635 66.6601 69.6379 65.7427 69.1875C64.825 68.737 64.0569 68.1264 63.438 67.3551C63.5249 68.9187 63.5682 69.7983 63.5682 69.9937V76.7531L59.3009 76.965ZM70.9058 65.01C70.1728 66.0741 69.1712 66.6061 67.9007 66.6061C66.4565 66.6061 65.3681 66.0877 64.6351 65.0504C63.9021 64.0135 63.5357 62.3875 63.5357 60.1723C63.5682 56.3285 64.9959 54.4066 67.8194 54.4066C69.1329 54.4066 70.1591 54.9116 70.8977 55.9214C71.6359 56.9313 72.0051 58.4407 72.0051 60.4494C72.0051 62.4259 71.6388 63.9458 70.9058 65.01ZM79.7583 69.5215V45.0248L84.0255 44.7478V49.911C84.0255 50.1609 84.0094 50.8531 83.9767 51.9876C83.9597 52.5658 83.9434 53.144 83.9278 53.7223C85.35 52.0284 87.2613 51.1814 89.6609 51.1814C91.6587 51.1814 93.2088 51.7543 94.3112 52.8998C95.4131 54.0455 95.9642 55.8072 95.9642 58.1851V69.5213H91.697V58.6577C91.697 57.1917 91.4632 56.1169 90.9966 55.4327C90.5296 54.7487 89.7368 54.4066 88.6185 54.4066C87.6629 54.4066 86.8159 54.6483 86.0777 55.1312C85.3392 55.6145 84.7854 56.2362 84.4163 56.9961C84.1557 57.9953 84.0254 59.2982 84.0254 60.9051V69.5213L79.7583 69.5215ZM101.722 67.3795C103.324 69.0357 105.563 69.8635 108.441 69.8635C110.917 69.8635 113.05 69.3098 114.842 68.2017L114.239 65.1724C112.436 66.1931 110.558 66.7033 108.603 66.7033C107.072 66.7033 105.87 66.2448 104.996 65.3271C104.122 64.4096 103.663 63.1149 103.62 61.4425H115.526C115.527 61.1385 115.529 60.8345 115.534 60.5305C115.539 60.118 115.542 59.8195 115.542 59.6348C115.542 57.0833 114.86 55.0363 113.498 53.4943C112.135 51.9527 110.222 51.1814 107.757 51.1814C105.151 51.1923 103.093 52.0393 101.584 53.7223C100.074 55.4055 99.3197 57.6694 99.3197 60.5142C99.3197 63.4353 100.12 65.7239 101.722 67.3795ZM103.701 58.7553H111.519C111.519 57.3004 111.188 56.1819 110.526 55.4001C109.863 54.6183 108.946 54.2274 107.773 54.2274C106.676 54.2274 105.751 54.6076 104.996 55.3675C104.241 56.1277 103.809 57.2569 103.701 58.7553ZM119.028 51.6214V69.5215H123.295V59.8141C123.295 58.3266 123.684 57.1648 124.46 56.3285C125.236 55.4926 126.412 55.0744 127.986 55.0744C128.453 55.0744 128.904 55.1069 129.338 55.172L129.403 51.6051C129.11 51.5618 128.73 51.5398 128.263 51.5398C126.037 51.5398 124.338 52.4791 123.165 54.3576L122.611 51.6214H119.028ZM143.883 60.775C143.839 64.6734 142.385 66.6223 139.518 66.6223C138.204 66.6223 137.164 66.1012 136.399 65.0587C135.633 64.0163 135.25 62.5014 135.25 60.5144C135.25 58.5166 135.633 57.0044 136.399 55.9783C137.164 54.952 138.188 54.4391 139.469 54.4391C140.935 54.4391 142.037 54.9442 142.775 55.9538C143.514 56.9639 143.883 58.571 143.883 60.775Z" fill="#C0BAB3"/>
</g>
<path id="Shape_2" fill-rule="evenodd" clip-rule="evenodd" d="M33.0652 26.8193L54.7255 45.0698L57.6836 41.5593L36.0231 23.3089C33.8728 21.4971 32.5472 18.9277 32.2906 16.0738C32.0338 13.2179 32.8868 10.4648 34.6923 8.32201C36.6763 5.96742 39.6282 4.61875 42.7958 4.61875H42.8253C46.0103 4.62712 48.9741 5.99609 50.9569 8.37465C53.6197 11.5693 53.2191 14.8577 52.7118 19.021C52.3057 22.3535 51.8456 26.1308 53.3104 29.9645C55.0409 34.4939 58.4975 38.0675 63.0433 40.0271C67.5371 41.9644 72.6563 42.0252 77.0884 40.1941L79.2096 39.3177L77.4567 35.0752L75.3354 35.9516C71.9932 37.3326 68.2731 37.283 64.8605 35.8118C61.4621 34.3468 58.8831 31.6883 57.5985 28.3263C56.54 25.5559 56.8939 22.6514 57.2686 19.5762L57.2686 19.5761C57.8067 15.1598 58.4166 10.1545 54.4829 5.43555C51.6284 2.01118 47.3838 0.0403575 42.8373 0.0283203H42.7956C38.2714 0.0283203 34.04 1.97181 31.1817 5.36404C28.5811 8.45044 27.3512 12.3998 27.7184 16.4847C28.084 20.5522 29.983 24.2225 33.0652 26.8193ZM111.186 92.6416L118.25 98.5934L121.208 95.083L114.144 89.1312L109.776 85.4509C106.477 82.6716 103.179 79.8922 99.8801 77.1128L98.125 75.6339L95.1671 79.1442L96.9222 80.6232C100.354 83.5151 103.787 86.4071 107.219 89.2989C108.542 90.4131 109.864 91.5274 111.186 92.6416Z" fill="#C0BAB3"/>
</g>
</g>
</svg>
