<svg width="399" height="56" viewBox="0 0 399 56" fill="none" xmlns="http://www.w3.org/2000/svg">
<g id="Group 9">
<path id="Fill 1" fill-rule="evenodd" clip-rule="evenodd" d="M12.724 49.6525C8.72889 47.1127 5.72149 43.1647 4.35688 38.6057C3.76593 36.6275 4.00297 34.4584 5.00873 32.6565L5.34782 32.0504L7.80215 40.2511C8.12149 41.32 9.24741 41.9278 10.3157 41.6083C11.3857 41.2871 11.9914 40.1605 11.6705 39.0915L9.21778 30.8908L9.83177 31.212C11.6622 32.164 13.0532 33.8457 13.6458 35.8238C15.0104 40.3828 14.6647 45.3339 12.724 49.6525ZM11.6951 27.6247L7.60297 25.4951L6.80461 22.8301C6.48527 21.7595 5.35935 21.1534 4.29103 21.473C3.22272 21.7925 2.61531 22.9207 2.9363 23.988L3.73301 26.6546L1.4828 30.685C-0.052999 33.4372 -0.415139 36.7461 0.486919 39.7652C2.3256 45.9071 6.64 51.1266 12.3256 54.0847L12.6268 54.2428C13.5964 54.7468 14.7898 54.3878 15.3231 53.4358L15.491 53.136C18.6137 47.5393 19.3528 40.8061 17.5141 34.6643C16.6104 31.6452 14.4902 29.0807 11.6951 27.6247Z" fill="#EFBA8D"/>
<path id="Fill 2" fill-rule="evenodd" clip-rule="evenodd" d="M393.709 40.0943C393.118 42.0724 391.728 43.7541 389.896 44.7061L389.282 45.0272L391.737 36.8265C392.056 35.7576 391.449 34.631 390.38 34.3098C389.312 33.9903 388.186 34.5981 387.865 35.667L385.412 43.8677L385.075 43.2616C384.067 41.4597 383.83 39.2905 384.421 37.3124C385.788 32.7534 388.793 28.8054 392.787 26.2656C394.729 30.5842 395.073 35.5352 393.709 40.0943ZM395.554 22.7821L395.388 22.4823C394.853 21.5303 393.661 21.1712 392.691 21.6752L392.388 21.8334C386.705 24.7915 382.39 30.011 380.553 36.1529C379.649 39.1719 380.012 42.4809 381.547 45.2331L383.798 49.2635L382.999 51.9301C382.68 52.9974 383.287 54.1256 384.354 54.4451C385.424 54.7647 386.548 54.1585 386.869 53.0879L387.667 50.423L391.76 48.2934C394.555 46.839 396.677 44.2729 397.58 41.2538C399.417 35.1119 398.68 28.3788 395.554 22.7821Z" fill="#EFBA8D"/>
<path id="Fill 3" fill-rule="evenodd" clip-rule="evenodd" d="M344.728 27.4686C344.64 27.8573 344.456 28.1241 344.17 28.2691C343.885 28.414 343.582 28.3975 343.259 28.2197C342.938 28.0418 342.696 27.7535 342.532 27.3533C342.393 26.9646 342.365 26.5742 342.453 26.1855C342.538 25.7968 342.723 25.53 343.009 25.3851C343.294 25.2385 343.592 25.2533 343.898 25.4262C344.207 25.5992 344.444 25.8858 344.609 26.286C344.772 26.6846 344.813 27.0799 344.728 27.4686ZM345.598 25.5234C345.109 24.7477 344.489 24.2173 343.737 23.9324C342.983 23.6474 342.328 23.6886 341.768 24.0526C341.207 24.4166 340.907 24.9997 340.864 25.7985C340.825 26.5989 341.057 27.3813 341.559 28.1455C342.061 28.9114 342.69 29.4352 343.442 29.7201C344.194 30.0067 344.851 29.9672 345.411 29.6032C345.972 29.2408 346.272 28.6611 346.314 27.8606C346.354 27.0618 346.117 26.2827 345.598 25.5234Z" fill="#EFBA8D"/>
<path id="Fill 4" fill-rule="evenodd" clip-rule="evenodd" d="M187.407 38.9836C186.886 39.8088 186.091 40.2271 185.027 40.2403C184.063 40.2535 183.263 39.962 182.627 39.3657C181.992 38.7711 181.63 38.1963 181.541 37.6413C181.478 37.2476 181.495 36.8045 181.588 36.3121C181.855 35.7784 182.114 35.2267 182.361 34.6436C182.467 34.3965 182.495 34.1165 182.467 33.8135C183.264 31.8897 183.941 30.0368 184.476 28.2645C184.573 28.421 184.779 28.762 185.093 29.2824C185.406 29.8029 185.618 30.1636 185.728 30.3613C185.84 30.5589 186.021 30.89 186.277 31.3577C186.532 31.8238 186.718 32.1994 186.835 32.4843C186.953 32.7693 187.096 33.1217 187.263 33.5417C187.432 33.9617 187.565 34.3702 187.664 34.7671C187.765 35.1641 187.847 35.5693 187.913 35.9827C188.1 37.1587 187.931 38.1584 187.407 38.9836ZM127.694 37.5408C126.247 40.8168 124.754 42.5067 123.22 42.6104C122.602 42.6516 122.059 42.4391 121.593 41.9697C121.124 41.5003 120.816 40.802 120.667 39.8747C120.387 38.1271 120.525 36.3038 121.083 34.4031C121.641 32.5008 122.454 30.9213 123.521 29.6629C124.589 28.4062 125.69 27.7391 126.825 27.6667C127.657 27.6123 128.347 27.7754 128.894 28.1558C129.44 28.5347 129.815 29.0848 130.02 29.8045C129.448 32.6721 128.675 35.2497 127.694 37.5408ZM85.7348 41.2994C85.0994 41.4114 84.5974 41.6897 84.2319 42.1344C83.8682 42.5775 83.7332 43.0963 83.8286 43.6909C83.8698 43.9413 83.962 44.162 84.1101 44.3547C83.1817 45.4533 82.1924 46.0561 81.1472 46.1681C80.3159 46.2554 79.5817 46.0165 78.9431 45.4483C78.306 44.8801 77.8928 44.0104 77.7019 42.8377C77.4961 41.5547 77.5258 40.2304 77.7941 38.865C78.0607 37.4996 78.4821 36.2956 79.0583 35.2547C79.6328 34.2137 80.306 33.3424 81.0714 32.6408C81.8402 31.9391 82.5974 31.5488 83.3414 31.4714C84.1151 31.3907 84.7702 31.6147 85.3068 32.1401C85.8435 32.6671 86.204 33.5022 86.3883 34.6453C86.7521 36.9001 86.5348 39.1187 85.7348 41.2994ZM56.1694 51.8389C54.655 52.0333 53.2295 51.7977 51.8961 51.1307C50.5628 50.4653 49.72 49.505 49.3727 48.2467C49.32 48.11 49.3381 47.9963 49.4254 47.9057C49.5126 47.8135 49.6361 47.8036 49.7924 47.8794C52.6566 49.4194 56.0245 50.1721 59.9011 50.149C58.7719 51.101 57.5291 51.6643 56.1694 51.8389ZM54.7883 36.3813C53.5587 36.541 52.8887 36.2874 52.7817 35.6187C52.655 34.838 53.4138 34.3405 55.0583 34.1264C56.5579 33.9321 57.878 34.0589 59.0138 34.5053C57.6393 35.5693 56.2319 36.1951 54.7883 36.3813ZM36.0262 25.4662C35.3529 27.4443 34.4706 29.1457 33.3809 30.5737C32.2896 32.0017 31.1735 32.8022 30.0328 32.9768C29.4764 33.0608 29.0007 32.9356 28.6007 32.5996C28.204 32.262 27.9521 31.7678 27.8451 31.1156C27.5998 29.5937 27.8961 28.0093 28.7307 26.3605C29.5669 24.7118 30.757 23.2805 32.2994 22.07C33.8418 20.8594 35.4928 20.0457 37.2509 19.6307C37.1077 21.5445 36.6994 23.4897 36.0262 25.4662ZM146.278 28.3683C147.378 27.0589 148.48 26.3803 149.587 26.3309C150.436 26.293 150.912 26.5994 151.015 27.2467C151.2 28.4013 150.657 29.5213 149.383 30.6116C148.11 31.7036 146.332 32.5716 144.048 33.2255C144.434 31.2968 145.177 29.6777 146.278 28.3683ZM198.194 32.4168C197.822 32.1137 197.412 31.9638 196.968 31.9638C196.578 31.9655 196.268 32.1088 196.033 32.3954C195.799 32.6836 195.556 33.13 195.307 33.7344C194.444 35.7274 193.277 37.3958 191.809 38.7431C192.128 37.7697 192.207 36.7749 192.044 35.757C191.883 34.7391 191.544 33.6669 191.024 32.542C190.507 31.4154 189.972 30.4288 189.419 29.5822C188.866 28.7356 188.262 27.7869 187.603 26.7344C186.947 25.6836 186.451 24.8024 186.122 24.0909C186.965 21.7883 187.322 20.2335 187.192 19.4231C187.095 18.8038 186.812 18.3015 186.346 17.9161C185.881 17.5323 185.282 17.3445 184.55 17.3544C183.671 17.366 182.947 17.9013 182.372 18.9603C181.801 20.0194 181.636 21.3189 181.883 22.8589L181.993 23.549C180.902 27.9104 179.802 31.366 178.696 33.9173C178.189 35.0883 177.847 35.9629 177.666 36.5394C177.658 36.5624 177.658 36.5822 177.649 36.6069C176.272 39.2208 174.961 40.5565 173.723 40.5845C173.365 40.5928 173.052 40.4445 172.787 40.1398C172.522 39.8368 172.346 39.4069 172.257 38.8518C172.117 37.9805 172.17 36.9808 172.416 35.8525C172.66 34.7243 172.963 33.7015 173.32 32.7874C173.679 31.8716 173.982 30.8471 174.226 29.7107C174.471 28.5758 174.522 27.5629 174.379 26.6768C174.181 25.4398 173.644 24.4483 172.767 23.7055C171.891 22.9627 170.841 22.6069 169.618 22.6382C168.54 22.6662 167.414 23.1883 166.24 24.2013C165.067 25.2142 163.957 26.517 162.91 28.1114L163.248 26.4297C163.504 25.5947 163.611 25.0413 163.569 24.7728C163.491 24.282 163.262 23.8784 162.887 23.5655C162.512 23.2509 162.059 23.1027 161.526 23.1208C160.42 23.157 159.712 23.8834 159.402 25.2933C158.69 28.5577 158.085 31.669 157.569 34.6601C156.741 36.5987 155.587 38.1206 154.094 39.2093C152.56 40.3293 150.757 40.9354 148.688 41.0276C147.48 41.082 146.443 40.802 145.577 40.1827C144.711 39.5634 144.183 38.6707 143.995 37.5013C143.909 36.9643 143.863 36.5855 143.857 36.3631C147.427 35.5973 150.301 34.3702 152.48 32.6638C154.658 30.9575 155.6 29.1754 155.3 27.3093C155.086 25.9817 154.459 24.9704 153.415 24.282C152.372 23.5918 151.009 23.2838 149.327 23.358C148.048 23.4156 146.76 23.8373 145.46 24.6229C144.16 25.4102 143.007 26.4297 142.006 27.6831C141.006 28.9349 140.255 30.4716 139.758 32.2883C139.465 33.3573 139.328 34.4443 139.313 35.5445C137.504 39.8681 135.829 42.0867 134.29 42.1756C133.918 42.197 133.578 42.0257 133.272 41.6617C132.968 41.2977 132.759 40.7624 132.643 40.0525C132.411 38.6031 132.805 35.2283 133.824 29.933C134.286 27.2961 134.953 24.1387 135.825 20.4608C136.996 17.3709 137.494 15.2742 137.315 14.1707C137.244 13.7293 137.039 13.3702 136.696 13.0951C136.355 12.8201 135.934 12.6965 135.432 12.7245C134.9 12.7558 134.405 12.9716 133.947 13.3718C133.49 13.7721 133.162 14.3518 132.966 15.1111C131.988 19.4034 131.2 23.2147 130.604 26.545C129.524 25.1467 128.128 24.5027 126.42 24.613C124.425 24.7431 122.553 25.5831 120.805 27.1297C119.058 28.6763 117.735 30.6297 116.836 32.9883C116.306 34.3834 116.023 35.7685 115.936 37.1488C114.146 41.4311 112.467 43.653 110.902 43.7766C110.545 43.8062 110.232 43.6744 109.967 43.3862C109.704 43.0963 109.526 42.678 109.439 42.1278C109.299 41.2631 109.351 40.2601 109.595 39.1187C109.842 37.9773 110.143 36.938 110.5 36.0024C110.859 35.0686 111.16 34.026 111.402 32.8763C111.648 31.7267 111.699 30.7137 111.557 29.8325C111.36 28.6071 110.823 27.6469 109.947 26.9518C109.073 26.2584 108.026 25.9603 106.806 26.0608C105.732 26.1497 104.607 26.7344 103.435 27.8133C102.263 28.8921 101.159 30.2591 100.115 31.9111L100.453 30.2097C100.708 29.3598 100.815 28.8015 100.77 28.5347C100.693 28.0471 100.467 27.6584 100.092 27.3653C99.7184 27.0721 99.264 26.9485 98.734 26.9963C97.6295 27.0968 96.9233 27.861 96.6171 29.2907C95.9027 32.5963 95.3019 35.7438 94.785 38.7678C93.6147 41.53 92.0854 43.0107 90.1908 43.1951C89.9192 43.2215 89.5768 43.2231 89.1653 43.2001C90.757 40.1629 91.32 37.1965 90.8525 34.2977C90.5118 32.1829 89.6443 30.5951 88.2517 29.541C86.8575 28.4853 85.0797 28.0685 82.9151 28.2925C81.5422 28.4375 80.199 28.9613 78.8871 29.8655C77.5768 30.7714 76.4476 31.8947 75.4978 33.2337C74.5463 34.5711 73.8418 36.1309 73.3776 37.9097C73.1093 38.9391 72.9809 39.962 72.9628 40.9798C71.8468 43.2742 69.8928 44.8274 67.0928 45.6427C67.6673 43.602 67.7875 41.5514 67.455 39.4893C67.1142 37.381 66.1891 35.589 64.683 34.1149C66.4575 32.1038 67.771 29.8045 68.6221 27.2137C69.4714 24.6229 69.697 22.0963 69.2986 19.6274C68.9052 17.1914 67.9702 15.3813 66.497 14.2053C65.0237 13.0276 63.1142 12.5813 60.7686 12.8728C56.3653 13.4196 51.9686 17.725 47.5784 25.7874C47.59 24.5933 47.5241 23.5589 47.3842 22.686C47.1126 21.0043 46.4361 19.5944 45.3628 18.453C44.2879 17.3133 42.9529 16.5605 41.3612 16.1982C41.3513 16.1356 41.3431 16.073 41.3315 16.0104C41.0846 14.4853 40.6023 13.334 39.8846 12.5533C39.1669 11.7725 38.4015 11.4415 37.5883 11.5601C37.0896 11.6325 36.6846 11.8631 36.3752 12.2502C36.0657 12.6373 35.9455 13.0573 36.0196 13.5085C36.0509 13.6947 36.1826 13.9302 36.4179 14.2135C36.6649 14.5594 36.8904 15.2264 37.0928 16.2163C35.2953 16.5737 33.5208 17.2869 31.7628 18.3558C30.0081 19.4248 28.497 20.6667 27.2262 22.0815C25.9587 23.4947 24.9826 25.0528 24.3011 26.7525C23.6196 28.4507 23.4007 30.0615 23.6476 31.5817C23.9554 33.4907 24.7126 34.8857 25.9159 35.7718C27.1175 36.658 28.6385 36.9594 30.4789 36.681C31.776 36.4834 33.0632 35.8394 34.3422 34.7507C35.6179 33.662 36.7373 32.3328 37.6937 30.7615C38.6517 29.1902 39.4649 27.4608 40.1299 25.5749C40.7965 23.689 41.2179 21.8525 41.3957 20.0605C42.3636 20.7177 42.9743 21.8328 43.2295 23.4057C43.5389 25.3196 43.241 28.8064 42.3373 33.8678C42.0081 35.7125 41.5735 37.6989 41.0336 39.8285C40.4953 41.9582 40.0607 43.5806 39.7299 44.694C38.8278 47.0674 38.1875 48.9664 37.804 50.3911C37.4204 51.8158 37.2887 52.893 37.4072 53.6243C37.5142 54.2914 37.7809 54.8069 38.204 55.1676C38.627 55.5267 39.1389 55.6634 39.7381 55.5777C40.3225 55.4937 40.8031 55.1462 41.1801 54.5368C41.557 53.9257 41.911 52.8897 42.2418 51.4255C43.1488 47.3671 44.1414 43.3928 45.2196 39.5024C45.7694 37.4848 46.3373 35.7521 46.9184 34.3043C47.5027 32.8549 48.278 31.2293 49.2393 29.429C50.385 27.301 51.59 25.3427 52.8558 23.5523C54.1184 21.7636 55.4945 20.2038 56.9809 18.8763C58.4657 17.5488 59.8155 16.8109 61.0319 16.6594C61.9752 16.5424 62.7752 16.7829 63.4352 17.3791C64.092 17.9754 64.5233 18.906 64.7274 20.1693C65.0418 22.121 64.897 24.1601 64.2928 26.2864C63.6887 28.4111 62.7505 30.3168 61.4764 32.0017C59.3579 31.086 57.0122 30.7928 54.441 31.1271C52.6978 31.3544 51.32 31.9358 50.311 32.8664C49.3019 33.797 48.8953 34.8791 49.0945 36.1095C49.2871 37.2921 49.9307 38.193 51.0303 38.809C52.1299 39.4267 53.5949 39.6161 55.4237 39.3789C57.6821 39.0874 59.8517 38.193 61.9274 36.6958C62.5776 37.5556 63.0089 38.641 63.2212 39.9504C63.5949 42.2761 63.3513 44.4617 62.4854 46.509C62.4723 46.5123 62.4575 46.514 62.4426 46.5156C60.2978 46.7775 58.0558 46.6951 55.7167 46.2636C53.3776 45.8337 51.6031 45.2095 50.39 44.386C49.371 43.6794 48.3669 43.3928 47.3826 43.5262C46.6385 43.6283 46.1035 43.9676 45.7727 44.5474C45.4435 45.1255 45.3661 45.9605 45.5422 47.0493C46.0262 50.0387 47.3134 52.2638 49.404 53.7314C51.4978 55.2006 53.9422 55.7523 56.7439 55.3933C58.4459 55.1758 60.0575 54.5434 61.5817 53.4975C63.1027 52.4483 64.3768 51.1257 65.4007 49.5215C68.2682 48.9384 70.5875 48.0062 72.3603 46.7149C72.8789 46.3377 73.3447 45.9161 73.7859 45.4714C74.2682 46.5667 74.9332 47.4709 75.8369 48.1264C77.297 49.1904 79.0731 49.6104 81.1653 49.3881C83.427 49.1493 85.4517 48.0177 87.2361 45.9935C88.1661 46.1549 89.1587 46.1845 90.2204 46.0808C91.5538 45.9507 92.7636 45.5422 93.85 44.8587C93.8352 44.9575 93.8204 45.0645 93.8056 45.1634C93.7595 45.5982 93.7628 45.9869 93.8204 46.3311C93.9126 46.9109 94.1447 47.3358 94.5151 47.6027C94.8854 47.8711 95.3019 47.9831 95.7595 47.9403C96.8064 47.8431 97.4007 47.1613 97.5455 45.8914C97.7694 44.1208 98.1776 42.2761 98.7702 40.3605C99.3644 38.4467 100.015 36.8836 100.722 35.6763C101.669 33.97 102.658 32.4991 103.687 31.2655C104.718 30.0302 105.662 29.3796 106.522 29.3071C107.083 29.261 107.401 29.4817 107.48 29.9693C107.592 30.6594 107.524 31.5488 107.277 32.6358C107.03 33.7213 106.731 34.7523 106.378 35.729C106.028 36.7057 105.74 37.7961 105.511 39.0001C105.284 40.2041 105.241 41.2467 105.383 42.1262C105.629 43.6645 106.242 44.8307 107.221 45.6262C108.201 46.4201 109.406 46.7594 110.841 46.6457C112.607 46.5074 114.222 45.5834 115.692 43.8754C116.076 43.4274 116.446 42.9431 116.801 42.4325C117.198 43.2347 117.712 43.9116 118.364 44.442C119.593 45.4434 121.067 45.8831 122.79 45.7662C125.017 45.6147 126.997 44.0862 128.734 41.1758C129.119 42.4869 129.812 43.4784 130.811 44.1488C131.812 44.8208 132.943 45.1189 134.209 45.0448C135.085 44.9937 135.899 44.7878 136.653 44.4288C137.407 44.0681 138.064 43.6267 138.624 43.1029C139.185 42.5791 139.732 41.9005 140.265 41.0704C140.336 40.9601 140.392 40.8563 140.459 40.7476C140.948 41.5761 141.592 42.2678 142.393 42.8213C143.99 43.9248 146.097 44.4156 148.713 44.297C151.672 44.1636 154.192 43.2973 156.271 41.6897C156.374 41.6107 156.462 41.5118 156.564 41.4278C156.556 41.6947 156.563 41.9483 156.599 42.1789C156.693 42.7636 156.925 43.2017 157.297 43.49C157.669 43.7782 158.085 43.9133 158.545 43.8968C159.595 43.8589 160.191 43.21 160.336 41.9467C160.56 40.1893 160.969 38.3693 161.564 36.4867C162.158 34.6041 162.811 33.0789 163.519 31.9111C164.467 30.2575 165.46 28.8427 166.492 27.6667C167.524 26.4907 168.472 25.8911 169.335 25.8681C169.895 25.8533 170.216 26.0921 170.295 26.5829C170.405 27.2813 170.337 28.1657 170.089 29.238C169.844 30.3102 169.542 31.3248 169.192 32.2817C168.84 33.2387 168.548 34.3125 168.319 35.505C168.092 36.6958 168.049 37.7351 168.191 38.6229C168.44 40.1761 169.055 41.3768 170.035 42.225C171.016 43.0749 172.224 43.4817 173.663 43.4504C175.432 43.4093 177.05 42.5775 178.523 40.9502C178.607 40.8547 178.686 40.7427 178.772 40.6438C179.131 41.049 179.534 41.4361 180.04 41.7836C181.496 42.785 183.378 43.2676 185.677 43.2396C188.425 43.2067 191.009 42.398 193.434 40.8085C195.858 39.2224 197.625 37.1274 198.734 34.5168C198.871 34.1973 198.91 33.8711 198.858 33.5368C198.787 33.0921 198.565 32.7182 198.194 32.4168Z" fill="#EFBA8D"/>
<path id="Fill 5" fill-rule="evenodd" clip-rule="evenodd" d="M215.786 13.6544C215.114 15.5222 214.229 17.0819 213.129 18.3337C212.028 19.5855 210.889 20.2048 209.71 20.1949C209.149 20.1883 208.668 19.9857 208.267 19.5855C207.865 19.1836 207.61 18.6483 207.505 17.9796C207.254 16.4182 207.557 14.8815 208.408 13.3678C209.258 11.8542 210.463 10.6172 212.018 9.65535C213.572 8.69347 215.23 8.14665 216.986 8.01653C216.858 9.90735 216.458 11.7866 215.786 13.6544ZM247.695 8.229C247.496 6.96241 247.08 5.95276 246.446 5.20335C245.812 4.45229 245.144 4.06194 244.44 4.03394C243.867 4.01088 243.391 4.21182 243.014 4.63347C242.637 5.05676 242.487 5.50147 242.561 5.96594C242.591 6.157 242.678 6.44029 242.823 6.81088C242.968 7.18312 243.075 7.59324 243.146 8.04123C243.598 10.8906 243.426 14.0876 242.629 17.6288C241.832 21.1699 240.578 24.5711 238.866 27.8372C236.782 31.8396 234.644 34.9558 232.451 37.1909C230.258 39.4243 228.212 40.5212 226.314 40.4751C225.281 40.4504 224.382 40.1194 223.621 39.4836C222.861 38.8445 222.392 37.9683 222.214 36.8499C221.987 35.4137 222.051 33.8605 222.408 32.1888C222.767 30.517 223.263 28.8996 223.896 27.3382C224.53 25.7768 225.16 24.2038 225.789 22.6194C226.42 21.0349 226.907 19.3681 227.253 17.6172C227.598 15.8681 227.648 14.2177 227.402 12.6678C227.123 10.9104 226.428 9.37371 225.317 8.05935C224.204 6.74335 222.807 5.78971 221.121 5.20006C221.114 5.15229 221.106 5.10453 221.1 5.05676C220.849 3.49206 220.364 2.26171 219.643 1.36571C218.919 0.468059 218.148 0.0134706 217.328 0.000294118C216.825 -0.00794118 216.416 0.156765 216.104 0.494412C215.791 0.832059 215.672 1.23229 215.747 1.69512C215.776 1.88618 215.909 2.14312 216.148 2.46429C216.395 2.84971 216.622 3.55465 216.828 4.57582C215.017 4.64335 213.225 5.06829 211.455 5.85394C209.686 6.63794 208.16 7.63606 206.881 8.845C205.6 10.0539 204.616 11.4539 203.928 13.0417C203.24 14.6295 203.017 16.2057 203.267 17.7655C203.579 19.7255 204.342 21.2424 205.556 22.3245C206.769 23.405 208.311 23.9518 210.181 23.9699C211.49 23.9831 212.788 23.5483 214.076 22.6671C215.363 21.7843 216.491 20.6346 217.457 19.2182C218.421 17.8017 219.236 16.2057 219.9 14.4269C220.563 12.6497 220.984 10.8775 221.164 9.11512C222.112 9.94688 222.701 11.0801 222.93 12.5179C223.152 13.9229 223.081 15.4563 222.714 17.1198C222.347 18.7834 221.84 20.3958 221.192 21.9589C220.545 23.5219 219.898 25.0883 219.251 26.6612C218.606 28.2342 218.105 29.8911 217.75 31.6354C217.398 33.3812 217.34 35.0118 217.582 36.5271C217.951 38.8577 218.928 40.7386 220.512 42.1765C222.095 43.6144 223.959 44.3589 226.102 44.4083C229.179 44.4824 232.132 43.3163 234.961 40.9083C237.791 38.4986 240.4 35.0036 242.788 30.4182C244.724 26.6744 246.156 22.8664 247.086 18.9909C248.013 15.117 248.217 11.5281 247.695 8.229Z" fill="#EFBA8D"/>
<path id="Fill 6" fill-rule="evenodd" clip-rule="evenodd" d="M363.649 51.0165C363.129 51.7593 362.341 52.0525 361.284 51.8993C360.329 51.7593 359.536 51.3426 358.905 50.6475C358.273 49.9525 357.916 49.32 357.827 48.7501C357.7 47.9365 357.893 46.9696 358.403 45.8496C359.353 43.7727 360.132 41.7682 360.739 39.8362C360.836 40.0092 361.04 40.3814 361.351 40.9513C361.663 41.5212 361.873 41.9148 361.982 42.1306C362.094 42.3447 362.275 42.7054 362.527 43.2127C362.78 43.7184 362.965 44.1235 363.08 44.4282C363.198 44.7313 363.34 45.1068 363.505 45.5532C363.672 45.9995 363.804 46.4294 363.903 46.8412C364.002 47.2529 364.084 47.6713 364.15 48.0946C364.334 49.3002 364.168 50.2736 363.649 51.0165ZM343.323 44.5336C341.883 47.5313 340.398 48.9329 338.869 48.7419C338.253 48.6645 337.717 48.3466 337.259 47.7899C336.8 47.2315 336.497 46.4739 336.349 45.5169C336.066 43.6986 336.202 41.8934 336.759 40.0998C337.315 38.3078 338.122 36.8864 339.179 35.8421C340.235 34.7979 341.328 34.3466 342.459 34.4915C343.289 34.5986 343.974 34.8951 344.519 35.3793C345.063 35.8652 345.437 36.4861 345.638 37.2454C345.072 40.0026 344.3 42.4336 343.323 44.5336ZM277.047 41.6167C276.523 42.4007 275.732 42.7548 274.668 42.684C273.707 42.6181 272.909 42.264 272.273 41.6167C271.64 40.9711 271.277 40.3682 271.188 39.8049C271.118 39.3536 271.159 38.8414 271.291 38.2781C271.518 37.8235 271.748 37.364 271.964 36.8715C272.059 36.6591 272.086 36.412 272.074 36.1468C272.889 34.2527 273.575 32.4212 274.119 30.6638C274.216 30.8285 274.421 31.1842 274.734 31.7311C275.049 32.2779 275.261 32.6534 275.371 32.8609C275.481 33.0668 275.664 33.4127 275.918 33.9002C276.171 34.3861 276.359 34.7781 276.476 35.0729C276.593 35.3678 276.734 35.7318 276.904 36.1633C277.07 36.5981 277.203 37.0165 277.302 37.4216C277.401 37.8268 277.483 38.2386 277.549 38.6569C277.738 39.8461 277.569 40.8327 277.047 41.6167ZM256.805 36.7315C255.358 39.8395 253.865 41.3565 252.328 41.284C251.709 41.256 251.17 40.9793 250.709 40.4572C250.249 39.9334 249.944 39.2005 249.794 38.2551C249.509 36.4598 249.648 34.6447 250.206 32.8066C250.765 30.9701 251.575 29.4878 252.639 28.3612C253.7 27.2346 254.8 26.6976 255.934 26.7569C256.767 26.7981 257.458 27.0402 258.005 27.4833C258.553 27.9247 258.928 28.5176 259.131 29.2621C258.561 32.0638 257.786 34.5525 256.805 36.7315ZM303.057 31.8842C304.155 30.7296 305.256 30.2042 306.36 30.3096C307.207 30.392 307.681 30.7642 307.784 31.4264C307.969 32.6056 307.427 33.6515 306.156 34.564C304.889 35.4765 303.114 36.0958 300.835 36.4318C301.218 34.5558 301.96 33.0388 303.057 31.8842ZM374.341 46.1461C373.972 45.7871 373.567 45.5713 373.126 45.5021C372.741 45.4428 372.433 45.5367 372.199 45.7871C371.967 46.0374 371.727 46.4459 371.481 47.0125C370.626 48.8687 369.47 50.3527 368.013 51.4678C368.331 50.5454 368.408 49.5638 368.249 48.5195C368.086 47.4769 367.75 46.352 367.236 45.1447C366.723 43.9374 366.191 42.8652 365.643 41.9329C365.095 40.9991 364.495 39.9548 363.842 38.8002C363.19 37.644 362.7 36.6854 362.374 35.9212C363.208 33.7536 363.562 32.2532 363.434 31.4231C363.338 30.7873 363.058 30.2405 362.596 29.7826C362.135 29.3264 361.541 29.0431 360.812 28.9376C359.942 28.8108 359.223 29.2325 358.654 30.2009C358.084 31.1711 357.923 32.4442 358.166 34.0221C358.202 34.2593 358.239 34.4948 358.275 34.7304C357.274 38.6042 356.268 41.6925 355.251 44.0165C355.159 44.1861 355.067 44.3607 354.974 44.5748C353.139 48.6958 351.444 50.6508 349.888 50.44C349.516 50.3889 349.179 50.1534 348.874 49.7301C348.571 49.3068 348.364 48.7304 348.25 47.9991C348.071 46.8461 348.107 45.5136 348.354 44.0033C348.602 42.4929 349.037 40.5379 349.659 38.1398C350.515 36.0744 350.897 34.7584 350.808 34.1901C350.731 33.6861 350.517 33.2546 350.17 32.8972C349.821 32.5398 349.388 32.3256 348.872 32.2565C348.344 32.1856 347.852 32.3471 347.396 32.7391C346.938 33.1327 346.626 33.6911 346.459 34.4174C345.368 32.6188 343.901 31.5976 342.058 31.3605C340.57 31.1711 339.129 31.4148 337.733 32.0934C336.337 32.7704 335.154 33.7273 334.183 34.9626C333.208 36.1979 332.489 37.6885 332.023 39.4311C331.83 40.1475 331.719 40.8722 331.654 41.6002C330.877 43.3329 330.051 44.7198 329.175 45.7558C328.291 46.7984 327.426 47.2711 326.579 47.1739C325.794 47.0849 325.307 46.4492 325.124 45.2666C324.983 44.3591 325.027 43.3873 325.259 42.3464C325.49 41.3054 325.786 40.4012 326.143 39.6287C326.502 38.8579 326.805 38.0096 327.055 37.084C327.304 36.1583 327.373 35.3299 327.259 34.6002C327.188 34.1473 327.04 33.7207 326.816 33.3205C326.593 32.9219 326.273 32.5381 325.857 32.1741C325.442 31.8068 325.072 31.5071 324.746 31.2715C324.421 31.036 323.962 30.7264 323.366 30.3409C322.772 29.9572 322.349 29.6805 322.099 29.5092C322.711 27.8424 322.956 26.6202 322.835 25.8428C322.737 25.2268 322.477 24.7047 322.051 24.2765C321.626 23.8466 321.091 23.5979 320.448 23.5287C319.616 23.4381 318.9 23.9059 318.301 24.932C317.7 25.9581 317.526 27.2807 317.779 28.8981C317.816 29.1336 317.852 29.3675 317.888 29.6031C316.938 33.1525 315.784 36.4614 314.43 39.5365C314.418 39.5628 314.407 39.5809 314.393 39.6073C313.564 41.5113 312.384 42.9146 310.854 43.8188C309.323 44.7247 307.528 45.0772 305.462 44.8812C304.26 44.7675 303.225 44.3409 302.36 43.5998C301.495 42.8602 300.97 41.8934 300.782 40.6993C300.696 40.1492 300.65 39.7638 300.644 39.5398C304.206 39.2746 307.073 38.4494 309.244 37.0478C311.419 35.6461 312.356 33.9974 312.056 32.0885C311.844 30.7296 311.218 29.6327 310.178 28.796C309.137 27.9609 307.779 27.4619 306.102 27.3021C304.826 27.1802 303.539 27.4207 302.242 28.0252C300.945 28.6313 299.798 29.4894 298.798 30.6012C297.798 31.7146 297.05 33.1459 296.551 34.8918C296.262 35.9179 296.125 36.9852 296.11 38.0821C295.906 38.5416 295.705 38.9831 295.505 39.3882C293.926 42.5819 292.44 44.1252 291.05 44.0115C289.933 43.9193 289.253 43.1089 289.011 41.5788C288.617 39.0704 289.208 34.8308 290.784 28.8701C291.835 28.9558 292.887 29.0431 293.937 29.132C294.41 29.1715 294.767 29.0711 295.006 28.8289C295.124 28.7087 295.203 28.5539 295.243 28.3694C295.294 28.1734 295.304 27.9494 295.263 27.6793C295.2 27.2758 295.009 26.9332 294.686 26.6515C294.367 26.3699 293.97 26.2085 293.498 26.1689C292.866 26.1146 292.235 26.0635 291.603 26.0108C291.941 24.9007 292.275 23.7906 292.611 22.6805C293.432 20.6958 293.794 19.4061 293.702 18.8099C293.621 18.2927 293.389 17.8612 293.011 17.5104C292.629 17.1595 292.166 16.9619 291.621 16.9174C290.782 16.8482 290.018 17.5647 289.33 19.0668C289.093 19.5758 288.866 20.1736 288.649 20.8671C288.147 22.4614 287.643 24.0558 287.141 25.6518C286.298 25.5859 285.454 25.52 284.607 25.4558C283.811 25.3948 283.356 25.6254 283.241 26.1459C283.193 26.3287 283.18 26.5395 283.221 26.7965C283.378 27.7946 283.987 28.3348 285.05 28.4155C285.501 28.4501 285.954 28.4847 286.405 28.5193C285.526 32.0506 284.993 34.9609 284.793 37.2685C283.947 39.0654 282.835 40.5576 281.44 41.7271C281.76 40.78 281.839 39.7918 281.676 38.7607C281.514 37.7313 281.174 36.6311 280.657 35.4633C280.142 34.2972 279.605 33.2678 279.054 32.3767C278.502 31.4856 277.898 30.4892 277.243 29.384C276.584 28.2805 276.092 27.3598 275.763 26.6202C276.604 24.3868 276.961 22.86 276.831 22.0398C276.733 21.4122 276.451 20.8868 275.987 20.4652C275.524 20.0435 274.925 19.808 274.193 19.7586C273.317 19.7009 272.594 20.1769 272.021 21.1915C271.447 22.2045 271.286 23.4925 271.531 25.0506C271.567 25.2828 271.603 25.5167 271.64 25.7506C270.55 30.0247 269.454 33.3929 268.347 35.8553C267.875 36.9127 267.551 37.7115 267.363 38.2715C265.956 40.8969 264.637 42.1965 263.404 42.1256C263.03 42.1042 262.691 41.8934 262.385 41.4948C262.081 41.0962 261.872 40.5346 261.758 39.8132C261.577 38.6718 261.613 37.3376 261.862 35.8075C262.112 34.2774 262.55 32.2894 263.174 29.8435C264.033 27.7122 264.42 26.3649 264.331 25.8033C264.252 25.3059 264.036 24.8908 263.686 24.5614C263.337 24.2304 262.902 24.0492 262.384 24.0212C261.852 23.9915 261.356 24.1892 260.897 24.6191C260.44 25.0473 260.123 25.6304 259.957 26.3699C258.859 24.6553 257.384 23.7494 255.531 23.6572C254.036 23.5814 252.588 23.9372 251.187 24.7245C249.784 25.5101 248.594 26.5593 247.616 27.8704C246.639 29.1814 245.918 30.7264 245.447 32.5052C244.979 34.284 244.887 36.0628 245.167 37.8416C245.485 39.8445 246.255 41.4141 247.478 42.5572C248.7 43.7002 250.173 44.3096 251.898 44.392C254.125 44.4958 256.109 43.1946 257.847 40.4835C258.232 41.8407 258.925 42.9129 259.924 43.6986C260.925 44.4842 262.056 44.9125 263.32 44.9849C265.088 45.0871 266.696 44.3871 268.143 42.8849C268.235 42.7878 268.321 42.6741 268.413 42.5736C268.772 43.0118 269.179 43.4367 269.691 43.8271C271.146 44.9454 273.022 45.5795 275.32 45.7344C278.063 45.9205 280.642 45.3193 283.062 43.9242C283.842 43.4746 284.528 42.9459 285.17 42.3793C285.536 43.5141 286.094 44.4529 286.864 45.1826C287.937 46.1972 289.3 46.7704 290.95 46.9054C292.714 47.0504 294.331 46.3866 295.796 44.9141C296.28 44.4282 296.737 43.8682 297.179 43.2736C297.676 44.2405 298.334 45.0871 299.184 45.7953C300.779 47.1228 302.879 47.9068 305.488 48.1539C308.441 48.4355 310.951 47.9216 313.024 46.604C314.81 45.4692 316.219 43.8353 317.294 41.7567C317.47 41.5047 317.648 41.2 317.817 40.7915C319.134 37.7642 320.216 34.8176 321.063 31.9501C321.393 32.1609 321.643 32.3322 321.819 32.4624C321.993 32.5925 322.199 32.7588 322.435 32.9598C322.67 33.1607 322.846 33.3633 322.963 33.5675C323.08 33.7701 323.156 33.9941 323.193 34.2362C323.286 34.8209 323.208 35.5687 322.963 36.4795C322.718 37.392 322.426 38.2534 322.089 39.0687C321.753 39.8824 321.473 40.8228 321.253 41.8885C321.03 42.9541 320.991 43.9341 321.129 44.8235C321.376 46.4113 321.988 47.6944 322.965 48.6776C323.941 49.6609 325.144 50.2341 326.578 50.3972C328.718 50.6409 330.681 49.5802 332.472 47.2678C332.867 48.1704 333.383 48.9675 334.043 49.6395C335.259 50.8765 336.728 51.6012 338.443 51.8153C340.658 52.092 342.63 50.9456 344.359 48.3696C344.744 49.7548 345.432 50.8798 346.426 51.7428C347.422 52.6059 348.547 53.1231 349.804 53.2927C351.56 53.5315 353.16 52.9551 354.601 51.5649C354.726 51.4431 354.843 51.2965 354.966 51.168C355.343 51.6835 355.781 52.1842 356.337 52.6569C357.784 53.8873 359.648 54.6664 361.933 55.0007C364.657 55.4009 367.221 54.9974 369.625 53.7918C372.028 52.5845 373.778 50.7694 374.876 48.3318C375.011 48.0353 375.053 47.7158 375.001 47.3732C374.93 46.9153 374.711 46.5068 374.341 46.1461Z" fill="#EFBA8D"/>
<path id="Fill 7" fill-rule="evenodd" clip-rule="evenodd" d="M253.64 17.8058C253.256 17.6922 252.92 17.7383 252.635 17.9475C252.349 18.155 252.196 18.4614 252.174 18.8698C252.155 19.2767 252.272 19.6637 252.528 20.0327C252.785 20.4 253.106 20.6404 253.49 20.7541C253.873 20.8677 254.209 20.8216 254.494 20.6141C254.779 20.4066 254.933 20.1002 254.955 19.6917C254.976 19.2849 254.853 18.8995 254.589 18.5355C254.339 18.1616 254.023 17.9195 253.64 17.8058Z" fill="#EFBA8D"/>
<path id="Fill 8" fill-rule="evenodd" clip-rule="evenodd" d="M259.363 18.7815C259.114 18.4076 258.797 18.1622 258.413 18.0469C258.03 17.9316 257.694 17.9777 257.409 18.1852C257.124 18.3911 256.971 18.6975 256.95 19.1043C256.928 19.5128 257.047 19.8998 257.304 20.2688C257.559 20.6377 257.88 20.8798 258.263 20.9951C258.645 21.1104 258.983 21.0643 259.267 20.8584C259.552 20.6525 259.707 20.3462 259.728 19.9393C259.748 19.5325 259.626 19.1471 259.363 18.7815Z" fill="#EFBA8D"/>
</g>
</svg>
